G04 EAGLE Gerber RS-274X export*
G75*
%MOMM*%
%FSLAX34Y34*%
%LPD*%
%INTop Copper*%
%IPPOS*%
%AMOC8*
5,1,8,0,0,1.08239X$1,22.5*%
G01*
%ADD10R,0.800000X1.200000*%
%ADD11R,1.100000X1.000000*%
%ADD12C,0.200000*%
%ADD13R,2.000000X1.200000*%
%ADD14R,1.350000X0.600000*%
%ADD15C,1.879600*%
%ADD16R,1.300000X1.300000*%
%ADD17R,0.900000X0.800000*%
%ADD18R,0.600000X0.600000*%
%ADD19R,1.000000X1.100000*%
%ADD20R,1.050000X1.475000*%
%ADD21R,0.300000X1.000000*%
%ADD22R,0.296800X0.850000*%
%ADD23R,2.400000X1.650000*%
%ADD24R,0.700000X0.280000*%
%ADD25C,0.300000*%
%ADD26C,0.203200*%
%ADD27C,0.762000*%
%ADD28C,0.858000*%
%ADD29C,0.254000*%
%ADD30C,0.406400*%
%ADD31C,0.304800*%

G36*
X378010Y2041D02*
X378010Y2041D01*
X378068Y2039D01*
X378150Y2061D01*
X378234Y2073D01*
X378287Y2096D01*
X378343Y2111D01*
X378416Y2154D01*
X378493Y2189D01*
X378538Y2227D01*
X378588Y2256D01*
X378646Y2318D01*
X378710Y2372D01*
X378742Y2421D01*
X378782Y2464D01*
X378821Y2539D01*
X378868Y2609D01*
X378885Y2665D01*
X378912Y2717D01*
X378923Y2785D01*
X378953Y2880D01*
X378956Y2980D01*
X378967Y3048D01*
X378967Y128052D01*
X378959Y128110D01*
X378961Y128168D01*
X378939Y128250D01*
X378927Y128334D01*
X378904Y128387D01*
X378889Y128443D01*
X378846Y128516D01*
X378811Y128593D01*
X378773Y128638D01*
X378744Y128688D01*
X378682Y128746D01*
X378628Y128810D01*
X378579Y128842D01*
X378536Y128882D01*
X378461Y128921D01*
X378391Y128968D01*
X378335Y128985D01*
X378283Y129012D01*
X378215Y129023D01*
X378120Y129053D01*
X378020Y129056D01*
X377952Y129067D01*
X356108Y129067D01*
X354917Y130258D01*
X354917Y138448D01*
X354913Y138477D01*
X354916Y138507D01*
X354893Y138618D01*
X354877Y138730D01*
X354865Y138757D01*
X354860Y138785D01*
X354808Y138886D01*
X354761Y138989D01*
X354742Y139012D01*
X354729Y139038D01*
X354651Y139120D01*
X354578Y139206D01*
X354553Y139223D01*
X354533Y139244D01*
X354435Y139301D01*
X354341Y139364D01*
X354313Y139373D01*
X354288Y139388D01*
X354178Y139415D01*
X354070Y139450D01*
X354040Y139450D01*
X354012Y139458D01*
X353899Y139454D01*
X353786Y139457D01*
X353757Y139450D01*
X353728Y139449D01*
X353620Y139414D01*
X353511Y139385D01*
X353485Y139370D01*
X353457Y139361D01*
X353394Y139316D01*
X353266Y139240D01*
X353223Y139194D01*
X353184Y139166D01*
X311835Y97817D01*
X307514Y97817D01*
X307427Y97805D01*
X307340Y97802D01*
X307287Y97785D01*
X307232Y97777D01*
X307153Y97742D01*
X307069Y97715D01*
X307030Y97687D01*
X306973Y97661D01*
X306860Y97565D01*
X306796Y97520D01*
X304859Y95583D01*
X302349Y94543D01*
X299631Y94543D01*
X297121Y95583D01*
X295199Y97505D01*
X294775Y98529D01*
X294716Y98628D01*
X294663Y98730D01*
X294644Y98750D01*
X294630Y98774D01*
X294547Y98853D01*
X294468Y98936D01*
X294444Y98950D01*
X294424Y98969D01*
X294321Y99022D01*
X294222Y99080D01*
X294196Y99087D01*
X294171Y99100D01*
X294058Y99122D01*
X293947Y99150D01*
X293919Y99149D01*
X293892Y99155D01*
X293777Y99145D01*
X293663Y99141D01*
X293636Y99133D01*
X293609Y99130D01*
X293501Y99089D01*
X293392Y99054D01*
X293372Y99039D01*
X293343Y99028D01*
X293131Y98867D01*
X293119Y98859D01*
X287064Y92804D01*
X284683Y90423D01*
X262832Y90423D01*
X262803Y90419D01*
X262774Y90422D01*
X262663Y90399D01*
X262551Y90383D01*
X262524Y90371D01*
X262495Y90366D01*
X262395Y90313D01*
X262292Y90267D01*
X262269Y90248D01*
X262243Y90235D01*
X262161Y90157D01*
X262075Y90084D01*
X262058Y90059D01*
X262037Y90039D01*
X261980Y89941D01*
X261917Y89847D01*
X261908Y89819D01*
X261893Y89794D01*
X261865Y89684D01*
X261831Y89576D01*
X261830Y89546D01*
X261823Y89518D01*
X261827Y89405D01*
X261824Y89292D01*
X261831Y89263D01*
X261832Y89234D01*
X261867Y89126D01*
X261896Y89017D01*
X261911Y88991D01*
X261920Y88963D01*
X261965Y88899D01*
X262041Y88772D01*
X262087Y88729D01*
X262115Y88690D01*
X262413Y88392D01*
X262413Y87122D01*
X262421Y87064D01*
X262419Y87006D01*
X262441Y86924D01*
X262453Y86840D01*
X262476Y86787D01*
X262491Y86731D01*
X262534Y86658D01*
X262569Y86581D01*
X262607Y86536D01*
X262636Y86486D01*
X262698Y86428D01*
X262752Y86364D01*
X262801Y86332D01*
X262844Y86292D01*
X262919Y86253D01*
X262989Y86206D01*
X263045Y86189D01*
X263097Y86162D01*
X263165Y86151D01*
X263260Y86121D01*
X263360Y86118D01*
X263428Y86107D01*
X311796Y86107D01*
X311883Y86119D01*
X311970Y86122D01*
X312023Y86139D01*
X312078Y86147D01*
X312158Y86182D01*
X312241Y86209D01*
X312280Y86237D01*
X312337Y86263D01*
X312450Y86359D01*
X312514Y86404D01*
X312912Y86802D01*
X312964Y86872D01*
X313024Y86936D01*
X313050Y86985D01*
X313083Y87029D01*
X313114Y87111D01*
X313154Y87189D01*
X313162Y87236D01*
X313184Y87295D01*
X313196Y87442D01*
X313209Y87520D01*
X313209Y90259D01*
X314249Y92769D01*
X316171Y94691D01*
X318681Y95731D01*
X321399Y95731D01*
X323909Y94691D01*
X325831Y92769D01*
X326871Y90259D01*
X326871Y87541D01*
X325831Y85031D01*
X323909Y83109D01*
X321399Y82069D01*
X318660Y82069D01*
X318573Y82057D01*
X318486Y82054D01*
X318433Y82037D01*
X318378Y82029D01*
X318298Y81994D01*
X318215Y81967D01*
X318176Y81939D01*
X318119Y81913D01*
X318006Y81817D01*
X317942Y81772D01*
X315163Y78993D01*
X293798Y78993D01*
X293769Y78989D01*
X293740Y78992D01*
X293629Y78969D01*
X293516Y78953D01*
X293490Y78941D01*
X293461Y78936D01*
X293360Y78883D01*
X293257Y78837D01*
X293235Y78818D01*
X293209Y78805D01*
X293126Y78727D01*
X293040Y78654D01*
X293024Y78629D01*
X293002Y78609D01*
X292945Y78511D01*
X292882Y78417D01*
X292873Y78389D01*
X292859Y78364D01*
X292831Y78254D01*
X292797Y78146D01*
X292796Y78116D01*
X292789Y78088D01*
X292792Y77975D01*
X292789Y77862D01*
X292797Y77833D01*
X292798Y77804D01*
X292833Y77696D01*
X292861Y77587D01*
X292876Y77561D01*
X292885Y77533D01*
X292931Y77469D01*
X293006Y77342D01*
X293052Y77299D01*
X293080Y77260D01*
X294081Y76259D01*
X295121Y73749D01*
X295121Y71031D01*
X294081Y68521D01*
X292159Y66599D01*
X289649Y65559D01*
X286910Y65559D01*
X286823Y65547D01*
X286736Y65544D01*
X286683Y65527D01*
X286628Y65519D01*
X286548Y65484D01*
X286465Y65457D01*
X286426Y65429D01*
X286369Y65403D01*
X286256Y65307D01*
X286192Y65262D01*
X260553Y39623D01*
X186044Y39623D01*
X185957Y39611D01*
X185870Y39608D01*
X185817Y39591D01*
X185762Y39583D01*
X185682Y39548D01*
X185599Y39521D01*
X185560Y39493D01*
X185503Y39467D01*
X185390Y39371D01*
X185326Y39326D01*
X183098Y37098D01*
X183029Y37006D01*
X182955Y36918D01*
X182943Y36893D01*
X182927Y36870D01*
X182886Y36763D01*
X182839Y36658D01*
X182835Y36631D01*
X182825Y36605D01*
X182816Y36490D01*
X182800Y36377D01*
X182804Y36349D01*
X182802Y36321D01*
X182824Y36209D01*
X182841Y36095D01*
X182852Y36070D01*
X182858Y36043D01*
X182911Y35941D01*
X182958Y35836D01*
X182976Y35815D01*
X182989Y35790D01*
X183068Y35707D01*
X183142Y35620D01*
X183163Y35607D01*
X183185Y35584D01*
X183414Y35450D01*
X183427Y35442D01*
X184275Y35091D01*
X187490Y31875D01*
X189231Y27674D01*
X189231Y23126D01*
X187490Y18925D01*
X184275Y15710D01*
X180074Y13969D01*
X175526Y13969D01*
X173235Y14918D01*
X173233Y14919D01*
X173232Y14920D01*
X173098Y14954D01*
X172959Y14989D01*
X172958Y14989D01*
X172956Y14990D01*
X172816Y14985D01*
X172675Y14981D01*
X172674Y14981D01*
X172672Y14981D01*
X172539Y14938D01*
X172405Y14895D01*
X172403Y14894D01*
X172402Y14893D01*
X172390Y14885D01*
X172168Y14736D01*
X172149Y14713D01*
X172128Y14698D01*
X168954Y11524D01*
X166573Y9143D01*
X142037Y9143D01*
X114553Y36627D01*
X114553Y41968D01*
X114549Y41997D01*
X114552Y42026D01*
X114529Y42137D01*
X114513Y42249D01*
X114501Y42276D01*
X114496Y42305D01*
X114443Y42405D01*
X114397Y42508D01*
X114378Y42531D01*
X114365Y42557D01*
X114287Y42639D01*
X114214Y42725D01*
X114189Y42742D01*
X114169Y42763D01*
X114071Y42820D01*
X113977Y42883D01*
X113949Y42892D01*
X113924Y42907D01*
X113814Y42935D01*
X113706Y42969D01*
X113676Y42970D01*
X113648Y42977D01*
X113535Y42973D01*
X113422Y42976D01*
X113393Y42969D01*
X113364Y42968D01*
X113256Y42933D01*
X113147Y42904D01*
X113121Y42889D01*
X113093Y42880D01*
X113029Y42835D01*
X112902Y42759D01*
X112859Y42713D01*
X112820Y42685D01*
X111362Y41227D01*
X109862Y41227D01*
X109804Y41219D01*
X109746Y41221D01*
X109664Y41199D01*
X109580Y41187D01*
X109527Y41164D01*
X109471Y41149D01*
X109398Y41106D01*
X109321Y41071D01*
X109276Y41033D01*
X109226Y41004D01*
X109168Y40942D01*
X109104Y40888D01*
X109072Y40839D01*
X109032Y40796D01*
X108993Y40721D01*
X108946Y40651D01*
X108929Y40595D01*
X108902Y40543D01*
X108891Y40475D01*
X108861Y40380D01*
X108858Y40280D01*
X108847Y40212D01*
X108847Y35988D01*
X108855Y35930D01*
X108853Y35872D01*
X108875Y35790D01*
X108887Y35706D01*
X108910Y35653D01*
X108925Y35597D01*
X108968Y35524D01*
X109003Y35447D01*
X109041Y35402D01*
X109070Y35352D01*
X109132Y35294D01*
X109186Y35230D01*
X109235Y35198D01*
X109278Y35158D01*
X109353Y35119D01*
X109423Y35072D01*
X109479Y35055D01*
X109531Y35028D01*
X109599Y35017D01*
X109694Y34987D01*
X109794Y34984D01*
X109862Y34973D01*
X110253Y34973D01*
X112323Y32903D01*
X112323Y22977D01*
X110253Y20907D01*
X100327Y20907D01*
X98257Y22977D01*
X98257Y32903D01*
X100327Y34973D01*
X100718Y34973D01*
X100776Y34981D01*
X100834Y34979D01*
X100916Y35001D01*
X101000Y35013D01*
X101053Y35036D01*
X101109Y35051D01*
X101182Y35094D01*
X101259Y35129D01*
X101304Y35167D01*
X101354Y35196D01*
X101412Y35258D01*
X101476Y35312D01*
X101508Y35361D01*
X101548Y35404D01*
X101587Y35479D01*
X101634Y35549D01*
X101651Y35605D01*
X101678Y35657D01*
X101689Y35725D01*
X101719Y35820D01*
X101722Y35920D01*
X101733Y35988D01*
X101733Y40212D01*
X101725Y40270D01*
X101727Y40328D01*
X101705Y40410D01*
X101693Y40494D01*
X101670Y40547D01*
X101655Y40603D01*
X101612Y40676D01*
X101577Y40753D01*
X101539Y40798D01*
X101510Y40848D01*
X101448Y40906D01*
X101394Y40970D01*
X101345Y41002D01*
X101302Y41042D01*
X101227Y41081D01*
X101157Y41128D01*
X101101Y41145D01*
X101049Y41172D01*
X100981Y41183D01*
X100886Y41213D01*
X100786Y41216D01*
X100718Y41227D01*
X98678Y41227D01*
X97238Y42667D01*
X97191Y42702D01*
X97151Y42745D01*
X97078Y42788D01*
X97011Y42838D01*
X96956Y42859D01*
X96906Y42889D01*
X96824Y42909D01*
X96745Y42940D01*
X96687Y42944D01*
X96630Y42959D01*
X96546Y42956D01*
X96462Y42963D01*
X96404Y42952D01*
X96346Y42950D01*
X96266Y42924D01*
X96183Y42907D01*
X96131Y42880D01*
X96075Y42862D01*
X96019Y42822D01*
X95931Y42776D01*
X95858Y42708D01*
X95802Y42667D01*
X94362Y41227D01*
X81678Y41227D01*
X80487Y42418D01*
X80487Y50342D01*
X80475Y50429D01*
X80472Y50516D01*
X80455Y50569D01*
X80447Y50624D01*
X80412Y50704D01*
X80385Y50787D01*
X80357Y50826D01*
X80331Y50883D01*
X80235Y50996D01*
X80190Y51060D01*
X70334Y60916D01*
X70264Y60968D01*
X70200Y61028D01*
X70151Y61054D01*
X70107Y61087D01*
X70025Y61118D01*
X69947Y61158D01*
X69900Y61166D01*
X69841Y61188D01*
X69694Y61200D01*
X69616Y61213D01*
X67484Y61213D01*
X67397Y61201D01*
X67310Y61198D01*
X67257Y61181D01*
X67202Y61173D01*
X67123Y61138D01*
X67039Y61111D01*
X67000Y61083D01*
X66943Y61057D01*
X66830Y60961D01*
X66766Y60916D01*
X64829Y58979D01*
X62319Y57939D01*
X59601Y57939D01*
X57091Y58979D01*
X55169Y60901D01*
X54129Y63411D01*
X54129Y66129D01*
X55194Y68699D01*
X55223Y68811D01*
X55257Y68920D01*
X55258Y68948D01*
X55265Y68975D01*
X55262Y69089D01*
X55265Y69204D01*
X55258Y69231D01*
X55257Y69259D01*
X55222Y69368D01*
X55193Y69479D01*
X55179Y69503D01*
X55170Y69530D01*
X55106Y69625D01*
X55048Y69724D01*
X55027Y69743D01*
X55012Y69766D01*
X54924Y69840D01*
X54840Y69918D01*
X54816Y69931D01*
X54794Y69949D01*
X54690Y69995D01*
X54587Y70048D01*
X54563Y70052D01*
X54535Y70064D01*
X54271Y70101D01*
X54256Y70103D01*
X45517Y70103D01*
X34543Y81077D01*
X34543Y106056D01*
X34531Y106143D01*
X34528Y106230D01*
X34511Y106283D01*
X34503Y106338D01*
X34468Y106417D01*
X34441Y106501D01*
X34413Y106540D01*
X34387Y106597D01*
X34292Y106710D01*
X34246Y106774D01*
X34166Y106854D01*
X34142Y106872D01*
X34123Y106894D01*
X34029Y106957D01*
X33939Y107025D01*
X33911Y107035D01*
X33887Y107052D01*
X33779Y107086D01*
X33673Y107126D01*
X33644Y107129D01*
X33616Y107138D01*
X33503Y107140D01*
X33390Y107150D01*
X33361Y107144D01*
X33332Y107145D01*
X33222Y107116D01*
X33111Y107094D01*
X33085Y107080D01*
X33057Y107073D01*
X32959Y107015D01*
X32859Y106963D01*
X32837Y106943D01*
X32812Y106928D01*
X32735Y106845D01*
X32653Y106767D01*
X32638Y106742D01*
X32618Y106720D01*
X32566Y106620D01*
X32509Y106522D01*
X32502Y106493D01*
X32488Y106467D01*
X32475Y106390D01*
X32439Y106247D01*
X32441Y106184D01*
X32433Y106136D01*
X32433Y93108D01*
X31242Y91917D01*
X29972Y91917D01*
X29914Y91909D01*
X29856Y91911D01*
X29774Y91889D01*
X29690Y91877D01*
X29637Y91854D01*
X29581Y91839D01*
X29508Y91796D01*
X29431Y91761D01*
X29386Y91723D01*
X29336Y91694D01*
X29278Y91632D01*
X29214Y91578D01*
X29182Y91529D01*
X29142Y91486D01*
X29103Y91411D01*
X29056Y91341D01*
X29039Y91285D01*
X29012Y91233D01*
X29001Y91165D01*
X28971Y91070D01*
X28968Y90970D01*
X28957Y90902D01*
X28957Y87427D01*
X26178Y84648D01*
X26126Y84578D01*
X26066Y84514D01*
X26040Y84465D01*
X26007Y84421D01*
X25976Y84339D01*
X25936Y84261D01*
X25928Y84214D01*
X25906Y84155D01*
X25894Y84008D01*
X25881Y83930D01*
X25881Y81191D01*
X24841Y78681D01*
X22919Y76759D01*
X20409Y75719D01*
X17691Y75719D01*
X15181Y76759D01*
X13259Y78681D01*
X12219Y81191D01*
X12219Y83909D01*
X13259Y86419D01*
X15181Y88341D01*
X17691Y89381D01*
X20430Y89381D01*
X20517Y89393D01*
X20604Y89396D01*
X20657Y89413D01*
X20712Y89421D01*
X20792Y89456D01*
X20875Y89483D01*
X20914Y89511D01*
X20971Y89537D01*
X21084Y89633D01*
X21148Y89678D01*
X21546Y90076D01*
X21598Y90146D01*
X21658Y90210D01*
X21684Y90259D01*
X21717Y90303D01*
X21748Y90385D01*
X21788Y90463D01*
X21796Y90510D01*
X21818Y90569D01*
X21830Y90716D01*
X21843Y90794D01*
X21843Y90902D01*
X21835Y90960D01*
X21837Y91018D01*
X21815Y91100D01*
X21803Y91184D01*
X21780Y91237D01*
X21765Y91293D01*
X21722Y91366D01*
X21687Y91443D01*
X21649Y91488D01*
X21620Y91538D01*
X21558Y91596D01*
X21504Y91660D01*
X21455Y91692D01*
X21412Y91732D01*
X21337Y91771D01*
X21267Y91818D01*
X21211Y91835D01*
X21159Y91862D01*
X21091Y91873D01*
X20996Y91903D01*
X20896Y91906D01*
X20828Y91917D01*
X19558Y91917D01*
X18367Y93108D01*
X18367Y105792D01*
X19807Y107232D01*
X19842Y107279D01*
X19885Y107319D01*
X19928Y107392D01*
X19978Y107459D01*
X19999Y107514D01*
X20029Y107564D01*
X20049Y107646D01*
X20080Y107725D01*
X20084Y107783D01*
X20099Y107840D01*
X20096Y107924D01*
X20103Y108008D01*
X20092Y108066D01*
X20090Y108124D01*
X20064Y108204D01*
X20047Y108287D01*
X20020Y108339D01*
X20002Y108395D01*
X19962Y108451D01*
X19916Y108539D01*
X19848Y108612D01*
X19807Y108668D01*
X18367Y110108D01*
X18367Y122792D01*
X19558Y123983D01*
X27482Y123983D01*
X27569Y123995D01*
X27656Y123998D01*
X27709Y124015D01*
X27764Y124023D01*
X27844Y124058D01*
X27927Y124085D01*
X27966Y124113D01*
X28023Y124139D01*
X28136Y124235D01*
X28200Y124280D01*
X38446Y134526D01*
X40827Y136907D01*
X42556Y136907D01*
X42643Y136919D01*
X42730Y136922D01*
X42783Y136939D01*
X42838Y136947D01*
X42918Y136982D01*
X43001Y137009D01*
X43040Y137037D01*
X43097Y137063D01*
X43210Y137159D01*
X43274Y137204D01*
X46946Y140876D01*
X46998Y140946D01*
X47058Y141010D01*
X47084Y141059D01*
X47117Y141103D01*
X47148Y141185D01*
X47188Y141263D01*
X47196Y141310D01*
X47218Y141369D01*
X47230Y141516D01*
X47243Y141594D01*
X47243Y144052D01*
X47235Y144110D01*
X47237Y144168D01*
X47215Y144250D01*
X47203Y144334D01*
X47180Y144387D01*
X47165Y144443D01*
X47122Y144516D01*
X47087Y144593D01*
X47049Y144638D01*
X47020Y144688D01*
X46958Y144746D01*
X46904Y144810D01*
X46855Y144842D01*
X46812Y144882D01*
X46737Y144921D01*
X46667Y144968D01*
X46611Y144985D01*
X46559Y145012D01*
X46491Y145023D01*
X46396Y145053D01*
X46296Y145056D01*
X46228Y145067D01*
X43208Y145067D01*
X42017Y146258D01*
X42017Y153942D01*
X42457Y154382D01*
X42492Y154429D01*
X42535Y154469D01*
X42578Y154542D01*
X42628Y154609D01*
X42649Y154664D01*
X42679Y154714D01*
X42700Y154796D01*
X42730Y154875D01*
X42734Y154933D01*
X42749Y154990D01*
X42746Y155074D01*
X42753Y155158D01*
X42742Y155216D01*
X42740Y155274D01*
X42714Y155354D01*
X42697Y155437D01*
X42670Y155489D01*
X42652Y155545D01*
X42612Y155601D01*
X42566Y155689D01*
X42498Y155762D01*
X42457Y155818D01*
X42017Y156258D01*
X42017Y163991D01*
X42040Y164021D01*
X42051Y164049D01*
X42067Y164073D01*
X42101Y164181D01*
X42142Y164287D01*
X42144Y164316D01*
X42153Y164344D01*
X42156Y164457D01*
X42165Y164570D01*
X42159Y164599D01*
X42160Y164628D01*
X42132Y164738D01*
X42109Y164849D01*
X42096Y164875D01*
X42088Y164903D01*
X42031Y165001D01*
X41978Y165101D01*
X41958Y165123D01*
X41943Y165148D01*
X41861Y165225D01*
X41783Y165307D01*
X41757Y165322D01*
X41736Y165342D01*
X41635Y165394D01*
X41537Y165451D01*
X41509Y165458D01*
X41483Y165472D01*
X41405Y165485D01*
X41262Y165521D01*
X41199Y165519D01*
X41152Y165527D01*
X33246Y165527D01*
X33188Y165519D01*
X33130Y165521D01*
X33048Y165499D01*
X32964Y165487D01*
X32911Y165464D01*
X32855Y165449D01*
X32782Y165406D01*
X32705Y165371D01*
X32660Y165333D01*
X32610Y165304D01*
X32552Y165242D01*
X32488Y165188D01*
X32456Y165139D01*
X32416Y165096D01*
X32377Y165021D01*
X32330Y164951D01*
X32313Y164895D01*
X32286Y164843D01*
X32275Y164775D01*
X32245Y164680D01*
X32242Y164580D01*
X32231Y164512D01*
X32231Y163741D01*
X31191Y161231D01*
X29269Y159309D01*
X26759Y158269D01*
X24041Y158269D01*
X21531Y159309D01*
X19609Y161231D01*
X18569Y163741D01*
X18569Y166459D01*
X19609Y168969D01*
X21531Y170891D01*
X24041Y171931D01*
X25343Y171931D01*
X25430Y171943D01*
X25517Y171946D01*
X25570Y171963D01*
X25625Y171971D01*
X25705Y172006D01*
X25788Y172033D01*
X25827Y172061D01*
X25884Y172087D01*
X25998Y172183D01*
X26061Y172228D01*
X28506Y174673D01*
X40759Y174673D01*
X40798Y174678D01*
X40837Y174676D01*
X40938Y174698D01*
X41041Y174713D01*
X41076Y174729D01*
X41115Y174737D01*
X41206Y174786D01*
X41300Y174829D01*
X41330Y174854D01*
X41364Y174873D01*
X41438Y174946D01*
X41517Y175012D01*
X41539Y175045D01*
X41567Y175073D01*
X41617Y175163D01*
X41675Y175249D01*
X41686Y175286D01*
X41706Y175321D01*
X41729Y175421D01*
X41760Y175520D01*
X41761Y175559D01*
X41770Y175597D01*
X41765Y175701D01*
X41768Y175804D01*
X41758Y175842D01*
X41756Y175881D01*
X41729Y175954D01*
X41696Y176079D01*
X41691Y176088D01*
X41509Y176766D01*
X41509Y178601D01*
X50316Y178601D01*
X50374Y178609D01*
X50432Y178607D01*
X50514Y178629D01*
X50597Y178641D01*
X50651Y178664D01*
X50707Y178679D01*
X50780Y178722D01*
X50799Y178731D01*
X50845Y178700D01*
X50901Y178683D01*
X50953Y178656D01*
X51021Y178645D01*
X51116Y178615D01*
X51216Y178612D01*
X51284Y178601D01*
X60091Y178601D01*
X60091Y176766D01*
X59918Y176119D01*
X59583Y175540D01*
X59502Y175459D01*
X59467Y175412D01*
X59424Y175372D01*
X59382Y175299D01*
X59331Y175232D01*
X59310Y175177D01*
X59280Y175126D01*
X59260Y175045D01*
X59230Y174966D01*
X59225Y174908D01*
X59210Y174851D01*
X59213Y174767D01*
X59206Y174683D01*
X59218Y174625D01*
X59219Y174567D01*
X59245Y174487D01*
X59262Y174404D01*
X59289Y174352D01*
X59307Y174296D01*
X59347Y174240D01*
X59393Y174152D01*
X59462Y174079D01*
X59502Y174023D01*
X59583Y173942D01*
X59583Y166258D01*
X59143Y165818D01*
X59107Y165771D01*
X59065Y165731D01*
X59022Y165658D01*
X58972Y165591D01*
X58951Y165536D01*
X58921Y165486D01*
X58901Y165404D01*
X58870Y165325D01*
X58866Y165267D01*
X58851Y165210D01*
X58854Y165126D01*
X58847Y165042D01*
X58858Y164984D01*
X58860Y164926D01*
X58886Y164846D01*
X58903Y164763D01*
X58930Y164711D01*
X58948Y164655D01*
X58988Y164599D01*
X59034Y164511D01*
X59103Y164438D01*
X59143Y164382D01*
X59583Y163942D01*
X59583Y161768D01*
X59595Y161681D01*
X59598Y161594D01*
X59615Y161541D01*
X59623Y161486D01*
X59658Y161406D01*
X59685Y161323D01*
X59713Y161284D01*
X59739Y161227D01*
X59835Y161114D01*
X59880Y161050D01*
X67057Y153873D01*
X67057Y127677D01*
X61120Y121740D01*
X61102Y121716D01*
X61080Y121697D01*
X61017Y121603D01*
X60949Y121513D01*
X60939Y121485D01*
X60922Y121461D01*
X60888Y121353D01*
X60848Y121247D01*
X60845Y121218D01*
X60836Y121190D01*
X60834Y121076D01*
X60824Y120964D01*
X60830Y120935D01*
X60829Y120906D01*
X60858Y120796D01*
X60880Y120685D01*
X60894Y120659D01*
X60901Y120631D01*
X60959Y120533D01*
X61011Y120433D01*
X61031Y120411D01*
X61046Y120386D01*
X61129Y120309D01*
X61207Y120227D01*
X61232Y120212D01*
X61254Y120192D01*
X61354Y120140D01*
X61452Y120083D01*
X61481Y120076D01*
X61507Y120062D01*
X61584Y120049D01*
X61728Y120013D01*
X61790Y120015D01*
X61838Y120007D01*
X93303Y120007D01*
X102534Y110776D01*
X102558Y110758D01*
X102577Y110736D01*
X102671Y110673D01*
X102761Y110605D01*
X102789Y110595D01*
X102813Y110578D01*
X102921Y110544D01*
X103027Y110504D01*
X103056Y110501D01*
X103084Y110492D01*
X103198Y110490D01*
X103310Y110480D01*
X103339Y110486D01*
X103368Y110485D01*
X103478Y110514D01*
X103589Y110536D01*
X103615Y110550D01*
X103643Y110557D01*
X103741Y110615D01*
X103841Y110667D01*
X103863Y110687D01*
X103888Y110702D01*
X103965Y110785D01*
X104047Y110863D01*
X104062Y110888D01*
X104082Y110910D01*
X104134Y111010D01*
X104191Y111108D01*
X104198Y111137D01*
X104212Y111163D01*
X104225Y111240D01*
X104261Y111384D01*
X104259Y111446D01*
X104267Y111494D01*
X104267Y111792D01*
X105366Y112891D01*
X105418Y112960D01*
X105478Y113024D01*
X105504Y113074D01*
X105537Y113118D01*
X105568Y113200D01*
X105608Y113277D01*
X105616Y113325D01*
X105638Y113383D01*
X105650Y113531D01*
X105663Y113609D01*
X105663Y117974D01*
X105647Y118088D01*
X105637Y118202D01*
X105627Y118228D01*
X105623Y118256D01*
X105576Y118361D01*
X105535Y118468D01*
X105519Y118490D01*
X105507Y118515D01*
X105433Y118603D01*
X105364Y118694D01*
X105341Y118711D01*
X105324Y118732D01*
X105228Y118796D01*
X105136Y118864D01*
X105110Y118874D01*
X105087Y118890D01*
X104977Y118924D01*
X104870Y118965D01*
X104842Y118967D01*
X104816Y118975D01*
X104701Y118978D01*
X104586Y118987D01*
X104562Y118982D01*
X104532Y118983D01*
X104274Y118915D01*
X104259Y118912D01*
X104229Y118899D01*
X101511Y118899D01*
X99001Y119939D01*
X97079Y121861D01*
X96039Y124371D01*
X96039Y127089D01*
X97114Y129683D01*
X97135Y129711D01*
X97145Y129738D01*
X97162Y129763D01*
X97196Y129871D01*
X97236Y129976D01*
X97238Y130006D01*
X97247Y130034D01*
X97250Y130147D01*
X97260Y130260D01*
X97254Y130289D01*
X97255Y130318D01*
X97226Y130428D01*
X97204Y130538D01*
X97190Y130565D01*
X97183Y130593D01*
X97125Y130690D01*
X97073Y130791D01*
X97053Y130812D01*
X97038Y130838D01*
X96955Y130915D01*
X96877Y130997D01*
X96852Y131012D01*
X96830Y131032D01*
X96730Y131084D01*
X96632Y131141D01*
X96604Y131148D01*
X96577Y131162D01*
X96500Y131175D01*
X96357Y131211D01*
X96294Y131209D01*
X96246Y131217D01*
X89258Y131217D01*
X88067Y132408D01*
X88067Y144092D01*
X89258Y145283D01*
X97028Y145283D01*
X97086Y145291D01*
X97144Y145289D01*
X97226Y145311D01*
X97310Y145323D01*
X97363Y145346D01*
X97419Y145361D01*
X97492Y145404D01*
X97569Y145439D01*
X97614Y145477D01*
X97664Y145506D01*
X97722Y145568D01*
X97786Y145622D01*
X97818Y145671D01*
X97858Y145714D01*
X97897Y145789D01*
X97944Y145859D01*
X97961Y145915D01*
X97988Y145967D01*
X97999Y146035D01*
X98029Y146130D01*
X98032Y146230D01*
X98043Y146298D01*
X98043Y151333D01*
X106477Y159767D01*
X138938Y159767D01*
X138996Y159775D01*
X139054Y159773D01*
X139136Y159795D01*
X139220Y159807D01*
X139273Y159830D01*
X139329Y159845D01*
X139402Y159888D01*
X139479Y159923D01*
X139524Y159961D01*
X139574Y159990D01*
X139632Y160052D01*
X139696Y160106D01*
X139728Y160155D01*
X139768Y160198D01*
X139807Y160273D01*
X139854Y160343D01*
X139871Y160399D01*
X139898Y160451D01*
X139909Y160519D01*
X139939Y160614D01*
X139942Y160714D01*
X139953Y160782D01*
X139953Y162386D01*
X139941Y162473D01*
X139938Y162560D01*
X139921Y162613D01*
X139913Y162668D01*
X139878Y162747D01*
X139851Y162831D01*
X139823Y162870D01*
X139797Y162927D01*
X139701Y163040D01*
X139656Y163104D01*
X137719Y165041D01*
X136679Y167551D01*
X136679Y170269D01*
X137719Y172779D01*
X138900Y173960D01*
X138918Y173984D01*
X138940Y174003D01*
X139003Y174097D01*
X139071Y174187D01*
X139081Y174215D01*
X139098Y174239D01*
X139132Y174347D01*
X139172Y174453D01*
X139175Y174482D01*
X139183Y174510D01*
X139186Y174624D01*
X139196Y174736D01*
X139190Y174765D01*
X139191Y174794D01*
X139162Y174904D01*
X139140Y175015D01*
X139126Y175041D01*
X139119Y175069D01*
X139061Y175167D01*
X139009Y175267D01*
X138989Y175289D01*
X138974Y175314D01*
X138891Y175391D01*
X138813Y175473D01*
X138788Y175488D01*
X138766Y175508D01*
X138665Y175560D01*
X138568Y175617D01*
X138539Y175624D01*
X138513Y175638D01*
X138436Y175651D01*
X138292Y175687D01*
X138230Y175685D01*
X138182Y175693D01*
X116148Y175693D01*
X116090Y175685D01*
X116032Y175687D01*
X115950Y175665D01*
X115866Y175653D01*
X115813Y175630D01*
X115757Y175615D01*
X115684Y175572D01*
X115607Y175537D01*
X115562Y175499D01*
X115512Y175470D01*
X115454Y175408D01*
X115390Y175354D01*
X115358Y175305D01*
X115318Y175262D01*
X115279Y175187D01*
X115232Y175117D01*
X115215Y175061D01*
X115188Y175009D01*
X115177Y174941D01*
X115147Y174846D01*
X115144Y174746D01*
X115133Y174678D01*
X115133Y173408D01*
X113942Y172217D01*
X111172Y172217D01*
X111114Y172209D01*
X111056Y172211D01*
X110974Y172189D01*
X110890Y172177D01*
X110837Y172154D01*
X110781Y172139D01*
X110708Y172096D01*
X110631Y172061D01*
X110586Y172023D01*
X110536Y171994D01*
X110478Y171932D01*
X110414Y171878D01*
X110382Y171829D01*
X110342Y171786D01*
X110303Y171711D01*
X110256Y171641D01*
X110239Y171585D01*
X110212Y171533D01*
X110201Y171465D01*
X110171Y171370D01*
X110168Y171270D01*
X110157Y171202D01*
X110157Y167357D01*
X100533Y157733D01*
X86984Y157733D01*
X86897Y157721D01*
X86810Y157718D01*
X86757Y157701D01*
X86702Y157693D01*
X86622Y157658D01*
X86539Y157631D01*
X86500Y157603D01*
X86443Y157577D01*
X86330Y157481D01*
X86266Y157436D01*
X82594Y153764D01*
X82542Y153694D01*
X82482Y153630D01*
X82456Y153581D01*
X82423Y153537D01*
X82392Y153455D01*
X82352Y153377D01*
X82344Y153330D01*
X82322Y153271D01*
X82310Y153124D01*
X82297Y153046D01*
X82297Y138604D01*
X82309Y138517D01*
X82312Y138430D01*
X82329Y138377D01*
X82337Y138322D01*
X82372Y138243D01*
X82399Y138159D01*
X82427Y138120D01*
X82453Y138063D01*
X82549Y137950D01*
X82594Y137886D01*
X84531Y135949D01*
X85571Y133439D01*
X85571Y130721D01*
X84531Y128211D01*
X82609Y126289D01*
X80099Y125249D01*
X77381Y125249D01*
X74871Y126289D01*
X72949Y128211D01*
X71909Y130721D01*
X71909Y133439D01*
X72949Y135949D01*
X74886Y137886D01*
X74938Y137956D01*
X74998Y138020D01*
X75024Y138069D01*
X75057Y138113D01*
X75088Y138195D01*
X75128Y138273D01*
X75136Y138320D01*
X75158Y138379D01*
X75170Y138527D01*
X75183Y138604D01*
X75183Y156413D01*
X83617Y164847D01*
X97166Y164847D01*
X97253Y164859D01*
X97340Y164862D01*
X97393Y164879D01*
X97448Y164887D01*
X97528Y164922D01*
X97611Y164949D01*
X97650Y164977D01*
X97707Y165003D01*
X97820Y165099D01*
X97884Y165144D01*
X102716Y169976D01*
X102734Y170000D01*
X102756Y170019D01*
X102819Y170113D01*
X102887Y170203D01*
X102897Y170231D01*
X102914Y170255D01*
X102948Y170363D01*
X102988Y170469D01*
X102991Y170498D01*
X103000Y170526D01*
X103002Y170640D01*
X103012Y170752D01*
X103006Y170781D01*
X103007Y170810D01*
X102978Y170920D01*
X102956Y171031D01*
X102942Y171057D01*
X102935Y171085D01*
X102877Y171183D01*
X102825Y171283D01*
X102805Y171305D01*
X102790Y171330D01*
X102707Y171407D01*
X102629Y171489D01*
X102615Y171498D01*
X102615Y179250D01*
X102615Y186791D01*
X103434Y186791D01*
X104081Y186618D01*
X104425Y186419D01*
X104515Y186382D01*
X104602Y186338D01*
X104641Y186332D01*
X104689Y186312D01*
X104860Y186295D01*
X104933Y186283D01*
X113942Y186283D01*
X115133Y185092D01*
X115133Y183822D01*
X115141Y183764D01*
X115139Y183706D01*
X115161Y183624D01*
X115173Y183540D01*
X115196Y183487D01*
X115211Y183431D01*
X115254Y183358D01*
X115289Y183281D01*
X115327Y183236D01*
X115356Y183186D01*
X115418Y183128D01*
X115472Y183064D01*
X115521Y183032D01*
X115564Y182992D01*
X115639Y182953D01*
X115709Y182906D01*
X115765Y182889D01*
X115817Y182862D01*
X115885Y182851D01*
X115980Y182821D01*
X116080Y182818D01*
X116148Y182807D01*
X158773Y182807D01*
X171356Y170224D01*
X171426Y170172D01*
X171490Y170112D01*
X171539Y170086D01*
X171583Y170053D01*
X171665Y170022D01*
X171743Y169982D01*
X171790Y169974D01*
X171849Y169952D01*
X171996Y169940D01*
X172074Y169927D01*
X172598Y169927D01*
X172627Y169931D01*
X172656Y169928D01*
X172767Y169951D01*
X172879Y169967D01*
X172906Y169979D01*
X172935Y169984D01*
X173035Y170037D01*
X173138Y170083D01*
X173161Y170102D01*
X173187Y170115D01*
X173269Y170193D01*
X173355Y170266D01*
X173372Y170291D01*
X173393Y170311D01*
X173450Y170409D01*
X173513Y170503D01*
X173522Y170531D01*
X173537Y170556D01*
X173565Y170666D01*
X173599Y170774D01*
X173600Y170804D01*
X173607Y170832D01*
X173603Y170945D01*
X173606Y171058D01*
X173599Y171087D01*
X173598Y171116D01*
X173563Y171224D01*
X173534Y171333D01*
X173519Y171359D01*
X173510Y171387D01*
X173465Y171451D01*
X173389Y171578D01*
X173343Y171621D01*
X173315Y171660D01*
X171967Y173008D01*
X171967Y189442D01*
X173158Y190633D01*
X173228Y190633D01*
X173286Y190641D01*
X173344Y190639D01*
X173426Y190661D01*
X173510Y190673D01*
X173563Y190696D01*
X173619Y190711D01*
X173692Y190754D01*
X173769Y190789D01*
X173814Y190827D01*
X173864Y190856D01*
X173922Y190918D01*
X173986Y190972D01*
X174018Y191021D01*
X174058Y191064D01*
X174097Y191139D01*
X174144Y191209D01*
X174161Y191265D01*
X174188Y191317D01*
X174199Y191385D01*
X174229Y191480D01*
X174232Y191580D01*
X174243Y191648D01*
X174243Y211328D01*
X174235Y211386D01*
X174237Y211444D01*
X174215Y211526D01*
X174203Y211610D01*
X174180Y211663D01*
X174165Y211719D01*
X174122Y211792D01*
X174087Y211869D01*
X174049Y211914D01*
X174020Y211964D01*
X173958Y212022D01*
X173904Y212086D01*
X173855Y212118D01*
X173812Y212158D01*
X173737Y212197D01*
X173667Y212244D01*
X173611Y212261D01*
X173559Y212288D01*
X173491Y212299D01*
X173396Y212329D01*
X173296Y212332D01*
X173228Y212343D01*
X118734Y212343D01*
X118647Y212331D01*
X118560Y212328D01*
X118507Y212311D01*
X118452Y212303D01*
X118372Y212268D01*
X118289Y212241D01*
X118250Y212213D01*
X118193Y212187D01*
X118080Y212091D01*
X118016Y212046D01*
X100454Y194484D01*
X100402Y194414D01*
X100342Y194350D01*
X100316Y194301D01*
X100283Y194257D01*
X100252Y194175D01*
X100212Y194097D01*
X100204Y194050D01*
X100182Y193991D01*
X100170Y193844D01*
X100157Y193766D01*
X100157Y187806D01*
X100165Y187751D01*
X100163Y187707D01*
X100164Y187706D01*
X100163Y187690D01*
X100185Y187608D01*
X100197Y187524D01*
X100220Y187471D01*
X100235Y187415D01*
X100278Y187342D01*
X100313Y187265D01*
X100351Y187220D01*
X100380Y187170D01*
X100442Y187112D01*
X100496Y187048D01*
X100545Y187016D01*
X100585Y186979D01*
X100585Y179250D01*
X100585Y171709D01*
X99766Y171709D01*
X99119Y171882D01*
X98775Y172081D01*
X98685Y172118D01*
X98598Y172162D01*
X98559Y172168D01*
X98511Y172188D01*
X98340Y172205D01*
X98267Y172217D01*
X89258Y172217D01*
X88067Y173408D01*
X88067Y185092D01*
X89258Y186283D01*
X92028Y186283D01*
X92086Y186291D01*
X92144Y186289D01*
X92226Y186311D01*
X92310Y186323D01*
X92363Y186346D01*
X92419Y186361D01*
X92492Y186404D01*
X92569Y186439D01*
X92614Y186477D01*
X92664Y186506D01*
X92722Y186568D01*
X92786Y186622D01*
X92818Y186671D01*
X92858Y186714D01*
X92897Y186789D01*
X92944Y186859D01*
X92961Y186915D01*
X92988Y186967D01*
X92999Y187035D01*
X93029Y187130D01*
X93032Y187230D01*
X93043Y187298D01*
X93043Y193606D01*
X93031Y193693D01*
X93028Y193780D01*
X93011Y193833D01*
X93003Y193888D01*
X92968Y193968D01*
X92963Y193981D01*
X92963Y197053D01*
X95344Y199434D01*
X115367Y219457D01*
X173452Y219457D01*
X173510Y219465D01*
X173568Y219463D01*
X173650Y219485D01*
X173734Y219497D01*
X173787Y219520D01*
X173843Y219535D01*
X173916Y219578D01*
X173993Y219613D01*
X174038Y219651D01*
X174088Y219680D01*
X174146Y219742D01*
X174210Y219796D01*
X174242Y219845D01*
X174282Y219888D01*
X174321Y219963D01*
X174368Y220033D01*
X174385Y220089D01*
X174412Y220141D01*
X174423Y220209D01*
X174453Y220304D01*
X174456Y220404D01*
X174467Y220472D01*
X174467Y221742D01*
X174962Y222237D01*
X175014Y222306D01*
X175074Y222370D01*
X175100Y222420D01*
X175133Y222464D01*
X175164Y222546D01*
X175204Y222623D01*
X175212Y222671D01*
X175234Y222729D01*
X175246Y222877D01*
X175259Y222955D01*
X175259Y228558D01*
X175259Y228559D01*
X175259Y228561D01*
X175239Y228701D01*
X175219Y228839D01*
X175219Y228840D01*
X175219Y228842D01*
X175162Y228968D01*
X175103Y229098D01*
X175102Y229100D01*
X175101Y229101D01*
X175010Y229208D01*
X174920Y229315D01*
X174918Y229316D01*
X174917Y229318D01*
X174904Y229326D01*
X174683Y229473D01*
X174654Y229482D01*
X174633Y229496D01*
X172595Y230340D01*
X169380Y233555D01*
X167639Y237756D01*
X167639Y242304D01*
X169380Y246505D01*
X172595Y249721D01*
X176370Y251284D01*
X176444Y251328D01*
X176522Y251363D01*
X176566Y251400D01*
X176615Y251429D01*
X176674Y251491D01*
X176739Y251547D01*
X176771Y251594D01*
X176810Y251635D01*
X176849Y251712D01*
X176897Y251783D01*
X176914Y251837D01*
X176940Y251888D01*
X176957Y251972D01*
X176983Y252054D01*
X176984Y252111D01*
X176995Y252167D01*
X176988Y252252D01*
X176990Y252338D01*
X176975Y252393D01*
X176971Y252450D01*
X176940Y252530D01*
X176918Y252613D01*
X176889Y252662D01*
X176869Y252715D01*
X176817Y252784D01*
X176773Y252858D01*
X176731Y252897D01*
X176697Y252942D01*
X176628Y252994D01*
X176565Y253052D01*
X176515Y253078D01*
X176469Y253112D01*
X176389Y253143D01*
X176312Y253182D01*
X176264Y253190D01*
X176203Y253213D01*
X176059Y253224D01*
X175981Y253237D01*
X3048Y253237D01*
X2990Y253229D01*
X2932Y253231D01*
X2850Y253209D01*
X2766Y253197D01*
X2713Y253174D01*
X2657Y253159D01*
X2584Y253116D01*
X2507Y253081D01*
X2462Y253043D01*
X2412Y253014D01*
X2354Y252952D01*
X2290Y252898D01*
X2258Y252849D01*
X2218Y252806D01*
X2179Y252731D01*
X2132Y252661D01*
X2115Y252605D01*
X2088Y252553D01*
X2077Y252485D01*
X2047Y252390D01*
X2044Y252290D01*
X2033Y252222D01*
X2033Y202148D01*
X2041Y202090D01*
X2039Y202032D01*
X2061Y201950D01*
X2073Y201866D01*
X2096Y201813D01*
X2111Y201757D01*
X2154Y201684D01*
X2189Y201607D01*
X2227Y201562D01*
X2256Y201512D01*
X2318Y201454D01*
X2372Y201390D01*
X2421Y201358D01*
X2464Y201318D01*
X2539Y201279D01*
X2609Y201232D01*
X2665Y201215D01*
X2717Y201188D01*
X2785Y201177D01*
X2880Y201147D01*
X2980Y201144D01*
X3048Y201133D01*
X24892Y201133D01*
X26083Y199942D01*
X26083Y186258D01*
X24892Y185067D01*
X3048Y185067D01*
X2990Y185059D01*
X2932Y185061D01*
X2850Y185039D01*
X2766Y185027D01*
X2713Y185004D01*
X2657Y184989D01*
X2584Y184946D01*
X2507Y184911D01*
X2462Y184873D01*
X2412Y184844D01*
X2354Y184782D01*
X2290Y184728D01*
X2258Y184679D01*
X2218Y184636D01*
X2179Y184561D01*
X2132Y184491D01*
X2115Y184435D01*
X2088Y184383D01*
X2077Y184315D01*
X2047Y184220D01*
X2044Y184120D01*
X2033Y184052D01*
X2033Y146148D01*
X2040Y146098D01*
X2039Y146082D01*
X2041Y146077D01*
X2039Y146032D01*
X2061Y145950D01*
X2073Y145866D01*
X2096Y145813D01*
X2111Y145757D01*
X2154Y145684D01*
X2189Y145607D01*
X2227Y145562D01*
X2256Y145512D01*
X2318Y145454D01*
X2372Y145390D01*
X2421Y145358D01*
X2464Y145318D01*
X2539Y145279D01*
X2609Y145232D01*
X2665Y145215D01*
X2717Y145188D01*
X2785Y145177D01*
X2880Y145147D01*
X2980Y145144D01*
X3048Y145133D01*
X24892Y145133D01*
X26083Y143942D01*
X26083Y130258D01*
X24892Y129067D01*
X3048Y129067D01*
X2990Y129059D01*
X2932Y129061D01*
X2850Y129039D01*
X2766Y129027D01*
X2713Y129004D01*
X2657Y128989D01*
X2584Y128946D01*
X2507Y128911D01*
X2462Y128873D01*
X2412Y128844D01*
X2354Y128782D01*
X2290Y128728D01*
X2258Y128679D01*
X2218Y128636D01*
X2179Y128561D01*
X2132Y128491D01*
X2115Y128435D01*
X2088Y128383D01*
X2077Y128315D01*
X2047Y128220D01*
X2044Y128120D01*
X2033Y128052D01*
X2033Y3048D01*
X2041Y2990D01*
X2039Y2932D01*
X2061Y2850D01*
X2073Y2766D01*
X2096Y2713D01*
X2111Y2657D01*
X2154Y2584D01*
X2189Y2507D01*
X2227Y2462D01*
X2256Y2412D01*
X2318Y2354D01*
X2372Y2290D01*
X2421Y2258D01*
X2464Y2218D01*
X2539Y2179D01*
X2609Y2132D01*
X2665Y2115D01*
X2717Y2088D01*
X2785Y2077D01*
X2880Y2047D01*
X2980Y2044D01*
X3048Y2033D01*
X377952Y2033D01*
X378010Y2041D01*
G37*
G36*
X378010Y145141D02*
X378010Y145141D01*
X378068Y145139D01*
X378150Y145161D01*
X378234Y145173D01*
X378287Y145196D01*
X378343Y145211D01*
X378416Y145254D01*
X378493Y145289D01*
X378538Y145327D01*
X378588Y145356D01*
X378646Y145418D01*
X378710Y145472D01*
X378742Y145521D01*
X378782Y145564D01*
X378821Y145639D01*
X378868Y145709D01*
X378885Y145765D01*
X378912Y145817D01*
X378923Y145885D01*
X378953Y145980D01*
X378956Y146080D01*
X378967Y146148D01*
X378967Y184052D01*
X378959Y184110D01*
X378961Y184168D01*
X378939Y184250D01*
X378927Y184334D01*
X378904Y184387D01*
X378889Y184443D01*
X378846Y184516D01*
X378811Y184593D01*
X378773Y184638D01*
X378744Y184688D01*
X378682Y184746D01*
X378628Y184810D01*
X378579Y184842D01*
X378536Y184882D01*
X378461Y184921D01*
X378391Y184968D01*
X378335Y184985D01*
X378283Y185012D01*
X378215Y185023D01*
X378120Y185053D01*
X378020Y185056D01*
X377952Y185067D01*
X356108Y185067D01*
X354917Y186258D01*
X354917Y199942D01*
X356108Y201133D01*
X377952Y201133D01*
X378010Y201141D01*
X378068Y201139D01*
X378150Y201161D01*
X378234Y201173D01*
X378287Y201196D01*
X378343Y201211D01*
X378416Y201254D01*
X378493Y201289D01*
X378538Y201327D01*
X378588Y201356D01*
X378646Y201418D01*
X378710Y201472D01*
X378742Y201521D01*
X378782Y201564D01*
X378821Y201639D01*
X378868Y201709D01*
X378885Y201765D01*
X378912Y201817D01*
X378923Y201885D01*
X378953Y201980D01*
X378956Y202080D01*
X378967Y202148D01*
X378967Y252222D01*
X378959Y252280D01*
X378961Y252338D01*
X378939Y252420D01*
X378927Y252504D01*
X378904Y252557D01*
X378889Y252613D01*
X378846Y252686D01*
X378811Y252763D01*
X378773Y252808D01*
X378744Y252858D01*
X378682Y252916D01*
X378628Y252980D01*
X378579Y253012D01*
X378536Y253052D01*
X378461Y253091D01*
X378391Y253138D01*
X378335Y253155D01*
X378283Y253182D01*
X378215Y253193D01*
X378120Y253223D01*
X378020Y253226D01*
X377952Y253237D01*
X212677Y253237D01*
X212553Y253220D01*
X212428Y253206D01*
X212412Y253200D01*
X212395Y253197D01*
X212281Y253146D01*
X212165Y253099D01*
X212151Y253088D01*
X212136Y253081D01*
X212040Y253000D01*
X211942Y252922D01*
X211932Y252908D01*
X211919Y252898D01*
X211849Y252793D01*
X211776Y252691D01*
X211771Y252675D01*
X211761Y252661D01*
X211723Y252541D01*
X211682Y252423D01*
X211681Y252406D01*
X211675Y252390D01*
X211672Y252264D01*
X211665Y252139D01*
X211669Y252123D01*
X211668Y252106D01*
X211700Y251984D01*
X211727Y251862D01*
X211736Y251847D01*
X211740Y251831D01*
X211804Y251723D01*
X211865Y251613D01*
X211877Y251601D01*
X211885Y251586D01*
X211977Y251500D01*
X212065Y251412D01*
X212079Y251404D01*
X212093Y251392D01*
X212346Y251262D01*
X212355Y251261D01*
X212363Y251256D01*
X212863Y251094D01*
X214537Y250241D01*
X216058Y249136D01*
X217386Y247808D01*
X218491Y246287D01*
X219344Y244613D01*
X219925Y242826D01*
X220046Y242061D01*
X209296Y242061D01*
X209238Y242053D01*
X209180Y242055D01*
X209098Y242033D01*
X209015Y242021D01*
X208961Y241997D01*
X208905Y241983D01*
X208832Y241940D01*
X208755Y241905D01*
X208711Y241867D01*
X208660Y241837D01*
X208603Y241776D01*
X208538Y241721D01*
X208506Y241673D01*
X208466Y241630D01*
X208427Y241555D01*
X208381Y241485D01*
X208363Y241429D01*
X208336Y241377D01*
X208325Y241309D01*
X208295Y241214D01*
X208292Y241114D01*
X208281Y241046D01*
X208281Y240029D01*
X208279Y240029D01*
X208279Y241046D01*
X208271Y241104D01*
X208272Y241162D01*
X208251Y241244D01*
X208239Y241327D01*
X208215Y241381D01*
X208201Y241437D01*
X208158Y241510D01*
X208123Y241587D01*
X208085Y241632D01*
X208055Y241682D01*
X207994Y241740D01*
X207939Y241804D01*
X207891Y241836D01*
X207848Y241876D01*
X207773Y241915D01*
X207703Y241961D01*
X207647Y241979D01*
X207595Y242006D01*
X207527Y242017D01*
X207432Y242047D01*
X207332Y242050D01*
X207264Y242061D01*
X196514Y242061D01*
X196635Y242826D01*
X197216Y244613D01*
X198069Y246287D01*
X199174Y247808D01*
X200502Y249136D01*
X202023Y250241D01*
X203697Y251094D01*
X204197Y251256D01*
X204310Y251311D01*
X204424Y251363D01*
X204437Y251374D01*
X204452Y251381D01*
X204546Y251466D01*
X204641Y251547D01*
X204651Y251561D01*
X204663Y251572D01*
X204729Y251678D01*
X204799Y251783D01*
X204804Y251799D01*
X204813Y251814D01*
X204847Y251934D01*
X204885Y252054D01*
X204885Y252071D01*
X204890Y252087D01*
X204889Y252213D01*
X204892Y252338D01*
X204888Y252355D01*
X204887Y252372D01*
X204852Y252492D01*
X204820Y252613D01*
X204811Y252628D01*
X204807Y252644D01*
X204739Y252750D01*
X204675Y252858D01*
X204662Y252869D01*
X204653Y252884D01*
X204559Y252966D01*
X204467Y253052D01*
X204452Y253060D01*
X204440Y253071D01*
X204326Y253125D01*
X204214Y253182D01*
X204199Y253184D01*
X204182Y253192D01*
X203902Y253237D01*
X203892Y253236D01*
X203883Y253237D01*
X182159Y253237D01*
X182074Y253225D01*
X181988Y253223D01*
X181934Y253205D01*
X181877Y253197D01*
X181799Y253162D01*
X181717Y253136D01*
X181670Y253104D01*
X181618Y253081D01*
X181552Y253026D01*
X181481Y252978D01*
X181444Y252934D01*
X181401Y252898D01*
X181353Y252826D01*
X181298Y252760D01*
X181275Y252708D01*
X181243Y252661D01*
X181217Y252579D01*
X181182Y252500D01*
X181175Y252444D01*
X181157Y252390D01*
X181155Y252304D01*
X181143Y252219D01*
X181152Y252163D01*
X181150Y252106D01*
X181172Y252023D01*
X181184Y251938D01*
X181208Y251886D01*
X181222Y251831D01*
X181266Y251757D01*
X181301Y251678D01*
X181338Y251635D01*
X181367Y251586D01*
X181430Y251527D01*
X181486Y251462D01*
X181528Y251436D01*
X181575Y251392D01*
X181704Y251326D01*
X181770Y251284D01*
X185545Y249721D01*
X188760Y246505D01*
X190501Y242304D01*
X190501Y237756D01*
X188760Y233555D01*
X185545Y230340D01*
X183507Y229496D01*
X183506Y229495D01*
X183505Y229494D01*
X183386Y229424D01*
X183263Y229351D01*
X183262Y229350D01*
X183260Y229349D01*
X183163Y229245D01*
X183067Y229144D01*
X183067Y229143D01*
X183066Y229142D01*
X183001Y229016D01*
X182937Y228892D01*
X182937Y228890D01*
X182936Y228889D01*
X182934Y228874D01*
X182882Y228613D01*
X182885Y228582D01*
X182881Y228558D01*
X182881Y223948D01*
X182889Y223890D01*
X182887Y223832D01*
X182909Y223750D01*
X182921Y223666D01*
X182944Y223613D01*
X182959Y223557D01*
X183002Y223484D01*
X183037Y223407D01*
X183075Y223362D01*
X183104Y223312D01*
X183166Y223254D01*
X183220Y223190D01*
X183269Y223158D01*
X183312Y223118D01*
X183387Y223079D01*
X183457Y223032D01*
X183513Y223015D01*
X183565Y222988D01*
X183633Y222977D01*
X183728Y222947D01*
X183828Y222944D01*
X183896Y222933D01*
X188342Y222933D01*
X189561Y221714D01*
X189599Y221685D01*
X189632Y221649D01*
X189713Y221600D01*
X189788Y221543D01*
X189833Y221526D01*
X189875Y221500D01*
X189966Y221475D01*
X190053Y221442D01*
X190102Y221438D01*
X190149Y221425D01*
X190243Y221426D01*
X190337Y221418D01*
X190384Y221428D01*
X190433Y221429D01*
X190523Y221456D01*
X190615Y221474D01*
X190659Y221497D01*
X190705Y221511D01*
X190784Y221562D01*
X190868Y221605D01*
X190903Y221639D01*
X190944Y221665D01*
X190991Y221723D01*
X191074Y221801D01*
X191118Y221876D01*
X191158Y221924D01*
X191467Y222460D01*
X191940Y222933D01*
X192519Y223268D01*
X193166Y223441D01*
X196969Y223441D01*
X196969Y216916D01*
X196977Y216858D01*
X196975Y216800D01*
X196997Y216718D01*
X197009Y216635D01*
X197033Y216581D01*
X197047Y216525D01*
X197090Y216452D01*
X197125Y216375D01*
X197163Y216331D01*
X197193Y216280D01*
X197254Y216223D01*
X197309Y216158D01*
X197357Y216126D01*
X197400Y216086D01*
X197475Y216047D01*
X197545Y216001D01*
X197601Y215983D01*
X197653Y215956D01*
X197721Y215945D01*
X197816Y215915D01*
X197916Y215912D01*
X197984Y215901D01*
X199001Y215901D01*
X199001Y215899D01*
X197984Y215899D01*
X197926Y215891D01*
X197868Y215892D01*
X197786Y215871D01*
X197703Y215859D01*
X197649Y215835D01*
X197593Y215821D01*
X197520Y215778D01*
X197443Y215743D01*
X197398Y215705D01*
X197348Y215675D01*
X197290Y215614D01*
X197226Y215559D01*
X197194Y215511D01*
X197154Y215468D01*
X197115Y215393D01*
X197069Y215323D01*
X197051Y215267D01*
X197024Y215215D01*
X197013Y215147D01*
X196983Y215052D01*
X196980Y214952D01*
X196969Y214884D01*
X196969Y208359D01*
X193166Y208359D01*
X192519Y208532D01*
X191940Y208867D01*
X191467Y209340D01*
X191158Y209876D01*
X191128Y209914D01*
X191105Y209957D01*
X191041Y210025D01*
X190982Y210099D01*
X190943Y210128D01*
X190909Y210163D01*
X190828Y210211D01*
X190752Y210266D01*
X190706Y210282D01*
X190664Y210307D01*
X190573Y210330D01*
X190485Y210362D01*
X190436Y210365D01*
X190389Y210377D01*
X190295Y210374D01*
X190201Y210380D01*
X190153Y210370D01*
X190104Y210368D01*
X190015Y210339D01*
X189923Y210319D01*
X189880Y210296D01*
X189834Y210281D01*
X189774Y210238D01*
X189673Y210183D01*
X189612Y210122D01*
X189561Y210086D01*
X188342Y208867D01*
X182372Y208867D01*
X182314Y208859D01*
X182256Y208861D01*
X182174Y208839D01*
X182090Y208827D01*
X182037Y208804D01*
X181981Y208789D01*
X181908Y208746D01*
X181831Y208711D01*
X181786Y208673D01*
X181736Y208644D01*
X181678Y208582D01*
X181614Y208528D01*
X181582Y208479D01*
X181542Y208436D01*
X181503Y208361D01*
X181456Y208291D01*
X181439Y208235D01*
X181412Y208183D01*
X181401Y208115D01*
X181371Y208020D01*
X181368Y207920D01*
X181357Y207852D01*
X181357Y191648D01*
X181365Y191590D01*
X181363Y191532D01*
X181385Y191450D01*
X181397Y191366D01*
X181420Y191313D01*
X181435Y191257D01*
X181478Y191184D01*
X181513Y191107D01*
X181551Y191062D01*
X181580Y191012D01*
X181642Y190954D01*
X181696Y190890D01*
X181745Y190858D01*
X181788Y190818D01*
X181863Y190779D01*
X181933Y190732D01*
X181989Y190715D01*
X182041Y190688D01*
X182109Y190677D01*
X182204Y190647D01*
X182304Y190644D01*
X182372Y190633D01*
X185342Y190633D01*
X186533Y189442D01*
X186533Y173008D01*
X185185Y171660D01*
X185167Y171636D01*
X185145Y171617D01*
X185082Y171523D01*
X185014Y171433D01*
X185003Y171405D01*
X184987Y171381D01*
X184953Y171273D01*
X184912Y171167D01*
X184910Y171138D01*
X184901Y171110D01*
X184898Y170996D01*
X184889Y170884D01*
X184895Y170855D01*
X184894Y170826D01*
X184923Y170716D01*
X184945Y170605D01*
X184958Y170579D01*
X184966Y170551D01*
X185023Y170453D01*
X185076Y170353D01*
X185096Y170331D01*
X185111Y170306D01*
X185193Y170229D01*
X185272Y170147D01*
X185297Y170132D01*
X185318Y170112D01*
X185419Y170060D01*
X185517Y170003D01*
X185545Y169996D01*
X185571Y169982D01*
X185649Y169969D01*
X185792Y169933D01*
X185855Y169935D01*
X185902Y169927D01*
X194425Y169927D01*
X194444Y169929D01*
X194464Y169927D01*
X194585Y169949D01*
X194706Y169967D01*
X194724Y169975D01*
X194744Y169978D01*
X194854Y170033D01*
X194966Y170083D01*
X194981Y170096D01*
X194998Y170104D01*
X195089Y170187D01*
X195183Y170266D01*
X195194Y170283D01*
X195208Y170296D01*
X195272Y170401D01*
X195340Y170503D01*
X195346Y170522D01*
X195357Y170539D01*
X195389Y170657D01*
X195426Y170774D01*
X195427Y170794D01*
X195432Y170813D01*
X195430Y170936D01*
X195433Y171058D01*
X195429Y171077D01*
X195428Y171097D01*
X195393Y171215D01*
X195362Y171333D01*
X195352Y171350D01*
X195346Y171369D01*
X195279Y171472D01*
X195216Y171578D01*
X195202Y171591D01*
X195191Y171608D01*
X195134Y171655D01*
X195009Y171772D01*
X194964Y171796D01*
X194950Y171807D01*
X194467Y172290D01*
X194132Y172869D01*
X193959Y173516D01*
X193959Y179194D01*
X200734Y179194D01*
X200792Y179202D01*
X200850Y179200D01*
X200932Y179222D01*
X201015Y179234D01*
X201069Y179258D01*
X201125Y179272D01*
X201198Y179315D01*
X201275Y179350D01*
X201319Y179388D01*
X201370Y179418D01*
X201427Y179479D01*
X201492Y179534D01*
X201524Y179582D01*
X201564Y179625D01*
X201603Y179700D01*
X201649Y179770D01*
X201667Y179826D01*
X201694Y179878D01*
X201705Y179946D01*
X201735Y180041D01*
X201738Y180141D01*
X201749Y180209D01*
X201749Y181226D01*
X201751Y181226D01*
X201751Y180209D01*
X201759Y180151D01*
X201758Y180093D01*
X201779Y180011D01*
X201791Y179928D01*
X201815Y179874D01*
X201829Y179818D01*
X201872Y179745D01*
X201907Y179668D01*
X201945Y179623D01*
X201975Y179573D01*
X202036Y179515D01*
X202091Y179451D01*
X202139Y179419D01*
X202182Y179379D01*
X202257Y179340D01*
X202327Y179294D01*
X202383Y179276D01*
X202435Y179249D01*
X202503Y179238D01*
X202598Y179208D01*
X202698Y179205D01*
X202766Y179194D01*
X209541Y179194D01*
X209541Y173516D01*
X209368Y172869D01*
X209033Y172290D01*
X208553Y171810D01*
X208552Y171809D01*
X208534Y171801D01*
X208441Y171722D01*
X208344Y171646D01*
X208332Y171630D01*
X208317Y171617D01*
X208249Y171515D01*
X208177Y171416D01*
X208171Y171397D01*
X208160Y171381D01*
X208122Y171263D01*
X208081Y171148D01*
X208080Y171129D01*
X208074Y171110D01*
X208071Y170987D01*
X208063Y170864D01*
X208067Y170845D01*
X208067Y170826D01*
X208098Y170707D01*
X208124Y170587D01*
X208133Y170570D01*
X208138Y170551D01*
X208201Y170445D01*
X208260Y170337D01*
X208274Y170323D01*
X208284Y170306D01*
X208373Y170222D01*
X208459Y170135D01*
X208477Y170125D01*
X208491Y170112D01*
X208600Y170056D01*
X208707Y169996D01*
X208727Y169991D01*
X208744Y169982D01*
X208817Y169970D01*
X208984Y169931D01*
X209035Y169933D01*
X209075Y169927D01*
X218643Y169927D01*
X221024Y167546D01*
X225566Y163004D01*
X225590Y162986D01*
X225609Y162964D01*
X225703Y162901D01*
X225793Y162833D01*
X225821Y162823D01*
X225845Y162806D01*
X225953Y162772D01*
X226059Y162732D01*
X226088Y162729D01*
X226116Y162720D01*
X226230Y162718D01*
X226342Y162708D01*
X226371Y162714D01*
X226400Y162713D01*
X226510Y162742D01*
X226621Y162764D01*
X226647Y162778D01*
X226675Y162785D01*
X226773Y162843D01*
X226873Y162895D01*
X226895Y162915D01*
X226920Y162930D01*
X226997Y163013D01*
X227079Y163091D01*
X227094Y163116D01*
X227114Y163138D01*
X227166Y163238D01*
X227223Y163336D01*
X227230Y163365D01*
X227244Y163391D01*
X227257Y163468D01*
X227293Y163612D01*
X227291Y163674D01*
X227299Y163722D01*
X227299Y166879D01*
X233309Y166879D01*
X233309Y161369D01*
X229652Y161369D01*
X229623Y161365D01*
X229593Y161368D01*
X229482Y161345D01*
X229370Y161329D01*
X229344Y161317D01*
X229315Y161312D01*
X229214Y161260D01*
X229111Y161213D01*
X229088Y161194D01*
X229062Y161181D01*
X228980Y161103D01*
X228894Y161030D01*
X228878Y161005D01*
X228856Y160985D01*
X228799Y160887D01*
X228736Y160793D01*
X228727Y160765D01*
X228713Y160740D01*
X228685Y160630D01*
X228650Y160522D01*
X228650Y160492D01*
X228642Y160464D01*
X228646Y160351D01*
X228643Y160238D01*
X228651Y160209D01*
X228652Y160180D01*
X228686Y160072D01*
X228715Y159963D01*
X228730Y159937D01*
X228739Y159909D01*
X228785Y159846D01*
X228860Y159718D01*
X228906Y159675D01*
X228934Y159636D01*
X235392Y153178D01*
X235462Y153126D01*
X235526Y153066D01*
X235575Y153040D01*
X235619Y153007D01*
X235701Y152976D01*
X235779Y152936D01*
X235826Y152928D01*
X235885Y152906D01*
X236032Y152894D01*
X236110Y152881D01*
X238849Y152881D01*
X241359Y151841D01*
X243281Y149919D01*
X243744Y148801D01*
X243788Y148727D01*
X243823Y148649D01*
X243860Y148605D01*
X243889Y148556D01*
X243951Y148497D01*
X244007Y148432D01*
X244054Y148400D01*
X244095Y148361D01*
X244172Y148322D01*
X244243Y148274D01*
X244297Y148257D01*
X244348Y148231D01*
X244432Y148214D01*
X244514Y148188D01*
X244571Y148187D01*
X244627Y148176D01*
X244712Y148183D01*
X244798Y148181D01*
X244853Y148195D01*
X244910Y148200D01*
X244991Y148231D01*
X245073Y148253D01*
X245122Y148282D01*
X245175Y148302D01*
X245244Y148354D01*
X245318Y148398D01*
X245357Y148439D01*
X245402Y148474D01*
X245454Y148543D01*
X245512Y148605D01*
X245538Y148656D01*
X245572Y148701D01*
X245603Y148782D01*
X245642Y148858D01*
X245650Y148907D01*
X245673Y148967D01*
X245681Y149068D01*
X245683Y149076D01*
X245684Y149111D01*
X245684Y149112D01*
X245697Y149189D01*
X245697Y158352D01*
X246888Y159543D01*
X248158Y159543D01*
X248216Y159551D01*
X248274Y159549D01*
X248356Y159571D01*
X248440Y159583D01*
X248493Y159606D01*
X248549Y159621D01*
X248622Y159664D01*
X248699Y159699D01*
X248744Y159737D01*
X248794Y159766D01*
X248852Y159828D01*
X248916Y159882D01*
X248948Y159931D01*
X248988Y159974D01*
X249027Y160049D01*
X249074Y160119D01*
X249091Y160175D01*
X249118Y160227D01*
X249129Y160295D01*
X249159Y160390D01*
X249162Y160490D01*
X249173Y160558D01*
X249173Y160862D01*
X249165Y160920D01*
X249167Y160978D01*
X249145Y161060D01*
X249133Y161144D01*
X249110Y161197D01*
X249095Y161253D01*
X249052Y161326D01*
X249017Y161403D01*
X248979Y161448D01*
X248950Y161498D01*
X248888Y161556D01*
X248834Y161620D01*
X248785Y161652D01*
X248742Y161692D01*
X248667Y161731D01*
X248597Y161778D01*
X248541Y161795D01*
X248489Y161822D01*
X248421Y161833D01*
X248326Y161863D01*
X248226Y161866D01*
X248158Y161877D01*
X245998Y161877D01*
X244779Y163096D01*
X244741Y163125D01*
X244708Y163161D01*
X244627Y163210D01*
X244552Y163267D01*
X244507Y163284D01*
X244465Y163310D01*
X244374Y163335D01*
X244287Y163368D01*
X244238Y163372D01*
X244191Y163385D01*
X244097Y163384D01*
X244003Y163392D01*
X243956Y163382D01*
X243907Y163381D01*
X243817Y163354D01*
X243725Y163336D01*
X243681Y163313D01*
X243635Y163299D01*
X243556Y163248D01*
X243472Y163205D01*
X243437Y163171D01*
X243396Y163145D01*
X243349Y163087D01*
X243266Y163009D01*
X243222Y162934D01*
X243182Y162886D01*
X242873Y162350D01*
X242400Y161877D01*
X241821Y161542D01*
X241174Y161369D01*
X237371Y161369D01*
X237371Y167894D01*
X237363Y167952D01*
X237364Y168010D01*
X237343Y168092D01*
X237331Y168175D01*
X237307Y168229D01*
X237293Y168285D01*
X237250Y168358D01*
X237215Y168435D01*
X237177Y168479D01*
X237147Y168530D01*
X237086Y168587D01*
X237031Y168652D01*
X236983Y168684D01*
X236940Y168724D01*
X236865Y168763D01*
X236795Y168809D01*
X236739Y168827D01*
X236687Y168854D01*
X236619Y168865D01*
X236524Y168895D01*
X236424Y168898D01*
X236356Y168909D01*
X235339Y168909D01*
X235339Y168911D01*
X236356Y168911D01*
X236414Y168919D01*
X236472Y168918D01*
X236554Y168939D01*
X236637Y168951D01*
X236691Y168975D01*
X236747Y168989D01*
X236820Y169032D01*
X236897Y169067D01*
X236941Y169105D01*
X236992Y169135D01*
X237049Y169196D01*
X237114Y169251D01*
X237146Y169299D01*
X237186Y169342D01*
X237225Y169417D01*
X237271Y169487D01*
X237289Y169543D01*
X237316Y169595D01*
X237327Y169663D01*
X237357Y169758D01*
X237360Y169858D01*
X237371Y169926D01*
X237371Y176451D01*
X241174Y176451D01*
X241821Y176278D01*
X242400Y175943D01*
X242873Y175470D01*
X243182Y174934D01*
X243212Y174896D01*
X243235Y174853D01*
X243299Y174785D01*
X243358Y174711D01*
X243397Y174682D01*
X243431Y174647D01*
X243512Y174599D01*
X243588Y174544D01*
X243634Y174528D01*
X243676Y174503D01*
X243767Y174480D01*
X243855Y174448D01*
X243904Y174445D01*
X243951Y174433D01*
X244045Y174436D01*
X244139Y174430D01*
X244187Y174440D01*
X244236Y174442D01*
X244325Y174471D01*
X244417Y174491D01*
X244460Y174514D01*
X244506Y174529D01*
X244566Y174572D01*
X244667Y174627D01*
X244728Y174688D01*
X244779Y174724D01*
X245998Y175943D01*
X253922Y175943D01*
X254009Y175955D01*
X254096Y175958D01*
X254149Y175975D01*
X254204Y175983D01*
X254284Y176018D01*
X254367Y176045D01*
X254406Y176073D01*
X254463Y176099D01*
X254576Y176195D01*
X254640Y176240D01*
X257217Y178817D01*
X271593Y178817D01*
X283792Y166618D01*
X283862Y166566D01*
X283926Y166506D01*
X283975Y166480D01*
X284019Y166447D01*
X284101Y166416D01*
X284179Y166376D01*
X284226Y166368D01*
X284285Y166346D01*
X284432Y166334D01*
X284510Y166321D01*
X284815Y166321D01*
X284815Y159530D01*
X284823Y159472D01*
X284821Y159414D01*
X284843Y159332D01*
X284854Y159249D01*
X284878Y159195D01*
X284893Y159139D01*
X284936Y159066D01*
X284971Y158989D01*
X285008Y158945D01*
X285038Y158895D01*
X285100Y158837D01*
X285154Y158772D01*
X285203Y158740D01*
X285246Y158700D01*
X285321Y158662D01*
X285391Y158615D01*
X285447Y158597D01*
X285499Y158571D01*
X285567Y158559D01*
X285662Y158529D01*
X285762Y158526D01*
X285830Y158515D01*
X285888Y158523D01*
X285946Y158522D01*
X286028Y158543D01*
X286112Y158555D01*
X286165Y158579D01*
X286222Y158594D01*
X286294Y158637D01*
X286371Y158671D01*
X286416Y158709D01*
X286466Y158739D01*
X286524Y158800D01*
X286588Y158855D01*
X286620Y158903D01*
X286660Y158946D01*
X286699Y159021D01*
X286746Y159091D01*
X286763Y159147D01*
X286790Y159199D01*
X286801Y159267D01*
X286831Y159362D01*
X286834Y159462D01*
X286845Y159530D01*
X286845Y166516D01*
X286894Y166544D01*
X286952Y166606D01*
X287016Y166660D01*
X287048Y166709D01*
X287088Y166752D01*
X287127Y166827D01*
X287174Y166897D01*
X287191Y166953D01*
X287218Y167005D01*
X287229Y167073D01*
X287259Y167168D01*
X287262Y167268D01*
X287273Y167336D01*
X287273Y179273D01*
X290627Y182627D01*
X294918Y182627D01*
X294947Y182631D01*
X294976Y182628D01*
X295087Y182651D01*
X295199Y182667D01*
X295226Y182679D01*
X295255Y182684D01*
X295355Y182737D01*
X295458Y182783D01*
X295481Y182802D01*
X295507Y182815D01*
X295589Y182893D01*
X295675Y182966D01*
X295692Y182991D01*
X295713Y183011D01*
X295770Y183109D01*
X295833Y183203D01*
X295842Y183231D01*
X295857Y183256D01*
X295885Y183366D01*
X295919Y183474D01*
X295920Y183504D01*
X295927Y183532D01*
X295923Y183645D01*
X295926Y183758D01*
X295919Y183787D01*
X295918Y183816D01*
X295883Y183924D01*
X295854Y184033D01*
X295839Y184059D01*
X295830Y184087D01*
X295785Y184151D01*
X295709Y184278D01*
X295663Y184321D01*
X295635Y184360D01*
X295067Y184928D01*
X295067Y198612D01*
X296258Y199803D01*
X305942Y199803D01*
X307133Y198612D01*
X307133Y196342D01*
X307141Y196284D01*
X307139Y196226D01*
X307161Y196144D01*
X307173Y196060D01*
X307196Y196007D01*
X307211Y195951D01*
X307254Y195878D01*
X307289Y195801D01*
X307327Y195756D01*
X307356Y195706D01*
X307418Y195648D01*
X307472Y195584D01*
X307521Y195552D01*
X307564Y195512D01*
X307639Y195473D01*
X307709Y195426D01*
X307765Y195409D01*
X307817Y195382D01*
X307885Y195371D01*
X307980Y195341D01*
X308080Y195338D01*
X308148Y195327D01*
X324496Y195327D01*
X324583Y195339D01*
X324670Y195342D01*
X324723Y195359D01*
X324778Y195367D01*
X324858Y195402D01*
X324941Y195429D01*
X324980Y195457D01*
X325037Y195483D01*
X325150Y195579D01*
X325214Y195624D01*
X332914Y203324D01*
X332932Y203348D01*
X332954Y203367D01*
X333017Y203461D01*
X333085Y203551D01*
X333095Y203579D01*
X333112Y203603D01*
X333146Y203711D01*
X333186Y203817D01*
X333189Y203846D01*
X333198Y203874D01*
X333200Y203988D01*
X333210Y204100D01*
X333204Y204129D01*
X333205Y204158D01*
X333176Y204268D01*
X333154Y204379D01*
X333140Y204405D01*
X333133Y204433D01*
X333075Y204531D01*
X333023Y204631D01*
X333003Y204653D01*
X332988Y204678D01*
X332905Y204755D01*
X332827Y204837D01*
X332802Y204852D01*
X332780Y204872D01*
X332680Y204924D01*
X332582Y204981D01*
X332553Y204988D01*
X332527Y205002D01*
X332450Y205015D01*
X332384Y205032D01*
X330918Y206497D01*
X330871Y206533D01*
X330831Y206575D01*
X330758Y206618D01*
X330691Y206668D01*
X330636Y206689D01*
X330586Y206719D01*
X330504Y206739D01*
X330425Y206770D01*
X330367Y206774D01*
X330310Y206789D01*
X330226Y206786D01*
X330142Y206793D01*
X330084Y206782D01*
X330026Y206780D01*
X329946Y206754D01*
X329863Y206737D01*
X329811Y206710D01*
X329755Y206692D01*
X329699Y206652D01*
X329611Y206606D01*
X329538Y206537D01*
X329482Y206497D01*
X328042Y205057D01*
X315358Y205057D01*
X314167Y206248D01*
X314167Y207518D01*
X314159Y207576D01*
X314161Y207634D01*
X314139Y207716D01*
X314127Y207800D01*
X314104Y207853D01*
X314089Y207909D01*
X314046Y207982D01*
X314011Y208059D01*
X313973Y208104D01*
X313944Y208154D01*
X313882Y208212D01*
X313828Y208276D01*
X313779Y208308D01*
X313736Y208348D01*
X313661Y208387D01*
X313591Y208434D01*
X313535Y208451D01*
X313483Y208478D01*
X313415Y208489D01*
X313320Y208519D01*
X313220Y208522D01*
X313152Y208533D01*
X309677Y208533D01*
X306164Y212046D01*
X306094Y212098D01*
X306030Y212158D01*
X305981Y212184D01*
X305937Y212217D01*
X305855Y212248D01*
X305777Y212288D01*
X305730Y212296D01*
X305671Y212318D01*
X305524Y212330D01*
X305446Y212343D01*
X282478Y212343D01*
X282420Y212335D01*
X282362Y212337D01*
X282280Y212315D01*
X282196Y212303D01*
X282143Y212280D01*
X282087Y212265D01*
X282014Y212222D01*
X281937Y212187D01*
X281892Y212149D01*
X281842Y212120D01*
X281784Y212058D01*
X281720Y212004D01*
X281688Y211955D01*
X281648Y211912D01*
X281609Y211837D01*
X281562Y211767D01*
X281545Y211711D01*
X281518Y211659D01*
X281507Y211591D01*
X281477Y211496D01*
X281474Y211396D01*
X281463Y211328D01*
X281463Y210058D01*
X280272Y208867D01*
X267588Y208867D01*
X266369Y210086D01*
X266330Y210115D01*
X266298Y210151D01*
X266217Y210200D01*
X266142Y210257D01*
X266097Y210274D01*
X266055Y210300D01*
X265965Y210324D01*
X265877Y210358D01*
X265828Y210362D01*
X265781Y210375D01*
X265687Y210374D01*
X265593Y210382D01*
X265546Y210372D01*
X265497Y210371D01*
X265407Y210344D01*
X265315Y210326D01*
X265271Y210303D01*
X265225Y210289D01*
X265146Y210238D01*
X265062Y210195D01*
X265027Y210161D01*
X264986Y210135D01*
X264939Y210077D01*
X264856Y209999D01*
X264812Y209924D01*
X264772Y209876D01*
X264463Y209340D01*
X263990Y208867D01*
X263411Y208532D01*
X262764Y208359D01*
X258961Y208359D01*
X258961Y214884D01*
X258953Y214942D01*
X258954Y215000D01*
X258933Y215082D01*
X258921Y215165D01*
X258897Y215219D01*
X258883Y215275D01*
X258840Y215348D01*
X258805Y215425D01*
X258767Y215469D01*
X258737Y215520D01*
X258676Y215577D01*
X258621Y215642D01*
X258573Y215674D01*
X258530Y215714D01*
X258455Y215753D01*
X258385Y215799D01*
X258329Y215817D01*
X258277Y215844D01*
X258209Y215855D01*
X258114Y215885D01*
X258014Y215888D01*
X257946Y215899D01*
X256929Y215899D01*
X256929Y215901D01*
X257946Y215901D01*
X258004Y215909D01*
X258062Y215908D01*
X258144Y215929D01*
X258227Y215941D01*
X258281Y215965D01*
X258337Y215979D01*
X258410Y216022D01*
X258487Y216057D01*
X258531Y216095D01*
X258582Y216125D01*
X258639Y216186D01*
X258704Y216241D01*
X258736Y216289D01*
X258776Y216332D01*
X258815Y216407D01*
X258861Y216477D01*
X258879Y216533D01*
X258906Y216585D01*
X258917Y216653D01*
X258947Y216748D01*
X258950Y216848D01*
X258961Y216916D01*
X258961Y223441D01*
X262764Y223441D01*
X263411Y223268D01*
X263990Y222933D01*
X264463Y222460D01*
X264772Y221924D01*
X264802Y221886D01*
X264825Y221843D01*
X264890Y221774D01*
X264948Y221701D01*
X264987Y221672D01*
X265021Y221637D01*
X265102Y221589D01*
X265178Y221534D01*
X265224Y221517D01*
X265266Y221493D01*
X265357Y221470D01*
X265445Y221438D01*
X265494Y221435D01*
X265541Y221423D01*
X265635Y221426D01*
X265729Y221420D01*
X265777Y221430D01*
X265826Y221432D01*
X265915Y221461D01*
X266007Y221481D01*
X266050Y221504D01*
X266096Y221519D01*
X266157Y221562D01*
X266257Y221617D01*
X266318Y221678D01*
X266369Y221714D01*
X267588Y222933D01*
X280272Y222933D01*
X281463Y221742D01*
X281463Y220472D01*
X281471Y220414D01*
X281469Y220356D01*
X281491Y220274D01*
X281503Y220190D01*
X281526Y220137D01*
X281541Y220081D01*
X281584Y220008D01*
X281619Y219931D01*
X281657Y219886D01*
X281686Y219836D01*
X281748Y219778D01*
X281802Y219714D01*
X281851Y219682D01*
X281894Y219642D01*
X281969Y219603D01*
X282039Y219556D01*
X282095Y219539D01*
X282147Y219512D01*
X282215Y219501D01*
X282310Y219471D01*
X282410Y219468D01*
X282478Y219457D01*
X308813Y219457D01*
X312326Y215944D01*
X312396Y215892D01*
X312460Y215832D01*
X312509Y215806D01*
X312553Y215773D01*
X312635Y215742D01*
X312713Y215702D01*
X312760Y215694D01*
X312819Y215672D01*
X312966Y215660D01*
X313044Y215647D01*
X313152Y215647D01*
X313210Y215655D01*
X313268Y215653D01*
X313350Y215675D01*
X313434Y215687D01*
X313487Y215710D01*
X313543Y215725D01*
X313616Y215768D01*
X313693Y215803D01*
X313738Y215841D01*
X313788Y215870D01*
X313846Y215932D01*
X313910Y215986D01*
X313942Y216035D01*
X313982Y216078D01*
X314021Y216153D01*
X314068Y216223D01*
X314085Y216279D01*
X314112Y216331D01*
X314123Y216399D01*
X314153Y216494D01*
X314156Y216594D01*
X314167Y216662D01*
X314167Y217932D01*
X315358Y219123D01*
X317128Y219123D01*
X317186Y219131D01*
X317244Y219129D01*
X317326Y219151D01*
X317410Y219163D01*
X317463Y219186D01*
X317519Y219201D01*
X317592Y219244D01*
X317669Y219279D01*
X317714Y219317D01*
X317764Y219346D01*
X317822Y219408D01*
X317886Y219462D01*
X317918Y219511D01*
X317958Y219554D01*
X317997Y219629D01*
X318044Y219699D01*
X318061Y219755D01*
X318088Y219807D01*
X318099Y219875D01*
X318129Y219970D01*
X318132Y220070D01*
X318143Y220138D01*
X318143Y225632D01*
X318135Y225690D01*
X318137Y225748D01*
X318115Y225830D01*
X318103Y225914D01*
X318080Y225967D01*
X318065Y226023D01*
X318022Y226096D01*
X317987Y226173D01*
X317949Y226218D01*
X317920Y226268D01*
X317858Y226326D01*
X317804Y226390D01*
X317755Y226422D01*
X317712Y226462D01*
X317637Y226501D01*
X317567Y226548D01*
X317511Y226565D01*
X317459Y226592D01*
X317391Y226603D01*
X317296Y226633D01*
X317196Y226636D01*
X317128Y226647D01*
X315358Y226647D01*
X314167Y227838D01*
X314167Y239522D01*
X315358Y240713D01*
X328042Y240713D01*
X329482Y239273D01*
X329529Y239237D01*
X329569Y239195D01*
X329642Y239152D01*
X329709Y239102D01*
X329764Y239081D01*
X329814Y239051D01*
X329896Y239031D01*
X329975Y239000D01*
X330033Y238996D01*
X330090Y238981D01*
X330174Y238984D01*
X330258Y238977D01*
X330316Y238988D01*
X330374Y238990D01*
X330454Y239016D01*
X330537Y239033D01*
X330589Y239060D01*
X330645Y239078D01*
X330701Y239118D01*
X330789Y239164D01*
X330862Y239233D01*
X330918Y239273D01*
X332358Y240713D01*
X345042Y240713D01*
X346233Y239522D01*
X346233Y227838D01*
X345042Y226647D01*
X343272Y226647D01*
X343214Y226639D01*
X343156Y226641D01*
X343074Y226619D01*
X342990Y226607D01*
X342937Y226584D01*
X342881Y226569D01*
X342808Y226526D01*
X342731Y226491D01*
X342686Y226453D01*
X342636Y226424D01*
X342578Y226362D01*
X342514Y226308D01*
X342482Y226259D01*
X342442Y226216D01*
X342403Y226141D01*
X342356Y226071D01*
X342339Y226015D01*
X342312Y225963D01*
X342301Y225895D01*
X342271Y225800D01*
X342268Y225700D01*
X342257Y225632D01*
X342257Y220138D01*
X342265Y220080D01*
X342263Y220022D01*
X342285Y219940D01*
X342297Y219856D01*
X342320Y219803D01*
X342335Y219747D01*
X342378Y219674D01*
X342413Y219597D01*
X342451Y219552D01*
X342480Y219502D01*
X342542Y219444D01*
X342596Y219380D01*
X342645Y219348D01*
X342688Y219308D01*
X342763Y219269D01*
X342833Y219222D01*
X342889Y219205D01*
X342941Y219178D01*
X343009Y219167D01*
X343104Y219137D01*
X343204Y219134D01*
X343272Y219123D01*
X345042Y219123D01*
X346233Y217932D01*
X346233Y206248D01*
X345042Y205057D01*
X343272Y205057D01*
X343214Y205049D01*
X343156Y205051D01*
X343074Y205029D01*
X342990Y205017D01*
X342937Y204994D01*
X342881Y204979D01*
X342808Y204936D01*
X342731Y204901D01*
X342686Y204863D01*
X342636Y204834D01*
X342578Y204772D01*
X342514Y204718D01*
X342482Y204669D01*
X342442Y204626D01*
X342403Y204551D01*
X342356Y204481D01*
X342339Y204425D01*
X342312Y204373D01*
X342301Y204305D01*
X342271Y204210D01*
X342268Y204110D01*
X342257Y204042D01*
X342257Y202607D01*
X327863Y188213D01*
X308148Y188213D01*
X308090Y188205D01*
X308032Y188207D01*
X307950Y188185D01*
X307866Y188173D01*
X307813Y188150D01*
X307757Y188135D01*
X307684Y188092D01*
X307607Y188057D01*
X307562Y188019D01*
X307512Y187990D01*
X307454Y187928D01*
X307390Y187874D01*
X307358Y187825D01*
X307318Y187782D01*
X307279Y187707D01*
X307232Y187637D01*
X307215Y187581D01*
X307188Y187529D01*
X307177Y187461D01*
X307147Y187366D01*
X307144Y187266D01*
X307133Y187198D01*
X307133Y184928D01*
X306565Y184360D01*
X306547Y184336D01*
X306525Y184317D01*
X306462Y184223D01*
X306394Y184133D01*
X306383Y184105D01*
X306367Y184081D01*
X306333Y183973D01*
X306292Y183867D01*
X306290Y183838D01*
X306281Y183810D01*
X306278Y183696D01*
X306269Y183584D01*
X306275Y183555D01*
X306274Y183526D01*
X306303Y183416D01*
X306325Y183305D01*
X306338Y183279D01*
X306346Y183251D01*
X306403Y183153D01*
X306456Y183053D01*
X306476Y183031D01*
X306491Y183006D01*
X306574Y182929D01*
X306652Y182847D01*
X306677Y182832D01*
X306698Y182812D01*
X306799Y182760D01*
X306897Y182703D01*
X306925Y182696D01*
X306951Y182682D01*
X307029Y182669D01*
X307172Y182633D01*
X307235Y182635D01*
X307282Y182627D01*
X308653Y182627D01*
X310737Y180543D01*
X310737Y164672D01*
X310745Y164614D01*
X310743Y164556D01*
X310765Y164474D01*
X310777Y164390D01*
X310800Y164337D01*
X310815Y164281D01*
X310858Y164208D01*
X310893Y164131D01*
X310931Y164086D01*
X310960Y164036D01*
X311022Y163978D01*
X311076Y163914D01*
X311125Y163882D01*
X311168Y163842D01*
X311243Y163803D01*
X311313Y163756D01*
X311369Y163739D01*
X311421Y163712D01*
X311489Y163701D01*
X311584Y163671D01*
X311684Y163668D01*
X311752Y163657D01*
X320712Y163657D01*
X320798Y163669D01*
X320886Y163672D01*
X320938Y163689D01*
X320993Y163697D01*
X321073Y163732D01*
X321156Y163759D01*
X321195Y163787D01*
X321252Y163813D01*
X321366Y163909D01*
X321429Y163954D01*
X321857Y164382D01*
X321892Y164429D01*
X321935Y164469D01*
X321978Y164542D01*
X322028Y164609D01*
X322049Y164664D01*
X322079Y164714D01*
X322099Y164796D01*
X322130Y164875D01*
X322134Y164933D01*
X322149Y164990D01*
X322146Y165074D01*
X322153Y165158D01*
X322142Y165216D01*
X322140Y165274D01*
X322114Y165354D01*
X322097Y165437D01*
X322070Y165489D01*
X322052Y165545D01*
X322012Y165601D01*
X321966Y165689D01*
X321897Y165762D01*
X321857Y165818D01*
X321417Y166258D01*
X321417Y173942D01*
X321857Y174382D01*
X321893Y174429D01*
X321935Y174469D01*
X321978Y174542D01*
X322028Y174609D01*
X322049Y174664D01*
X322079Y174714D01*
X322099Y174796D01*
X322130Y174875D01*
X322134Y174933D01*
X322149Y174990D01*
X322146Y175074D01*
X322153Y175158D01*
X322142Y175216D01*
X322140Y175274D01*
X322114Y175354D01*
X322097Y175437D01*
X322070Y175489D01*
X322052Y175545D01*
X322012Y175601D01*
X321966Y175689D01*
X321897Y175762D01*
X321857Y175818D01*
X321417Y176258D01*
X321417Y183942D01*
X322608Y185133D01*
X337792Y185133D01*
X338971Y183954D01*
X339040Y183902D01*
X339104Y183842D01*
X339154Y183816D01*
X339198Y183783D01*
X339280Y183752D01*
X339357Y183712D01*
X339405Y183704D01*
X339463Y183682D01*
X339611Y183670D01*
X339688Y183657D01*
X353503Y183657D01*
X360427Y176733D01*
X360427Y146148D01*
X360434Y146098D01*
X360433Y146082D01*
X360435Y146077D01*
X360433Y146032D01*
X360455Y145950D01*
X360467Y145866D01*
X360490Y145813D01*
X360505Y145757D01*
X360548Y145684D01*
X360583Y145607D01*
X360621Y145562D01*
X360650Y145512D01*
X360712Y145454D01*
X360766Y145390D01*
X360815Y145358D01*
X360858Y145318D01*
X360933Y145279D01*
X361003Y145232D01*
X361059Y145215D01*
X361111Y145188D01*
X361179Y145177D01*
X361274Y145147D01*
X361374Y145144D01*
X361442Y145133D01*
X377952Y145133D01*
X378010Y145141D01*
G37*
G36*
X163293Y16269D02*
X163293Y16269D01*
X163380Y16272D01*
X163433Y16289D01*
X163488Y16297D01*
X163568Y16332D01*
X163651Y16359D01*
X163690Y16387D01*
X163747Y16413D01*
X163860Y16509D01*
X163924Y16554D01*
X167098Y19728D01*
X167099Y19730D01*
X167101Y19731D01*
X167185Y19844D01*
X167269Y19956D01*
X167270Y19957D01*
X167271Y19958D01*
X167321Y20090D01*
X167370Y20221D01*
X167371Y20223D01*
X167371Y20224D01*
X167382Y20363D01*
X167394Y20504D01*
X167394Y20506D01*
X167394Y20508D01*
X167390Y20523D01*
X167338Y20783D01*
X167324Y20810D01*
X167318Y20835D01*
X166369Y23126D01*
X166369Y27674D01*
X168110Y31875D01*
X171325Y35091D01*
X173617Y36040D01*
X173618Y36040D01*
X173619Y36041D01*
X173740Y36112D01*
X173861Y36184D01*
X173862Y36185D01*
X173864Y36186D01*
X173961Y36290D01*
X174057Y36391D01*
X174057Y36392D01*
X174058Y36393D01*
X174123Y36519D01*
X174187Y36644D01*
X174187Y36645D01*
X174188Y36647D01*
X174190Y36661D01*
X174242Y36922D01*
X174239Y36953D01*
X174243Y36978D01*
X174243Y38303D01*
X182677Y46737D01*
X257186Y46737D01*
X257273Y46749D01*
X257360Y46752D01*
X257413Y46769D01*
X257468Y46777D01*
X257548Y46812D01*
X257631Y46839D01*
X257670Y46867D01*
X257727Y46893D01*
X257840Y46989D01*
X257904Y47034D01*
X281162Y70292D01*
X281214Y70362D01*
X281274Y70426D01*
X281300Y70475D01*
X281333Y70519D01*
X281364Y70601D01*
X281404Y70679D01*
X281412Y70726D01*
X281434Y70785D01*
X281443Y70895D01*
X281445Y70902D01*
X281446Y70929D01*
X281446Y70932D01*
X281459Y71010D01*
X281459Y73749D01*
X282499Y76259D01*
X283500Y77260D01*
X283518Y77284D01*
X283540Y77303D01*
X283603Y77397D01*
X283671Y77487D01*
X283681Y77515D01*
X283698Y77539D01*
X283732Y77647D01*
X283772Y77753D01*
X283775Y77782D01*
X283783Y77810D01*
X283786Y77924D01*
X283796Y78036D01*
X283790Y78065D01*
X283791Y78094D01*
X283762Y78204D01*
X283740Y78315D01*
X283726Y78341D01*
X283719Y78369D01*
X283661Y78467D01*
X283609Y78567D01*
X283589Y78589D01*
X283574Y78614D01*
X283491Y78691D01*
X283413Y78773D01*
X283388Y78788D01*
X283366Y78808D01*
X283265Y78860D01*
X283168Y78917D01*
X283139Y78924D01*
X283113Y78938D01*
X283036Y78951D01*
X282892Y78987D01*
X282830Y78985D01*
X282782Y78993D01*
X263428Y78993D01*
X263370Y78985D01*
X263312Y78987D01*
X263230Y78965D01*
X263146Y78953D01*
X263093Y78930D01*
X263037Y78915D01*
X262964Y78872D01*
X262887Y78837D01*
X262842Y78799D01*
X262792Y78770D01*
X262734Y78708D01*
X262670Y78654D01*
X262638Y78605D01*
X262598Y78562D01*
X262559Y78487D01*
X262512Y78417D01*
X262495Y78361D01*
X262468Y78309D01*
X262457Y78241D01*
X262427Y78146D01*
X262424Y78046D01*
X262413Y77978D01*
X262413Y76708D01*
X261222Y75517D01*
X248538Y75517D01*
X247098Y76957D01*
X247051Y76993D01*
X247011Y77035D01*
X246938Y77078D01*
X246871Y77128D01*
X246816Y77149D01*
X246766Y77179D01*
X246684Y77199D01*
X246605Y77230D01*
X246547Y77234D01*
X246490Y77249D01*
X246406Y77246D01*
X246322Y77253D01*
X246264Y77242D01*
X246206Y77240D01*
X246126Y77214D01*
X246043Y77197D01*
X245991Y77170D01*
X245935Y77152D01*
X245879Y77112D01*
X245791Y77066D01*
X245718Y76997D01*
X245662Y76957D01*
X244222Y75517D01*
X231538Y75517D01*
X230137Y76918D01*
X230068Y76970D01*
X230004Y77030D01*
X229954Y77056D01*
X229910Y77089D01*
X229828Y77120D01*
X229751Y77160D01*
X229703Y77168D01*
X229645Y77190D01*
X229497Y77202D01*
X229419Y77215D01*
X226916Y77215D01*
X224295Y79836D01*
X224295Y83204D01*
X226676Y85585D01*
X229332Y85585D01*
X229390Y85593D01*
X229448Y85591D01*
X229530Y85613D01*
X229614Y85625D01*
X229667Y85648D01*
X229723Y85663D01*
X229796Y85706D01*
X229873Y85741D01*
X229918Y85779D01*
X229968Y85808D01*
X230026Y85870D01*
X230090Y85924D01*
X230122Y85973D01*
X230162Y86016D01*
X230201Y86091D01*
X230248Y86161D01*
X230265Y86217D01*
X230292Y86269D01*
X230303Y86337D01*
X230333Y86432D01*
X230336Y86532D01*
X230347Y86600D01*
X230347Y88392D01*
X230645Y88690D01*
X230663Y88714D01*
X230685Y88733D01*
X230748Y88827D01*
X230816Y88917D01*
X230827Y88945D01*
X230843Y88969D01*
X230877Y89077D01*
X230918Y89183D01*
X230920Y89212D01*
X230929Y89240D01*
X230932Y89353D01*
X230941Y89466D01*
X230935Y89495D01*
X230936Y89524D01*
X230907Y89634D01*
X230885Y89745D01*
X230872Y89771D01*
X230864Y89799D01*
X230807Y89897D01*
X230754Y89997D01*
X230734Y90019D01*
X230719Y90044D01*
X230636Y90121D01*
X230558Y90203D01*
X230533Y90218D01*
X230512Y90238D01*
X230411Y90290D01*
X230313Y90347D01*
X230285Y90354D01*
X230259Y90368D01*
X230181Y90381D01*
X230038Y90417D01*
X229975Y90415D01*
X229928Y90423D01*
X229667Y90423D01*
X212424Y107666D01*
X212354Y107718D01*
X212290Y107778D01*
X212241Y107804D01*
X212197Y107837D01*
X212115Y107868D01*
X212037Y107908D01*
X211990Y107916D01*
X211931Y107938D01*
X211784Y107950D01*
X211706Y107963D01*
X211478Y107963D01*
X211420Y107955D01*
X211362Y107957D01*
X211280Y107935D01*
X211196Y107923D01*
X211143Y107900D01*
X211087Y107885D01*
X211014Y107842D01*
X210937Y107807D01*
X210892Y107769D01*
X210842Y107740D01*
X210784Y107678D01*
X210720Y107624D01*
X210688Y107575D01*
X210648Y107532D01*
X210609Y107457D01*
X210562Y107387D01*
X210545Y107331D01*
X210518Y107279D01*
X210507Y107211D01*
X210477Y107116D01*
X210474Y107016D01*
X210463Y106948D01*
X210463Y104178D01*
X209272Y102987D01*
X194588Y102987D01*
X193397Y104178D01*
X193397Y118862D01*
X194588Y120053D01*
X209272Y120053D01*
X210463Y118862D01*
X210463Y116092D01*
X210471Y116034D01*
X210469Y115976D01*
X210491Y115894D01*
X210503Y115810D01*
X210526Y115757D01*
X210541Y115701D01*
X210584Y115628D01*
X210619Y115551D01*
X210657Y115506D01*
X210686Y115456D01*
X210748Y115398D01*
X210802Y115334D01*
X210851Y115302D01*
X210894Y115262D01*
X210969Y115223D01*
X211039Y115176D01*
X211095Y115159D01*
X211147Y115132D01*
X211215Y115121D01*
X211310Y115091D01*
X211410Y115088D01*
X211478Y115077D01*
X215073Y115077D01*
X230067Y100083D01*
X230074Y100077D01*
X230081Y100070D01*
X230188Y99992D01*
X230294Y99912D01*
X230303Y99909D01*
X230311Y99903D01*
X230436Y99858D01*
X230529Y99823D01*
X230542Y99784D01*
X230580Y99658D01*
X230585Y99649D01*
X230588Y99640D01*
X230622Y99594D01*
X230735Y99419D01*
X230762Y99396D01*
X230783Y99367D01*
X232316Y97834D01*
X232386Y97782D01*
X232450Y97722D01*
X232499Y97696D01*
X232543Y97663D01*
X232625Y97632D01*
X232703Y97592D01*
X232750Y97584D01*
X232809Y97562D01*
X232956Y97550D01*
X233034Y97537D01*
X280126Y97537D01*
X280211Y97549D01*
X280297Y97551D01*
X280352Y97569D01*
X280408Y97577D01*
X280486Y97612D01*
X280568Y97638D01*
X280615Y97670D01*
X280667Y97693D01*
X280733Y97748D01*
X280804Y97796D01*
X280841Y97840D01*
X280884Y97876D01*
X280932Y97948D01*
X280987Y98014D01*
X281010Y98066D01*
X281042Y98113D01*
X281068Y98195D01*
X281103Y98274D01*
X281110Y98330D01*
X281128Y98384D01*
X281130Y98470D01*
X281142Y98555D01*
X281133Y98611D01*
X281135Y98668D01*
X281113Y98751D01*
X281101Y98837D01*
X281077Y98888D01*
X281063Y98943D01*
X281019Y99017D01*
X280984Y99096D01*
X280947Y99139D01*
X280918Y99188D01*
X280855Y99247D01*
X280800Y99312D01*
X280758Y99338D01*
X280711Y99382D01*
X280581Y99448D01*
X280515Y99490D01*
X278731Y100229D01*
X276810Y102150D01*
X276064Y103949D01*
X276006Y104048D01*
X275953Y104150D01*
X275934Y104170D01*
X275920Y104194D01*
X275836Y104273D01*
X275757Y104356D01*
X275733Y104370D01*
X275713Y104389D01*
X275611Y104442D01*
X275512Y104500D01*
X275485Y104507D01*
X275461Y104519D01*
X275348Y104542D01*
X275236Y104570D01*
X275209Y104569D01*
X275182Y104574D01*
X275140Y104571D01*
X275128Y104573D01*
X275123Y104573D01*
X275063Y104564D01*
X274952Y104561D01*
X274926Y104552D01*
X274898Y104550D01*
X274862Y104536D01*
X274842Y104533D01*
X274778Y104505D01*
X274682Y104473D01*
X274662Y104459D01*
X274633Y104448D01*
X274606Y104427D01*
X274583Y104417D01*
X274555Y104393D01*
X264698Y104393D01*
X264640Y104385D01*
X264582Y104387D01*
X264500Y104365D01*
X264416Y104353D01*
X264363Y104330D01*
X264307Y104315D01*
X264234Y104272D01*
X264157Y104237D01*
X264112Y104199D01*
X264062Y104170D01*
X264004Y104108D01*
X263940Y104054D01*
X263908Y104005D01*
X263868Y103962D01*
X263829Y103887D01*
X263782Y103817D01*
X263765Y103761D01*
X263738Y103709D01*
X263727Y103641D01*
X263697Y103546D01*
X263694Y103446D01*
X263683Y103378D01*
X263683Y102108D01*
X262492Y100917D01*
X249808Y100917D01*
X248589Y102136D01*
X248551Y102165D01*
X248518Y102201D01*
X248437Y102250D01*
X248362Y102307D01*
X248317Y102324D01*
X248275Y102350D01*
X248184Y102375D01*
X248097Y102408D01*
X248048Y102412D01*
X248001Y102425D01*
X247907Y102424D01*
X247813Y102432D01*
X247766Y102422D01*
X247717Y102421D01*
X247627Y102394D01*
X247535Y102376D01*
X247491Y102353D01*
X247445Y102339D01*
X247366Y102288D01*
X247282Y102245D01*
X247247Y102211D01*
X247206Y102185D01*
X247159Y102127D01*
X247076Y102049D01*
X247032Y101974D01*
X246992Y101926D01*
X246683Y101390D01*
X246210Y100917D01*
X245631Y100582D01*
X244984Y100409D01*
X241181Y100409D01*
X241181Y106934D01*
X241173Y106992D01*
X241174Y107050D01*
X241153Y107132D01*
X241141Y107215D01*
X241117Y107269D01*
X241103Y107325D01*
X241060Y107398D01*
X241025Y107475D01*
X240987Y107519D01*
X240957Y107570D01*
X240896Y107627D01*
X240841Y107692D01*
X240793Y107724D01*
X240750Y107764D01*
X240675Y107803D01*
X240605Y107849D01*
X240549Y107867D01*
X240497Y107894D01*
X240429Y107905D01*
X240334Y107935D01*
X240234Y107938D01*
X240166Y107949D01*
X239149Y107949D01*
X239149Y107951D01*
X240166Y107951D01*
X240224Y107959D01*
X240282Y107958D01*
X240364Y107979D01*
X240447Y107991D01*
X240501Y108015D01*
X240557Y108029D01*
X240630Y108072D01*
X240707Y108107D01*
X240751Y108145D01*
X240802Y108175D01*
X240859Y108236D01*
X240924Y108291D01*
X240956Y108339D01*
X240996Y108382D01*
X241035Y108457D01*
X241081Y108527D01*
X241099Y108583D01*
X241126Y108635D01*
X241137Y108703D01*
X241167Y108798D01*
X241170Y108898D01*
X241181Y108966D01*
X241181Y115491D01*
X244984Y115491D01*
X245631Y115318D01*
X246210Y114983D01*
X246683Y114510D01*
X246992Y113974D01*
X247022Y113936D01*
X247045Y113893D01*
X247109Y113825D01*
X247168Y113751D01*
X247207Y113722D01*
X247241Y113687D01*
X247322Y113639D01*
X247398Y113584D01*
X247444Y113568D01*
X247486Y113543D01*
X247577Y113520D01*
X247665Y113488D01*
X247714Y113485D01*
X247761Y113473D01*
X247855Y113476D01*
X247949Y113470D01*
X247997Y113480D01*
X248046Y113482D01*
X248135Y113511D01*
X248227Y113531D01*
X248270Y113554D01*
X248316Y113569D01*
X248376Y113612D01*
X248477Y113667D01*
X248538Y113728D01*
X248589Y113764D01*
X249808Y114983D01*
X261394Y114983D01*
X261452Y114991D01*
X261510Y114989D01*
X261592Y115011D01*
X261676Y115023D01*
X261729Y115046D01*
X261785Y115061D01*
X261858Y115104D01*
X261935Y115139D01*
X261980Y115177D01*
X262030Y115206D01*
X262088Y115268D01*
X262152Y115322D01*
X262184Y115371D01*
X262224Y115414D01*
X262263Y115489D01*
X262310Y115559D01*
X262327Y115615D01*
X262354Y115667D01*
X262365Y115735D01*
X262395Y115830D01*
X262398Y115930D01*
X262409Y115998D01*
X262409Y118220D01*
X262397Y118307D01*
X262394Y118394D01*
X262377Y118447D01*
X262369Y118502D01*
X262334Y118582D01*
X262307Y118665D01*
X262279Y118704D01*
X262253Y118761D01*
X262157Y118874D01*
X262112Y118938D01*
X260603Y120447D01*
X260603Y127058D01*
X260599Y127087D01*
X260602Y127116D01*
X260579Y127227D01*
X260563Y127339D01*
X260551Y127366D01*
X260546Y127395D01*
X260493Y127495D01*
X260447Y127598D01*
X260428Y127621D01*
X260415Y127647D01*
X260337Y127729D01*
X260264Y127815D01*
X260239Y127832D01*
X260219Y127853D01*
X260121Y127910D01*
X260027Y127973D01*
X259999Y127982D01*
X259974Y127997D01*
X259864Y128025D01*
X259756Y128059D01*
X259726Y128060D01*
X259698Y128067D01*
X259585Y128063D01*
X259472Y128066D01*
X259443Y128059D01*
X259414Y128058D01*
X259306Y128023D01*
X259197Y127994D01*
X259171Y127979D01*
X259143Y127970D01*
X259079Y127925D01*
X258952Y127849D01*
X258909Y127803D01*
X258870Y127775D01*
X258572Y127477D01*
X250648Y127477D01*
X250561Y127465D01*
X250474Y127462D01*
X250421Y127445D01*
X250366Y127437D01*
X250287Y127402D01*
X250203Y127375D01*
X250164Y127347D01*
X250107Y127321D01*
X249994Y127225D01*
X249930Y127180D01*
X248574Y125824D01*
X246193Y123443D01*
X181407Y123443D01*
X175693Y129157D01*
X175693Y138552D01*
X175685Y138610D01*
X175687Y138668D01*
X175665Y138750D01*
X175653Y138834D01*
X175630Y138887D01*
X175615Y138943D01*
X175572Y139016D01*
X175537Y139093D01*
X175499Y139138D01*
X175470Y139188D01*
X175408Y139246D01*
X175354Y139310D01*
X175305Y139342D01*
X175262Y139382D01*
X175187Y139421D01*
X175117Y139468D01*
X175061Y139485D01*
X175009Y139512D01*
X174941Y139523D01*
X174846Y139553D01*
X174746Y139556D01*
X174678Y139567D01*
X173158Y139567D01*
X171967Y140758D01*
X171967Y145704D01*
X171959Y145762D01*
X171961Y145820D01*
X171939Y145902D01*
X171927Y145986D01*
X171904Y146039D01*
X171889Y146095D01*
X171846Y146168D01*
X171811Y146245D01*
X171773Y146290D01*
X171744Y146340D01*
X171682Y146398D01*
X171628Y146462D01*
X171579Y146494D01*
X171536Y146534D01*
X171461Y146573D01*
X171391Y146620D01*
X171335Y146637D01*
X171283Y146664D01*
X171215Y146675D01*
X171120Y146705D01*
X171020Y146708D01*
X170952Y146719D01*
X160671Y146719D01*
X155034Y152356D01*
X154964Y152408D01*
X154900Y152468D01*
X154851Y152494D01*
X154807Y152527D01*
X154725Y152558D01*
X154647Y152598D01*
X154600Y152606D01*
X154541Y152628D01*
X154394Y152640D01*
X154316Y152653D01*
X133380Y152653D01*
X133351Y152649D01*
X133322Y152652D01*
X133210Y152629D01*
X133098Y152613D01*
X133072Y152601D01*
X133043Y152596D01*
X132942Y152544D01*
X132839Y152497D01*
X132816Y152478D01*
X132790Y152465D01*
X132708Y152387D01*
X132622Y152314D01*
X132606Y152289D01*
X132584Y152269D01*
X132527Y152171D01*
X132464Y152077D01*
X132455Y152049D01*
X132441Y152024D01*
X132413Y151914D01*
X132379Y151806D01*
X132378Y151776D01*
X132371Y151748D01*
X132374Y151635D01*
X132371Y151522D01*
X132379Y151493D01*
X132380Y151464D01*
X132414Y151356D01*
X132443Y151247D01*
X132458Y151221D01*
X132467Y151193D01*
X132513Y151130D01*
X132588Y151002D01*
X132634Y150959D01*
X132662Y150920D01*
X157804Y125778D01*
X157874Y125726D01*
X157938Y125666D01*
X157987Y125640D01*
X158031Y125607D01*
X158113Y125576D01*
X158191Y125536D01*
X158238Y125528D01*
X158297Y125506D01*
X158445Y125494D01*
X158522Y125481D01*
X161489Y125481D01*
X167307Y119663D01*
X167307Y113688D01*
X167314Y113634D01*
X167313Y113594D01*
X167320Y113569D01*
X167322Y113514D01*
X167339Y113462D01*
X167347Y113407D01*
X167382Y113327D01*
X167409Y113244D01*
X167437Y113205D01*
X167463Y113148D01*
X167559Y113034D01*
X167604Y112971D01*
X168783Y111792D01*
X168783Y104108D01*
X167604Y102929D01*
X167552Y102860D01*
X167492Y102796D01*
X167466Y102746D01*
X167433Y102702D01*
X167402Y102620D01*
X167362Y102543D01*
X167354Y102495D01*
X167332Y102437D01*
X167320Y102289D01*
X167307Y102211D01*
X167307Y89598D01*
X167315Y89540D01*
X167313Y89482D01*
X167335Y89400D01*
X167347Y89316D01*
X167370Y89263D01*
X167385Y89207D01*
X167428Y89134D01*
X167463Y89057D01*
X167501Y89012D01*
X167530Y88962D01*
X167592Y88904D01*
X167646Y88840D01*
X167695Y88808D01*
X167738Y88768D01*
X167813Y88729D01*
X167883Y88682D01*
X167939Y88665D01*
X167991Y88638D01*
X168059Y88627D01*
X168154Y88597D01*
X168254Y88594D01*
X168322Y88583D01*
X168742Y88583D01*
X169933Y87392D01*
X169933Y77708D01*
X168742Y76517D01*
X158058Y76517D01*
X156867Y77708D01*
X156867Y87392D01*
X158058Y88583D01*
X159178Y88583D01*
X159236Y88591D01*
X159294Y88589D01*
X159376Y88611D01*
X159460Y88623D01*
X159513Y88646D01*
X159569Y88661D01*
X159642Y88704D01*
X159719Y88739D01*
X159764Y88777D01*
X159814Y88806D01*
X159872Y88868D01*
X159936Y88922D01*
X159968Y88971D01*
X160008Y89014D01*
X160047Y89089D01*
X160094Y89159D01*
X160111Y89215D01*
X160138Y89267D01*
X160149Y89335D01*
X160179Y89430D01*
X160182Y89530D01*
X160193Y89598D01*
X160193Y102211D01*
X160181Y102298D01*
X160178Y102385D01*
X160161Y102438D01*
X160153Y102493D01*
X160118Y102573D01*
X160091Y102656D01*
X160063Y102695D01*
X160037Y102752D01*
X159941Y102865D01*
X159896Y102929D01*
X159468Y103357D01*
X159421Y103393D01*
X159381Y103435D01*
X159308Y103478D01*
X159241Y103528D01*
X159186Y103549D01*
X159136Y103579D01*
X159054Y103599D01*
X158975Y103630D01*
X158917Y103634D01*
X158860Y103649D01*
X158776Y103646D01*
X158692Y103653D01*
X158634Y103642D01*
X158576Y103640D01*
X158496Y103614D01*
X158413Y103597D01*
X158361Y103570D01*
X158305Y103552D01*
X158249Y103512D01*
X158161Y103466D01*
X158088Y103397D01*
X158032Y103357D01*
X157592Y102917D01*
X149908Y102917D01*
X148729Y104096D01*
X148660Y104148D01*
X148596Y104208D01*
X148546Y104234D01*
X148502Y104267D01*
X148420Y104298D01*
X148343Y104338D01*
X148295Y104346D01*
X148237Y104368D01*
X148089Y104380D01*
X148012Y104393D01*
X125038Y104393D01*
X124952Y104381D01*
X124864Y104378D01*
X124812Y104361D01*
X124757Y104353D01*
X124677Y104318D01*
X124594Y104291D01*
X124555Y104263D01*
X124498Y104237D01*
X124384Y104141D01*
X124321Y104096D01*
X123142Y102917D01*
X115458Y102917D01*
X115018Y103357D01*
X114971Y103392D01*
X114931Y103435D01*
X114858Y103478D01*
X114791Y103528D01*
X114736Y103549D01*
X114686Y103579D01*
X114604Y103600D01*
X114525Y103630D01*
X114467Y103634D01*
X114410Y103649D01*
X114326Y103646D01*
X114242Y103653D01*
X114184Y103642D01*
X114126Y103640D01*
X114046Y103614D01*
X113963Y103597D01*
X113911Y103570D01*
X113855Y103552D01*
X113799Y103512D01*
X113711Y103466D01*
X113638Y103398D01*
X113582Y103357D01*
X113154Y102929D01*
X113102Y102859D01*
X113042Y102796D01*
X113016Y102746D01*
X112983Y102702D01*
X112952Y102620D01*
X112912Y102543D01*
X112904Y102495D01*
X112882Y102436D01*
X112870Y102289D01*
X112857Y102211D01*
X112857Y93254D01*
X112869Y93167D01*
X112872Y93080D01*
X112889Y93027D01*
X112897Y92972D01*
X112932Y92892D01*
X112959Y92809D01*
X112987Y92770D01*
X113013Y92713D01*
X113109Y92600D01*
X113154Y92536D01*
X116165Y89525D01*
X116163Y89482D01*
X116185Y89400D01*
X116197Y89316D01*
X116220Y89263D01*
X116235Y89207D01*
X116278Y89134D01*
X116313Y89057D01*
X116351Y89012D01*
X116380Y88962D01*
X116442Y88904D01*
X116496Y88840D01*
X116545Y88808D01*
X116588Y88768D01*
X116663Y88729D01*
X116733Y88682D01*
X116789Y88665D01*
X116841Y88638D01*
X116909Y88627D01*
X117004Y88597D01*
X117104Y88594D01*
X117172Y88583D01*
X117942Y88583D01*
X119133Y87392D01*
X119133Y77708D01*
X117835Y76410D01*
X117817Y76386D01*
X117795Y76367D01*
X117732Y76273D01*
X117664Y76183D01*
X117653Y76155D01*
X117637Y76131D01*
X117603Y76023D01*
X117562Y75917D01*
X117560Y75888D01*
X117551Y75860D01*
X117548Y75746D01*
X117539Y75634D01*
X117545Y75605D01*
X117544Y75576D01*
X117573Y75466D01*
X117595Y75355D01*
X117608Y75329D01*
X117616Y75301D01*
X117673Y75203D01*
X117726Y75103D01*
X117746Y75081D01*
X117761Y75056D01*
X117843Y74979D01*
X117922Y74897D01*
X117947Y74882D01*
X117968Y74862D01*
X118069Y74810D01*
X118167Y74753D01*
X118195Y74746D01*
X118221Y74732D01*
X118299Y74719D01*
X118442Y74683D01*
X118505Y74685D01*
X118552Y74677D01*
X120026Y74677D01*
X120113Y74689D01*
X120200Y74692D01*
X120253Y74709D01*
X120308Y74717D01*
X120388Y74752D01*
X120471Y74779D01*
X120510Y74807D01*
X120567Y74833D01*
X120680Y74929D01*
X120744Y74974D01*
X121670Y75900D01*
X121722Y75970D01*
X121782Y76034D01*
X121808Y76083D01*
X121841Y76127D01*
X121872Y76209D01*
X121912Y76287D01*
X121920Y76334D01*
X121942Y76393D01*
X121954Y76540D01*
X121967Y76618D01*
X121967Y81392D01*
X122407Y81832D01*
X122443Y81879D01*
X122485Y81919D01*
X122528Y81992D01*
X122578Y82059D01*
X122599Y82114D01*
X122629Y82164D01*
X122649Y82246D01*
X122680Y82325D01*
X122684Y82383D01*
X122699Y82440D01*
X122696Y82524D01*
X122703Y82608D01*
X122692Y82666D01*
X122690Y82724D01*
X122664Y82804D01*
X122647Y82887D01*
X122620Y82939D01*
X122602Y82995D01*
X122562Y83051D01*
X122516Y83139D01*
X122447Y83212D01*
X122407Y83268D01*
X121967Y83708D01*
X121967Y91392D01*
X123146Y92571D01*
X123198Y92640D01*
X123258Y92704D01*
X123283Y92753D01*
X125686Y95156D01*
X128067Y97537D01*
X136091Y97537D01*
X136178Y97549D01*
X136266Y97552D01*
X136318Y97569D01*
X136373Y97577D01*
X136453Y97612D01*
X136536Y97639D01*
X136575Y97667D01*
X136632Y97693D01*
X136746Y97789D01*
X136809Y97834D01*
X137058Y98083D01*
X138913Y98083D01*
X138943Y98087D01*
X138974Y98085D01*
X139051Y98102D01*
X139194Y98123D01*
X139253Y98149D01*
X139301Y98160D01*
X141041Y98881D01*
X143759Y98881D01*
X145499Y98160D01*
X145529Y98152D01*
X145556Y98138D01*
X145634Y98125D01*
X145774Y98089D01*
X145838Y98091D01*
X145887Y98083D01*
X147742Y98083D01*
X148933Y96892D01*
X148933Y94330D01*
X148937Y94300D01*
X148935Y94269D01*
X148952Y94192D01*
X148973Y94049D01*
X148999Y93990D01*
X149010Y93942D01*
X149231Y93409D01*
X149231Y90691D01*
X149010Y90158D01*
X149002Y90128D01*
X148988Y90101D01*
X148975Y90023D01*
X148939Y89883D01*
X148941Y89819D01*
X148933Y89770D01*
X148933Y87208D01*
X147742Y86017D01*
X145887Y86017D01*
X145857Y86013D01*
X145826Y86015D01*
X145749Y85998D01*
X145606Y85977D01*
X145547Y85951D01*
X145499Y85940D01*
X143759Y85219D01*
X141041Y85219D01*
X139301Y85940D01*
X139271Y85948D01*
X139244Y85962D01*
X139166Y85975D01*
X139026Y86011D01*
X138962Y86009D01*
X138913Y86017D01*
X137058Y86017D01*
X135867Y87208D01*
X135867Y89408D01*
X135860Y89456D01*
X135861Y89461D01*
X135859Y89466D01*
X135861Y89524D01*
X135839Y89606D01*
X135827Y89690D01*
X135804Y89743D01*
X135789Y89799D01*
X135746Y89872D01*
X135711Y89949D01*
X135673Y89994D01*
X135644Y90044D01*
X135582Y90102D01*
X135528Y90166D01*
X135479Y90198D01*
X135436Y90238D01*
X135361Y90277D01*
X135291Y90324D01*
X135235Y90341D01*
X135183Y90368D01*
X135115Y90379D01*
X135020Y90409D01*
X134920Y90412D01*
X134852Y90423D01*
X133048Y90423D01*
X132990Y90415D01*
X132932Y90417D01*
X132850Y90395D01*
X132766Y90383D01*
X132713Y90360D01*
X132657Y90345D01*
X132584Y90302D01*
X132507Y90267D01*
X132462Y90229D01*
X132412Y90200D01*
X132354Y90138D01*
X132290Y90084D01*
X132258Y90035D01*
X132218Y89992D01*
X132179Y89917D01*
X132132Y89847D01*
X132115Y89791D01*
X132088Y89739D01*
X132077Y89671D01*
X132047Y89576D01*
X132044Y89476D01*
X132033Y89408D01*
X132033Y83708D01*
X131593Y83268D01*
X131558Y83221D01*
X131515Y83181D01*
X131472Y83108D01*
X131422Y83041D01*
X131401Y82986D01*
X131371Y82936D01*
X131350Y82854D01*
X131320Y82775D01*
X131316Y82717D01*
X131301Y82660D01*
X131304Y82576D01*
X131297Y82492D01*
X131308Y82434D01*
X131310Y82376D01*
X131336Y82296D01*
X131353Y82213D01*
X131380Y82161D01*
X131398Y82105D01*
X131438Y82049D01*
X131484Y81961D01*
X131552Y81888D01*
X131593Y81832D01*
X132021Y81404D01*
X132091Y81352D01*
X132154Y81292D01*
X132204Y81266D01*
X132248Y81233D01*
X132330Y81202D01*
X132407Y81162D01*
X132455Y81154D01*
X132514Y81132D01*
X132661Y81120D01*
X132739Y81107D01*
X134743Y81107D01*
X136470Y79380D01*
X136540Y79328D01*
X136604Y79268D01*
X136653Y79242D01*
X136697Y79209D01*
X136779Y79178D01*
X136857Y79138D01*
X136904Y79130D01*
X136963Y79108D01*
X137110Y79096D01*
X137188Y79083D01*
X138913Y79083D01*
X138943Y79087D01*
X138974Y79085D01*
X139051Y79102D01*
X139194Y79123D01*
X139253Y79149D01*
X139301Y79160D01*
X141041Y79881D01*
X143759Y79881D01*
X145499Y79160D01*
X145529Y79152D01*
X145556Y79138D01*
X145634Y79125D01*
X145774Y79089D01*
X145838Y79091D01*
X145887Y79083D01*
X147742Y79083D01*
X148933Y77892D01*
X148933Y75330D01*
X148937Y75299D01*
X148935Y75269D01*
X148952Y75192D01*
X148973Y75049D01*
X148999Y74990D01*
X149010Y74942D01*
X149231Y74409D01*
X149231Y71691D01*
X149010Y71158D01*
X149002Y71128D01*
X148988Y71101D01*
X148975Y71024D01*
X148939Y70883D01*
X148941Y70819D01*
X148933Y70770D01*
X148933Y68208D01*
X147742Y67017D01*
X145887Y67017D01*
X145857Y67013D01*
X145826Y67015D01*
X145749Y66998D01*
X145606Y66977D01*
X145587Y66969D01*
X145585Y66969D01*
X145544Y66950D01*
X145499Y66940D01*
X143759Y66219D01*
X141041Y66219D01*
X139301Y66940D01*
X139279Y66946D01*
X139264Y66953D01*
X139259Y66954D01*
X139244Y66962D01*
X139166Y66975D01*
X139026Y67011D01*
X138962Y67009D01*
X138913Y67017D01*
X137058Y67017D01*
X135867Y68208D01*
X135867Y69502D01*
X135855Y69589D01*
X135852Y69676D01*
X135835Y69729D01*
X135827Y69784D01*
X135792Y69864D01*
X135765Y69947D01*
X135737Y69986D01*
X135711Y70043D01*
X135615Y70156D01*
X135570Y70220D01*
X132775Y73015D01*
X132729Y73050D01*
X132688Y73092D01*
X132615Y73135D01*
X132548Y73186D01*
X132493Y73206D01*
X132443Y73236D01*
X132361Y73257D01*
X132282Y73287D01*
X132224Y73292D01*
X132167Y73306D01*
X132083Y73303D01*
X131999Y73310D01*
X131942Y73299D01*
X131883Y73297D01*
X131803Y73271D01*
X131720Y73255D01*
X131668Y73228D01*
X131613Y73210D01*
X131556Y73169D01*
X131468Y73124D01*
X131396Y73055D01*
X131339Y73015D01*
X130842Y72517D01*
X128768Y72517D01*
X128681Y72505D01*
X128594Y72502D01*
X128541Y72485D01*
X128486Y72477D01*
X128406Y72442D01*
X128323Y72415D01*
X128284Y72387D01*
X128227Y72361D01*
X128114Y72265D01*
X128050Y72220D01*
X123393Y67563D01*
X116448Y67563D01*
X116419Y67559D01*
X116389Y67562D01*
X116278Y67539D01*
X116166Y67523D01*
X116140Y67511D01*
X116111Y67506D01*
X116010Y67453D01*
X115907Y67407D01*
X115884Y67388D01*
X115858Y67375D01*
X115776Y67297D01*
X115690Y67224D01*
X115674Y67199D01*
X115652Y67179D01*
X115595Y67081D01*
X115532Y66987D01*
X115523Y66959D01*
X115509Y66934D01*
X115481Y66824D01*
X115446Y66716D01*
X115446Y66686D01*
X115438Y66658D01*
X115442Y66545D01*
X115439Y66432D01*
X115447Y66403D01*
X115448Y66374D01*
X115482Y66266D01*
X115511Y66157D01*
X115526Y66131D01*
X115535Y66103D01*
X115581Y66039D01*
X115656Y65912D01*
X115702Y65869D01*
X115730Y65830D01*
X116884Y64676D01*
X121667Y59893D01*
X121667Y39994D01*
X121679Y39907D01*
X121682Y39820D01*
X121699Y39767D01*
X121707Y39712D01*
X121742Y39632D01*
X121769Y39549D01*
X121797Y39510D01*
X121823Y39453D01*
X121919Y39340D01*
X121964Y39276D01*
X139379Y21861D01*
X139448Y21809D01*
X139511Y21750D01*
X139561Y21724D01*
X139607Y21690D01*
X139687Y21659D01*
X139763Y21620D01*
X139819Y21609D01*
X139872Y21588D01*
X139958Y21581D01*
X140042Y21565D01*
X140099Y21570D01*
X140156Y21565D01*
X140240Y21582D01*
X140325Y21589D01*
X140379Y21610D01*
X140434Y21621D01*
X140511Y21660D01*
X140591Y21691D01*
X140636Y21726D01*
X140687Y21752D01*
X140749Y21811D01*
X140817Y21863D01*
X140851Y21908D01*
X140893Y21948D01*
X140936Y22022D01*
X140988Y22091D01*
X141008Y22144D01*
X141036Y22193D01*
X141058Y22276D01*
X141088Y22357D01*
X141093Y22413D01*
X141107Y22468D01*
X141104Y22554D01*
X141111Y22640D01*
X141100Y22688D01*
X141098Y22753D01*
X141053Y22891D01*
X141035Y22967D01*
X140969Y23126D01*
X140969Y27674D01*
X142710Y31875D01*
X145925Y35090D01*
X150126Y36831D01*
X154674Y36831D01*
X158875Y35090D01*
X162090Y31875D01*
X163831Y27674D01*
X163831Y23126D01*
X162091Y18925D01*
X161155Y17990D01*
X161138Y17966D01*
X161115Y17947D01*
X161053Y17853D01*
X160984Y17763D01*
X160974Y17735D01*
X160958Y17711D01*
X160924Y17603D01*
X160883Y17497D01*
X160881Y17468D01*
X160872Y17440D01*
X160869Y17326D01*
X160860Y17214D01*
X160865Y17185D01*
X160865Y17156D01*
X160893Y17046D01*
X160916Y16935D01*
X160929Y16909D01*
X160936Y16881D01*
X160994Y16783D01*
X161047Y16683D01*
X161067Y16661D01*
X161082Y16636D01*
X161164Y16559D01*
X161242Y16477D01*
X161268Y16462D01*
X161289Y16442D01*
X161390Y16390D01*
X161488Y16333D01*
X161516Y16326D01*
X161542Y16312D01*
X161620Y16299D01*
X161763Y16263D01*
X161826Y16265D01*
X161873Y16257D01*
X163206Y16257D01*
X163293Y16269D01*
G37*
G36*
X242913Y130569D02*
X242913Y130569D01*
X243000Y130572D01*
X243053Y130589D01*
X243108Y130597D01*
X243188Y130632D01*
X243271Y130659D01*
X243310Y130687D01*
X243367Y130713D01*
X243480Y130809D01*
X243544Y130854D01*
X245400Y132710D01*
X245452Y132780D01*
X245512Y132844D01*
X245538Y132893D01*
X245571Y132937D01*
X245602Y133019D01*
X245642Y133097D01*
X245650Y133144D01*
X245672Y133203D01*
X245684Y133350D01*
X245697Y133428D01*
X245697Y141352D01*
X247137Y142792D01*
X247172Y142839D01*
X247215Y142879D01*
X247258Y142952D01*
X247308Y143019D01*
X247329Y143074D01*
X247359Y143124D01*
X247379Y143206D01*
X247410Y143285D01*
X247414Y143343D01*
X247429Y143400D01*
X247426Y143484D01*
X247433Y143568D01*
X247422Y143626D01*
X247420Y143684D01*
X247394Y143764D01*
X247377Y143847D01*
X247350Y143899D01*
X247332Y143955D01*
X247292Y144011D01*
X247246Y144099D01*
X247177Y144172D01*
X247137Y144228D01*
X246054Y145311D01*
X246030Y145329D01*
X246011Y145351D01*
X245917Y145414D01*
X245827Y145482D01*
X245799Y145493D01*
X245775Y145509D01*
X245667Y145543D01*
X245561Y145584D01*
X245532Y145586D01*
X245504Y145595D01*
X245390Y145598D01*
X245278Y145607D01*
X245249Y145601D01*
X245220Y145602D01*
X245110Y145574D01*
X244999Y145551D01*
X244973Y145538D01*
X244945Y145530D01*
X244847Y145472D01*
X244747Y145420D01*
X244725Y145400D01*
X244700Y145385D01*
X244623Y145302D01*
X244541Y145224D01*
X244526Y145199D01*
X244506Y145178D01*
X244454Y145077D01*
X244397Y144979D01*
X244390Y144951D01*
X244376Y144925D01*
X244363Y144847D01*
X244328Y144709D01*
X243281Y142181D01*
X241359Y140259D01*
X238849Y139219D01*
X236131Y139219D01*
X233621Y140259D01*
X231699Y142181D01*
X230659Y144691D01*
X230659Y147430D01*
X230647Y147517D01*
X230644Y147604D01*
X230627Y147657D01*
X230619Y147712D01*
X230584Y147792D01*
X230557Y147875D01*
X230529Y147914D01*
X230503Y147971D01*
X230407Y148084D01*
X230362Y148148D01*
X215994Y162516D01*
X215924Y162568D01*
X215860Y162628D01*
X215811Y162654D01*
X215767Y162687D01*
X215685Y162718D01*
X215607Y162758D01*
X215560Y162766D01*
X215501Y162788D01*
X215354Y162800D01*
X215276Y162813D01*
X168707Y162813D01*
X156124Y175396D01*
X156054Y175448D01*
X155990Y175508D01*
X155941Y175534D01*
X155897Y175567D01*
X155815Y175598D01*
X155737Y175638D01*
X155690Y175646D01*
X155631Y175668D01*
X155484Y175680D01*
X155406Y175693D01*
X148838Y175693D01*
X148809Y175689D01*
X148780Y175692D01*
X148669Y175669D01*
X148556Y175653D01*
X148530Y175641D01*
X148501Y175636D01*
X148400Y175583D01*
X148297Y175537D01*
X148275Y175518D01*
X148249Y175505D01*
X148166Y175427D01*
X148080Y175354D01*
X148064Y175329D01*
X148042Y175309D01*
X147985Y175211D01*
X147922Y175117D01*
X147913Y175089D01*
X147899Y175064D01*
X147871Y174954D01*
X147837Y174846D01*
X147836Y174816D01*
X147829Y174788D01*
X147832Y174675D01*
X147829Y174562D01*
X147837Y174533D01*
X147838Y174504D01*
X147873Y174396D01*
X147901Y174287D01*
X147916Y174261D01*
X147925Y174233D01*
X147971Y174169D01*
X148046Y174042D01*
X148092Y173999D01*
X148120Y173960D01*
X149301Y172779D01*
X150341Y170269D01*
X150341Y167551D01*
X149301Y165041D01*
X147364Y163104D01*
X147312Y163034D01*
X147252Y162970D01*
X147226Y162921D01*
X147193Y162877D01*
X147162Y162795D01*
X147122Y162717D01*
X147114Y162670D01*
X147092Y162611D01*
X147080Y162463D01*
X147067Y162386D01*
X147067Y160782D01*
X147075Y160724D01*
X147073Y160666D01*
X147095Y160584D01*
X147107Y160500D01*
X147130Y160447D01*
X147145Y160391D01*
X147188Y160318D01*
X147223Y160241D01*
X147261Y160196D01*
X147290Y160146D01*
X147352Y160088D01*
X147406Y160024D01*
X147455Y159992D01*
X147498Y159952D01*
X147573Y159913D01*
X147643Y159866D01*
X147699Y159849D01*
X147751Y159822D01*
X147819Y159811D01*
X147914Y159781D01*
X148014Y159778D01*
X148082Y159767D01*
X157683Y159767D01*
X163320Y154130D01*
X163390Y154078D01*
X163454Y154018D01*
X163503Y153992D01*
X163547Y153959D01*
X163629Y153928D01*
X163707Y153888D01*
X163754Y153880D01*
X163813Y153858D01*
X163960Y153846D01*
X164038Y153833D01*
X170952Y153833D01*
X171010Y153841D01*
X171068Y153839D01*
X171150Y153861D01*
X171234Y153873D01*
X171287Y153896D01*
X171343Y153911D01*
X171416Y153954D01*
X171493Y153989D01*
X171538Y154027D01*
X171588Y154056D01*
X171646Y154118D01*
X171710Y154172D01*
X171742Y154221D01*
X171782Y154264D01*
X171821Y154339D01*
X171868Y154409D01*
X171885Y154465D01*
X171912Y154517D01*
X171923Y154585D01*
X171953Y154680D01*
X171956Y154780D01*
X171967Y154848D01*
X171967Y157192D01*
X173158Y158383D01*
X185342Y158383D01*
X186533Y157192D01*
X186533Y140758D01*
X185342Y139567D01*
X183822Y139567D01*
X183764Y139559D01*
X183706Y139561D01*
X183624Y139539D01*
X183540Y139527D01*
X183487Y139504D01*
X183431Y139489D01*
X183358Y139446D01*
X183281Y139411D01*
X183236Y139373D01*
X183186Y139344D01*
X183128Y139282D01*
X183064Y139228D01*
X183032Y139179D01*
X182992Y139136D01*
X182953Y139061D01*
X182906Y138991D01*
X182889Y138935D01*
X182862Y138883D01*
X182851Y138815D01*
X182821Y138720D01*
X182818Y138620D01*
X182807Y138552D01*
X182807Y132524D01*
X182819Y132437D01*
X182822Y132350D01*
X182839Y132297D01*
X182847Y132242D01*
X182882Y132162D01*
X182909Y132079D01*
X182937Y132040D01*
X182963Y131983D01*
X183059Y131870D01*
X183104Y131806D01*
X184056Y130854D01*
X184126Y130802D01*
X184190Y130742D01*
X184239Y130716D01*
X184283Y130683D01*
X184365Y130652D01*
X184443Y130612D01*
X184490Y130604D01*
X184549Y130582D01*
X184696Y130570D01*
X184774Y130557D01*
X242826Y130557D01*
X242913Y130569D01*
G37*
%LPC*%
G36*
X34210Y18541D02*
X34210Y18541D01*
X27021Y21519D01*
X21519Y27021D01*
X18541Y34210D01*
X18541Y41990D01*
X21519Y49179D01*
X27021Y54681D01*
X34210Y57659D01*
X41990Y57659D01*
X49179Y54681D01*
X54681Y49179D01*
X57659Y41990D01*
X57659Y34210D01*
X54681Y27021D01*
X49179Y21519D01*
X41990Y18541D01*
X34210Y18541D01*
G37*
%LPD*%
%LPC*%
G36*
X339010Y18541D02*
X339010Y18541D01*
X331821Y21519D01*
X326319Y27021D01*
X323341Y34210D01*
X323341Y41990D01*
X326319Y49179D01*
X331821Y54681D01*
X339010Y57659D01*
X346790Y57659D01*
X353979Y54681D01*
X359481Y49179D01*
X362459Y41990D01*
X362459Y34210D01*
X359481Y27021D01*
X353979Y21519D01*
X346790Y18541D01*
X339010Y18541D01*
G37*
%LPD*%
G36*
X323313Y128029D02*
X323313Y128029D01*
X323400Y128032D01*
X323453Y128049D01*
X323508Y128057D01*
X323588Y128092D01*
X323671Y128119D01*
X323710Y128147D01*
X323767Y128173D01*
X323880Y128269D01*
X323944Y128314D01*
X338573Y142943D01*
X338585Y142959D01*
X338600Y142971D01*
X338670Y143072D01*
X338744Y143170D01*
X338751Y143189D01*
X338762Y143205D01*
X338802Y143321D01*
X338845Y143436D01*
X338847Y143456D01*
X338853Y143474D01*
X338859Y143597D01*
X338869Y143719D01*
X338865Y143739D01*
X338866Y143758D01*
X338837Y143878D01*
X338813Y143998D01*
X338804Y144016D01*
X338800Y144035D01*
X338739Y144142D01*
X338682Y144251D01*
X338669Y144265D01*
X338659Y144282D01*
X338571Y144367D01*
X338486Y144457D01*
X338469Y144467D01*
X338455Y144480D01*
X338347Y144538D01*
X338241Y144600D01*
X338222Y144605D01*
X338205Y144614D01*
X338084Y144640D01*
X337966Y144670D01*
X337946Y144670D01*
X337927Y144674D01*
X337853Y144667D01*
X337681Y144661D01*
X337633Y144646D01*
X337593Y144642D01*
X337284Y144559D01*
X331699Y144559D01*
X331699Y149616D01*
X331691Y149674D01*
X331693Y149732D01*
X331671Y149814D01*
X331659Y149897D01*
X331636Y149951D01*
X331621Y150007D01*
X331578Y150080D01*
X331543Y150157D01*
X331505Y150201D01*
X331476Y150252D01*
X331414Y150309D01*
X331360Y150374D01*
X331311Y150406D01*
X331268Y150446D01*
X331193Y150485D01*
X331123Y150531D01*
X331067Y150549D01*
X331015Y150576D01*
X330947Y150587D01*
X330852Y150617D01*
X330752Y150620D01*
X330725Y150624D01*
X330723Y150642D01*
X330724Y150700D01*
X330703Y150782D01*
X330691Y150866D01*
X330667Y150919D01*
X330653Y150975D01*
X330609Y151048D01*
X330575Y151125D01*
X330537Y151170D01*
X330507Y151220D01*
X330446Y151278D01*
X330391Y151342D01*
X330343Y151374D01*
X330300Y151414D01*
X330225Y151453D01*
X330155Y151500D01*
X330099Y151517D01*
X330047Y151544D01*
X329979Y151555D01*
X329884Y151585D01*
X329784Y151588D01*
X329716Y151599D01*
X320909Y151599D01*
X320909Y153434D01*
X321082Y154081D01*
X321417Y154660D01*
X321498Y154741D01*
X321533Y154788D01*
X321576Y154828D01*
X321618Y154901D01*
X321669Y154968D01*
X321690Y155023D01*
X321719Y155074D01*
X321740Y155155D01*
X321770Y155234D01*
X321775Y155292D01*
X321790Y155349D01*
X321787Y155433D01*
X321794Y155517D01*
X321782Y155575D01*
X321781Y155633D01*
X321755Y155713D01*
X321738Y155796D01*
X321711Y155848D01*
X321693Y155904D01*
X321653Y155960D01*
X321607Y156048D01*
X321538Y156121D01*
X321498Y156177D01*
X321429Y156246D01*
X321360Y156298D01*
X321296Y156358D01*
X321246Y156384D01*
X321202Y156417D01*
X321121Y156448D01*
X321043Y156488D01*
X320995Y156496D01*
X320937Y156518D01*
X320789Y156530D01*
X320712Y156543D01*
X305362Y156543D01*
X305328Y156538D01*
X305304Y156540D01*
X305280Y156536D01*
X305246Y156537D01*
X305164Y156515D01*
X305080Y156503D01*
X305049Y156489D01*
X305025Y156485D01*
X305003Y156473D01*
X304971Y156465D01*
X304898Y156422D01*
X304821Y156387D01*
X304795Y156365D01*
X304773Y156354D01*
X304755Y156336D01*
X304726Y156320D01*
X304668Y156258D01*
X304604Y156204D01*
X304586Y156176D01*
X304567Y156158D01*
X304553Y156135D01*
X304532Y156112D01*
X304493Y156037D01*
X304446Y155967D01*
X304437Y155937D01*
X304423Y155913D01*
X304416Y155886D01*
X304402Y155859D01*
X304391Y155791D01*
X304361Y155696D01*
X304360Y155665D01*
X304353Y155637D01*
X304355Y155575D01*
X304347Y155528D01*
X304347Y155527D01*
X304355Y155469D01*
X304353Y155412D01*
X304361Y155383D01*
X304362Y155353D01*
X304379Y155300D01*
X304387Y155245D01*
X304411Y155191D01*
X304425Y155137D01*
X304439Y155113D01*
X304449Y155082D01*
X304477Y155043D01*
X304503Y154986D01*
X304543Y154939D01*
X304570Y154892D01*
X304614Y154852D01*
X304644Y154809D01*
X304863Y154590D01*
X305198Y154011D01*
X305371Y153364D01*
X305371Y152236D01*
X305378Y152186D01*
X305377Y152173D01*
X305379Y152169D01*
X305377Y152120D01*
X305399Y152038D01*
X305411Y151954D01*
X305434Y151901D01*
X305449Y151845D01*
X305492Y151772D01*
X305527Y151695D01*
X305565Y151650D01*
X305594Y151600D01*
X305656Y151542D01*
X305710Y151478D01*
X305759Y151446D01*
X305802Y151406D01*
X305877Y151367D01*
X305947Y151320D01*
X306003Y151303D01*
X306055Y151276D01*
X306123Y151265D01*
X306218Y151235D01*
X306318Y151232D01*
X306386Y151221D01*
X309664Y151221D01*
X310311Y151048D01*
X310890Y150713D01*
X311363Y150240D01*
X311698Y149661D01*
X311871Y149014D01*
X311871Y148295D01*
X306386Y148295D01*
X306328Y148287D01*
X306270Y148289D01*
X306188Y148267D01*
X306104Y148256D01*
X306051Y148232D01*
X305995Y148217D01*
X305922Y148174D01*
X305845Y148139D01*
X305800Y148102D01*
X305750Y148072D01*
X305692Y148010D01*
X305628Y147956D01*
X305596Y147907D01*
X305556Y147864D01*
X305517Y147789D01*
X305470Y147719D01*
X305453Y147663D01*
X305426Y147611D01*
X305415Y147543D01*
X305385Y147448D01*
X305382Y147348D01*
X305371Y147280D01*
X305379Y147222D01*
X305377Y147164D01*
X305377Y147163D01*
X305399Y147082D01*
X305411Y146998D01*
X305434Y146945D01*
X305449Y146888D01*
X305492Y146816D01*
X305527Y146739D01*
X305565Y146694D01*
X305594Y146644D01*
X305656Y146586D01*
X305710Y146522D01*
X305759Y146490D01*
X305802Y146449D01*
X305877Y146411D01*
X305947Y146364D01*
X306003Y146347D01*
X306055Y146320D01*
X306123Y146309D01*
X306218Y146279D01*
X306318Y146276D01*
X306386Y146265D01*
X311871Y146265D01*
X311871Y145546D01*
X311736Y145043D01*
X311724Y144946D01*
X311704Y144851D01*
X311708Y144811D01*
X311702Y144761D01*
X311729Y144591D01*
X311736Y144517D01*
X311871Y144014D01*
X311871Y143295D01*
X306386Y143295D01*
X306328Y143287D01*
X306270Y143289D01*
X306188Y143267D01*
X306104Y143256D01*
X306051Y143232D01*
X305995Y143217D01*
X305922Y143174D01*
X305845Y143139D01*
X305800Y143102D01*
X305750Y143072D01*
X305692Y143010D01*
X305628Y142956D01*
X305596Y142907D01*
X305556Y142864D01*
X305517Y142789D01*
X305470Y142719D01*
X305453Y142663D01*
X305426Y142611D01*
X305415Y142543D01*
X305385Y142448D01*
X305382Y142348D01*
X305371Y142280D01*
X305379Y142222D01*
X305377Y142164D01*
X305377Y142163D01*
X305399Y142082D01*
X305411Y141998D01*
X305434Y141945D01*
X305449Y141888D01*
X305492Y141816D01*
X305527Y141739D01*
X305565Y141694D01*
X305594Y141644D01*
X305656Y141586D01*
X305710Y141522D01*
X305759Y141490D01*
X305802Y141449D01*
X305877Y141411D01*
X305947Y141364D01*
X306003Y141347D01*
X306055Y141320D01*
X306123Y141309D01*
X306218Y141279D01*
X306318Y141276D01*
X306386Y141265D01*
X311871Y141265D01*
X311871Y140546D01*
X311698Y139899D01*
X311363Y139320D01*
X310890Y138847D01*
X310311Y138512D01*
X309664Y138339D01*
X306386Y138339D01*
X306328Y138331D01*
X306270Y138333D01*
X306188Y138311D01*
X306104Y138299D01*
X306051Y138276D01*
X305995Y138261D01*
X305922Y138218D01*
X305845Y138183D01*
X305800Y138145D01*
X305750Y138116D01*
X305692Y138054D01*
X305628Y138000D01*
X305596Y137951D01*
X305556Y137908D01*
X305517Y137833D01*
X305470Y137763D01*
X305453Y137707D01*
X305426Y137655D01*
X305415Y137587D01*
X305385Y137492D01*
X305382Y137392D01*
X305371Y137324D01*
X305371Y136196D01*
X305198Y135549D01*
X304863Y134970D01*
X304644Y134751D01*
X304592Y134681D01*
X304532Y134617D01*
X304506Y134568D01*
X304473Y134524D01*
X304447Y134455D01*
X304446Y134454D01*
X304446Y134451D01*
X304442Y134442D01*
X304402Y134364D01*
X304394Y134317D01*
X304372Y134258D01*
X304368Y134205D01*
X304361Y134183D01*
X304359Y134104D01*
X304347Y134033D01*
X304347Y131964D01*
X304354Y131909D01*
X304353Y131868D01*
X304360Y131843D01*
X304362Y131790D01*
X304379Y131737D01*
X304387Y131682D01*
X304387Y129032D01*
X304395Y128974D01*
X304393Y128916D01*
X304415Y128834D01*
X304427Y128750D01*
X304450Y128697D01*
X304465Y128641D01*
X304508Y128568D01*
X304543Y128491D01*
X304581Y128446D01*
X304610Y128396D01*
X304672Y128338D01*
X304726Y128274D01*
X304775Y128242D01*
X304818Y128202D01*
X304893Y128163D01*
X304963Y128116D01*
X305019Y128099D01*
X305071Y128072D01*
X305139Y128061D01*
X305234Y128031D01*
X305334Y128028D01*
X305402Y128017D01*
X323226Y128017D01*
X323313Y128029D01*
G37*
G36*
X276288Y119393D02*
X276288Y119393D01*
X276374Y119391D01*
X276429Y119405D01*
X276486Y119410D01*
X276566Y119441D01*
X276649Y119463D01*
X276698Y119492D01*
X276751Y119512D01*
X276820Y119564D01*
X276894Y119608D01*
X276933Y119649D01*
X276978Y119684D01*
X277030Y119753D01*
X277088Y119815D01*
X277114Y119866D01*
X277148Y119912D01*
X277179Y119992D01*
X277218Y120068D01*
X277226Y120117D01*
X277249Y120178D01*
X277260Y120322D01*
X277273Y120400D01*
X277273Y131700D01*
X277288Y131739D01*
X277293Y131796D01*
X277299Y131817D01*
X277301Y131892D01*
X277313Y131964D01*
X277313Y134033D01*
X277305Y134088D01*
X277307Y134132D01*
X277300Y134157D01*
X277298Y134207D01*
X277281Y134260D01*
X277273Y134315D01*
X277238Y134393D01*
X277235Y134407D01*
X277232Y134410D01*
X277211Y134478D01*
X277183Y134517D01*
X277157Y134574D01*
X277061Y134687D01*
X277016Y134751D01*
X276797Y134970D01*
X276462Y135549D01*
X276289Y136196D01*
X276289Y137324D01*
X276281Y137382D01*
X276283Y137440D01*
X276261Y137522D01*
X276249Y137606D01*
X276226Y137659D01*
X276211Y137715D01*
X276168Y137788D01*
X276133Y137865D01*
X276095Y137910D01*
X276066Y137960D01*
X276004Y138018D01*
X275950Y138082D01*
X275901Y138114D01*
X275858Y138154D01*
X275783Y138193D01*
X275713Y138240D01*
X275657Y138257D01*
X275605Y138284D01*
X275537Y138295D01*
X275442Y138325D01*
X275342Y138328D01*
X275274Y138339D01*
X271996Y138339D01*
X271349Y138512D01*
X270770Y138847D01*
X270297Y139320D01*
X269962Y139899D01*
X269789Y140546D01*
X269789Y141265D01*
X275274Y141265D01*
X275332Y141273D01*
X275390Y141271D01*
X275472Y141293D01*
X275556Y141304D01*
X275609Y141328D01*
X275665Y141343D01*
X275738Y141386D01*
X275815Y141421D01*
X275860Y141458D01*
X275910Y141488D01*
X275968Y141550D01*
X276032Y141604D01*
X276064Y141653D01*
X276104Y141696D01*
X276143Y141771D01*
X276190Y141841D01*
X276207Y141897D01*
X276234Y141949D01*
X276245Y142017D01*
X276275Y142112D01*
X276278Y142212D01*
X276289Y142280D01*
X276281Y142338D01*
X276282Y142389D01*
X276283Y142396D01*
X276261Y142478D01*
X276249Y142562D01*
X276226Y142615D01*
X276211Y142672D01*
X276168Y142744D01*
X276133Y142821D01*
X276095Y142866D01*
X276066Y142916D01*
X276004Y142974D01*
X275950Y143038D01*
X275901Y143070D01*
X275858Y143110D01*
X275783Y143149D01*
X275713Y143196D01*
X275657Y143213D01*
X275605Y143240D01*
X275537Y143251D01*
X275442Y143281D01*
X275342Y143284D01*
X275274Y143295D01*
X269789Y143295D01*
X269789Y144014D01*
X269924Y144517D01*
X269936Y144614D01*
X269956Y144709D01*
X269952Y144749D01*
X269958Y144799D01*
X269931Y144969D01*
X269924Y145043D01*
X269789Y145546D01*
X269789Y146265D01*
X275274Y146265D01*
X275332Y146273D01*
X275390Y146271D01*
X275472Y146293D01*
X275556Y146304D01*
X275609Y146328D01*
X275665Y146343D01*
X275738Y146386D01*
X275815Y146421D01*
X275860Y146458D01*
X275910Y146488D01*
X275968Y146550D01*
X276032Y146604D01*
X276064Y146653D01*
X276104Y146696D01*
X276143Y146771D01*
X276190Y146841D01*
X276207Y146897D01*
X276234Y146949D01*
X276245Y147017D01*
X276275Y147112D01*
X276278Y147212D01*
X276289Y147280D01*
X276281Y147338D01*
X276283Y147396D01*
X276261Y147478D01*
X276249Y147562D01*
X276226Y147615D01*
X276211Y147672D01*
X276168Y147744D01*
X276133Y147821D01*
X276095Y147866D01*
X276066Y147916D01*
X276004Y147974D01*
X275950Y148038D01*
X275901Y148070D01*
X275858Y148110D01*
X275783Y148149D01*
X275713Y148196D01*
X275657Y148213D01*
X275605Y148240D01*
X275537Y148251D01*
X275442Y148281D01*
X275342Y148284D01*
X275274Y148295D01*
X269789Y148295D01*
X269789Y149014D01*
X269962Y149661D01*
X270297Y150240D01*
X270770Y150713D01*
X271349Y151048D01*
X271996Y151221D01*
X275274Y151221D01*
X275332Y151229D01*
X275390Y151227D01*
X275472Y151249D01*
X275556Y151261D01*
X275609Y151284D01*
X275665Y151299D01*
X275738Y151342D01*
X275815Y151377D01*
X275860Y151415D01*
X275910Y151444D01*
X275968Y151506D01*
X276032Y151560D01*
X276064Y151609D01*
X276104Y151652D01*
X276143Y151727D01*
X276190Y151797D01*
X276207Y151853D01*
X276234Y151905D01*
X276245Y151973D01*
X276275Y152068D01*
X276278Y152168D01*
X276289Y152236D01*
X276289Y153364D01*
X276462Y154011D01*
X276797Y154590D01*
X277016Y154809D01*
X277068Y154879D01*
X277128Y154943D01*
X277154Y154992D01*
X277187Y155036D01*
X277218Y155118D01*
X277258Y155196D01*
X277266Y155243D01*
X277288Y155302D01*
X277300Y155450D01*
X277313Y155527D01*
X277313Y157596D01*
X277301Y157683D01*
X277298Y157770D01*
X277281Y157823D01*
X277273Y157878D01*
X277273Y162656D01*
X277261Y162743D01*
X277258Y162830D01*
X277241Y162883D01*
X277233Y162938D01*
X277198Y163018D01*
X277171Y163101D01*
X277143Y163140D01*
X277117Y163197D01*
X277021Y163310D01*
X276976Y163374D01*
X268944Y171406D01*
X268874Y171458D01*
X268810Y171518D01*
X268761Y171544D01*
X268717Y171577D01*
X268635Y171608D01*
X268557Y171648D01*
X268510Y171656D01*
X268451Y171678D01*
X268304Y171690D01*
X268226Y171703D01*
X260888Y171703D01*
X260830Y171695D01*
X260772Y171697D01*
X260690Y171675D01*
X260606Y171663D01*
X260553Y171640D01*
X260497Y171625D01*
X260424Y171582D01*
X260347Y171547D01*
X260302Y171509D01*
X260252Y171480D01*
X260194Y171418D01*
X260130Y171364D01*
X260098Y171315D01*
X260058Y171272D01*
X260019Y171197D01*
X259972Y171127D01*
X259955Y171071D01*
X259928Y171019D01*
X259917Y170951D01*
X259887Y170856D01*
X259884Y170756D01*
X259873Y170688D01*
X259873Y163068D01*
X258682Y161877D01*
X257302Y161877D01*
X257244Y161869D01*
X257186Y161871D01*
X257104Y161849D01*
X257020Y161837D01*
X256967Y161814D01*
X256911Y161799D01*
X256838Y161756D01*
X256761Y161721D01*
X256716Y161683D01*
X256666Y161654D01*
X256608Y161592D01*
X256544Y161538D01*
X256512Y161489D01*
X256472Y161446D01*
X256433Y161371D01*
X256386Y161301D01*
X256369Y161245D01*
X256342Y161193D01*
X256331Y161125D01*
X256301Y161030D01*
X256298Y160930D01*
X256287Y160862D01*
X256287Y160558D01*
X256295Y160500D01*
X256293Y160442D01*
X256315Y160360D01*
X256327Y160276D01*
X256350Y160223D01*
X256365Y160167D01*
X256408Y160094D01*
X256443Y160017D01*
X256481Y159972D01*
X256510Y159922D01*
X256572Y159864D01*
X256626Y159800D01*
X256675Y159768D01*
X256718Y159728D01*
X256793Y159689D01*
X256863Y159642D01*
X256919Y159625D01*
X256971Y159598D01*
X257039Y159587D01*
X257134Y159557D01*
X257234Y159554D01*
X257302Y159543D01*
X258572Y159543D01*
X259763Y158352D01*
X259763Y145668D01*
X258323Y144228D01*
X258287Y144181D01*
X258245Y144141D01*
X258202Y144068D01*
X258152Y144001D01*
X258131Y143946D01*
X258101Y143896D01*
X258081Y143814D01*
X258050Y143735D01*
X258046Y143677D01*
X258031Y143620D01*
X258034Y143536D01*
X258027Y143452D01*
X258038Y143394D01*
X258040Y143336D01*
X258066Y143256D01*
X258083Y143173D01*
X258110Y143121D01*
X258128Y143065D01*
X258168Y143009D01*
X258214Y142921D01*
X258283Y142848D01*
X258323Y142792D01*
X259763Y141352D01*
X259763Y139582D01*
X259771Y139524D01*
X259769Y139466D01*
X259791Y139384D01*
X259803Y139300D01*
X259826Y139247D01*
X259841Y139191D01*
X259884Y139118D01*
X259919Y139041D01*
X259957Y138996D01*
X259986Y138946D01*
X260048Y138888D01*
X260102Y138824D01*
X260151Y138792D01*
X260194Y138752D01*
X260269Y138713D01*
X260339Y138666D01*
X260395Y138649D01*
X260447Y138622D01*
X260515Y138611D01*
X260610Y138581D01*
X260710Y138578D01*
X260778Y138567D01*
X262703Y138567D01*
X267717Y133553D01*
X267717Y124686D01*
X267725Y124628D01*
X267723Y124570D01*
X267745Y124488D01*
X267757Y124404D01*
X267780Y124351D01*
X267795Y124295D01*
X267838Y124222D01*
X267873Y124145D01*
X267911Y124100D01*
X267940Y124050D01*
X268002Y123992D01*
X268056Y123928D01*
X268105Y123896D01*
X268148Y123856D01*
X268223Y123817D01*
X268293Y123770D01*
X268349Y123753D01*
X268401Y123726D01*
X268469Y123715D01*
X268564Y123685D01*
X268664Y123682D01*
X268732Y123671D01*
X270599Y123671D01*
X273109Y122631D01*
X275031Y120709D01*
X275320Y120011D01*
X275364Y119937D01*
X275399Y119859D01*
X275436Y119815D01*
X275465Y119766D01*
X275527Y119707D01*
X275583Y119642D01*
X275630Y119610D01*
X275671Y119571D01*
X275748Y119532D01*
X275819Y119484D01*
X275873Y119467D01*
X275924Y119441D01*
X276008Y119424D01*
X276090Y119398D01*
X276147Y119397D01*
X276203Y119386D01*
X276288Y119393D01*
G37*
%LPC*%
G36*
X200926Y13969D02*
X200926Y13969D01*
X196725Y15710D01*
X193510Y18925D01*
X191769Y23126D01*
X191769Y27674D01*
X193510Y31875D01*
X196725Y35090D01*
X200926Y36831D01*
X205474Y36831D01*
X209675Y35090D01*
X212890Y31875D01*
X214631Y27674D01*
X214631Y23126D01*
X212890Y18925D01*
X209675Y15710D01*
X205474Y13969D01*
X200926Y13969D01*
G37*
%LPD*%
%LPC*%
G36*
X226326Y13969D02*
X226326Y13969D01*
X222125Y15710D01*
X218910Y18925D01*
X217169Y23126D01*
X217169Y27674D01*
X218910Y31875D01*
X222125Y35090D01*
X226326Y36831D01*
X230874Y36831D01*
X235075Y35090D01*
X238290Y31875D01*
X240031Y27674D01*
X240031Y23126D01*
X238290Y18925D01*
X235075Y15710D01*
X230874Y13969D01*
X226326Y13969D01*
G37*
%LPD*%
G36*
X308555Y104943D02*
X308555Y104943D01*
X308642Y104946D01*
X308695Y104963D01*
X308750Y104971D01*
X308829Y105006D01*
X308913Y105033D01*
X308952Y105061D01*
X309009Y105087D01*
X309122Y105183D01*
X309186Y105228D01*
X323128Y119170D01*
X323146Y119194D01*
X323168Y119213D01*
X323231Y119307D01*
X323299Y119397D01*
X323309Y119425D01*
X323326Y119449D01*
X323360Y119557D01*
X323400Y119663D01*
X323403Y119692D01*
X323411Y119720D01*
X323414Y119834D01*
X323424Y119946D01*
X323418Y119975D01*
X323419Y120004D01*
X323390Y120114D01*
X323368Y120225D01*
X323354Y120251D01*
X323347Y120279D01*
X323289Y120377D01*
X323237Y120477D01*
X323217Y120499D01*
X323202Y120524D01*
X323119Y120601D01*
X323041Y120683D01*
X323016Y120698D01*
X322994Y120718D01*
X322893Y120770D01*
X322796Y120827D01*
X322767Y120834D01*
X322741Y120848D01*
X322664Y120861D01*
X322520Y120897D01*
X322458Y120895D01*
X322410Y120903D01*
X300787Y120903D01*
X298696Y122994D01*
X298634Y123041D01*
X298578Y123096D01*
X298520Y123126D01*
X298469Y123165D01*
X298396Y123193D01*
X298327Y123230D01*
X298264Y123243D01*
X298203Y123266D01*
X298125Y123273D01*
X298049Y123289D01*
X297994Y123284D01*
X297920Y123290D01*
X297792Y123265D01*
X297715Y123257D01*
X297649Y123239D01*
X296845Y123239D01*
X296845Y130030D01*
X296837Y130088D01*
X296839Y130146D01*
X296817Y130228D01*
X296806Y130311D01*
X296782Y130365D01*
X296767Y130421D01*
X296724Y130494D01*
X296689Y130571D01*
X296652Y130615D01*
X296622Y130665D01*
X296560Y130723D01*
X296506Y130788D01*
X296457Y130820D01*
X296414Y130860D01*
X296339Y130898D01*
X296269Y130945D01*
X296213Y130963D01*
X296161Y130989D01*
X296093Y131001D01*
X295998Y131031D01*
X295898Y131034D01*
X295830Y131045D01*
X295772Y131037D01*
X295714Y131038D01*
X295713Y131038D01*
X295632Y131017D01*
X295548Y131005D01*
X295495Y130981D01*
X295438Y130966D01*
X295366Y130923D01*
X295289Y130889D01*
X295244Y130851D01*
X295194Y130821D01*
X295136Y130760D01*
X295072Y130705D01*
X295040Y130657D01*
X294999Y130614D01*
X294961Y130539D01*
X294914Y130469D01*
X294897Y130413D01*
X294870Y130361D01*
X294859Y130293D01*
X294829Y130198D01*
X294826Y130098D01*
X294815Y130030D01*
X294815Y123044D01*
X294766Y123016D01*
X294708Y122954D01*
X294644Y122900D01*
X294612Y122851D01*
X294572Y122808D01*
X294533Y122733D01*
X294486Y122663D01*
X294469Y122607D01*
X294442Y122555D01*
X294431Y122487D01*
X294401Y122392D01*
X294398Y122292D01*
X294387Y122224D01*
X294387Y106882D01*
X294391Y106853D01*
X294388Y106824D01*
X294411Y106713D01*
X294427Y106600D01*
X294439Y106574D01*
X294444Y106545D01*
X294497Y106444D01*
X294543Y106341D01*
X294562Y106319D01*
X294575Y106293D01*
X294653Y106210D01*
X294726Y106124D01*
X294751Y106108D01*
X294771Y106086D01*
X294869Y106029D01*
X294963Y105966D01*
X294991Y105957D01*
X295016Y105943D01*
X295126Y105915D01*
X295234Y105881D01*
X295264Y105880D01*
X295292Y105873D01*
X295405Y105876D01*
X295518Y105873D01*
X295547Y105881D01*
X295576Y105882D01*
X295684Y105917D01*
X295793Y105945D01*
X295819Y105960D01*
X295847Y105969D01*
X295911Y106015D01*
X296038Y106090D01*
X296081Y106136D01*
X296120Y106164D01*
X297121Y107165D01*
X299631Y108205D01*
X302349Y108205D01*
X304859Y107165D01*
X306796Y105228D01*
X306866Y105176D01*
X306930Y105116D01*
X306979Y105090D01*
X307023Y105057D01*
X307105Y105026D01*
X307183Y104986D01*
X307230Y104978D01*
X307289Y104956D01*
X307437Y104944D01*
X307514Y104931D01*
X308468Y104931D01*
X308555Y104943D01*
G37*
%LPC*%
G36*
X222131Y208359D02*
X222131Y208359D01*
X222131Y214884D01*
X222123Y214942D01*
X222124Y215000D01*
X222103Y215082D01*
X222091Y215165D01*
X222067Y215219D01*
X222053Y215275D01*
X222010Y215348D01*
X221975Y215425D01*
X221937Y215469D01*
X221907Y215520D01*
X221846Y215577D01*
X221791Y215642D01*
X221743Y215674D01*
X221700Y215714D01*
X221625Y215753D01*
X221555Y215799D01*
X221499Y215817D01*
X221447Y215844D01*
X221379Y215855D01*
X221284Y215885D01*
X221184Y215888D01*
X221116Y215899D01*
X220099Y215899D01*
X220099Y215901D01*
X221116Y215901D01*
X221174Y215909D01*
X221232Y215908D01*
X221314Y215929D01*
X221397Y215941D01*
X221451Y215965D01*
X221507Y215979D01*
X221580Y216022D01*
X221657Y216057D01*
X221701Y216095D01*
X221752Y216125D01*
X221809Y216186D01*
X221874Y216241D01*
X221906Y216289D01*
X221946Y216332D01*
X221985Y216407D01*
X222031Y216477D01*
X222049Y216533D01*
X222076Y216585D01*
X222087Y216653D01*
X222117Y216748D01*
X222120Y216848D01*
X222131Y216916D01*
X222131Y223441D01*
X225934Y223441D01*
X226581Y223268D01*
X227160Y222933D01*
X227633Y222460D01*
X227942Y221924D01*
X227972Y221886D01*
X227995Y221843D01*
X228059Y221775D01*
X228118Y221701D01*
X228157Y221672D01*
X228191Y221637D01*
X228272Y221589D01*
X228348Y221534D01*
X228394Y221518D01*
X228436Y221493D01*
X228527Y221470D01*
X228615Y221438D01*
X228664Y221435D01*
X228711Y221423D01*
X228805Y221426D01*
X228899Y221420D01*
X228947Y221430D01*
X228996Y221432D01*
X229085Y221461D01*
X229177Y221481D01*
X229220Y221504D01*
X229266Y221519D01*
X229326Y221562D01*
X229427Y221617D01*
X229488Y221678D01*
X229539Y221714D01*
X230758Y222933D01*
X243442Y222933D01*
X244633Y221742D01*
X244633Y210058D01*
X243442Y208867D01*
X230758Y208867D01*
X229539Y210086D01*
X229501Y210115D01*
X229468Y210151D01*
X229387Y210200D01*
X229312Y210257D01*
X229267Y210274D01*
X229225Y210300D01*
X229134Y210325D01*
X229047Y210358D01*
X228998Y210362D01*
X228951Y210375D01*
X228857Y210374D01*
X228763Y210382D01*
X228716Y210372D01*
X228667Y210371D01*
X228577Y210344D01*
X228485Y210326D01*
X228441Y210303D01*
X228395Y210289D01*
X228316Y210238D01*
X228232Y210195D01*
X228197Y210161D01*
X228156Y210135D01*
X228109Y210077D01*
X228026Y209999D01*
X227982Y209924D01*
X227942Y209876D01*
X227633Y209340D01*
X227160Y208867D01*
X226581Y208532D01*
X225934Y208359D01*
X222131Y208359D01*
G37*
%LPD*%
%LPC*%
G36*
X194588Y72987D02*
X194588Y72987D01*
X193397Y74178D01*
X193397Y88862D01*
X194588Y90053D01*
X209272Y90053D01*
X210463Y88862D01*
X210463Y74178D01*
X209272Y72987D01*
X194588Y72987D01*
G37*
%LPD*%
%LPC*%
G36*
X160415Y131067D02*
X160415Y131067D01*
X157467Y134015D01*
X157467Y138185D01*
X160415Y141133D01*
X164585Y141133D01*
X167533Y138185D01*
X167533Y134015D01*
X164585Y131067D01*
X160415Y131067D01*
G37*
%LPD*%
%LPC*%
G36*
X216415Y189067D02*
X216415Y189067D01*
X213467Y192015D01*
X213467Y196185D01*
X216415Y199133D01*
X220585Y199133D01*
X223533Y196185D01*
X223533Y192015D01*
X220585Y189067D01*
X216415Y189067D01*
G37*
%LPD*%
%LPC*%
G36*
X256031Y27431D02*
X256031Y27431D01*
X256031Y37166D01*
X256796Y37045D01*
X258583Y36464D01*
X260257Y35611D01*
X261778Y34506D01*
X263106Y33178D01*
X264211Y31657D01*
X265064Y29983D01*
X265645Y28196D01*
X265766Y27431D01*
X256031Y27431D01*
G37*
%LPD*%
%LPC*%
G36*
X210311Y237999D02*
X210311Y237999D01*
X220046Y237999D01*
X219925Y237234D01*
X219344Y235447D01*
X218491Y233773D01*
X217386Y232252D01*
X216058Y230924D01*
X214537Y229819D01*
X212863Y228966D01*
X211076Y228385D01*
X210311Y228264D01*
X210311Y237999D01*
G37*
%LPD*%
%LPC*%
G36*
X242234Y27431D02*
X242234Y27431D01*
X242355Y28196D01*
X242936Y29983D01*
X243789Y31657D01*
X244894Y33178D01*
X246222Y34506D01*
X247743Y35611D01*
X249417Y36464D01*
X251204Y37045D01*
X251969Y37166D01*
X251969Y27431D01*
X242234Y27431D01*
G37*
%LPD*%
%LPC*%
G36*
X256031Y23369D02*
X256031Y23369D01*
X265766Y23369D01*
X265645Y22604D01*
X265064Y20817D01*
X264211Y19143D01*
X263106Y17622D01*
X261778Y16294D01*
X260257Y15189D01*
X258583Y14336D01*
X256796Y13755D01*
X256031Y13634D01*
X256031Y23369D01*
G37*
%LPD*%
%LPC*%
G36*
X205484Y228385D02*
X205484Y228385D01*
X203697Y228966D01*
X202023Y229819D01*
X200502Y230924D01*
X199174Y232252D01*
X198069Y233773D01*
X197216Y235447D01*
X196635Y237234D01*
X196514Y237999D01*
X206249Y237999D01*
X206249Y228264D01*
X205484Y228385D01*
G37*
%LPD*%
%LPC*%
G36*
X251204Y13755D02*
X251204Y13755D01*
X249417Y14336D01*
X247743Y15189D01*
X246222Y16294D01*
X244894Y17622D01*
X243789Y19143D01*
X242936Y20817D01*
X242355Y22604D01*
X242234Y23369D01*
X251969Y23369D01*
X251969Y13634D01*
X251204Y13755D01*
G37*
%LPD*%
%LPC*%
G36*
X203781Y151006D02*
X203781Y151006D01*
X203781Y158891D01*
X207334Y158891D01*
X207981Y158718D01*
X208560Y158383D01*
X209033Y157910D01*
X209368Y157331D01*
X209541Y156684D01*
X209541Y151006D01*
X203781Y151006D01*
G37*
%LPD*%
%LPC*%
G36*
X203781Y183256D02*
X203781Y183256D01*
X203781Y191141D01*
X207334Y191141D01*
X207981Y190968D01*
X208560Y190633D01*
X209033Y190160D01*
X209368Y189581D01*
X209541Y188934D01*
X209541Y183256D01*
X203781Y183256D01*
G37*
%LPD*%
%LPC*%
G36*
X203781Y139059D02*
X203781Y139059D01*
X203781Y146944D01*
X209541Y146944D01*
X209541Y141266D01*
X209368Y140619D01*
X209033Y140040D01*
X208560Y139567D01*
X207981Y139232D01*
X207334Y139059D01*
X203781Y139059D01*
G37*
%LPD*%
%LPC*%
G36*
X193959Y151006D02*
X193959Y151006D01*
X193959Y156684D01*
X194132Y157331D01*
X194467Y157910D01*
X194940Y158383D01*
X195519Y158718D01*
X196166Y158891D01*
X199719Y158891D01*
X199719Y151006D01*
X193959Y151006D01*
G37*
%LPD*%
%LPC*%
G36*
X193959Y183256D02*
X193959Y183256D01*
X193959Y188934D01*
X194132Y189581D01*
X194467Y190160D01*
X194940Y190633D01*
X195519Y190968D01*
X196166Y191141D01*
X199719Y191141D01*
X199719Y183256D01*
X193959Y183256D01*
G37*
%LPD*%
%LPC*%
G36*
X196166Y139059D02*
X196166Y139059D01*
X195519Y139232D01*
X194940Y139567D01*
X194467Y140040D01*
X194132Y140619D01*
X193959Y141266D01*
X193959Y146944D01*
X199719Y146944D01*
X199719Y139059D01*
X196166Y139059D01*
G37*
%LPD*%
%LPC*%
G36*
X233316Y100409D02*
X233316Y100409D01*
X232669Y100582D01*
X232009Y100964D01*
X232000Y100967D01*
X231992Y100973D01*
X231868Y101020D01*
X231755Y101066D01*
X231697Y101246D01*
X231676Y101275D01*
X231664Y101309D01*
X231282Y101969D01*
X231109Y102616D01*
X231109Y105919D01*
X237119Y105919D01*
X237119Y100409D01*
X233316Y100409D01*
G37*
%LPD*%
%LPC*%
G36*
X201031Y217931D02*
X201031Y217931D01*
X201031Y223441D01*
X204834Y223441D01*
X205481Y223268D01*
X206060Y222933D01*
X206533Y222460D01*
X206868Y221881D01*
X207041Y221234D01*
X207041Y217931D01*
X201031Y217931D01*
G37*
%LPD*%
%LPC*%
G36*
X248889Y217931D02*
X248889Y217931D01*
X248889Y221234D01*
X249062Y221881D01*
X249397Y222460D01*
X249870Y222933D01*
X250449Y223268D01*
X251096Y223441D01*
X254899Y223441D01*
X254899Y217931D01*
X248889Y217931D01*
G37*
%LPD*%
%LPC*%
G36*
X212059Y217931D02*
X212059Y217931D01*
X212059Y221234D01*
X212232Y221881D01*
X212567Y222460D01*
X213040Y222933D01*
X213619Y223268D01*
X214266Y223441D01*
X218069Y223441D01*
X218069Y217931D01*
X212059Y217931D01*
G37*
%LPD*%
%LPC*%
G36*
X227299Y170941D02*
X227299Y170941D01*
X227299Y174244D01*
X227472Y174891D01*
X227807Y175470D01*
X228280Y175943D01*
X228859Y176278D01*
X229506Y176451D01*
X233309Y176451D01*
X233309Y170941D01*
X227299Y170941D01*
G37*
%LPD*%
%LPC*%
G36*
X231109Y109981D02*
X231109Y109981D01*
X231109Y113284D01*
X231282Y113931D01*
X231617Y114510D01*
X232090Y114983D01*
X232669Y115318D01*
X233316Y115491D01*
X237119Y115491D01*
X237119Y109981D01*
X231109Y109981D01*
G37*
%LPD*%
%LPC*%
G36*
X201031Y208359D02*
X201031Y208359D01*
X201031Y213869D01*
X207041Y213869D01*
X207041Y210566D01*
X206868Y209919D01*
X206533Y209340D01*
X206060Y208867D01*
X205481Y208532D01*
X204834Y208359D01*
X201031Y208359D01*
G37*
%LPD*%
%LPC*%
G36*
X251096Y208359D02*
X251096Y208359D01*
X250449Y208532D01*
X249870Y208867D01*
X249397Y209340D01*
X249062Y209919D01*
X248889Y210566D01*
X248889Y213869D01*
X254899Y213869D01*
X254899Y208359D01*
X251096Y208359D01*
G37*
%LPD*%
%LPC*%
G36*
X214266Y208359D02*
X214266Y208359D01*
X213619Y208532D01*
X213040Y208867D01*
X212567Y209340D01*
X212232Y209919D01*
X212059Y210566D01*
X212059Y213869D01*
X218069Y213869D01*
X218069Y208359D01*
X214266Y208359D01*
G37*
%LPD*%
%LPC*%
G36*
X11444Y238267D02*
X11444Y238267D01*
X9667Y240044D01*
X9667Y242556D01*
X11444Y244333D01*
X13956Y244333D01*
X15733Y242556D01*
X15733Y240044D01*
X13956Y238267D01*
X11444Y238267D01*
G37*
%LPD*%
%LPC*%
G36*
X367044Y9667D02*
X367044Y9667D01*
X365267Y11444D01*
X365267Y13956D01*
X367044Y15733D01*
X369556Y15733D01*
X371333Y13956D01*
X371333Y11444D01*
X369556Y9667D01*
X367044Y9667D01*
G37*
%LPD*%
%LPC*%
G36*
X52299Y181599D02*
X52299Y181599D01*
X52299Y185641D01*
X57884Y185641D01*
X58531Y185468D01*
X59110Y185133D01*
X59583Y184660D01*
X59918Y184081D01*
X60091Y183434D01*
X60091Y181599D01*
X52299Y181599D01*
G37*
%LPD*%
%LPC*%
G36*
X41509Y181599D02*
X41509Y181599D01*
X41509Y183434D01*
X41682Y184081D01*
X42017Y184660D01*
X42490Y185133D01*
X43069Y185468D01*
X43716Y185641D01*
X49301Y185641D01*
X49301Y181599D01*
X41509Y181599D01*
G37*
%LPD*%
%LPC*%
G36*
X323116Y144559D02*
X323116Y144559D01*
X322469Y144732D01*
X321890Y145067D01*
X321417Y145540D01*
X321082Y146119D01*
X320909Y146766D01*
X320909Y148601D01*
X328701Y148601D01*
X328701Y144559D01*
X323116Y144559D01*
G37*
%LPD*%
%LPC*%
G36*
X285099Y193769D02*
X285099Y193769D01*
X285099Y200311D01*
X287434Y200311D01*
X288081Y200138D01*
X288660Y199803D01*
X289133Y199330D01*
X289468Y198751D01*
X289641Y198104D01*
X289641Y193769D01*
X285099Y193769D01*
G37*
%LPD*%
%LPC*%
G36*
X276559Y193769D02*
X276559Y193769D01*
X276559Y198104D01*
X276732Y198751D01*
X277067Y199330D01*
X277540Y199803D01*
X278119Y200138D01*
X278766Y200311D01*
X281101Y200311D01*
X281101Y193769D01*
X276559Y193769D01*
G37*
%LPD*%
%LPC*%
G36*
X285099Y183229D02*
X285099Y183229D01*
X285099Y189771D01*
X289641Y189771D01*
X289641Y185436D01*
X289468Y184789D01*
X289133Y184210D01*
X288660Y183737D01*
X288081Y183402D01*
X287434Y183229D01*
X285099Y183229D01*
G37*
%LPD*%
%LPC*%
G36*
X278766Y183229D02*
X278766Y183229D01*
X278119Y183402D01*
X277540Y183737D01*
X277067Y184210D01*
X276732Y184789D01*
X276559Y185436D01*
X276559Y189771D01*
X281101Y189771D01*
X281101Y183229D01*
X278766Y183229D01*
G37*
%LPD*%
%LPC*%
G36*
X89781Y29971D02*
X89781Y29971D01*
X89781Y35481D01*
X91782Y35481D01*
X92810Y35205D01*
X93731Y34673D01*
X94483Y33921D01*
X95015Y33000D01*
X95291Y31972D01*
X95291Y29971D01*
X89781Y29971D01*
G37*
%LPD*%
%LPC*%
G36*
X80209Y29971D02*
X80209Y29971D01*
X80209Y31972D01*
X80485Y33000D01*
X81017Y33921D01*
X81769Y34673D01*
X82690Y35205D01*
X83718Y35481D01*
X85719Y35481D01*
X85719Y29971D01*
X80209Y29971D01*
G37*
%LPD*%
%LPC*%
G36*
X89781Y20399D02*
X89781Y20399D01*
X89781Y25909D01*
X95291Y25909D01*
X95291Y23908D01*
X95015Y22880D01*
X94483Y21959D01*
X93731Y21207D01*
X92810Y20675D01*
X91782Y20399D01*
X89781Y20399D01*
G37*
%LPD*%
%LPC*%
G36*
X83718Y20399D02*
X83718Y20399D01*
X82690Y20675D01*
X81769Y21207D01*
X81017Y21959D01*
X80485Y22880D01*
X80209Y23908D01*
X80209Y25909D01*
X85719Y25909D01*
X85719Y20399D01*
X83718Y20399D01*
G37*
%LPD*%
%LPC*%
G36*
X253999Y25399D02*
X253999Y25399D01*
X253999Y25401D01*
X254001Y25401D01*
X254001Y25399D01*
X253999Y25399D01*
G37*
%LPD*%
%LPC*%
G36*
X201749Y148974D02*
X201749Y148974D01*
X201749Y148976D01*
X201751Y148976D01*
X201751Y148974D01*
X201749Y148974D01*
G37*
%LPD*%
%LPC*%
G36*
X87749Y27939D02*
X87749Y27939D01*
X87749Y27941D01*
X87751Y27941D01*
X87751Y27939D01*
X87749Y27939D01*
G37*
%LPD*%
D10*
X301100Y191770D03*
X283100Y191770D03*
D11*
X338700Y212090D03*
X321700Y212090D03*
X256150Y107950D03*
X239150Y107950D03*
X237100Y215900D03*
X220100Y215900D03*
D12*
X368300Y12700D03*
X12700Y241300D03*
D13*
X366950Y137100D03*
X366950Y193100D03*
D14*
X330200Y150100D03*
X330200Y160100D03*
X330200Y170100D03*
X330200Y180100D03*
D13*
X14050Y193100D03*
X14050Y137100D03*
D14*
X50800Y180100D03*
X50800Y170100D03*
X50800Y160100D03*
X50800Y150100D03*
D15*
X152400Y25400D03*
X177800Y25400D03*
X203200Y25400D03*
X228600Y25400D03*
X254000Y25400D03*
D16*
X201930Y111520D03*
X201930Y81520D03*
D17*
X91600Y92050D03*
X91600Y73050D03*
X112600Y82550D03*
X142400Y92050D03*
X142400Y73050D03*
X163400Y82550D03*
D11*
X256930Y215900D03*
X273930Y215900D03*
D18*
X109300Y107950D03*
X119300Y107950D03*
X127000Y77550D03*
X127000Y87550D03*
X163750Y107950D03*
X153750Y107950D03*
D11*
X235340Y168910D03*
X252340Y168910D03*
X321700Y233680D03*
X338700Y233680D03*
D19*
X252730Y152010D03*
X252730Y135010D03*
D11*
X199000Y215900D03*
X182000Y215900D03*
X254880Y82550D03*
X237880Y82550D03*
D19*
X25400Y116450D03*
X25400Y99450D03*
X50800Y99450D03*
X50800Y116450D03*
D18*
X76200Y77550D03*
X76200Y87550D03*
D20*
X179250Y181225D03*
X201750Y181225D03*
X179250Y148975D03*
X201750Y148975D03*
D21*
X111600Y179250D03*
X106600Y179250D03*
X101600Y179250D03*
X96600Y179250D03*
X91600Y179250D03*
X91600Y138250D03*
X96600Y138250D03*
X101600Y138250D03*
X106600Y138250D03*
X111600Y138250D03*
D22*
X280830Y130030D03*
X285830Y130030D03*
X290830Y130030D03*
X295830Y130030D03*
X300830Y130030D03*
X300830Y159530D03*
X295830Y159530D03*
X290830Y159530D03*
X285830Y159530D03*
X280830Y159530D03*
D23*
X290830Y144780D03*
D24*
X275830Y147280D03*
X275830Y142280D03*
X305830Y147280D03*
X305830Y142280D03*
D11*
X105020Y48260D03*
X88020Y48260D03*
D25*
X91250Y31440D02*
X91250Y24440D01*
X84250Y24440D01*
X84250Y31440D01*
X91250Y31440D01*
X91250Y27290D02*
X84250Y27290D01*
X84250Y30140D02*
X91250Y30140D01*
X108790Y31440D02*
X108790Y24440D01*
X101790Y24440D01*
X101790Y31440D01*
X108790Y31440D01*
X108790Y27290D02*
X101790Y27290D01*
X101790Y30140D02*
X108790Y30140D01*
D15*
X208280Y240030D03*
X179070Y240030D03*
D26*
X307340Y215900D02*
X311150Y212090D01*
X321700Y212090D01*
X307340Y215900D02*
X273930Y215900D01*
X321700Y212090D02*
X321700Y233680D01*
D27*
X298450Y171450D03*
D26*
X295830Y168830D02*
X295830Y159530D01*
X295830Y168830D02*
X298450Y171450D01*
D28*
X321700Y212090D03*
D26*
X295830Y139780D02*
X295830Y130030D01*
X295830Y139780D02*
X290830Y144780D01*
D29*
X285830Y149780D02*
X285830Y159530D01*
X285830Y149780D02*
X290830Y144780D01*
D27*
X265430Y167640D03*
X335280Y96520D03*
X369570Y76200D03*
X241300Y54610D03*
X218440Y139700D03*
D26*
X290830Y130030D02*
X290830Y101600D01*
X283210Y93980D01*
X231140Y93980D01*
X213600Y111520D02*
X201930Y111520D01*
X213600Y111520D02*
X231140Y93980D01*
X101600Y138250D02*
X101600Y149860D01*
X107950Y156210D01*
X156210Y156210D02*
X162144Y150276D01*
X177949Y150276D02*
X179250Y148975D01*
X143510Y156210D02*
X107950Y156210D01*
X143510Y156210D02*
X156210Y156210D01*
X162144Y150276D02*
X177949Y150276D01*
X153750Y107950D02*
X119300Y107950D01*
X101600Y129540D02*
X101600Y138250D01*
X101600Y129540D02*
X102870Y125730D01*
D28*
X102870Y125730D03*
X120650Y124460D03*
D26*
X120650Y109300D01*
X119300Y107950D01*
X285830Y109249D02*
X285830Y130030D01*
X285830Y109249D02*
X282600Y106020D01*
D28*
X282600Y106020D03*
X269240Y116840D03*
D26*
X264160Y121920D01*
X264160Y132080D01*
X261230Y135010D01*
X252730Y135010D01*
X179250Y130630D02*
X179250Y148975D01*
X244720Y127000D02*
X252730Y135010D01*
X182880Y127000D02*
X179250Y130630D01*
X182880Y127000D02*
X244720Y127000D01*
X143510Y156210D02*
X143510Y168910D01*
D28*
X143510Y168910D03*
X237100Y215900D03*
D26*
X258690Y175260D02*
X270120Y175260D01*
X258690Y175260D02*
X252340Y168910D01*
X280830Y164550D02*
X280830Y159530D01*
X280830Y164550D02*
X270120Y175260D01*
X252730Y168520D02*
X252730Y152010D01*
X252730Y168520D02*
X252340Y168910D01*
X256150Y107950D02*
X273050Y107950D01*
X280830Y115730D02*
X280830Y130030D01*
X280830Y115730D02*
X273050Y107950D01*
D30*
X330200Y160100D02*
X341550Y160100D01*
X342900Y158750D01*
D28*
X342900Y158750D03*
X25400Y165100D03*
D30*
X30400Y170100D01*
X50800Y170100D01*
D26*
X80700Y92050D02*
X76200Y87550D01*
X80700Y92050D02*
X91600Y92050D01*
X127000Y91440D02*
X127000Y87550D01*
X127000Y91440D02*
X129540Y93980D01*
X140470Y93980D01*
X142400Y92050D01*
X300830Y125890D02*
X300830Y130030D01*
X300830Y125890D02*
X302260Y124460D01*
X325120Y124460D01*
X342900Y142240D02*
X342900Y158750D01*
X342900Y142240D02*
X325120Y124460D01*
X300830Y159530D02*
X301400Y160100D01*
X330200Y160100D01*
X88020Y48260D02*
X71510Y64770D01*
X60960Y64770D01*
D28*
X60960Y64770D03*
D31*
X228360Y81520D02*
X228600Y81280D01*
D27*
X201930Y81280D03*
X237490Y82550D03*
D26*
X301100Y191770D02*
X326390Y191770D01*
X338700Y204080D02*
X338700Y212090D01*
X338700Y204080D02*
X326390Y191770D01*
X338700Y212090D02*
X338700Y233680D01*
X307180Y179070D02*
X307180Y165880D01*
X300830Y159530D01*
X300830Y179070D02*
X300830Y191500D01*
X301100Y191770D01*
X290830Y177800D02*
X290830Y159530D01*
X290830Y177800D02*
X292100Y179070D01*
X300830Y179070D01*
X307180Y179070D01*
D28*
X76200Y87550D03*
X142400Y92050D03*
D26*
X179250Y181225D02*
X177800Y182675D01*
X177800Y211700D02*
X182000Y215900D01*
X177800Y211700D02*
X177800Y182675D01*
X96600Y179250D02*
X96600Y195500D01*
X96520Y195580D01*
X116840Y215900D02*
X182000Y215900D01*
X116840Y215900D02*
X96520Y195580D01*
D29*
X179070Y218830D02*
X182000Y215900D01*
X179070Y218830D02*
X179070Y240030D01*
D26*
X42300Y133350D02*
X25400Y116450D01*
X42300Y133350D02*
X44450Y133350D01*
X50800Y139700D01*
X50800Y150100D01*
X76200Y77550D02*
X80700Y73050D01*
X91600Y73050D01*
X29600Y116450D02*
X25400Y116450D01*
X38100Y107950D02*
X38100Y82550D01*
X46990Y73660D01*
X72310Y73660D02*
X76200Y77550D01*
X38100Y107950D02*
X29600Y116450D01*
X46990Y73660D02*
X72310Y73660D01*
D28*
X288290Y72390D03*
D26*
X177800Y36830D02*
X177800Y25400D01*
X259080Y43180D02*
X288290Y72390D01*
X184150Y43180D02*
X177800Y36830D01*
X184150Y43180D02*
X259080Y43180D01*
X177800Y25400D02*
X165100Y12700D01*
X143510Y12700D01*
X118110Y38100D01*
X118110Y58420D01*
X113030Y63500D01*
X99060Y63500D01*
X91600Y70960D01*
X91600Y73050D01*
X330200Y180100D02*
X352030Y180100D01*
X356870Y175260D01*
X356870Y147882D01*
X310362Y101374D02*
X300990Y101374D01*
D28*
X300990Y101374D03*
D26*
X310362Y101374D02*
X356870Y147882D01*
X63500Y129150D02*
X50800Y116450D01*
X63500Y129150D02*
X63500Y152400D01*
X55800Y160100D01*
X50800Y160100D01*
X127000Y77550D02*
X133270Y77550D01*
X137770Y73050D02*
X142400Y73050D01*
X137770Y73050D02*
X133270Y77550D01*
X91830Y116450D02*
X50800Y116450D01*
X101600Y78918D02*
X109398Y71120D01*
X121920Y71120D01*
X127000Y76200D01*
X127000Y77550D01*
X101600Y106680D02*
X91830Y116450D01*
X101600Y106680D02*
X101600Y78918D01*
D28*
X142400Y73050D03*
D26*
X330200Y170100D02*
X330280Y170180D01*
X347980Y170180D01*
D28*
X347980Y170180D03*
D26*
X106600Y168830D02*
X106600Y179250D01*
X106600Y168830D02*
X99060Y161290D01*
X85090Y161290D01*
X78740Y154940D01*
X78740Y132080D01*
D28*
X78740Y132080D03*
X237490Y146050D03*
D26*
X217170Y166370D01*
X157300Y179250D02*
X111600Y179250D01*
X170180Y166370D02*
X217170Y166370D01*
X170180Y166370D02*
X157300Y179250D01*
X254880Y82550D02*
X313690Y82550D01*
X320040Y88900D01*
D28*
X320040Y88900D03*
D26*
X50800Y88900D02*
X50800Y99450D01*
X50800Y88900D02*
X57150Y82550D01*
D28*
X57150Y82550D03*
D26*
X25400Y88900D02*
X25400Y99450D01*
X25400Y88900D02*
X19050Y82550D01*
D28*
X19050Y82550D03*
D26*
X109300Y94060D02*
X109300Y107950D01*
X109300Y94060D02*
X109220Y93980D01*
X109220Y91440D01*
X112600Y88060D02*
X112600Y82550D01*
X112600Y88060D02*
X109220Y91440D01*
X111760Y138090D02*
X111600Y138250D01*
X111760Y119380D02*
X109220Y116840D01*
X109220Y108030D01*
X109300Y107950D01*
X111760Y119380D02*
X111760Y138090D01*
X163750Y107950D02*
X163750Y82900D01*
X163400Y82550D01*
X106600Y138250D02*
X106600Y147240D01*
X156628Y121924D02*
X160016Y121924D01*
X156628Y121924D02*
X128692Y149860D01*
X163750Y118190D02*
X163750Y107950D01*
X109220Y149860D02*
X106600Y147240D01*
X109220Y149860D02*
X128692Y149860D01*
X160016Y121924D02*
X163750Y118190D01*
X105290Y47990D02*
X105290Y27940D01*
X105290Y47990D02*
X105020Y48260D01*
M02*
