G04 EAGLE Gerber RS-274X export*
G75*
%MOMM*%
%FSLAX34Y34*%
%LPD*%
%INBottom Copper*%
%IPPOS*%
%AMOC8*
5,1,8,0,0,1.08239X$1,22.5*%
G01*
%ADD10C,1.879600*%
%ADD11C,0.254000*%
%ADD12R,0.635000X1.270000*%
%ADD13C,0.762000*%
%ADD14C,0.203200*%
%ADD15C,0.858000*%
%ADD16C,0.406400*%

G36*
X378010Y2041D02*
X378010Y2041D01*
X378068Y2039D01*
X378150Y2061D01*
X378234Y2073D01*
X378287Y2096D01*
X378343Y2111D01*
X378416Y2154D01*
X378493Y2189D01*
X378538Y2227D01*
X378588Y2256D01*
X378646Y2318D01*
X378710Y2372D01*
X378742Y2421D01*
X378782Y2464D01*
X378821Y2539D01*
X378868Y2609D01*
X378885Y2665D01*
X378912Y2717D01*
X378923Y2785D01*
X378953Y2880D01*
X378956Y2980D01*
X378967Y3048D01*
X378967Y252222D01*
X378959Y252280D01*
X378961Y252338D01*
X378939Y252420D01*
X378927Y252504D01*
X378904Y252557D01*
X378889Y252613D01*
X378846Y252686D01*
X378811Y252763D01*
X378773Y252808D01*
X378744Y252858D01*
X378682Y252916D01*
X378628Y252980D01*
X378579Y253012D01*
X378536Y253052D01*
X378461Y253091D01*
X378391Y253138D01*
X378335Y253155D01*
X378283Y253182D01*
X378215Y253193D01*
X378120Y253223D01*
X378020Y253226D01*
X377952Y253237D01*
X212677Y253237D01*
X212553Y253220D01*
X212428Y253206D01*
X212412Y253200D01*
X212395Y253197D01*
X212281Y253146D01*
X212165Y253099D01*
X212151Y253088D01*
X212136Y253081D01*
X212040Y253000D01*
X211942Y252922D01*
X211932Y252908D01*
X211919Y252898D01*
X211849Y252793D01*
X211776Y252691D01*
X211771Y252675D01*
X211761Y252661D01*
X211723Y252541D01*
X211682Y252423D01*
X211681Y252406D01*
X211675Y252390D01*
X211672Y252264D01*
X211665Y252139D01*
X211669Y252123D01*
X211668Y252106D01*
X211700Y251984D01*
X211727Y251862D01*
X211736Y251847D01*
X211740Y251831D01*
X211804Y251723D01*
X211865Y251613D01*
X211877Y251601D01*
X211885Y251586D01*
X211977Y251500D01*
X212065Y251412D01*
X212079Y251404D01*
X212093Y251392D01*
X212346Y251262D01*
X212355Y251261D01*
X212363Y251256D01*
X212863Y251094D01*
X214537Y250241D01*
X216058Y249136D01*
X217386Y247808D01*
X218491Y246287D01*
X219344Y244613D01*
X219925Y242826D01*
X220046Y242061D01*
X209296Y242061D01*
X209238Y242053D01*
X209180Y242055D01*
X209098Y242033D01*
X209015Y242021D01*
X208961Y241997D01*
X208905Y241983D01*
X208832Y241940D01*
X208755Y241905D01*
X208711Y241867D01*
X208660Y241837D01*
X208603Y241776D01*
X208538Y241721D01*
X208506Y241673D01*
X208466Y241630D01*
X208427Y241555D01*
X208381Y241485D01*
X208363Y241429D01*
X208336Y241377D01*
X208325Y241309D01*
X208295Y241214D01*
X208292Y241114D01*
X208281Y241046D01*
X208281Y240029D01*
X208279Y240029D01*
X208279Y241046D01*
X208271Y241104D01*
X208272Y241162D01*
X208251Y241244D01*
X208239Y241327D01*
X208215Y241381D01*
X208201Y241437D01*
X208158Y241510D01*
X208123Y241587D01*
X208085Y241632D01*
X208055Y241682D01*
X207994Y241740D01*
X207939Y241804D01*
X207891Y241836D01*
X207848Y241876D01*
X207773Y241915D01*
X207703Y241961D01*
X207647Y241979D01*
X207595Y242006D01*
X207527Y242017D01*
X207432Y242047D01*
X207332Y242050D01*
X207264Y242061D01*
X196514Y242061D01*
X196635Y242826D01*
X197216Y244613D01*
X198069Y246287D01*
X199174Y247808D01*
X200502Y249136D01*
X202023Y250241D01*
X203697Y251094D01*
X204197Y251256D01*
X204310Y251311D01*
X204424Y251363D01*
X204437Y251374D01*
X204452Y251381D01*
X204546Y251466D01*
X204641Y251547D01*
X204651Y251561D01*
X204663Y251572D01*
X204729Y251678D01*
X204799Y251783D01*
X204804Y251799D01*
X204813Y251814D01*
X204847Y251934D01*
X204885Y252054D01*
X204885Y252071D01*
X204890Y252087D01*
X204889Y252213D01*
X204892Y252338D01*
X204888Y252355D01*
X204887Y252372D01*
X204852Y252492D01*
X204820Y252613D01*
X204811Y252628D01*
X204807Y252644D01*
X204739Y252750D01*
X204675Y252858D01*
X204662Y252869D01*
X204653Y252884D01*
X204559Y252966D01*
X204467Y253052D01*
X204452Y253060D01*
X204440Y253071D01*
X204326Y253125D01*
X204214Y253182D01*
X204199Y253184D01*
X204182Y253192D01*
X203902Y253237D01*
X203892Y253236D01*
X203883Y253237D01*
X182159Y253237D01*
X182074Y253225D01*
X181988Y253223D01*
X181934Y253205D01*
X181877Y253197D01*
X181799Y253162D01*
X181717Y253136D01*
X181670Y253104D01*
X181618Y253081D01*
X181552Y253026D01*
X181481Y252978D01*
X181444Y252934D01*
X181401Y252898D01*
X181353Y252826D01*
X181298Y252760D01*
X181275Y252708D01*
X181243Y252661D01*
X181217Y252579D01*
X181182Y252500D01*
X181175Y252444D01*
X181157Y252390D01*
X181155Y252304D01*
X181143Y252219D01*
X181152Y252163D01*
X181150Y252106D01*
X181172Y252023D01*
X181184Y251938D01*
X181208Y251886D01*
X181222Y251831D01*
X181266Y251757D01*
X181301Y251678D01*
X181338Y251635D01*
X181367Y251586D01*
X181430Y251527D01*
X181486Y251462D01*
X181528Y251436D01*
X181575Y251392D01*
X181704Y251326D01*
X181770Y251284D01*
X185545Y249721D01*
X188760Y246505D01*
X190501Y242304D01*
X190501Y237756D01*
X188760Y233555D01*
X185545Y230340D01*
X181344Y228599D01*
X176796Y228599D01*
X172595Y230340D01*
X169380Y233555D01*
X167639Y237756D01*
X167639Y242304D01*
X169380Y246505D01*
X172595Y249721D01*
X176370Y251284D01*
X176444Y251328D01*
X176522Y251363D01*
X176566Y251400D01*
X176615Y251429D01*
X176674Y251491D01*
X176739Y251547D01*
X176771Y251594D01*
X176810Y251635D01*
X176849Y251712D01*
X176897Y251783D01*
X176914Y251837D01*
X176940Y251888D01*
X176957Y251972D01*
X176983Y252054D01*
X176984Y252111D01*
X176995Y252167D01*
X176988Y252252D01*
X176990Y252338D01*
X176975Y252393D01*
X176971Y252450D01*
X176940Y252530D01*
X176918Y252613D01*
X176889Y252662D01*
X176869Y252715D01*
X176817Y252784D01*
X176773Y252858D01*
X176731Y252897D01*
X176697Y252942D01*
X176628Y252994D01*
X176565Y253052D01*
X176515Y253078D01*
X176469Y253112D01*
X176389Y253143D01*
X176312Y253182D01*
X176264Y253190D01*
X176203Y253213D01*
X176059Y253224D01*
X175981Y253237D01*
X3048Y253237D01*
X2990Y253229D01*
X2932Y253231D01*
X2850Y253209D01*
X2766Y253197D01*
X2713Y253174D01*
X2657Y253159D01*
X2584Y253116D01*
X2507Y253081D01*
X2462Y253043D01*
X2412Y253014D01*
X2354Y252952D01*
X2290Y252898D01*
X2258Y252849D01*
X2218Y252806D01*
X2179Y252731D01*
X2132Y252661D01*
X2115Y252605D01*
X2088Y252553D01*
X2077Y252485D01*
X2047Y252390D01*
X2044Y252290D01*
X2033Y252222D01*
X2033Y3048D01*
X2041Y2990D01*
X2039Y2932D01*
X2061Y2850D01*
X2073Y2766D01*
X2096Y2713D01*
X2111Y2657D01*
X2154Y2584D01*
X2189Y2507D01*
X2227Y2462D01*
X2256Y2412D01*
X2318Y2354D01*
X2372Y2290D01*
X2421Y2258D01*
X2464Y2218D01*
X2539Y2179D01*
X2609Y2132D01*
X2665Y2115D01*
X2717Y2088D01*
X2785Y2077D01*
X2880Y2047D01*
X2980Y2044D01*
X3048Y2033D01*
X377952Y2033D01*
X378010Y2041D01*
G37*
%LPC*%
G36*
X215951Y7619D02*
X215951Y7619D01*
X208872Y14698D01*
X208870Y14699D01*
X208869Y14701D01*
X208752Y14788D01*
X208644Y14869D01*
X208643Y14870D01*
X208642Y14871D01*
X208508Y14921D01*
X208379Y14970D01*
X208377Y14971D01*
X208376Y14971D01*
X208231Y14983D01*
X208095Y14994D01*
X208094Y14994D01*
X208092Y14994D01*
X208077Y14990D01*
X207817Y14938D01*
X207790Y14924D01*
X207765Y14918D01*
X205474Y13969D01*
X200926Y13969D01*
X196725Y15710D01*
X193510Y18925D01*
X191769Y23126D01*
X191769Y27674D01*
X193510Y31875D01*
X196806Y35171D01*
X196858Y35241D01*
X196918Y35305D01*
X196944Y35354D01*
X196977Y35399D01*
X197008Y35480D01*
X197048Y35558D01*
X197056Y35606D01*
X197078Y35664D01*
X197090Y35812D01*
X197103Y35889D01*
X197103Y36206D01*
X197091Y36293D01*
X197088Y36380D01*
X197071Y36433D01*
X197063Y36488D01*
X197028Y36568D01*
X197001Y36651D01*
X196973Y36690D01*
X196947Y36747D01*
X196851Y36860D01*
X196806Y36924D01*
X182974Y50756D01*
X182904Y50808D01*
X182840Y50868D01*
X182791Y50894D01*
X182747Y50927D01*
X182665Y50958D01*
X182587Y50998D01*
X182540Y51006D01*
X182481Y51028D01*
X182334Y51040D01*
X182256Y51053D01*
X152197Y51053D01*
X138843Y64407D01*
X138843Y66526D01*
X138831Y66613D01*
X138828Y66700D01*
X138811Y66753D01*
X138803Y66808D01*
X138768Y66887D01*
X138741Y66971D01*
X138713Y67010D01*
X138687Y67067D01*
X138591Y67180D01*
X138546Y67244D01*
X136609Y69181D01*
X135569Y71691D01*
X135569Y74409D01*
X136609Y76919D01*
X138531Y78841D01*
X141041Y79881D01*
X143759Y79881D01*
X146269Y78841D01*
X148191Y76919D01*
X149231Y74409D01*
X149231Y71691D01*
X148191Y69181D01*
X146878Y67868D01*
X146843Y67821D01*
X146800Y67781D01*
X146758Y67708D01*
X146707Y67641D01*
X146686Y67586D01*
X146657Y67536D01*
X146636Y67454D01*
X146606Y67375D01*
X146601Y67317D01*
X146587Y67260D01*
X146589Y67176D01*
X146582Y67092D01*
X146594Y67034D01*
X146596Y66976D01*
X146622Y66896D01*
X146638Y66813D01*
X146665Y66761D01*
X146683Y66705D01*
X146723Y66649D01*
X146769Y66561D01*
X146838Y66488D01*
X146878Y66432D01*
X154846Y58464D01*
X154916Y58412D01*
X154980Y58352D01*
X155029Y58326D01*
X155073Y58293D01*
X155155Y58262D01*
X155233Y58222D01*
X155280Y58214D01*
X155339Y58192D01*
X155486Y58180D01*
X155564Y58167D01*
X185623Y58167D01*
X204217Y39573D01*
X204217Y37846D01*
X204225Y37788D01*
X204223Y37730D01*
X204245Y37648D01*
X204257Y37564D01*
X204281Y37511D01*
X204295Y37455D01*
X204338Y37382D01*
X204373Y37305D01*
X204411Y37260D01*
X204440Y37210D01*
X204502Y37152D01*
X204556Y37088D01*
X204605Y37056D01*
X204648Y37016D01*
X204723Y36977D01*
X204793Y36930D01*
X204849Y36913D01*
X204901Y36886D01*
X204969Y36875D01*
X205064Y36845D01*
X205164Y36842D01*
X205232Y36831D01*
X205474Y36831D01*
X209675Y35090D01*
X212890Y31875D01*
X214631Y27674D01*
X214631Y23126D01*
X213682Y20835D01*
X213681Y20833D01*
X213680Y20832D01*
X213646Y20698D01*
X213611Y20559D01*
X213611Y20558D01*
X213610Y20556D01*
X213615Y20416D01*
X213619Y20275D01*
X213619Y20274D01*
X213619Y20272D01*
X213662Y20139D01*
X213705Y20005D01*
X213706Y20003D01*
X213707Y20002D01*
X213715Y19990D01*
X213864Y19768D01*
X213887Y19749D01*
X213902Y19728D01*
X218600Y15030D01*
X218670Y14978D01*
X218734Y14918D01*
X218783Y14892D01*
X218827Y14859D01*
X218909Y14828D01*
X218987Y14788D01*
X219034Y14780D01*
X219093Y14758D01*
X219240Y14746D01*
X219318Y14733D01*
X220651Y14733D01*
X220680Y14737D01*
X220709Y14734D01*
X220820Y14757D01*
X220932Y14773D01*
X220959Y14785D01*
X220988Y14790D01*
X221088Y14843D01*
X221192Y14889D01*
X221214Y14908D01*
X221240Y14921D01*
X221322Y14999D01*
X221409Y15072D01*
X221425Y15097D01*
X221446Y15117D01*
X221503Y15215D01*
X221566Y15309D01*
X221575Y15337D01*
X221590Y15362D01*
X221618Y15472D01*
X221652Y15580D01*
X221653Y15610D01*
X221660Y15638D01*
X221656Y15751D01*
X221659Y15864D01*
X221652Y15893D01*
X221651Y15922D01*
X221616Y16030D01*
X221588Y16139D01*
X221573Y16165D01*
X221564Y16193D01*
X221518Y16256D01*
X221442Y16384D01*
X221397Y16427D01*
X221369Y16466D01*
X218909Y18925D01*
X217169Y23126D01*
X217169Y27674D01*
X218910Y31875D01*
X222125Y35091D01*
X223401Y35619D01*
X223402Y35620D01*
X223403Y35620D01*
X223479Y35665D01*
X223540Y35692D01*
X223574Y35721D01*
X223645Y35763D01*
X223646Y35764D01*
X223648Y35765D01*
X223732Y35855D01*
X223757Y35876D01*
X223769Y35894D01*
X223841Y35970D01*
X223841Y35971D01*
X223842Y35973D01*
X223905Y36096D01*
X223913Y36111D01*
X223914Y36112D01*
X223915Y36114D01*
X223971Y36223D01*
X223971Y36224D01*
X223972Y36226D01*
X223974Y36241D01*
X224026Y36502D01*
X224023Y36532D01*
X224027Y36557D01*
X224027Y76708D01*
X224019Y76766D01*
X224021Y76824D01*
X223999Y76906D01*
X223987Y76990D01*
X223964Y77043D01*
X223949Y77099D01*
X223906Y77172D01*
X223871Y77249D01*
X223833Y77294D01*
X223804Y77344D01*
X223742Y77402D01*
X223688Y77466D01*
X223639Y77498D01*
X223596Y77538D01*
X223521Y77577D01*
X223451Y77624D01*
X223395Y77641D01*
X223343Y77668D01*
X223275Y77679D01*
X223180Y77709D01*
X223080Y77712D01*
X223012Y77723D01*
X207775Y77723D01*
X207688Y77711D01*
X207601Y77708D01*
X207548Y77691D01*
X207494Y77683D01*
X207414Y77648D01*
X207331Y77621D01*
X207291Y77593D01*
X207234Y77567D01*
X207121Y77471D01*
X207057Y77426D01*
X205527Y75896D01*
X203193Y74929D01*
X200667Y74929D01*
X198333Y75896D01*
X196546Y77683D01*
X195579Y80017D01*
X195579Y82543D01*
X196546Y84877D01*
X198333Y86664D01*
X200667Y87631D01*
X203193Y87631D01*
X205527Y86664D01*
X207057Y85134D01*
X207127Y85082D01*
X207191Y85022D01*
X207240Y84996D01*
X207284Y84963D01*
X207366Y84932D01*
X207444Y84892D01*
X207492Y84884D01*
X207550Y84862D01*
X207698Y84850D01*
X207775Y84837D01*
X223012Y84837D01*
X223070Y84845D01*
X223128Y84843D01*
X223210Y84865D01*
X223294Y84877D01*
X223347Y84900D01*
X223403Y84915D01*
X223476Y84958D01*
X223553Y84993D01*
X223598Y85031D01*
X223648Y85060D01*
X223706Y85122D01*
X223770Y85176D01*
X223802Y85225D01*
X223842Y85268D01*
X223881Y85343D01*
X223928Y85413D01*
X223945Y85469D01*
X223972Y85521D01*
X223983Y85589D01*
X224013Y85684D01*
X224016Y85784D01*
X224027Y85852D01*
X224027Y153162D01*
X224019Y153220D01*
X224021Y153278D01*
X223999Y153360D01*
X223987Y153444D01*
X223964Y153497D01*
X223949Y153553D01*
X223906Y153626D01*
X223871Y153703D01*
X223833Y153748D01*
X223804Y153798D01*
X223742Y153856D01*
X223688Y153920D01*
X223639Y153952D01*
X223596Y153992D01*
X223521Y154031D01*
X223451Y154078D01*
X223395Y154095D01*
X223343Y154122D01*
X223275Y154133D01*
X223180Y154163D01*
X223080Y154166D01*
X223012Y154177D01*
X140462Y154177D01*
X140404Y154169D01*
X140346Y154171D01*
X140264Y154149D01*
X140180Y154137D01*
X140127Y154114D01*
X140071Y154099D01*
X139998Y154056D01*
X139921Y154021D01*
X139876Y153983D01*
X139826Y153954D01*
X139768Y153892D01*
X139704Y153838D01*
X139672Y153789D01*
X139632Y153746D01*
X139593Y153671D01*
X139546Y153601D01*
X139529Y153545D01*
X139502Y153493D01*
X139491Y153425D01*
X139461Y153330D01*
X139458Y153230D01*
X139447Y153162D01*
X139447Y100454D01*
X139454Y100405D01*
X139453Y100396D01*
X139457Y100383D01*
X139459Y100367D01*
X139462Y100280D01*
X139479Y100227D01*
X139487Y100172D01*
X139522Y100092D01*
X139549Y100009D01*
X139577Y99970D01*
X139603Y99913D01*
X139699Y99800D01*
X139744Y99736D01*
X140302Y99178D01*
X140372Y99126D01*
X140436Y99066D01*
X140485Y99040D01*
X140529Y99007D01*
X140611Y98976D01*
X140689Y98936D01*
X140736Y98928D01*
X140795Y98906D01*
X140942Y98894D01*
X141020Y98881D01*
X143759Y98881D01*
X146269Y97841D01*
X148191Y95919D01*
X149231Y93409D01*
X149231Y90691D01*
X148191Y88181D01*
X146269Y86259D01*
X143759Y85219D01*
X141041Y85219D01*
X138531Y86259D01*
X136609Y88181D01*
X135569Y90691D01*
X135569Y93430D01*
X135562Y93484D01*
X135563Y93522D01*
X135556Y93547D01*
X135554Y93604D01*
X135537Y93657D01*
X135529Y93712D01*
X135494Y93792D01*
X135467Y93875D01*
X135439Y93914D01*
X135413Y93971D01*
X135317Y94084D01*
X135272Y94148D01*
X132333Y97087D01*
X132333Y153162D01*
X132325Y153220D01*
X132327Y153278D01*
X132305Y153360D01*
X132293Y153444D01*
X132270Y153497D01*
X132255Y153553D01*
X132212Y153626D01*
X132177Y153703D01*
X132139Y153748D01*
X132110Y153798D01*
X132048Y153856D01*
X131994Y153920D01*
X131945Y153952D01*
X131902Y153992D01*
X131827Y154031D01*
X131757Y154078D01*
X131701Y154095D01*
X131649Y154122D01*
X131581Y154133D01*
X131486Y154163D01*
X131386Y154166D01*
X131318Y154177D01*
X71882Y154177D01*
X71824Y154169D01*
X71766Y154171D01*
X71684Y154149D01*
X71600Y154137D01*
X71547Y154114D01*
X71491Y154099D01*
X71418Y154056D01*
X71341Y154021D01*
X71296Y153983D01*
X71246Y153954D01*
X71188Y153892D01*
X71124Y153838D01*
X71092Y153789D01*
X71052Y153746D01*
X71013Y153671D01*
X70966Y153601D01*
X70949Y153545D01*
X70922Y153493D01*
X70911Y153425D01*
X70881Y153330D01*
X70878Y153230D01*
X70867Y153162D01*
X70867Y136026D01*
X70874Y135971D01*
X70873Y135929D01*
X70880Y135905D01*
X70881Y135855D01*
X70899Y135801D01*
X70907Y135744D01*
X70942Y135666D01*
X70945Y135657D01*
X70945Y135654D01*
X70946Y135654D01*
X70968Y135584D01*
X71000Y135537D01*
X71023Y135485D01*
X71078Y135419D01*
X71126Y135348D01*
X71170Y135311D01*
X71206Y135268D01*
X71278Y135220D01*
X71344Y135165D01*
X71396Y135142D01*
X71443Y135110D01*
X71525Y135084D01*
X71604Y135049D01*
X71660Y135042D01*
X71714Y135025D01*
X71800Y135022D01*
X71885Y135011D01*
X71941Y135019D01*
X71998Y135017D01*
X72081Y135039D01*
X72167Y135051D01*
X72218Y135075D01*
X72273Y135089D01*
X72347Y135133D01*
X72426Y135168D01*
X72469Y135205D01*
X72518Y135234D01*
X72577Y135297D01*
X72642Y135353D01*
X72668Y135395D01*
X72712Y135442D01*
X72767Y135549D01*
X72806Y135607D01*
X72811Y135623D01*
X72820Y135637D01*
X72949Y135949D01*
X74871Y137871D01*
X77381Y138911D01*
X80099Y138911D01*
X82609Y137871D01*
X84531Y135949D01*
X85571Y133439D01*
X85571Y130700D01*
X85583Y130613D01*
X85586Y130526D01*
X85603Y130473D01*
X85611Y130418D01*
X85646Y130338D01*
X85673Y130255D01*
X85701Y130216D01*
X85727Y130159D01*
X85823Y130046D01*
X85868Y129982D01*
X116587Y99263D01*
X116587Y66664D01*
X116599Y66577D01*
X116602Y66490D01*
X116619Y66437D01*
X116627Y66382D01*
X116662Y66302D01*
X116689Y66219D01*
X116717Y66180D01*
X116743Y66123D01*
X116839Y66010D01*
X116884Y65946D01*
X146728Y36102D01*
X146730Y36101D01*
X146731Y36099D01*
X146846Y36013D01*
X146956Y35931D01*
X146957Y35930D01*
X146958Y35929D01*
X147090Y35879D01*
X147221Y35830D01*
X147223Y35829D01*
X147224Y35829D01*
X147369Y35817D01*
X147505Y35806D01*
X147506Y35806D01*
X147508Y35806D01*
X147523Y35810D01*
X147783Y35862D01*
X147810Y35876D01*
X147835Y35882D01*
X150126Y36831D01*
X154674Y36831D01*
X158875Y35090D01*
X162090Y31875D01*
X163831Y27674D01*
X163831Y23126D01*
X162090Y18925D01*
X158875Y15710D01*
X154674Y13969D01*
X150126Y13969D01*
X145925Y15710D01*
X142710Y18925D01*
X140969Y23126D01*
X140969Y27674D01*
X141918Y29965D01*
X141919Y29967D01*
X141920Y29968D01*
X141954Y30102D01*
X141989Y30241D01*
X141989Y30242D01*
X141990Y30244D01*
X141985Y30384D01*
X141981Y30525D01*
X141981Y30526D01*
X141981Y30528D01*
X141938Y30661D01*
X141895Y30795D01*
X141894Y30797D01*
X141893Y30798D01*
X141885Y30810D01*
X141736Y31032D01*
X141713Y31051D01*
X141698Y31072D01*
X111854Y60916D01*
X109473Y63297D01*
X109473Y95896D01*
X109461Y95983D01*
X109458Y96070D01*
X109441Y96123D01*
X109433Y96178D01*
X109398Y96258D01*
X109371Y96341D01*
X109343Y96380D01*
X109317Y96437D01*
X109221Y96550D01*
X109176Y96614D01*
X80838Y124952D01*
X80768Y125004D01*
X80704Y125064D01*
X80655Y125090D01*
X80611Y125123D01*
X80529Y125154D01*
X80451Y125194D01*
X80404Y125202D01*
X80345Y125224D01*
X80198Y125236D01*
X80120Y125249D01*
X77381Y125249D01*
X74871Y126289D01*
X72949Y128211D01*
X72820Y128523D01*
X72776Y128597D01*
X72741Y128675D01*
X72704Y128719D01*
X72675Y128768D01*
X72613Y128827D01*
X72557Y128892D01*
X72510Y128924D01*
X72469Y128963D01*
X72392Y129002D01*
X72321Y129050D01*
X72267Y129067D01*
X72216Y129093D01*
X72132Y129110D01*
X72050Y129135D01*
X71993Y129137D01*
X71937Y129148D01*
X71852Y129141D01*
X71766Y129143D01*
X71711Y129128D01*
X71654Y129124D01*
X71574Y129093D01*
X71491Y129071D01*
X71442Y129042D01*
X71389Y129021D01*
X71320Y128970D01*
X71246Y128926D01*
X71207Y128884D01*
X71162Y128850D01*
X71111Y128781D01*
X71052Y128718D01*
X71026Y128668D01*
X70992Y128622D01*
X70961Y128542D01*
X70922Y128465D01*
X70914Y128417D01*
X70891Y128356D01*
X70880Y128212D01*
X70867Y128134D01*
X70867Y95874D01*
X70879Y95787D01*
X70882Y95700D01*
X70899Y95647D01*
X70907Y95592D01*
X70942Y95512D01*
X70969Y95429D01*
X70997Y95390D01*
X71023Y95333D01*
X71119Y95220D01*
X71164Y95156D01*
X72310Y94010D01*
X72311Y94009D01*
X72312Y94008D01*
X72426Y93923D01*
X72537Y93840D01*
X72538Y93839D01*
X72540Y93838D01*
X72670Y93789D01*
X72802Y93738D01*
X72804Y93738D01*
X72805Y93738D01*
X72944Y93727D01*
X73086Y93715D01*
X73087Y93715D01*
X73089Y93715D01*
X73104Y93718D01*
X73364Y93771D01*
X73392Y93785D01*
X73416Y93790D01*
X74841Y94381D01*
X77559Y94381D01*
X80069Y93341D01*
X81991Y91419D01*
X83031Y88909D01*
X83031Y86191D01*
X81991Y83681D01*
X80069Y81759D01*
X77559Y80719D01*
X74841Y80719D01*
X72331Y81759D01*
X70409Y83681D01*
X69369Y86191D01*
X69369Y86470D01*
X69357Y86557D01*
X69354Y86644D01*
X69337Y86697D01*
X69329Y86752D01*
X69294Y86832D01*
X69267Y86915D01*
X69239Y86954D01*
X69213Y87011D01*
X69117Y87124D01*
X69072Y87188D01*
X63753Y92507D01*
X63753Y153162D01*
X63745Y153220D01*
X63747Y153278D01*
X63725Y153360D01*
X63713Y153444D01*
X63690Y153497D01*
X63675Y153553D01*
X63632Y153626D01*
X63597Y153703D01*
X63559Y153748D01*
X63530Y153798D01*
X63468Y153856D01*
X63414Y153920D01*
X63365Y153952D01*
X63322Y153992D01*
X63247Y154031D01*
X63177Y154078D01*
X63121Y154095D01*
X63069Y154122D01*
X63001Y154133D01*
X62906Y154163D01*
X62806Y154166D01*
X62738Y154177D01*
X42672Y154177D01*
X42614Y154169D01*
X42556Y154171D01*
X42474Y154149D01*
X42390Y154137D01*
X42337Y154114D01*
X42281Y154099D01*
X42208Y154056D01*
X42131Y154021D01*
X42086Y153983D01*
X42036Y153954D01*
X41978Y153892D01*
X41914Y153838D01*
X41882Y153789D01*
X41842Y153746D01*
X41803Y153671D01*
X41756Y153601D01*
X41739Y153545D01*
X41712Y153493D01*
X41701Y153425D01*
X41671Y153330D01*
X41668Y153230D01*
X41657Y153162D01*
X41657Y91813D01*
X41669Y91727D01*
X41672Y91639D01*
X41689Y91587D01*
X41697Y91532D01*
X41732Y91452D01*
X41759Y91369D01*
X41787Y91330D01*
X41813Y91273D01*
X41909Y91159D01*
X41954Y91096D01*
X42462Y90588D01*
X42509Y90553D01*
X42549Y90510D01*
X42622Y90467D01*
X42689Y90417D01*
X42744Y90396D01*
X42794Y90366D01*
X42876Y90346D01*
X42955Y90315D01*
X43013Y90311D01*
X43070Y90296D01*
X43154Y90299D01*
X43238Y90292D01*
X43296Y90303D01*
X43354Y90305D01*
X43434Y90331D01*
X43517Y90348D01*
X43569Y90375D01*
X43625Y90393D01*
X43681Y90433D01*
X43769Y90479D01*
X43842Y90548D01*
X43898Y90588D01*
X44243Y90933D01*
X52277Y90933D01*
X53493Y89717D01*
X53494Y89710D01*
X53504Y89684D01*
X53508Y89656D01*
X53555Y89551D01*
X53596Y89444D01*
X53612Y89422D01*
X53624Y89397D01*
X53698Y89309D01*
X53767Y89218D01*
X53790Y89201D01*
X53807Y89180D01*
X53903Y89116D01*
X53995Y89047D01*
X54021Y89038D01*
X54044Y89022D01*
X54154Y88988D01*
X54261Y88947D01*
X54289Y88945D01*
X54315Y88936D01*
X54430Y88933D01*
X54544Y88924D01*
X54569Y88930D01*
X54599Y88929D01*
X54856Y88996D01*
X54872Y89000D01*
X55791Y89381D01*
X58509Y89381D01*
X61019Y88341D01*
X62941Y86419D01*
X63981Y83909D01*
X63981Y81191D01*
X62941Y78681D01*
X61019Y76759D01*
X58509Y75719D01*
X55791Y75719D01*
X54872Y76100D01*
X54760Y76129D01*
X54651Y76164D01*
X54623Y76164D01*
X54596Y76171D01*
X54482Y76168D01*
X54367Y76171D01*
X54340Y76164D01*
X54312Y76163D01*
X54203Y76128D01*
X54092Y76099D01*
X54068Y76085D01*
X54041Y76076D01*
X53946Y76012D01*
X53847Y75954D01*
X53828Y75934D01*
X53805Y75918D01*
X53731Y75830D01*
X53653Y75746D01*
X53640Y75722D01*
X53622Y75701D01*
X53576Y75596D01*
X53523Y75493D01*
X53519Y75469D01*
X53507Y75441D01*
X53500Y75390D01*
X52277Y74167D01*
X45074Y74167D01*
X45045Y74163D01*
X45015Y74166D01*
X44904Y74143D01*
X44792Y74127D01*
X44766Y74115D01*
X44737Y74110D01*
X44636Y74058D01*
X44533Y74011D01*
X44510Y73992D01*
X44484Y73979D01*
X44402Y73901D01*
X44316Y73828D01*
X44300Y73803D01*
X44278Y73783D01*
X44221Y73685D01*
X44158Y73591D01*
X44149Y73563D01*
X44135Y73538D01*
X44107Y73428D01*
X44072Y73320D01*
X44072Y73290D01*
X44064Y73262D01*
X44068Y73149D01*
X44065Y73036D01*
X44073Y73007D01*
X44074Y72978D01*
X44108Y72870D01*
X44137Y72761D01*
X44152Y72735D01*
X44161Y72707D01*
X44207Y72644D01*
X44282Y72516D01*
X44328Y72473D01*
X44333Y72466D01*
X44334Y72464D01*
X44335Y72464D01*
X44356Y72434D01*
X48166Y68624D01*
X48236Y68572D01*
X48300Y68512D01*
X48349Y68486D01*
X48393Y68453D01*
X48475Y68422D01*
X48553Y68382D01*
X48600Y68374D01*
X48659Y68352D01*
X48806Y68340D01*
X48884Y68327D01*
X54436Y68327D01*
X54523Y68339D01*
X54610Y68342D01*
X54663Y68359D01*
X54718Y68367D01*
X54797Y68402D01*
X54881Y68429D01*
X54920Y68457D01*
X54977Y68483D01*
X55090Y68579D01*
X55154Y68624D01*
X57091Y70561D01*
X59601Y71601D01*
X62319Y71601D01*
X64829Y70561D01*
X66751Y68639D01*
X67791Y66129D01*
X67791Y63411D01*
X66751Y60901D01*
X64829Y58979D01*
X62319Y57939D01*
X59601Y57939D01*
X57091Y58979D01*
X55154Y60916D01*
X55084Y60968D01*
X55020Y61028D01*
X54971Y61054D01*
X54927Y61087D01*
X54845Y61118D01*
X54767Y61158D01*
X54720Y61166D01*
X54661Y61188D01*
X54513Y61200D01*
X54436Y61213D01*
X45517Y61213D01*
X34543Y72187D01*
X34543Y73287D01*
X34531Y73373D01*
X34528Y73461D01*
X34511Y73513D01*
X34503Y73568D01*
X34468Y73648D01*
X34441Y73731D01*
X34413Y73770D01*
X34387Y73827D01*
X34291Y73941D01*
X34246Y74004D01*
X33738Y74512D01*
X33691Y74547D01*
X33651Y74590D01*
X33578Y74633D01*
X33511Y74683D01*
X33456Y74704D01*
X33406Y74734D01*
X33324Y74754D01*
X33245Y74785D01*
X33187Y74789D01*
X33130Y74804D01*
X33046Y74801D01*
X32962Y74808D01*
X32904Y74797D01*
X32846Y74795D01*
X32766Y74769D01*
X32683Y74752D01*
X32631Y74725D01*
X32575Y74707D01*
X32519Y74667D01*
X32431Y74621D01*
X32358Y74552D01*
X32302Y74512D01*
X31957Y74167D01*
X23923Y74167D01*
X22707Y75383D01*
X22706Y75390D01*
X22696Y75416D01*
X22692Y75444D01*
X22645Y75549D01*
X22604Y75656D01*
X22588Y75678D01*
X22576Y75703D01*
X22502Y75791D01*
X22433Y75882D01*
X22410Y75899D01*
X22393Y75920D01*
X22297Y75984D01*
X22205Y76053D01*
X22179Y76062D01*
X22156Y76078D01*
X22046Y76112D01*
X21939Y76153D01*
X21911Y76155D01*
X21885Y76164D01*
X21770Y76167D01*
X21656Y76176D01*
X21631Y76170D01*
X21601Y76171D01*
X21344Y76104D01*
X21328Y76100D01*
X20409Y75719D01*
X17691Y75719D01*
X15181Y76759D01*
X13259Y78681D01*
X12219Y81191D01*
X12219Y83909D01*
X13259Y86419D01*
X15181Y88341D01*
X17691Y89381D01*
X20409Y89381D01*
X21328Y89000D01*
X21440Y88971D01*
X21549Y88936D01*
X21577Y88936D01*
X21604Y88929D01*
X21718Y88932D01*
X21833Y88929D01*
X21860Y88936D01*
X21888Y88937D01*
X21997Y88972D01*
X22108Y89001D01*
X22132Y89015D01*
X22159Y89024D01*
X22254Y89088D01*
X22353Y89146D01*
X22372Y89166D01*
X22395Y89182D01*
X22469Y89270D01*
X22547Y89354D01*
X22560Y89378D01*
X22578Y89399D01*
X22624Y89504D01*
X22677Y89607D01*
X22681Y89631D01*
X22693Y89659D01*
X22700Y89710D01*
X23923Y90933D01*
X31957Y90933D01*
X32302Y90588D01*
X32349Y90553D01*
X32389Y90510D01*
X32462Y90467D01*
X32529Y90417D01*
X32584Y90396D01*
X32634Y90366D01*
X32716Y90346D01*
X32795Y90315D01*
X32853Y90311D01*
X32910Y90296D01*
X32994Y90299D01*
X33078Y90292D01*
X33136Y90303D01*
X33194Y90305D01*
X33274Y90331D01*
X33357Y90348D01*
X33409Y90375D01*
X33465Y90393D01*
X33521Y90433D01*
X33609Y90479D01*
X33682Y90548D01*
X33738Y90588D01*
X34246Y91096D01*
X34298Y91165D01*
X34358Y91229D01*
X34384Y91279D01*
X34417Y91323D01*
X34448Y91404D01*
X34488Y91482D01*
X34496Y91530D01*
X34518Y91588D01*
X34530Y91736D01*
X34543Y91813D01*
X34543Y153162D01*
X34535Y153220D01*
X34537Y153278D01*
X34515Y153360D01*
X34503Y153444D01*
X34480Y153497D01*
X34465Y153553D01*
X34422Y153626D01*
X34387Y153703D01*
X34349Y153748D01*
X34320Y153798D01*
X34258Y153856D01*
X34204Y153920D01*
X34155Y153952D01*
X34112Y153992D01*
X34037Y154031D01*
X33967Y154078D01*
X33911Y154095D01*
X33859Y154122D01*
X33791Y154133D01*
X33696Y154163D01*
X33596Y154166D01*
X33528Y154177D01*
X29856Y154177D01*
X26061Y157972D01*
X25991Y158024D01*
X25928Y158084D01*
X25878Y158110D01*
X25834Y158143D01*
X25752Y158174D01*
X25674Y158214D01*
X25627Y158222D01*
X25568Y158244D01*
X25421Y158256D01*
X25343Y158269D01*
X24041Y158269D01*
X21531Y159309D01*
X19609Y161231D01*
X18569Y163741D01*
X18569Y166459D01*
X19609Y168969D01*
X21531Y170891D01*
X24041Y171931D01*
X26759Y171931D01*
X29269Y170891D01*
X31191Y168969D01*
X32231Y166459D01*
X32231Y165157D01*
X32243Y165070D01*
X32246Y164983D01*
X32263Y164930D01*
X32271Y164875D01*
X32306Y164795D01*
X32333Y164712D01*
X32361Y164673D01*
X32387Y164616D01*
X32483Y164503D01*
X32528Y164439D01*
X33347Y163620D01*
X33417Y163567D01*
X33480Y163508D01*
X33530Y163482D01*
X33574Y163449D01*
X33656Y163418D01*
X33734Y163378D01*
X33781Y163370D01*
X33840Y163348D01*
X33987Y163336D01*
X34065Y163323D01*
X136986Y163323D01*
X137015Y163327D01*
X137045Y163324D01*
X137156Y163347D01*
X137268Y163363D01*
X137294Y163375D01*
X137323Y163380D01*
X137424Y163433D01*
X137527Y163479D01*
X137549Y163498D01*
X137576Y163511D01*
X137658Y163589D01*
X137744Y163662D01*
X137760Y163687D01*
X137782Y163707D01*
X137839Y163805D01*
X137902Y163899D01*
X137911Y163927D01*
X137925Y163952D01*
X137953Y164062D01*
X137987Y164170D01*
X137988Y164200D01*
X137995Y164228D01*
X137992Y164341D01*
X137995Y164454D01*
X137987Y164483D01*
X137986Y164512D01*
X137951Y164620D01*
X137923Y164729D01*
X137908Y164755D01*
X137899Y164783D01*
X137853Y164847D01*
X137778Y164974D01*
X137732Y165017D01*
X137725Y165026D01*
X136679Y167551D01*
X136679Y170269D01*
X137719Y172779D01*
X139656Y174716D01*
X139708Y174786D01*
X139768Y174850D01*
X139794Y174899D01*
X139827Y174943D01*
X139858Y175025D01*
X139898Y175103D01*
X139906Y175150D01*
X139928Y175209D01*
X139940Y175357D01*
X139953Y175434D01*
X139953Y189433D01*
X169977Y219457D01*
X230576Y219457D01*
X230663Y219469D01*
X230750Y219472D01*
X230803Y219489D01*
X230858Y219497D01*
X230937Y219532D01*
X231021Y219559D01*
X231060Y219587D01*
X231117Y219613D01*
X231230Y219709D01*
X231294Y219754D01*
X233231Y221691D01*
X235741Y222731D01*
X238459Y222731D01*
X240969Y221691D01*
X242891Y219769D01*
X243931Y217259D01*
X243931Y214541D01*
X242891Y212031D01*
X240969Y210109D01*
X238459Y209069D01*
X235741Y209069D01*
X233231Y210109D01*
X231294Y212046D01*
X231224Y212098D01*
X231160Y212158D01*
X231111Y212184D01*
X231067Y212217D01*
X230985Y212248D01*
X230907Y212288D01*
X230860Y212296D01*
X230801Y212318D01*
X230653Y212330D01*
X230576Y212343D01*
X173344Y212343D01*
X173257Y212331D01*
X173170Y212328D01*
X173117Y212311D01*
X173062Y212303D01*
X172982Y212268D01*
X172899Y212241D01*
X172860Y212213D01*
X172803Y212187D01*
X172690Y212091D01*
X172626Y212046D01*
X147364Y186784D01*
X147312Y186714D01*
X147252Y186650D01*
X147226Y186601D01*
X147193Y186557D01*
X147162Y186475D01*
X147122Y186397D01*
X147114Y186350D01*
X147092Y186291D01*
X147080Y186144D01*
X147067Y186066D01*
X147067Y175434D01*
X147079Y175347D01*
X147082Y175260D01*
X147099Y175207D01*
X147107Y175152D01*
X147142Y175073D01*
X147169Y174989D01*
X147197Y174950D01*
X147223Y174893D01*
X147319Y174780D01*
X147364Y174716D01*
X149301Y172779D01*
X150341Y170269D01*
X150341Y167551D01*
X149297Y165031D01*
X149276Y165013D01*
X149213Y164919D01*
X149145Y164829D01*
X149135Y164801D01*
X149118Y164777D01*
X149084Y164669D01*
X149044Y164563D01*
X149041Y164534D01*
X149033Y164506D01*
X149030Y164393D01*
X149020Y164280D01*
X149026Y164251D01*
X149025Y164222D01*
X149054Y164112D01*
X149076Y164001D01*
X149090Y163975D01*
X149097Y163947D01*
X149155Y163850D01*
X149207Y163749D01*
X149227Y163727D01*
X149242Y163702D01*
X149325Y163625D01*
X149403Y163543D01*
X149428Y163528D01*
X149450Y163508D01*
X149551Y163456D01*
X149648Y163399D01*
X149677Y163392D01*
X149703Y163378D01*
X149780Y163365D01*
X149924Y163329D01*
X149986Y163331D01*
X150034Y163323D01*
X296372Y163323D01*
X296457Y163335D01*
X296543Y163337D01*
X296597Y163355D01*
X296653Y163363D01*
X296732Y163398D01*
X296813Y163424D01*
X296861Y163456D01*
X296913Y163479D01*
X296978Y163534D01*
X297050Y163582D01*
X297086Y163626D01*
X297130Y163662D01*
X297177Y163734D01*
X297233Y163800D01*
X297256Y163852D01*
X297287Y163899D01*
X297313Y163981D01*
X297348Y164060D01*
X297356Y164116D01*
X297373Y164170D01*
X297375Y164256D01*
X297387Y164341D01*
X297379Y164397D01*
X297380Y164454D01*
X297359Y164537D01*
X297346Y164622D01*
X297323Y164674D01*
X297308Y164729D01*
X297265Y164803D01*
X297229Y164882D01*
X297192Y164925D01*
X297163Y164974D01*
X297101Y165033D01*
X297045Y165098D01*
X297003Y165124D01*
X296956Y165168D01*
X296827Y165234D01*
X296760Y165276D01*
X294853Y166066D01*
X293066Y167853D01*
X292099Y170187D01*
X292099Y172713D01*
X293066Y175047D01*
X294853Y176834D01*
X297187Y177801D01*
X299350Y177801D01*
X299437Y177813D01*
X299524Y177816D01*
X299577Y177833D01*
X299632Y177841D01*
X299712Y177876D01*
X299795Y177903D01*
X299834Y177931D01*
X299891Y177957D01*
X300004Y178053D01*
X300068Y178098D01*
X317846Y195876D01*
X317898Y195946D01*
X317958Y196010D01*
X317984Y196059D01*
X318017Y196103D01*
X318048Y196185D01*
X318088Y196263D01*
X318096Y196310D01*
X318118Y196369D01*
X318130Y196516D01*
X318143Y196594D01*
X318143Y205566D01*
X318131Y205653D01*
X318128Y205740D01*
X318111Y205793D01*
X318103Y205848D01*
X318068Y205927D01*
X318041Y206011D01*
X318013Y206050D01*
X317987Y206107D01*
X317891Y206220D01*
X317846Y206284D01*
X315909Y208221D01*
X314869Y210731D01*
X314869Y213449D01*
X315909Y215959D01*
X317831Y217881D01*
X320341Y218921D01*
X323059Y218921D01*
X325569Y217881D01*
X327491Y215959D01*
X328531Y213449D01*
X328531Y210731D01*
X327491Y208221D01*
X325554Y206284D01*
X325502Y206214D01*
X325442Y206150D01*
X325416Y206101D01*
X325383Y206057D01*
X325352Y205975D01*
X325312Y205897D01*
X325304Y205850D01*
X325282Y205791D01*
X325270Y205643D01*
X325257Y205566D01*
X325257Y193227D01*
X305098Y173068D01*
X305046Y172998D01*
X304986Y172934D01*
X304960Y172885D01*
X304927Y172841D01*
X304896Y172759D01*
X304856Y172681D01*
X304848Y172634D01*
X304826Y172575D01*
X304814Y172428D01*
X304801Y172350D01*
X304801Y170187D01*
X303834Y167853D01*
X302047Y166066D01*
X300140Y165276D01*
X300066Y165232D01*
X299987Y165197D01*
X299944Y165160D01*
X299895Y165131D01*
X299836Y165069D01*
X299770Y165013D01*
X299739Y164966D01*
X299700Y164925D01*
X299660Y164848D01*
X299613Y164777D01*
X299596Y164723D01*
X299570Y164672D01*
X299553Y164588D01*
X299527Y164506D01*
X299526Y164449D01*
X299515Y164393D01*
X299522Y164308D01*
X299520Y164222D01*
X299534Y164167D01*
X299539Y164110D01*
X299570Y164030D01*
X299592Y163947D01*
X299621Y163898D01*
X299641Y163845D01*
X299693Y163776D01*
X299737Y163702D01*
X299778Y163663D01*
X299813Y163618D01*
X299881Y163566D01*
X299944Y163508D01*
X299995Y163482D01*
X300040Y163448D01*
X300121Y163417D01*
X300197Y163378D01*
X300246Y163370D01*
X300306Y163347D01*
X300451Y163336D01*
X300528Y163323D01*
X337392Y163323D01*
X337479Y163335D01*
X337566Y163338D01*
X337619Y163355D01*
X337674Y163363D01*
X337753Y163398D01*
X337837Y163425D01*
X337876Y163453D01*
X337933Y163479D01*
X338046Y163575D01*
X338110Y163620D01*
X339031Y164541D01*
X341414Y165528D01*
X341465Y165558D01*
X341519Y165579D01*
X341587Y165630D01*
X341659Y165673D01*
X341699Y165715D01*
X341746Y165750D01*
X341796Y165818D01*
X341854Y165879D01*
X341881Y165931D01*
X341916Y165978D01*
X341946Y166057D01*
X341985Y166132D01*
X341996Y166189D01*
X342017Y166244D01*
X342023Y166328D01*
X342040Y166411D01*
X342035Y166469D01*
X342039Y166528D01*
X342024Y166595D01*
X342015Y166694D01*
X341979Y166787D01*
X341964Y166855D01*
X341149Y168821D01*
X341149Y171539D01*
X342189Y174049D01*
X344111Y175971D01*
X346621Y177011D01*
X349339Y177011D01*
X351849Y175971D01*
X353771Y174049D01*
X354811Y171539D01*
X354811Y168800D01*
X354823Y168713D01*
X354826Y168626D01*
X354843Y168573D01*
X354851Y168518D01*
X354886Y168438D01*
X354913Y168355D01*
X354941Y168316D01*
X354967Y168259D01*
X355063Y168146D01*
X355108Y168082D01*
X367285Y155905D01*
X367285Y117214D01*
X367297Y117127D01*
X367300Y117039D01*
X367317Y116987D01*
X367325Y116932D01*
X367360Y116852D01*
X367387Y116769D01*
X367415Y116730D01*
X367441Y116673D01*
X367537Y116559D01*
X367582Y116496D01*
X368936Y115142D01*
X368936Y100758D01*
X367582Y99404D01*
X367530Y99335D01*
X367470Y99271D01*
X367444Y99221D01*
X367411Y99177D01*
X367380Y99095D01*
X367340Y99018D01*
X367332Y98970D01*
X367310Y98912D01*
X367298Y98764D01*
X367285Y98686D01*
X367285Y95555D01*
X343103Y71373D01*
X310504Y71373D01*
X310417Y71361D01*
X310330Y71358D01*
X310277Y71341D01*
X310222Y71333D01*
X310142Y71298D01*
X310059Y71271D01*
X310020Y71243D01*
X309963Y71217D01*
X309850Y71121D01*
X309786Y71076D01*
X279444Y40734D01*
X279392Y40664D01*
X279332Y40600D01*
X279306Y40551D01*
X279273Y40507D01*
X279242Y40425D01*
X279202Y40347D01*
X279194Y40300D01*
X279172Y40241D01*
X279160Y40094D01*
X279147Y40016D01*
X279147Y23927D01*
X262839Y7619D01*
X215951Y7619D01*
G37*
%LPD*%
G36*
X245361Y14737D02*
X245361Y14737D01*
X245391Y14734D01*
X245502Y14757D01*
X245614Y14773D01*
X245641Y14785D01*
X245669Y14790D01*
X245770Y14843D01*
X245873Y14889D01*
X245896Y14908D01*
X245922Y14921D01*
X246004Y14999D01*
X246090Y15072D01*
X246107Y15097D01*
X246128Y15117D01*
X246185Y15215D01*
X246248Y15309D01*
X246257Y15337D01*
X246272Y15362D01*
X246299Y15472D01*
X246334Y15580D01*
X246334Y15610D01*
X246342Y15638D01*
X246338Y15751D01*
X246341Y15864D01*
X246334Y15893D01*
X246333Y15922D01*
X246298Y16030D01*
X246269Y16139D01*
X246254Y16165D01*
X246245Y16193D01*
X246199Y16257D01*
X246124Y16384D01*
X246078Y16427D01*
X246050Y16466D01*
X244894Y17622D01*
X243789Y19143D01*
X242936Y20817D01*
X242355Y22604D01*
X242234Y23369D01*
X252984Y23369D01*
X253042Y23377D01*
X253100Y23375D01*
X253182Y23397D01*
X253265Y23409D01*
X253319Y23433D01*
X253375Y23447D01*
X253448Y23490D01*
X253525Y23525D01*
X253569Y23563D01*
X253620Y23593D01*
X253677Y23654D01*
X253742Y23709D01*
X253774Y23757D01*
X253814Y23800D01*
X253853Y23875D01*
X253899Y23945D01*
X253917Y24001D01*
X253944Y24053D01*
X253955Y24121D01*
X253985Y24216D01*
X253988Y24316D01*
X253999Y24384D01*
X253999Y25401D01*
X254001Y25401D01*
X254001Y24384D01*
X254009Y24326D01*
X254008Y24268D01*
X254029Y24186D01*
X254041Y24103D01*
X254065Y24049D01*
X254079Y23993D01*
X254122Y23920D01*
X254157Y23843D01*
X254195Y23798D01*
X254225Y23748D01*
X254286Y23690D01*
X254341Y23626D01*
X254389Y23594D01*
X254432Y23554D01*
X254507Y23515D01*
X254577Y23469D01*
X254633Y23451D01*
X254685Y23424D01*
X254753Y23413D01*
X254848Y23383D01*
X254948Y23380D01*
X255016Y23369D01*
X265766Y23369D01*
X265735Y23172D01*
X265733Y23063D01*
X265724Y22955D01*
X265731Y22922D01*
X265730Y22888D01*
X265758Y22783D01*
X265780Y22676D01*
X265795Y22646D01*
X265804Y22613D01*
X265861Y22520D01*
X265911Y22424D01*
X265934Y22399D01*
X265952Y22370D01*
X266032Y22296D01*
X266107Y22218D01*
X266136Y22201D01*
X266161Y22178D01*
X266258Y22129D01*
X266352Y22074D01*
X266385Y22066D01*
X266415Y22050D01*
X266522Y22031D01*
X266627Y22004D01*
X266661Y22005D01*
X266695Y21999D01*
X266803Y22010D01*
X266911Y22013D01*
X266944Y22023D01*
X266977Y22027D01*
X267079Y22067D01*
X267182Y22100D01*
X267207Y22118D01*
X267242Y22132D01*
X267415Y22266D01*
X267455Y22295D01*
X271736Y26576D01*
X271788Y26646D01*
X271848Y26710D01*
X271874Y26759D01*
X271907Y26803D01*
X271938Y26885D01*
X271978Y26963D01*
X271986Y27010D01*
X272008Y27069D01*
X272020Y27216D01*
X272033Y27294D01*
X272033Y43383D01*
X307137Y78487D01*
X339736Y78487D01*
X339823Y78499D01*
X339910Y78502D01*
X339963Y78519D01*
X340018Y78527D01*
X340098Y78562D01*
X340181Y78589D01*
X340220Y78617D01*
X340277Y78643D01*
X340390Y78739D01*
X340454Y78784D01*
X359504Y97834D01*
X359522Y97858D01*
X359544Y97877D01*
X359607Y97971D01*
X359675Y98061D01*
X359685Y98089D01*
X359702Y98113D01*
X359736Y98221D01*
X359776Y98327D01*
X359779Y98356D01*
X359788Y98384D01*
X359790Y98498D01*
X359800Y98610D01*
X359794Y98639D01*
X359795Y98668D01*
X359766Y98778D01*
X359744Y98889D01*
X359730Y98915D01*
X359723Y98943D01*
X359665Y99041D01*
X359613Y99141D01*
X359593Y99163D01*
X359578Y99188D01*
X359495Y99265D01*
X359417Y99347D01*
X359392Y99362D01*
X359370Y99382D01*
X359270Y99434D01*
X359172Y99491D01*
X359143Y99498D01*
X359117Y99512D01*
X359040Y99525D01*
X358896Y99561D01*
X358834Y99559D01*
X358786Y99567D01*
X352480Y99567D01*
X352383Y99554D01*
X352286Y99549D01*
X352249Y99535D01*
X352198Y99527D01*
X352041Y99457D01*
X351972Y99431D01*
X351628Y99232D01*
X350981Y99059D01*
X349059Y99059D01*
X349059Y107378D01*
X349051Y107436D01*
X349052Y107495D01*
X349031Y107576D01*
X349019Y107660D01*
X348995Y107713D01*
X348980Y107770D01*
X348937Y107842D01*
X348903Y107919D01*
X348865Y107964D01*
X348835Y108014D01*
X348773Y108072D01*
X348719Y108136D01*
X348670Y108169D01*
X348628Y108209D01*
X348553Y108247D01*
X348482Y108294D01*
X348427Y108311D01*
X348375Y108338D01*
X348307Y108349D01*
X348211Y108380D01*
X348112Y108382D01*
X348044Y108394D01*
X347916Y108394D01*
X347916Y108522D01*
X347907Y108579D01*
X347909Y108638D01*
X347888Y108719D01*
X347876Y108803D01*
X347852Y108856D01*
X347837Y108913D01*
X347794Y108985D01*
X347759Y109062D01*
X347722Y109107D01*
X347692Y109157D01*
X347630Y109215D01*
X347576Y109279D01*
X347527Y109312D01*
X347484Y109352D01*
X347409Y109390D01*
X347339Y109437D01*
X347283Y109455D01*
X347231Y109481D01*
X347163Y109493D01*
X347068Y109523D01*
X346968Y109525D01*
X346900Y109537D01*
X341756Y109537D01*
X341756Y114634D01*
X341929Y115281D01*
X342264Y115860D01*
X342737Y116333D01*
X342972Y116469D01*
X342987Y116481D01*
X343005Y116489D01*
X343099Y116568D01*
X343196Y116644D01*
X343207Y116660D01*
X343222Y116673D01*
X343291Y116775D01*
X343362Y116874D01*
X343369Y116893D01*
X343380Y116909D01*
X343417Y117026D01*
X343459Y117142D01*
X343460Y117162D01*
X343466Y117180D01*
X343469Y117303D01*
X343477Y117426D01*
X343472Y117445D01*
X343473Y117464D01*
X343442Y117583D01*
X343415Y117703D01*
X343406Y117721D01*
X343401Y117739D01*
X343339Y117844D01*
X343280Y117953D01*
X343266Y117967D01*
X343256Y117984D01*
X343166Y118068D01*
X343080Y118155D01*
X343063Y118165D01*
X343049Y118178D01*
X342939Y118234D01*
X342832Y118294D01*
X342813Y118299D01*
X342795Y118308D01*
X342723Y118320D01*
X342555Y118359D01*
X342504Y118357D01*
X342464Y118363D01*
X315722Y118363D01*
X315664Y118355D01*
X315606Y118357D01*
X315524Y118335D01*
X315440Y118323D01*
X315387Y118300D01*
X315331Y118285D01*
X315258Y118242D01*
X315181Y118207D01*
X315136Y118169D01*
X315086Y118140D01*
X315028Y118078D01*
X314964Y118024D01*
X314932Y117975D01*
X314892Y117932D01*
X314853Y117857D01*
X314806Y117787D01*
X314789Y117731D01*
X314762Y117679D01*
X314751Y117611D01*
X314721Y117516D01*
X314718Y117416D01*
X314707Y117348D01*
X314707Y117214D01*
X314719Y117127D01*
X314722Y117039D01*
X314739Y116987D01*
X314747Y116932D01*
X314782Y116852D01*
X314809Y116769D01*
X314837Y116730D01*
X314863Y116673D01*
X314959Y116559D01*
X315004Y116496D01*
X315512Y115988D01*
X315559Y115953D01*
X315599Y115910D01*
X315672Y115867D01*
X315739Y115817D01*
X315794Y115796D01*
X315844Y115766D01*
X315926Y115745D01*
X316005Y115715D01*
X316063Y115711D01*
X316120Y115696D01*
X316204Y115699D01*
X316288Y115692D01*
X316346Y115703D01*
X316404Y115705D01*
X316484Y115731D01*
X316567Y115748D01*
X316619Y115775D01*
X316675Y115793D01*
X316731Y115833D01*
X316819Y115879D01*
X316892Y115947D01*
X316948Y115988D01*
X317293Y116333D01*
X325327Y116333D01*
X326518Y115142D01*
X326518Y100758D01*
X325327Y99567D01*
X324612Y99567D01*
X324554Y99559D01*
X324496Y99561D01*
X324414Y99539D01*
X324330Y99527D01*
X324277Y99504D01*
X324221Y99489D01*
X324148Y99446D01*
X324071Y99411D01*
X324026Y99373D01*
X323976Y99344D01*
X323918Y99282D01*
X323854Y99228D01*
X323822Y99179D01*
X323782Y99136D01*
X323743Y99061D01*
X323696Y98991D01*
X323679Y98935D01*
X323652Y98883D01*
X323641Y98815D01*
X323611Y98720D01*
X323608Y98620D01*
X323597Y98552D01*
X323597Y95424D01*
X323605Y95368D01*
X323603Y95319D01*
X323610Y95293D01*
X323612Y95250D01*
X323629Y95197D01*
X323637Y95142D01*
X323668Y95073D01*
X323675Y95044D01*
X323682Y95033D01*
X323699Y94979D01*
X323727Y94940D01*
X323753Y94883D01*
X323814Y94811D01*
X323820Y94800D01*
X323833Y94788D01*
X323849Y94770D01*
X323894Y94706D01*
X325831Y92769D01*
X326871Y90259D01*
X326871Y87541D01*
X325831Y85031D01*
X323909Y83109D01*
X321399Y82069D01*
X318681Y82069D01*
X316171Y83109D01*
X314249Y85031D01*
X313209Y87541D01*
X313209Y90259D01*
X314249Y92769D01*
X316186Y94706D01*
X316238Y94776D01*
X316298Y94840D01*
X316324Y94889D01*
X316357Y94933D01*
X316378Y94988D01*
X316384Y94997D01*
X316391Y95022D01*
X316428Y95093D01*
X316436Y95140D01*
X316458Y95199D01*
X316462Y95244D01*
X316469Y95268D01*
X316471Y95354D01*
X316483Y95424D01*
X316483Y98552D01*
X316475Y98610D01*
X316477Y98668D01*
X316455Y98750D01*
X316443Y98834D01*
X316420Y98887D01*
X316405Y98943D01*
X316362Y99016D01*
X316327Y99093D01*
X316289Y99138D01*
X316260Y99188D01*
X316198Y99246D01*
X316144Y99310D01*
X316095Y99342D01*
X316052Y99382D01*
X315977Y99421D01*
X315907Y99468D01*
X315851Y99485D01*
X315799Y99512D01*
X315731Y99523D01*
X315636Y99553D01*
X315536Y99556D01*
X315468Y99567D01*
X308314Y99567D01*
X308312Y99567D01*
X308310Y99567D01*
X308170Y99547D01*
X308032Y99527D01*
X308031Y99527D01*
X308029Y99527D01*
X307901Y99469D01*
X307773Y99411D01*
X307771Y99410D01*
X307770Y99409D01*
X307663Y99318D01*
X307556Y99228D01*
X307555Y99226D01*
X307554Y99225D01*
X307545Y99212D01*
X307398Y98991D01*
X307389Y98962D01*
X307376Y98941D01*
X306781Y97505D01*
X304844Y95568D01*
X304792Y95498D01*
X304732Y95434D01*
X304706Y95385D01*
X304673Y95341D01*
X304642Y95259D01*
X304602Y95181D01*
X304594Y95134D01*
X304572Y95075D01*
X304560Y94927D01*
X304547Y94850D01*
X304547Y83617D01*
X295418Y74488D01*
X295366Y74418D01*
X295306Y74354D01*
X295280Y74305D01*
X295247Y74261D01*
X295216Y74179D01*
X295176Y74101D01*
X295168Y74054D01*
X295146Y73995D01*
X295134Y73848D01*
X295121Y73770D01*
X295121Y71031D01*
X294081Y68521D01*
X292159Y66599D01*
X289649Y65559D01*
X286931Y65559D01*
X284421Y66599D01*
X282499Y68521D01*
X281459Y71031D01*
X281459Y73749D01*
X282499Y76259D01*
X284421Y78181D01*
X286931Y79221D01*
X289670Y79221D01*
X289757Y79233D01*
X289844Y79236D01*
X289897Y79253D01*
X289952Y79261D01*
X290032Y79296D01*
X290115Y79323D01*
X290154Y79351D01*
X290211Y79377D01*
X290324Y79473D01*
X290388Y79518D01*
X297136Y86266D01*
X297188Y86336D01*
X297248Y86400D01*
X297274Y86449D01*
X297307Y86493D01*
X297338Y86575D01*
X297378Y86653D01*
X297386Y86700D01*
X297408Y86759D01*
X297420Y86906D01*
X297433Y86984D01*
X297433Y94850D01*
X297421Y94937D01*
X297418Y95024D01*
X297401Y95077D01*
X297393Y95132D01*
X297358Y95211D01*
X297331Y95295D01*
X297303Y95334D01*
X297277Y95391D01*
X297181Y95504D01*
X297136Y95568D01*
X295199Y97505D01*
X294159Y100015D01*
X294159Y102733D01*
X295199Y105243D01*
X295485Y105529D01*
X295537Y105599D01*
X295597Y105663D01*
X295623Y105712D01*
X295656Y105756D01*
X295687Y105838D01*
X295727Y105916D01*
X295735Y105963D01*
X295757Y106022D01*
X295769Y106170D01*
X295782Y106247D01*
X295782Y114808D01*
X295774Y114866D01*
X295776Y114924D01*
X295754Y115006D01*
X295742Y115090D01*
X295719Y115143D01*
X295704Y115199D01*
X295661Y115272D01*
X295626Y115349D01*
X295588Y115394D01*
X295559Y115444D01*
X295497Y115502D01*
X295443Y115566D01*
X295394Y115598D01*
X295351Y115638D01*
X295276Y115677D01*
X295206Y115724D01*
X295150Y115741D01*
X295098Y115768D01*
X295030Y115779D01*
X294935Y115809D01*
X294835Y115812D01*
X294767Y115823D01*
X284277Y115823D01*
X257904Y142196D01*
X257834Y142248D01*
X257770Y142308D01*
X257721Y142334D01*
X257677Y142367D01*
X257595Y142398D01*
X257517Y142438D01*
X257470Y142446D01*
X257411Y142468D01*
X257264Y142480D01*
X257186Y142493D01*
X244014Y142493D01*
X243927Y142481D01*
X243840Y142478D01*
X243787Y142461D01*
X243732Y142453D01*
X243653Y142418D01*
X243569Y142391D01*
X243530Y142363D01*
X243473Y142337D01*
X243360Y142241D01*
X243296Y142196D01*
X241359Y140259D01*
X238849Y139219D01*
X236131Y139219D01*
X234577Y139863D01*
X234465Y139892D01*
X234356Y139927D01*
X234328Y139927D01*
X234301Y139934D01*
X234187Y139931D01*
X234072Y139934D01*
X234045Y139927D01*
X234017Y139926D01*
X233908Y139891D01*
X233797Y139862D01*
X233773Y139848D01*
X233746Y139839D01*
X233651Y139776D01*
X233552Y139717D01*
X233533Y139697D01*
X233510Y139681D01*
X233436Y139593D01*
X233358Y139510D01*
X233345Y139485D01*
X233327Y139464D01*
X233281Y139359D01*
X233228Y139256D01*
X233224Y139232D01*
X233212Y139204D01*
X233175Y138940D01*
X233173Y138925D01*
X233173Y89155D01*
X233189Y89041D01*
X233199Y88927D01*
X233209Y88901D01*
X233213Y88874D01*
X233260Y88769D01*
X233301Y88662D01*
X233317Y88640D01*
X233329Y88614D01*
X233403Y88527D01*
X233472Y88435D01*
X233495Y88418D01*
X233512Y88397D01*
X233608Y88334D01*
X233700Y88265D01*
X233726Y88255D01*
X233749Y88240D01*
X233859Y88205D01*
X233966Y88164D01*
X233994Y88162D01*
X234020Y88154D01*
X234135Y88151D01*
X234249Y88142D01*
X234274Y88147D01*
X234304Y88147D01*
X234561Y88214D01*
X234577Y88217D01*
X236227Y88901D01*
X238753Y88901D01*
X241087Y87934D01*
X242874Y86147D01*
X243841Y83813D01*
X243841Y81287D01*
X242874Y78953D01*
X241087Y77166D01*
X238753Y76199D01*
X236227Y76199D01*
X234577Y76883D01*
X234465Y76911D01*
X234356Y76946D01*
X234328Y76947D01*
X234301Y76954D01*
X234187Y76950D01*
X234072Y76953D01*
X234045Y76946D01*
X234017Y76946D01*
X233908Y76911D01*
X233797Y76882D01*
X233773Y76867D01*
X233746Y76859D01*
X233651Y76795D01*
X233552Y76736D01*
X233533Y76716D01*
X233510Y76701D01*
X233436Y76613D01*
X233358Y76529D01*
X233345Y76504D01*
X233327Y76483D01*
X233281Y76378D01*
X233228Y76276D01*
X233224Y76251D01*
X233212Y76223D01*
X233175Y75960D01*
X233173Y75945D01*
X233173Y36557D01*
X233173Y36555D01*
X233173Y36554D01*
X233193Y36413D01*
X233213Y36275D01*
X233213Y36274D01*
X233213Y36272D01*
X233271Y36144D01*
X233329Y36016D01*
X233330Y36015D01*
X233331Y36013D01*
X233401Y35931D01*
X233410Y35915D01*
X233429Y35897D01*
X233512Y35799D01*
X233514Y35798D01*
X233515Y35797D01*
X233528Y35789D01*
X233587Y35749D01*
X233617Y35721D01*
X233670Y35694D01*
X233749Y35641D01*
X233778Y35632D01*
X233799Y35619D01*
X235075Y35091D01*
X238290Y31875D01*
X240031Y27674D01*
X240031Y23126D01*
X238291Y18925D01*
X235831Y16466D01*
X235814Y16442D01*
X235791Y16423D01*
X235729Y16329D01*
X235660Y16239D01*
X235650Y16211D01*
X235634Y16187D01*
X235599Y16078D01*
X235559Y15973D01*
X235557Y15944D01*
X235548Y15916D01*
X235545Y15802D01*
X235536Y15690D01*
X235541Y15661D01*
X235541Y15632D01*
X235569Y15522D01*
X235592Y15411D01*
X235605Y15385D01*
X235612Y15357D01*
X235670Y15259D01*
X235723Y15159D01*
X235743Y15137D01*
X235758Y15112D01*
X235840Y15035D01*
X235918Y14953D01*
X235944Y14938D01*
X235965Y14918D01*
X236066Y14866D01*
X236164Y14809D01*
X236192Y14802D01*
X236218Y14788D01*
X236296Y14775D01*
X236439Y14739D01*
X236502Y14741D01*
X236549Y14733D01*
X245332Y14733D01*
X245361Y14737D01*
G37*
%LPC*%
G36*
X339010Y18541D02*
X339010Y18541D01*
X331821Y21519D01*
X326319Y27021D01*
X323341Y34210D01*
X323341Y41990D01*
X326319Y49179D01*
X331821Y54681D01*
X339010Y57659D01*
X346790Y57659D01*
X353979Y54681D01*
X359481Y49179D01*
X362459Y41990D01*
X362459Y34210D01*
X359481Y27021D01*
X353979Y21519D01*
X346790Y18541D01*
X339010Y18541D01*
G37*
%LPD*%
%LPC*%
G36*
X34210Y18541D02*
X34210Y18541D01*
X27021Y21519D01*
X21519Y27021D01*
X18541Y34210D01*
X18541Y41990D01*
X21519Y49179D01*
X27021Y54681D01*
X34210Y57659D01*
X41990Y57659D01*
X49179Y54681D01*
X54681Y49179D01*
X57659Y41990D01*
X57659Y34210D01*
X54681Y27021D01*
X49179Y21519D01*
X41990Y18541D01*
X34210Y18541D01*
G37*
%LPD*%
%LPC*%
G36*
X175526Y13969D02*
X175526Y13969D01*
X171325Y15710D01*
X168110Y18925D01*
X166369Y23126D01*
X166369Y27674D01*
X168110Y31875D01*
X171325Y35090D01*
X175526Y36831D01*
X180074Y36831D01*
X184275Y35090D01*
X187490Y31875D01*
X189231Y27674D01*
X189231Y23126D01*
X187490Y18925D01*
X184275Y15710D01*
X180074Y13969D01*
X175526Y13969D01*
G37*
%LPD*%
%LPC*%
G36*
X119291Y117629D02*
X119291Y117629D01*
X116781Y118669D01*
X114844Y120606D01*
X114774Y120658D01*
X114710Y120718D01*
X114661Y120744D01*
X114617Y120777D01*
X114535Y120808D01*
X114457Y120848D01*
X114410Y120856D01*
X114351Y120878D01*
X114203Y120890D01*
X114126Y120903D01*
X108124Y120903D01*
X108037Y120891D01*
X107950Y120888D01*
X107897Y120871D01*
X107842Y120863D01*
X107763Y120828D01*
X107679Y120801D01*
X107640Y120773D01*
X107583Y120747D01*
X107470Y120651D01*
X107406Y120606D01*
X106739Y119939D01*
X104229Y118899D01*
X101511Y118899D01*
X99001Y119939D01*
X97079Y121861D01*
X96039Y124371D01*
X96039Y127089D01*
X97079Y129599D01*
X99001Y131521D01*
X101511Y132561D01*
X104229Y132561D01*
X106739Y131521D01*
X108661Y129599D01*
X109057Y128643D01*
X109058Y128642D01*
X109058Y128641D01*
X109129Y128520D01*
X109201Y128399D01*
X109202Y128398D01*
X109203Y128396D01*
X109307Y128299D01*
X109408Y128203D01*
X109409Y128203D01*
X109411Y128202D01*
X109536Y128137D01*
X109661Y128073D01*
X109662Y128073D01*
X109664Y128072D01*
X109678Y128070D01*
X109940Y128018D01*
X109970Y128021D01*
X109995Y128017D01*
X114126Y128017D01*
X114213Y128029D01*
X114300Y128032D01*
X114353Y128049D01*
X114408Y128057D01*
X114487Y128092D01*
X114571Y128119D01*
X114610Y128147D01*
X114667Y128173D01*
X114780Y128269D01*
X114844Y128314D01*
X116781Y130251D01*
X119291Y131291D01*
X122009Y131291D01*
X124519Y130251D01*
X126441Y128329D01*
X127481Y125819D01*
X127481Y123101D01*
X126441Y120591D01*
X124519Y118669D01*
X122009Y117629D01*
X119291Y117629D01*
G37*
%LPD*%
%LPC*%
G36*
X281242Y99189D02*
X281242Y99189D01*
X278731Y100229D01*
X276810Y102150D01*
X275770Y104661D01*
X275770Y104860D01*
X275757Y104946D01*
X275755Y105034D01*
X275738Y105087D01*
X275730Y105141D01*
X275694Y105221D01*
X275667Y105304D01*
X275639Y105344D01*
X275614Y105401D01*
X275518Y105514D01*
X275472Y105578D01*
X271338Y109712D01*
X271268Y109764D01*
X271204Y109824D01*
X271155Y109850D01*
X271111Y109883D01*
X271029Y109914D01*
X270951Y109954D01*
X270904Y109962D01*
X270845Y109984D01*
X270698Y109996D01*
X270620Y110009D01*
X267881Y110009D01*
X265371Y111049D01*
X263449Y112971D01*
X262409Y115481D01*
X262409Y118199D01*
X263449Y120709D01*
X265371Y122631D01*
X267881Y123671D01*
X270599Y123671D01*
X273109Y122631D01*
X275031Y120709D01*
X276071Y118199D01*
X276071Y115460D01*
X276083Y115373D01*
X276086Y115286D01*
X276103Y115233D01*
X276111Y115178D01*
X276146Y115098D01*
X276173Y115015D01*
X276201Y114976D01*
X276227Y114919D01*
X276323Y114806D01*
X276368Y114742D01*
X278653Y112457D01*
X278655Y112456D01*
X278656Y112454D01*
X278771Y112368D01*
X278881Y112286D01*
X278882Y112285D01*
X278883Y112284D01*
X279017Y112234D01*
X279146Y112185D01*
X279148Y112184D01*
X279149Y112184D01*
X279294Y112172D01*
X279430Y112161D01*
X279431Y112161D01*
X279433Y112161D01*
X279448Y112165D01*
X279708Y112217D01*
X279735Y112231D01*
X279760Y112237D01*
X281242Y112850D01*
X283959Y112850D01*
X286470Y111810D01*
X288391Y109889D01*
X289431Y107378D01*
X289431Y104661D01*
X288391Y102150D01*
X286470Y100229D01*
X283959Y99189D01*
X281242Y99189D01*
G37*
%LPD*%
%LPC*%
G36*
X216415Y189067D02*
X216415Y189067D01*
X213467Y192015D01*
X213467Y196185D01*
X216415Y199133D01*
X220585Y199133D01*
X223533Y196185D01*
X223533Y192015D01*
X220585Y189067D01*
X216415Y189067D01*
G37*
%LPD*%
%LPC*%
G36*
X160415Y131067D02*
X160415Y131067D01*
X157467Y134015D01*
X157467Y138185D01*
X160415Y141133D01*
X164585Y141133D01*
X167533Y138185D01*
X167533Y134015D01*
X164585Y131067D01*
X160415Y131067D01*
G37*
%LPD*%
%LPC*%
G36*
X256031Y27431D02*
X256031Y27431D01*
X256031Y37166D01*
X256796Y37045D01*
X258583Y36464D01*
X260257Y35611D01*
X261778Y34506D01*
X263106Y33178D01*
X264211Y31657D01*
X265064Y29983D01*
X265645Y28196D01*
X265766Y27431D01*
X256031Y27431D01*
G37*
%LPD*%
%LPC*%
G36*
X210311Y237999D02*
X210311Y237999D01*
X220046Y237999D01*
X219925Y237234D01*
X219344Y235447D01*
X218491Y233773D01*
X217386Y232252D01*
X216058Y230924D01*
X214537Y229819D01*
X212863Y228966D01*
X211076Y228385D01*
X210311Y228264D01*
X210311Y237999D01*
G37*
%LPD*%
%LPC*%
G36*
X242234Y27431D02*
X242234Y27431D01*
X242355Y28196D01*
X242936Y29983D01*
X243789Y31657D01*
X244894Y33178D01*
X246222Y34506D01*
X247743Y35611D01*
X249417Y36464D01*
X251204Y37045D01*
X251969Y37166D01*
X251969Y27431D01*
X242234Y27431D01*
G37*
%LPD*%
%LPC*%
G36*
X205484Y228385D02*
X205484Y228385D01*
X203697Y228966D01*
X202023Y229819D01*
X200502Y230924D01*
X199174Y232252D01*
X198069Y233773D01*
X197216Y235447D01*
X196635Y237234D01*
X196514Y237999D01*
X206249Y237999D01*
X206249Y228264D01*
X205484Y228385D01*
G37*
%LPD*%
%LPC*%
G36*
X343963Y99059D02*
X343963Y99059D01*
X343316Y99232D01*
X342737Y99567D01*
X342264Y100040D01*
X341929Y100619D01*
X341756Y101266D01*
X341756Y106363D01*
X345885Y106363D01*
X345885Y99059D01*
X343963Y99059D01*
G37*
%LPD*%
D10*
X152400Y25400D03*
X177800Y25400D03*
X203200Y25400D03*
X228600Y25400D03*
X254000Y25400D03*
D11*
X300990Y107950D02*
X311150Y107950D01*
D12*
X321310Y107950D03*
X311150Y107950D03*
X300990Y107950D03*
X363728Y107950D03*
X355600Y107950D03*
X347472Y107950D03*
D11*
X38100Y82550D02*
X27940Y82550D01*
X38100Y82550D02*
X48260Y82550D01*
D12*
X48260Y82550D03*
X38100Y82550D03*
X27940Y82550D03*
D10*
X208280Y240030D03*
X179070Y240030D03*
D13*
X298450Y171450D03*
D14*
X321700Y194700D01*
X321700Y212090D01*
D15*
X321700Y212090D03*
D13*
X265430Y167640D03*
X335280Y96520D03*
X369570Y76200D03*
X241300Y54610D03*
X218440Y139700D03*
D15*
X102870Y125730D03*
D14*
X106680Y124460D01*
X120650Y124460D01*
D15*
X120650Y124460D03*
X282600Y106020D03*
D14*
X280060Y106020D01*
X269240Y116840D01*
D15*
X269240Y116840D03*
X143510Y168910D03*
D14*
X143510Y187960D01*
X171450Y215900D02*
X237100Y215900D01*
D15*
X237100Y215900D03*
D14*
X171450Y215900D02*
X143510Y187960D01*
D15*
X342900Y158750D03*
D16*
X285750Y158750D01*
X228600Y158750D01*
X135890Y158750D01*
X67310Y158750D01*
X38100Y158750D01*
X31750Y158750D01*
X25400Y165100D01*
D15*
X25400Y165100D03*
D14*
X38100Y158750D02*
X38100Y82550D01*
D16*
X228600Y81280D02*
X228600Y25400D01*
X228600Y81280D02*
X228600Y158750D01*
D15*
X60960Y64770D03*
D14*
X46990Y64770D01*
X38100Y73660D01*
X38100Y78740D01*
D13*
X201930Y81280D03*
X237490Y82550D03*
D14*
X228600Y81280D02*
X201930Y81280D01*
X228600Y81280D02*
X229870Y82550D01*
D11*
X237490Y82550D01*
D14*
X67310Y93980D02*
X67310Y158750D01*
X67310Y93980D02*
X73740Y87550D01*
X76200Y87550D01*
D15*
X76200Y87550D03*
D14*
X135890Y98560D02*
X135890Y158750D01*
X135890Y98560D02*
X142400Y92050D01*
D15*
X142400Y92050D03*
D11*
X38100Y82550D02*
X38100Y78740D01*
D14*
X300990Y101374D02*
X300990Y107950D01*
X300990Y101374D02*
X300990Y85090D01*
X288290Y72390D01*
D15*
X288290Y72390D03*
X300990Y101374D03*
D14*
X363728Y97028D02*
X363728Y107950D01*
X341630Y74930D02*
X308610Y74930D01*
X275590Y41910D01*
X275590Y25400D01*
X261366Y11176D01*
X217424Y11176D02*
X203200Y25400D01*
X341630Y74930D02*
X363728Y97028D01*
X261366Y11176D02*
X217424Y11176D01*
X203200Y25400D02*
X200660Y27940D01*
X200660Y38100D01*
X184150Y54610D01*
X153670Y54610D01*
X142400Y65880D01*
X142400Y73050D01*
D15*
X142400Y73050D03*
X347980Y170180D03*
D14*
X363728Y154432D01*
X363728Y107950D01*
D15*
X78740Y132080D03*
D14*
X113030Y97790D01*
X113030Y64770D02*
X152400Y25400D01*
X113030Y64770D02*
X113030Y97790D01*
X355600Y107950D02*
X355600Y119380D01*
X353060Y121920D01*
X313690Y121920D01*
X311150Y119380D01*
X311150Y111760D01*
X311150Y119380D02*
X285750Y119380D01*
X259080Y146050D01*
X237490Y146050D01*
D15*
X237490Y146050D03*
X320040Y88900D03*
D14*
X320040Y106680D01*
X321310Y107950D01*
D15*
X57150Y82550D03*
D14*
X49838Y86360D02*
X48260Y86360D01*
X53648Y82550D02*
X57150Y82550D01*
X53648Y82550D02*
X49838Y86360D01*
D15*
X19050Y82550D03*
D14*
X24130Y82550D01*
M02*
