G04 EAGLE Gerber RS-274X export*
G75*
%MOMM*%
%FSLAX34Y34*%
%LPD*%
%IN*%
%IPPOS*%
%AMOC8*
5,1,8,0,0,1.08239X$1,22.5*%
G01*
%ADD10C,0.254000*%


D10*
X0Y0D02*
X381000Y0D01*
X381000Y255270D01*
X0Y255270D01*
X0Y0D01*
X358140Y37556D02*
X358062Y36470D01*
X357907Y35392D01*
X357676Y34329D01*
X357369Y33284D01*
X356989Y32264D01*
X356537Y31274D01*
X356015Y30319D01*
X355426Y29403D01*
X354774Y28531D01*
X354061Y27709D01*
X353291Y26939D01*
X352469Y26226D01*
X351597Y25574D01*
X350681Y24985D01*
X349726Y24463D01*
X348736Y24011D01*
X347716Y23631D01*
X346671Y23324D01*
X345608Y23093D01*
X344530Y22938D01*
X343444Y22860D01*
X342356Y22860D01*
X341270Y22938D01*
X340192Y23093D01*
X339129Y23324D01*
X338084Y23631D01*
X337064Y24011D01*
X336074Y24463D01*
X335119Y24985D01*
X334203Y25574D01*
X333331Y26226D01*
X332509Y26939D01*
X331739Y27709D01*
X331026Y28531D01*
X330374Y29403D01*
X329785Y30319D01*
X329263Y31274D01*
X328811Y32264D01*
X328431Y33284D01*
X328124Y34329D01*
X327893Y35392D01*
X327738Y36470D01*
X327660Y37556D01*
X327660Y38644D01*
X327738Y39730D01*
X327893Y40808D01*
X328124Y41871D01*
X328431Y42916D01*
X328811Y43936D01*
X329263Y44926D01*
X329785Y45881D01*
X330374Y46797D01*
X331026Y47669D01*
X331739Y48491D01*
X332509Y49261D01*
X333331Y49974D01*
X334203Y50626D01*
X335119Y51215D01*
X336074Y51737D01*
X337064Y52189D01*
X338084Y52569D01*
X339129Y52876D01*
X340192Y53107D01*
X341270Y53262D01*
X342356Y53340D01*
X343444Y53340D01*
X344530Y53262D01*
X345608Y53107D01*
X346671Y52876D01*
X347716Y52569D01*
X348736Y52189D01*
X349726Y51737D01*
X350681Y51215D01*
X351597Y50626D01*
X352469Y49974D01*
X353291Y49261D01*
X354061Y48491D01*
X354774Y47669D01*
X355426Y46797D01*
X356015Y45881D01*
X356537Y44926D01*
X356989Y43936D01*
X357369Y42916D01*
X357676Y41871D01*
X357907Y40808D01*
X358062Y39730D01*
X358140Y38644D01*
X358140Y37556D01*
X53340Y37556D02*
X53262Y36470D01*
X53107Y35392D01*
X52876Y34329D01*
X52569Y33284D01*
X52189Y32264D01*
X51737Y31274D01*
X51215Y30319D01*
X50626Y29403D01*
X49974Y28531D01*
X49261Y27709D01*
X48491Y26939D01*
X47669Y26226D01*
X46797Y25574D01*
X45881Y24985D01*
X44926Y24463D01*
X43936Y24011D01*
X42916Y23631D01*
X41871Y23324D01*
X40808Y23093D01*
X39730Y22938D01*
X38644Y22860D01*
X37556Y22860D01*
X36470Y22938D01*
X35392Y23093D01*
X34329Y23324D01*
X33284Y23631D01*
X32264Y24011D01*
X31274Y24463D01*
X30319Y24985D01*
X29403Y25574D01*
X28531Y26226D01*
X27709Y26939D01*
X26939Y27709D01*
X26226Y28531D01*
X25574Y29403D01*
X24985Y30319D01*
X24463Y31274D01*
X24011Y32264D01*
X23631Y33284D01*
X23324Y34329D01*
X23093Y35392D01*
X22938Y36470D01*
X22860Y37556D01*
X22860Y38644D01*
X22938Y39730D01*
X23093Y40808D01*
X23324Y41871D01*
X23631Y42916D01*
X24011Y43936D01*
X24463Y44926D01*
X24985Y45881D01*
X25574Y46797D01*
X26226Y47669D01*
X26939Y48491D01*
X27709Y49261D01*
X28531Y49974D01*
X29403Y50626D01*
X30319Y51215D01*
X31274Y51737D01*
X32264Y52189D01*
X33284Y52569D01*
X34329Y52876D01*
X35392Y53107D01*
X36470Y53262D01*
X37556Y53340D01*
X38644Y53340D01*
X39730Y53262D01*
X40808Y53107D01*
X41871Y52876D01*
X42916Y52569D01*
X43936Y52189D01*
X44926Y51737D01*
X45881Y51215D01*
X46797Y50626D01*
X47669Y49974D01*
X48491Y49261D01*
X49261Y48491D01*
X49974Y47669D01*
X50626Y46797D01*
X51215Y45881D01*
X51737Y44926D01*
X52189Y43936D01*
X52569Y42916D01*
X52876Y41871D01*
X53107Y40808D01*
X53262Y39730D01*
X53340Y38644D01*
X53340Y37556D01*
X165500Y135864D02*
X165426Y135398D01*
X165280Y134948D01*
X165066Y134528D01*
X164788Y134146D01*
X164454Y133812D01*
X164072Y133534D01*
X163652Y133320D01*
X163203Y133174D01*
X162736Y133100D01*
X162264Y133100D01*
X161798Y133174D01*
X161348Y133320D01*
X160928Y133534D01*
X160546Y133812D01*
X160212Y134146D01*
X159934Y134528D01*
X159720Y134948D01*
X159574Y135398D01*
X159500Y135864D01*
X159500Y136336D01*
X159574Y136803D01*
X159720Y137252D01*
X159934Y137672D01*
X160212Y138054D01*
X160546Y138388D01*
X160928Y138666D01*
X161348Y138880D01*
X161798Y139026D01*
X162264Y139100D01*
X162736Y139100D01*
X163203Y139026D01*
X163652Y138880D01*
X164072Y138666D01*
X164454Y138388D01*
X164788Y138054D01*
X165066Y137672D01*
X165280Y137252D01*
X165426Y136803D01*
X165500Y136336D01*
X165500Y135864D01*
X221500Y193864D02*
X221426Y193398D01*
X221280Y192948D01*
X221066Y192528D01*
X220788Y192146D01*
X220454Y191812D01*
X220072Y191534D01*
X219652Y191320D01*
X219203Y191174D01*
X218736Y191100D01*
X218264Y191100D01*
X217798Y191174D01*
X217348Y191320D01*
X216928Y191534D01*
X216546Y191812D01*
X216212Y192146D01*
X215934Y192528D01*
X215720Y192948D01*
X215574Y193398D01*
X215500Y193864D01*
X215500Y194336D01*
X215574Y194803D01*
X215720Y195252D01*
X215934Y195672D01*
X216212Y196054D01*
X216546Y196388D01*
X216928Y196666D01*
X217348Y196880D01*
X217798Y197026D01*
X218264Y197100D01*
X218736Y197100D01*
X219203Y197026D01*
X219652Y196880D01*
X220072Y196666D01*
X220454Y196388D01*
X220788Y196054D01*
X221066Y195672D01*
X221280Y195252D01*
X221426Y194803D01*
X221500Y194336D01*
X221500Y193864D01*
M02*
