G04 EAGLE Gerber RS-274X export*
G75*
%MOMM*%
%FSLAX34Y34*%
%LPD*%
%INSilkscreen Top*%
%IPPOS*%
%AMOC8*
5,1,8,0,0,1.08239X$1,22.5*%
G01*
%ADD10C,0.330200*%
%ADD11C,0.152400*%
%ADD12C,0.127000*%
%ADD13C,0.203200*%
%ADD14C,0.400000*%


D10*
X29591Y222702D02*
X29591Y230942D01*
X29593Y231084D01*
X29599Y231226D01*
X29609Y231367D01*
X29622Y231509D01*
X29640Y231650D01*
X29661Y231790D01*
X29687Y231930D01*
X29716Y232068D01*
X29749Y232206D01*
X29785Y232344D01*
X29826Y232480D01*
X29870Y232615D01*
X29918Y232748D01*
X29970Y232880D01*
X30025Y233011D01*
X30084Y233140D01*
X30146Y233268D01*
X30212Y233394D01*
X30281Y233518D01*
X30354Y233639D01*
X30430Y233759D01*
X30509Y233877D01*
X30592Y233993D01*
X30677Y234106D01*
X30766Y234217D01*
X30858Y234325D01*
X30952Y234431D01*
X31050Y234534D01*
X31150Y234634D01*
X31253Y234732D01*
X31359Y234826D01*
X31467Y234918D01*
X31578Y235007D01*
X31691Y235092D01*
X31807Y235175D01*
X31925Y235254D01*
X32045Y235330D01*
X32167Y235403D01*
X32290Y235472D01*
X32416Y235538D01*
X32544Y235600D01*
X32673Y235659D01*
X32804Y235714D01*
X32936Y235766D01*
X33069Y235814D01*
X33204Y235858D01*
X33340Y235899D01*
X33478Y235935D01*
X33616Y235968D01*
X33754Y235997D01*
X33894Y236023D01*
X34034Y236044D01*
X34175Y236062D01*
X34317Y236075D01*
X34458Y236085D01*
X34600Y236091D01*
X34742Y236093D01*
X34884Y236091D01*
X35026Y236085D01*
X35167Y236075D01*
X35309Y236062D01*
X35450Y236044D01*
X35590Y236023D01*
X35730Y235997D01*
X35868Y235968D01*
X36006Y235935D01*
X36144Y235899D01*
X36280Y235858D01*
X36415Y235814D01*
X36548Y235766D01*
X36680Y235714D01*
X36811Y235659D01*
X36940Y235600D01*
X37068Y235538D01*
X37194Y235472D01*
X37318Y235403D01*
X37439Y235330D01*
X37559Y235254D01*
X37677Y235175D01*
X37793Y235092D01*
X37906Y235007D01*
X38017Y234918D01*
X38125Y234826D01*
X38231Y234732D01*
X38334Y234634D01*
X38434Y234534D01*
X38532Y234431D01*
X38626Y234325D01*
X38718Y234217D01*
X38807Y234106D01*
X38892Y233993D01*
X38975Y233877D01*
X39054Y233759D01*
X39130Y233639D01*
X39203Y233518D01*
X39272Y233394D01*
X39338Y233268D01*
X39400Y233140D01*
X39459Y233011D01*
X39514Y232880D01*
X39566Y232748D01*
X39614Y232615D01*
X39658Y232480D01*
X39699Y232344D01*
X39735Y232206D01*
X39768Y232068D01*
X39797Y231930D01*
X39823Y231790D01*
X39844Y231650D01*
X39862Y231509D01*
X39875Y231367D01*
X39885Y231226D01*
X39891Y231084D01*
X39893Y230942D01*
X39892Y230942D02*
X39892Y222702D01*
X39893Y222702D02*
X39891Y222560D01*
X39885Y222418D01*
X39875Y222277D01*
X39862Y222135D01*
X39844Y221994D01*
X39823Y221854D01*
X39797Y221714D01*
X39768Y221576D01*
X39735Y221438D01*
X39699Y221300D01*
X39658Y221164D01*
X39614Y221029D01*
X39566Y220896D01*
X39514Y220764D01*
X39459Y220633D01*
X39400Y220504D01*
X39338Y220376D01*
X39272Y220250D01*
X39203Y220126D01*
X39130Y220005D01*
X39054Y219885D01*
X38975Y219767D01*
X38892Y219651D01*
X38807Y219538D01*
X38718Y219427D01*
X38626Y219319D01*
X38532Y219213D01*
X38434Y219110D01*
X38334Y219010D01*
X38231Y218912D01*
X38125Y218818D01*
X38017Y218726D01*
X37906Y218637D01*
X37793Y218552D01*
X37677Y218469D01*
X37559Y218390D01*
X37439Y218314D01*
X37317Y218241D01*
X37194Y218172D01*
X37068Y218106D01*
X36940Y218044D01*
X36811Y217985D01*
X36680Y217930D01*
X36548Y217878D01*
X36415Y217830D01*
X36280Y217786D01*
X36144Y217745D01*
X36006Y217709D01*
X35868Y217676D01*
X35730Y217647D01*
X35590Y217621D01*
X35450Y217600D01*
X35309Y217582D01*
X35167Y217569D01*
X35026Y217559D01*
X34884Y217553D01*
X34742Y217551D01*
X34600Y217553D01*
X34458Y217559D01*
X34317Y217569D01*
X34175Y217582D01*
X34034Y217600D01*
X33894Y217621D01*
X33754Y217647D01*
X33616Y217676D01*
X33478Y217709D01*
X33340Y217745D01*
X33204Y217786D01*
X33069Y217830D01*
X32936Y217878D01*
X32804Y217930D01*
X32673Y217985D01*
X32544Y218044D01*
X32416Y218106D01*
X32290Y218172D01*
X32166Y218241D01*
X32045Y218314D01*
X31925Y218390D01*
X31807Y218469D01*
X31691Y218552D01*
X31578Y218637D01*
X31467Y218726D01*
X31359Y218818D01*
X31253Y218912D01*
X31150Y219010D01*
X31050Y219110D01*
X30952Y219213D01*
X30858Y219319D01*
X30766Y219427D01*
X30677Y219538D01*
X30592Y219651D01*
X30509Y219767D01*
X30430Y219885D01*
X30354Y220005D01*
X30281Y220127D01*
X30212Y220250D01*
X30146Y220376D01*
X30084Y220504D01*
X30025Y220633D01*
X29970Y220764D01*
X29918Y220896D01*
X29870Y221029D01*
X29826Y221164D01*
X29785Y221300D01*
X29749Y221438D01*
X29716Y221576D01*
X29687Y221714D01*
X29661Y221854D01*
X29640Y221994D01*
X29622Y222135D01*
X29609Y222277D01*
X29599Y222418D01*
X29593Y222560D01*
X29591Y222702D01*
X37832Y221671D02*
X41952Y217551D01*
X50151Y217551D02*
X47060Y229912D01*
X53241Y225792D02*
X50151Y217551D01*
X56331Y217551D02*
X53241Y225792D01*
X59422Y229912D02*
X56331Y217551D01*
X66836Y217551D02*
X66836Y229912D01*
X66321Y235063D02*
X66321Y236093D01*
X67351Y236093D01*
X67351Y235063D01*
X66321Y235063D01*
X74251Y229912D02*
X74251Y217551D01*
X73736Y235063D02*
X73736Y236093D01*
X74766Y236093D01*
X74766Y235063D01*
X73736Y235063D01*
X84991Y217551D02*
X89111Y217551D01*
X84991Y217551D02*
X84881Y217553D01*
X84771Y217559D01*
X84661Y217569D01*
X84551Y217582D01*
X84442Y217600D01*
X84334Y217622D01*
X84227Y217647D01*
X84120Y217676D01*
X84015Y217709D01*
X83911Y217746D01*
X83809Y217786D01*
X83707Y217830D01*
X83608Y217878D01*
X83510Y217929D01*
X83414Y217984D01*
X83320Y218042D01*
X83229Y218103D01*
X83139Y218167D01*
X83052Y218235D01*
X82967Y218306D01*
X82885Y218379D01*
X82806Y218456D01*
X82729Y218535D01*
X82656Y218617D01*
X82585Y218702D01*
X82517Y218789D01*
X82453Y218879D01*
X82392Y218970D01*
X82334Y219064D01*
X82279Y219160D01*
X82228Y219258D01*
X82180Y219357D01*
X82136Y219459D01*
X82096Y219561D01*
X82059Y219665D01*
X82026Y219770D01*
X81997Y219877D01*
X81972Y219984D01*
X81950Y220092D01*
X81932Y220201D01*
X81919Y220311D01*
X81909Y220421D01*
X81903Y220531D01*
X81901Y220641D01*
X81900Y220641D02*
X81900Y226822D01*
X81901Y226822D02*
X81903Y226932D01*
X81909Y227042D01*
X81919Y227152D01*
X81932Y227262D01*
X81950Y227371D01*
X81972Y227479D01*
X81997Y227586D01*
X82026Y227693D01*
X82059Y227798D01*
X82096Y227902D01*
X82136Y228004D01*
X82180Y228106D01*
X82228Y228205D01*
X82279Y228303D01*
X82334Y228399D01*
X82392Y228493D01*
X82453Y228584D01*
X82517Y228674D01*
X82585Y228761D01*
X82656Y228846D01*
X82729Y228928D01*
X82806Y229007D01*
X82885Y229084D01*
X82967Y229157D01*
X83052Y229228D01*
X83139Y229296D01*
X83229Y229360D01*
X83320Y229421D01*
X83414Y229479D01*
X83510Y229534D01*
X83608Y229585D01*
X83707Y229633D01*
X83809Y229677D01*
X83911Y229717D01*
X84015Y229754D01*
X84120Y229787D01*
X84227Y229816D01*
X84334Y229841D01*
X84442Y229863D01*
X84551Y229881D01*
X84661Y229894D01*
X84771Y229904D01*
X84881Y229910D01*
X84991Y229912D01*
X89111Y229912D01*
X107113Y236093D02*
X107113Y217551D01*
X107113Y236093D02*
X112264Y236093D01*
X112406Y236091D01*
X112548Y236085D01*
X112689Y236075D01*
X112831Y236062D01*
X112972Y236044D01*
X113112Y236023D01*
X113252Y235997D01*
X113390Y235968D01*
X113528Y235935D01*
X113666Y235899D01*
X113802Y235858D01*
X113937Y235814D01*
X114070Y235766D01*
X114202Y235714D01*
X114333Y235659D01*
X114462Y235600D01*
X114590Y235538D01*
X114716Y235472D01*
X114840Y235403D01*
X114961Y235330D01*
X115081Y235254D01*
X115199Y235175D01*
X115315Y235092D01*
X115428Y235007D01*
X115539Y234918D01*
X115647Y234826D01*
X115753Y234732D01*
X115856Y234634D01*
X115956Y234534D01*
X116054Y234431D01*
X116148Y234325D01*
X116240Y234217D01*
X116329Y234106D01*
X116414Y233993D01*
X116497Y233877D01*
X116576Y233759D01*
X116652Y233639D01*
X116725Y233517D01*
X116794Y233394D01*
X116860Y233268D01*
X116922Y233140D01*
X116981Y233011D01*
X117036Y232880D01*
X117088Y232748D01*
X117136Y232615D01*
X117180Y232480D01*
X117221Y232344D01*
X117257Y232206D01*
X117290Y232068D01*
X117319Y231930D01*
X117345Y231790D01*
X117366Y231650D01*
X117384Y231509D01*
X117397Y231367D01*
X117407Y231226D01*
X117413Y231084D01*
X117415Y230942D01*
X117413Y230800D01*
X117407Y230658D01*
X117397Y230517D01*
X117384Y230375D01*
X117366Y230234D01*
X117345Y230094D01*
X117319Y229954D01*
X117290Y229816D01*
X117257Y229678D01*
X117221Y229540D01*
X117180Y229404D01*
X117136Y229269D01*
X117088Y229136D01*
X117036Y229004D01*
X116981Y228873D01*
X116922Y228744D01*
X116860Y228616D01*
X116794Y228490D01*
X116725Y228366D01*
X116652Y228245D01*
X116576Y228125D01*
X116497Y228007D01*
X116414Y227891D01*
X116329Y227778D01*
X116240Y227667D01*
X116148Y227559D01*
X116054Y227453D01*
X115956Y227350D01*
X115856Y227250D01*
X115753Y227152D01*
X115647Y227058D01*
X115539Y226966D01*
X115428Y226877D01*
X115315Y226792D01*
X115199Y226709D01*
X115081Y226630D01*
X114961Y226554D01*
X114839Y226481D01*
X114716Y226412D01*
X114590Y226346D01*
X114462Y226284D01*
X114333Y226225D01*
X114202Y226170D01*
X114070Y226118D01*
X113937Y226070D01*
X113802Y226026D01*
X113666Y225985D01*
X113528Y225949D01*
X113390Y225916D01*
X113252Y225887D01*
X113112Y225861D01*
X112972Y225840D01*
X112831Y225822D01*
X112689Y225809D01*
X112548Y225799D01*
X112406Y225793D01*
X112264Y225791D01*
X112264Y225792D02*
X107113Y225792D01*
X126158Y217551D02*
X126158Y236093D01*
X124098Y217551D02*
X128219Y217551D01*
X128219Y236093D02*
X124098Y236093D01*
X136594Y236093D02*
X136594Y217551D01*
X136594Y236093D02*
X141745Y236093D01*
X141887Y236091D01*
X142029Y236085D01*
X142170Y236075D01*
X142312Y236062D01*
X142453Y236044D01*
X142593Y236023D01*
X142733Y235997D01*
X142871Y235968D01*
X143009Y235935D01*
X143147Y235899D01*
X143283Y235858D01*
X143418Y235814D01*
X143551Y235766D01*
X143683Y235714D01*
X143814Y235659D01*
X143943Y235600D01*
X144071Y235538D01*
X144197Y235472D01*
X144321Y235403D01*
X144442Y235330D01*
X144562Y235254D01*
X144680Y235175D01*
X144796Y235092D01*
X144909Y235007D01*
X145020Y234918D01*
X145128Y234826D01*
X145234Y234732D01*
X145337Y234634D01*
X145437Y234534D01*
X145535Y234431D01*
X145629Y234325D01*
X145721Y234217D01*
X145810Y234106D01*
X145895Y233993D01*
X145978Y233877D01*
X146057Y233759D01*
X146133Y233639D01*
X146206Y233517D01*
X146275Y233394D01*
X146341Y233268D01*
X146403Y233140D01*
X146462Y233011D01*
X146517Y232880D01*
X146569Y232748D01*
X146617Y232615D01*
X146661Y232480D01*
X146702Y232344D01*
X146738Y232206D01*
X146771Y232068D01*
X146800Y231930D01*
X146826Y231790D01*
X146847Y231650D01*
X146865Y231509D01*
X146878Y231367D01*
X146888Y231226D01*
X146894Y231084D01*
X146896Y230942D01*
X146894Y230800D01*
X146888Y230658D01*
X146878Y230517D01*
X146865Y230375D01*
X146847Y230234D01*
X146826Y230094D01*
X146800Y229954D01*
X146771Y229816D01*
X146738Y229678D01*
X146702Y229540D01*
X146661Y229404D01*
X146617Y229269D01*
X146569Y229136D01*
X146517Y229004D01*
X146462Y228873D01*
X146403Y228744D01*
X146341Y228616D01*
X146275Y228490D01*
X146206Y228366D01*
X146133Y228245D01*
X146057Y228125D01*
X145978Y228007D01*
X145895Y227891D01*
X145810Y227778D01*
X145721Y227667D01*
X145629Y227559D01*
X145535Y227453D01*
X145437Y227350D01*
X145337Y227250D01*
X145234Y227152D01*
X145128Y227058D01*
X145020Y226966D01*
X144909Y226877D01*
X144796Y226792D01*
X144680Y226709D01*
X144562Y226630D01*
X144442Y226554D01*
X144320Y226481D01*
X144197Y226412D01*
X144071Y226346D01*
X143943Y226284D01*
X143814Y226225D01*
X143683Y226170D01*
X143551Y226118D01*
X143418Y226070D01*
X143283Y226026D01*
X143147Y225985D01*
X143009Y225949D01*
X142871Y225916D01*
X142733Y225887D01*
X142593Y225861D01*
X142453Y225840D01*
X142312Y225822D01*
X142170Y225809D01*
X142029Y225799D01*
X141887Y225793D01*
X141745Y225791D01*
X141745Y225792D02*
X136594Y225792D01*
X142775Y225792D02*
X146895Y217551D01*
D11*
X138430Y50546D02*
X159772Y50546D01*
X140152Y47498D02*
X140152Y38862D01*
X141111Y38862D02*
X139192Y38862D01*
X139192Y47498D02*
X141111Y47498D01*
X145373Y47498D02*
X145373Y38862D01*
X150170Y38862D02*
X145373Y47498D01*
X150170Y47498D02*
X150170Y38862D01*
X156611Y38862D02*
X156611Y47498D01*
X154212Y47498D02*
X159010Y47498D01*
X168741Y38862D02*
X168827Y38864D01*
X168913Y38870D01*
X168999Y38879D01*
X169084Y38893D01*
X169168Y38910D01*
X169252Y38931D01*
X169334Y38956D01*
X169415Y38984D01*
X169495Y39016D01*
X169574Y39052D01*
X169650Y39091D01*
X169725Y39134D01*
X169798Y39179D01*
X169869Y39229D01*
X169937Y39281D01*
X170004Y39336D01*
X170067Y39394D01*
X170128Y39455D01*
X170186Y39518D01*
X170241Y39585D01*
X170294Y39653D01*
X170343Y39724D01*
X170388Y39797D01*
X170431Y39872D01*
X170470Y39948D01*
X170506Y40027D01*
X170538Y40107D01*
X170566Y40188D01*
X170591Y40270D01*
X170612Y40354D01*
X170629Y40438D01*
X170643Y40523D01*
X170652Y40609D01*
X170658Y40695D01*
X170660Y40781D01*
X168741Y38862D02*
X168618Y38864D01*
X168495Y38869D01*
X168372Y38879D01*
X168250Y38892D01*
X168128Y38909D01*
X168006Y38929D01*
X167886Y38953D01*
X167766Y38981D01*
X167647Y39012D01*
X167529Y39047D01*
X167412Y39086D01*
X167296Y39128D01*
X167182Y39174D01*
X167069Y39223D01*
X166958Y39275D01*
X166848Y39331D01*
X166740Y39390D01*
X166634Y39453D01*
X166529Y39518D01*
X166427Y39587D01*
X166327Y39659D01*
X166230Y39734D01*
X166134Y39811D01*
X166041Y39892D01*
X165950Y39975D01*
X165862Y40061D01*
X166102Y45579D02*
X166104Y45665D01*
X166110Y45751D01*
X166119Y45837D01*
X166133Y45922D01*
X166150Y46006D01*
X166171Y46090D01*
X166196Y46172D01*
X166224Y46253D01*
X166256Y46333D01*
X166292Y46412D01*
X166331Y46488D01*
X166374Y46563D01*
X166419Y46636D01*
X166468Y46707D01*
X166521Y46775D01*
X166576Y46842D01*
X166634Y46905D01*
X166695Y46966D01*
X166758Y47024D01*
X166825Y47079D01*
X166893Y47132D01*
X166964Y47181D01*
X167037Y47226D01*
X167112Y47269D01*
X167188Y47308D01*
X167267Y47344D01*
X167347Y47376D01*
X167428Y47404D01*
X167510Y47429D01*
X167594Y47450D01*
X167678Y47467D01*
X167763Y47481D01*
X167849Y47490D01*
X167935Y47496D01*
X168021Y47498D01*
X168137Y47496D01*
X168252Y47491D01*
X168368Y47481D01*
X168483Y47468D01*
X168597Y47452D01*
X168711Y47431D01*
X168825Y47407D01*
X168937Y47379D01*
X169048Y47348D01*
X169159Y47313D01*
X169268Y47275D01*
X169376Y47233D01*
X169482Y47188D01*
X169588Y47139D01*
X169691Y47087D01*
X169793Y47032D01*
X169892Y46973D01*
X169990Y46911D01*
X170086Y46846D01*
X170180Y46778D01*
X167061Y43900D02*
X166987Y43946D01*
X166914Y43996D01*
X166844Y44049D01*
X166776Y44105D01*
X166711Y44164D01*
X166648Y44226D01*
X166589Y44291D01*
X166532Y44358D01*
X166478Y44428D01*
X166428Y44500D01*
X166381Y44574D01*
X166337Y44650D01*
X166297Y44729D01*
X166261Y44809D01*
X166228Y44890D01*
X166199Y44973D01*
X166173Y45058D01*
X166151Y45143D01*
X166134Y45229D01*
X166120Y45316D01*
X166110Y45403D01*
X166104Y45491D01*
X166102Y45579D01*
X169701Y42460D02*
X169775Y42414D01*
X169848Y42364D01*
X169918Y42311D01*
X169986Y42255D01*
X170051Y42196D01*
X170114Y42134D01*
X170173Y42069D01*
X170230Y42002D01*
X170284Y41932D01*
X170334Y41860D01*
X170381Y41786D01*
X170425Y41710D01*
X170465Y41631D01*
X170501Y41551D01*
X170534Y41470D01*
X170563Y41387D01*
X170589Y41302D01*
X170611Y41217D01*
X170628Y41131D01*
X170642Y41044D01*
X170652Y40957D01*
X170658Y40869D01*
X170660Y40781D01*
X169700Y42460D02*
X167061Y43900D01*
X176582Y38862D02*
X178501Y38862D01*
X176582Y38862D02*
X176496Y38864D01*
X176410Y38870D01*
X176324Y38879D01*
X176239Y38893D01*
X176155Y38910D01*
X176071Y38931D01*
X175989Y38956D01*
X175908Y38984D01*
X175828Y39016D01*
X175749Y39052D01*
X175673Y39091D01*
X175598Y39134D01*
X175525Y39179D01*
X175454Y39228D01*
X175386Y39281D01*
X175319Y39336D01*
X175256Y39394D01*
X175195Y39455D01*
X175137Y39518D01*
X175082Y39585D01*
X175029Y39653D01*
X174980Y39724D01*
X174935Y39797D01*
X174892Y39872D01*
X174853Y39948D01*
X174817Y40027D01*
X174785Y40107D01*
X174757Y40188D01*
X174732Y40270D01*
X174711Y40354D01*
X174694Y40438D01*
X174680Y40523D01*
X174671Y40609D01*
X174665Y40695D01*
X174663Y40781D01*
X174663Y45579D01*
X174665Y45665D01*
X174671Y45751D01*
X174680Y45837D01*
X174694Y45922D01*
X174711Y46006D01*
X174732Y46090D01*
X174757Y46172D01*
X174785Y46253D01*
X174817Y46333D01*
X174853Y46412D01*
X174892Y46488D01*
X174935Y46563D01*
X174980Y46636D01*
X175029Y46707D01*
X175082Y46775D01*
X175137Y46842D01*
X175195Y46905D01*
X175256Y46966D01*
X175319Y47024D01*
X175386Y47079D01*
X175454Y47131D01*
X175525Y47181D01*
X175598Y47226D01*
X175673Y47269D01*
X175749Y47308D01*
X175828Y47344D01*
X175908Y47376D01*
X175989Y47404D01*
X176071Y47429D01*
X176155Y47450D01*
X176239Y47467D01*
X176324Y47481D01*
X176410Y47490D01*
X176496Y47496D01*
X176582Y47498D01*
X178501Y47498D01*
X182652Y47498D02*
X182652Y38862D01*
X186490Y38862D01*
X194141Y38862D02*
X194227Y38864D01*
X194313Y38870D01*
X194399Y38879D01*
X194484Y38893D01*
X194568Y38910D01*
X194652Y38931D01*
X194734Y38956D01*
X194815Y38984D01*
X194895Y39016D01*
X194974Y39052D01*
X195050Y39091D01*
X195125Y39134D01*
X195198Y39179D01*
X195269Y39229D01*
X195337Y39281D01*
X195404Y39336D01*
X195467Y39394D01*
X195528Y39455D01*
X195586Y39518D01*
X195641Y39585D01*
X195694Y39653D01*
X195743Y39724D01*
X195788Y39797D01*
X195831Y39872D01*
X195870Y39948D01*
X195906Y40027D01*
X195938Y40107D01*
X195966Y40188D01*
X195991Y40270D01*
X196012Y40354D01*
X196029Y40438D01*
X196043Y40523D01*
X196052Y40609D01*
X196058Y40695D01*
X196060Y40781D01*
X194141Y38862D02*
X194018Y38864D01*
X193895Y38869D01*
X193772Y38879D01*
X193650Y38892D01*
X193528Y38909D01*
X193406Y38929D01*
X193286Y38953D01*
X193166Y38981D01*
X193047Y39012D01*
X192929Y39047D01*
X192812Y39086D01*
X192696Y39128D01*
X192582Y39174D01*
X192469Y39223D01*
X192358Y39275D01*
X192248Y39331D01*
X192140Y39390D01*
X192034Y39453D01*
X191929Y39518D01*
X191827Y39587D01*
X191727Y39659D01*
X191630Y39734D01*
X191534Y39811D01*
X191441Y39892D01*
X191350Y39975D01*
X191262Y40061D01*
X191502Y45579D02*
X191504Y45665D01*
X191510Y45751D01*
X191519Y45837D01*
X191533Y45922D01*
X191550Y46006D01*
X191571Y46090D01*
X191596Y46172D01*
X191624Y46253D01*
X191656Y46333D01*
X191692Y46412D01*
X191731Y46488D01*
X191774Y46563D01*
X191819Y46636D01*
X191868Y46707D01*
X191921Y46775D01*
X191976Y46842D01*
X192034Y46905D01*
X192095Y46966D01*
X192158Y47024D01*
X192225Y47079D01*
X192293Y47132D01*
X192364Y47181D01*
X192437Y47226D01*
X192512Y47269D01*
X192588Y47308D01*
X192667Y47344D01*
X192747Y47376D01*
X192828Y47404D01*
X192910Y47429D01*
X192994Y47450D01*
X193078Y47467D01*
X193163Y47481D01*
X193249Y47490D01*
X193335Y47496D01*
X193421Y47498D01*
X193537Y47496D01*
X193652Y47491D01*
X193768Y47481D01*
X193883Y47468D01*
X193997Y47452D01*
X194111Y47431D01*
X194225Y47407D01*
X194337Y47379D01*
X194448Y47348D01*
X194559Y47313D01*
X194668Y47275D01*
X194776Y47233D01*
X194882Y47188D01*
X194988Y47139D01*
X195091Y47087D01*
X195193Y47032D01*
X195292Y46973D01*
X195390Y46911D01*
X195486Y46846D01*
X195580Y46778D01*
X192461Y43900D02*
X192387Y43946D01*
X192314Y43996D01*
X192244Y44049D01*
X192176Y44105D01*
X192111Y44164D01*
X192048Y44226D01*
X191989Y44291D01*
X191932Y44358D01*
X191878Y44428D01*
X191828Y44500D01*
X191781Y44574D01*
X191737Y44650D01*
X191697Y44729D01*
X191661Y44809D01*
X191628Y44890D01*
X191599Y44973D01*
X191573Y45058D01*
X191551Y45143D01*
X191534Y45229D01*
X191520Y45316D01*
X191510Y45403D01*
X191504Y45491D01*
X191502Y45579D01*
X195101Y42460D02*
X195175Y42414D01*
X195248Y42364D01*
X195318Y42311D01*
X195386Y42255D01*
X195451Y42196D01*
X195514Y42134D01*
X195573Y42069D01*
X195630Y42002D01*
X195684Y41932D01*
X195734Y41860D01*
X195781Y41786D01*
X195825Y41710D01*
X195865Y41631D01*
X195901Y41551D01*
X195934Y41470D01*
X195963Y41387D01*
X195989Y41302D01*
X196011Y41217D01*
X196028Y41131D01*
X196042Y41044D01*
X196052Y40957D01*
X196058Y40869D01*
X196060Y40781D01*
X195100Y42460D02*
X192461Y43900D01*
X200406Y47498D02*
X200406Y38862D01*
X200406Y47498D02*
X202805Y47498D01*
X202902Y47496D01*
X202998Y47490D01*
X203094Y47481D01*
X203190Y47467D01*
X203285Y47450D01*
X203379Y47428D01*
X203472Y47403D01*
X203565Y47375D01*
X203656Y47342D01*
X203745Y47306D01*
X203833Y47266D01*
X203920Y47223D01*
X204005Y47177D01*
X204087Y47127D01*
X204168Y47073D01*
X204246Y47017D01*
X204322Y46957D01*
X204396Y46895D01*
X204467Y46829D01*
X204535Y46761D01*
X204601Y46690D01*
X204663Y46616D01*
X204723Y46540D01*
X204779Y46462D01*
X204833Y46381D01*
X204883Y46299D01*
X204929Y46214D01*
X204972Y46127D01*
X205012Y46039D01*
X205048Y45950D01*
X205081Y45859D01*
X205109Y45766D01*
X205134Y45673D01*
X205156Y45579D01*
X205173Y45484D01*
X205187Y45388D01*
X205196Y45292D01*
X205202Y45196D01*
X205204Y45099D01*
X205204Y41261D01*
X205202Y41164D01*
X205196Y41068D01*
X205187Y40972D01*
X205173Y40876D01*
X205156Y40781D01*
X205134Y40687D01*
X205109Y40594D01*
X205081Y40501D01*
X205048Y40410D01*
X205012Y40321D01*
X204972Y40233D01*
X204929Y40146D01*
X204883Y40061D01*
X204833Y39979D01*
X204779Y39898D01*
X204723Y39820D01*
X204663Y39744D01*
X204601Y39670D01*
X204535Y39599D01*
X204467Y39531D01*
X204396Y39465D01*
X204322Y39403D01*
X204246Y39343D01*
X204168Y39287D01*
X204087Y39233D01*
X204005Y39183D01*
X203920Y39137D01*
X203833Y39094D01*
X203745Y39054D01*
X203656Y39018D01*
X203565Y38985D01*
X203472Y38957D01*
X203379Y38932D01*
X203285Y38910D01*
X203190Y38893D01*
X203094Y38879D01*
X202998Y38870D01*
X202902Y38864D01*
X202805Y38862D01*
X200406Y38862D01*
X209375Y38862D02*
X212254Y47498D01*
X215132Y38862D01*
X214413Y41021D02*
X210095Y41021D01*
X217932Y38862D02*
X220331Y38862D01*
X220428Y38864D01*
X220524Y38870D01*
X220620Y38879D01*
X220716Y38893D01*
X220811Y38910D01*
X220905Y38932D01*
X220998Y38957D01*
X221091Y38985D01*
X221182Y39018D01*
X221271Y39054D01*
X221359Y39094D01*
X221446Y39137D01*
X221531Y39183D01*
X221613Y39233D01*
X221694Y39287D01*
X221772Y39343D01*
X221848Y39403D01*
X221922Y39465D01*
X221993Y39531D01*
X222061Y39599D01*
X222127Y39670D01*
X222189Y39744D01*
X222249Y39820D01*
X222305Y39898D01*
X222359Y39979D01*
X222409Y40061D01*
X222455Y40146D01*
X222498Y40233D01*
X222538Y40321D01*
X222574Y40410D01*
X222607Y40501D01*
X222635Y40594D01*
X222660Y40687D01*
X222682Y40781D01*
X222699Y40876D01*
X222713Y40972D01*
X222722Y41068D01*
X222728Y41164D01*
X222730Y41261D01*
X222728Y41358D01*
X222722Y41454D01*
X222713Y41550D01*
X222699Y41646D01*
X222682Y41741D01*
X222660Y41835D01*
X222635Y41928D01*
X222607Y42021D01*
X222574Y42112D01*
X222538Y42201D01*
X222498Y42289D01*
X222455Y42376D01*
X222409Y42460D01*
X222359Y42543D01*
X222305Y42624D01*
X222249Y42702D01*
X222189Y42778D01*
X222127Y42852D01*
X222061Y42923D01*
X221993Y42991D01*
X221922Y43057D01*
X221848Y43119D01*
X221772Y43179D01*
X221694Y43235D01*
X221613Y43289D01*
X221531Y43339D01*
X221446Y43385D01*
X221359Y43428D01*
X221271Y43468D01*
X221182Y43504D01*
X221091Y43537D01*
X220998Y43565D01*
X220905Y43590D01*
X220811Y43612D01*
X220716Y43629D01*
X220620Y43643D01*
X220524Y43652D01*
X220428Y43658D01*
X220331Y43660D01*
X220811Y47498D02*
X217932Y47498D01*
X220811Y47498D02*
X220897Y47496D01*
X220983Y47490D01*
X221069Y47481D01*
X221154Y47467D01*
X221238Y47450D01*
X221322Y47429D01*
X221404Y47404D01*
X221485Y47376D01*
X221565Y47344D01*
X221644Y47308D01*
X221720Y47269D01*
X221795Y47226D01*
X221868Y47181D01*
X221939Y47132D01*
X222007Y47079D01*
X222074Y47024D01*
X222137Y46966D01*
X222198Y46905D01*
X222256Y46842D01*
X222311Y46775D01*
X222364Y46707D01*
X222413Y46636D01*
X222458Y46563D01*
X222501Y46488D01*
X222540Y46412D01*
X222576Y46333D01*
X222608Y46253D01*
X222636Y46172D01*
X222661Y46090D01*
X222682Y46006D01*
X222699Y45922D01*
X222713Y45837D01*
X222722Y45751D01*
X222728Y45665D01*
X222730Y45579D01*
X222728Y45493D01*
X222722Y45407D01*
X222713Y45321D01*
X222699Y45236D01*
X222682Y45152D01*
X222661Y45068D01*
X222636Y44986D01*
X222608Y44905D01*
X222576Y44825D01*
X222540Y44746D01*
X222501Y44670D01*
X222458Y44595D01*
X222413Y44522D01*
X222364Y44451D01*
X222311Y44383D01*
X222256Y44316D01*
X222198Y44253D01*
X222137Y44192D01*
X222074Y44134D01*
X222007Y44079D01*
X221939Y44026D01*
X221868Y43977D01*
X221795Y43932D01*
X221720Y43889D01*
X221644Y43850D01*
X221565Y43814D01*
X221485Y43782D01*
X221404Y43754D01*
X221322Y43729D01*
X221238Y43708D01*
X221154Y43691D01*
X221069Y43677D01*
X220983Y43668D01*
X220897Y43662D01*
X220811Y43660D01*
X218892Y43660D01*
X226596Y47498D02*
X229475Y38862D01*
X232354Y47498D01*
X236220Y38862D02*
X238619Y38862D01*
X238716Y38864D01*
X238812Y38870D01*
X238908Y38879D01*
X239004Y38893D01*
X239099Y38910D01*
X239193Y38932D01*
X239286Y38957D01*
X239379Y38985D01*
X239470Y39018D01*
X239559Y39054D01*
X239647Y39094D01*
X239734Y39137D01*
X239819Y39183D01*
X239901Y39233D01*
X239982Y39287D01*
X240060Y39343D01*
X240136Y39403D01*
X240210Y39465D01*
X240281Y39531D01*
X240349Y39599D01*
X240415Y39670D01*
X240477Y39744D01*
X240537Y39820D01*
X240593Y39898D01*
X240647Y39979D01*
X240697Y40061D01*
X240743Y40146D01*
X240786Y40233D01*
X240826Y40321D01*
X240862Y40410D01*
X240895Y40501D01*
X240923Y40594D01*
X240948Y40687D01*
X240970Y40781D01*
X240987Y40876D01*
X241001Y40972D01*
X241010Y41068D01*
X241016Y41164D01*
X241018Y41261D01*
X241016Y41358D01*
X241010Y41454D01*
X241001Y41550D01*
X240987Y41646D01*
X240970Y41741D01*
X240948Y41835D01*
X240923Y41928D01*
X240895Y42021D01*
X240862Y42112D01*
X240826Y42201D01*
X240786Y42289D01*
X240743Y42376D01*
X240697Y42460D01*
X240647Y42543D01*
X240593Y42624D01*
X240537Y42702D01*
X240477Y42778D01*
X240415Y42852D01*
X240349Y42923D01*
X240281Y42991D01*
X240210Y43057D01*
X240136Y43119D01*
X240060Y43179D01*
X239982Y43235D01*
X239901Y43289D01*
X239819Y43339D01*
X239734Y43385D01*
X239647Y43428D01*
X239559Y43468D01*
X239470Y43504D01*
X239379Y43537D01*
X239286Y43565D01*
X239193Y43590D01*
X239099Y43612D01*
X239004Y43629D01*
X238908Y43643D01*
X238812Y43652D01*
X238716Y43658D01*
X238619Y43660D01*
X239099Y47498D02*
X236220Y47498D01*
X239099Y47498D02*
X239185Y47496D01*
X239271Y47490D01*
X239357Y47481D01*
X239442Y47467D01*
X239526Y47450D01*
X239610Y47429D01*
X239692Y47404D01*
X239773Y47376D01*
X239853Y47344D01*
X239932Y47308D01*
X240008Y47269D01*
X240083Y47226D01*
X240156Y47181D01*
X240227Y47132D01*
X240295Y47079D01*
X240362Y47024D01*
X240425Y46966D01*
X240486Y46905D01*
X240544Y46842D01*
X240599Y46775D01*
X240652Y46707D01*
X240701Y46636D01*
X240746Y46563D01*
X240789Y46488D01*
X240828Y46412D01*
X240864Y46333D01*
X240896Y46253D01*
X240924Y46172D01*
X240949Y46090D01*
X240970Y46006D01*
X240987Y45922D01*
X241001Y45837D01*
X241010Y45751D01*
X241016Y45665D01*
X241018Y45579D01*
X241016Y45493D01*
X241010Y45407D01*
X241001Y45321D01*
X240987Y45236D01*
X240970Y45152D01*
X240949Y45068D01*
X240924Y44986D01*
X240896Y44905D01*
X240864Y44825D01*
X240828Y44746D01*
X240789Y44670D01*
X240746Y44595D01*
X240701Y44522D01*
X240652Y44451D01*
X240599Y44383D01*
X240544Y44316D01*
X240486Y44253D01*
X240425Y44192D01*
X240362Y44134D01*
X240295Y44079D01*
X240227Y44026D01*
X240156Y43977D01*
X240083Y43932D01*
X240008Y43889D01*
X239932Y43850D01*
X239853Y43814D01*
X239773Y43782D01*
X239692Y43754D01*
X239610Y43729D01*
X239526Y43708D01*
X239442Y43691D01*
X239357Y43677D01*
X239271Y43668D01*
X239185Y43662D01*
X239099Y43660D01*
X237179Y43660D01*
X247960Y43660D02*
X249400Y43660D01*
X249400Y38862D01*
X246521Y38862D01*
X246435Y38864D01*
X246349Y38870D01*
X246263Y38879D01*
X246178Y38893D01*
X246094Y38910D01*
X246010Y38931D01*
X245928Y38956D01*
X245847Y38984D01*
X245767Y39016D01*
X245688Y39052D01*
X245612Y39091D01*
X245537Y39134D01*
X245464Y39179D01*
X245393Y39228D01*
X245325Y39281D01*
X245258Y39336D01*
X245195Y39394D01*
X245134Y39455D01*
X245076Y39518D01*
X245021Y39585D01*
X244968Y39653D01*
X244919Y39724D01*
X244874Y39797D01*
X244831Y39872D01*
X244792Y39948D01*
X244756Y40027D01*
X244724Y40107D01*
X244696Y40188D01*
X244671Y40270D01*
X244650Y40354D01*
X244633Y40438D01*
X244619Y40523D01*
X244610Y40609D01*
X244604Y40695D01*
X244602Y40781D01*
X244602Y45579D01*
X244604Y45665D01*
X244610Y45751D01*
X244619Y45837D01*
X244633Y45922D01*
X244650Y46006D01*
X244671Y46090D01*
X244696Y46172D01*
X244724Y46253D01*
X244756Y46333D01*
X244792Y46412D01*
X244831Y46488D01*
X244874Y46563D01*
X244919Y46636D01*
X244968Y46707D01*
X245021Y46775D01*
X245076Y46842D01*
X245134Y46905D01*
X245195Y46966D01*
X245258Y47024D01*
X245325Y47079D01*
X245393Y47131D01*
X245464Y47181D01*
X245537Y47226D01*
X245612Y47269D01*
X245688Y47308D01*
X245767Y47344D01*
X245847Y47376D01*
X245928Y47404D01*
X246010Y47429D01*
X246094Y47450D01*
X246178Y47467D01*
X246263Y47481D01*
X246349Y47490D01*
X246435Y47496D01*
X246521Y47498D01*
X249400Y47498D01*
X254356Y47498D02*
X254356Y38862D01*
X259153Y38862D02*
X254356Y47498D01*
X259153Y47498D02*
X259153Y38862D01*
X264109Y38862D02*
X264109Y47498D01*
X266508Y47498D01*
X266605Y47496D01*
X266701Y47490D01*
X266797Y47481D01*
X266893Y47467D01*
X266988Y47450D01*
X267082Y47428D01*
X267175Y47403D01*
X267268Y47375D01*
X267359Y47342D01*
X267448Y47306D01*
X267536Y47266D01*
X267623Y47223D01*
X267708Y47177D01*
X267790Y47127D01*
X267871Y47073D01*
X267949Y47017D01*
X268025Y46957D01*
X268099Y46895D01*
X268170Y46829D01*
X268238Y46761D01*
X268304Y46690D01*
X268366Y46616D01*
X268426Y46540D01*
X268482Y46462D01*
X268536Y46381D01*
X268586Y46299D01*
X268632Y46214D01*
X268675Y46127D01*
X268715Y46039D01*
X268751Y45950D01*
X268784Y45859D01*
X268812Y45766D01*
X268837Y45673D01*
X268859Y45579D01*
X268876Y45484D01*
X268890Y45388D01*
X268899Y45292D01*
X268905Y45196D01*
X268907Y45099D01*
X268907Y41261D01*
X268905Y41164D01*
X268899Y41068D01*
X268890Y40972D01*
X268876Y40876D01*
X268859Y40781D01*
X268837Y40687D01*
X268812Y40594D01*
X268784Y40501D01*
X268751Y40410D01*
X268715Y40321D01*
X268675Y40233D01*
X268632Y40146D01*
X268586Y40061D01*
X268536Y39979D01*
X268482Y39898D01*
X268426Y39820D01*
X268366Y39744D01*
X268304Y39670D01*
X268238Y39599D01*
X268170Y39531D01*
X268099Y39465D01*
X268025Y39403D01*
X267949Y39343D01*
X267871Y39287D01*
X267790Y39233D01*
X267708Y39183D01*
X267623Y39137D01*
X267536Y39094D01*
X267448Y39054D01*
X267359Y39018D01*
X267268Y38985D01*
X267175Y38957D01*
X267082Y38932D01*
X266988Y38910D01*
X266893Y38893D01*
X266797Y38879D01*
X266701Y38870D01*
X266605Y38864D01*
X266508Y38862D01*
X264109Y38862D01*
D12*
X289532Y177419D02*
X290604Y177419D01*
X289532Y177419D02*
X289467Y177421D01*
X289403Y177427D01*
X289339Y177437D01*
X289275Y177450D01*
X289213Y177468D01*
X289152Y177489D01*
X289092Y177513D01*
X289034Y177542D01*
X288977Y177574D01*
X288923Y177609D01*
X288871Y177647D01*
X288821Y177689D01*
X288774Y177733D01*
X288730Y177780D01*
X288688Y177830D01*
X288650Y177882D01*
X288615Y177936D01*
X288583Y177993D01*
X288554Y178051D01*
X288530Y178111D01*
X288509Y178172D01*
X288491Y178234D01*
X288478Y178298D01*
X288468Y178362D01*
X288462Y178426D01*
X288460Y178491D01*
X288459Y178491D02*
X288459Y181173D01*
X288460Y181173D02*
X288462Y181238D01*
X288468Y181302D01*
X288478Y181366D01*
X288491Y181430D01*
X288509Y181492D01*
X288530Y181553D01*
X288554Y181613D01*
X288583Y181671D01*
X288615Y181728D01*
X288650Y181782D01*
X288688Y181834D01*
X288730Y181884D01*
X288774Y181931D01*
X288821Y181975D01*
X288871Y182017D01*
X288923Y182055D01*
X288977Y182090D01*
X289034Y182122D01*
X289092Y182151D01*
X289152Y182175D01*
X289213Y182196D01*
X289275Y182214D01*
X289339Y182227D01*
X289403Y182237D01*
X289467Y182243D01*
X289532Y182245D01*
X290604Y182245D01*
X293060Y181173D02*
X294400Y182245D01*
X294400Y177419D01*
X293060Y177419D02*
X295741Y177419D01*
X327632Y218059D02*
X328704Y218059D01*
X327632Y218059D02*
X327567Y218061D01*
X327503Y218067D01*
X327439Y218077D01*
X327375Y218090D01*
X327313Y218108D01*
X327252Y218129D01*
X327192Y218153D01*
X327134Y218182D01*
X327077Y218214D01*
X327023Y218249D01*
X326971Y218287D01*
X326921Y218329D01*
X326874Y218373D01*
X326830Y218420D01*
X326788Y218470D01*
X326750Y218522D01*
X326715Y218576D01*
X326683Y218633D01*
X326654Y218691D01*
X326630Y218751D01*
X326609Y218812D01*
X326591Y218874D01*
X326578Y218938D01*
X326568Y219002D01*
X326562Y219066D01*
X326560Y219131D01*
X326559Y219131D02*
X326559Y221813D01*
X326560Y221813D02*
X326562Y221878D01*
X326568Y221942D01*
X326578Y222006D01*
X326591Y222070D01*
X326609Y222132D01*
X326630Y222193D01*
X326654Y222253D01*
X326683Y222311D01*
X326715Y222368D01*
X326750Y222422D01*
X326788Y222474D01*
X326830Y222524D01*
X326874Y222571D01*
X326921Y222615D01*
X326971Y222657D01*
X327023Y222695D01*
X327077Y222730D01*
X327134Y222762D01*
X327192Y222791D01*
X327252Y222815D01*
X327313Y222836D01*
X327375Y222854D01*
X327439Y222867D01*
X327503Y222877D01*
X327567Y222883D01*
X327632Y222885D01*
X328704Y222885D01*
X332634Y222885D02*
X332702Y222883D01*
X332769Y222877D01*
X332836Y222868D01*
X332903Y222855D01*
X332968Y222838D01*
X333033Y222817D01*
X333096Y222793D01*
X333158Y222765D01*
X333218Y222734D01*
X333276Y222700D01*
X333332Y222662D01*
X333387Y222622D01*
X333438Y222578D01*
X333487Y222531D01*
X333534Y222482D01*
X333578Y222431D01*
X333618Y222376D01*
X333656Y222320D01*
X333690Y222262D01*
X333721Y222202D01*
X333749Y222140D01*
X333773Y222077D01*
X333794Y222012D01*
X333811Y221947D01*
X333824Y221880D01*
X333833Y221813D01*
X333839Y221746D01*
X333841Y221678D01*
X332634Y222885D02*
X332556Y222883D01*
X332478Y222877D01*
X332401Y222867D01*
X332324Y222854D01*
X332248Y222836D01*
X332173Y222815D01*
X332099Y222790D01*
X332027Y222761D01*
X331956Y222729D01*
X331887Y222693D01*
X331819Y222654D01*
X331754Y222611D01*
X331691Y222565D01*
X331630Y222516D01*
X331572Y222464D01*
X331517Y222409D01*
X331464Y222352D01*
X331415Y222292D01*
X331368Y222229D01*
X331325Y222165D01*
X331285Y222098D01*
X331248Y222029D01*
X331215Y221958D01*
X331185Y221886D01*
X331159Y221813D01*
X333439Y220740D02*
X333488Y220789D01*
X333535Y220841D01*
X333578Y220896D01*
X333619Y220953D01*
X333657Y221012D01*
X333691Y221073D01*
X333722Y221136D01*
X333750Y221200D01*
X333774Y221266D01*
X333794Y221332D01*
X333811Y221400D01*
X333824Y221469D01*
X333833Y221538D01*
X333839Y221608D01*
X333841Y221678D01*
X333439Y220740D02*
X331160Y218059D01*
X333841Y218059D01*
X227104Y101219D02*
X226032Y101219D01*
X225967Y101221D01*
X225903Y101227D01*
X225839Y101237D01*
X225775Y101250D01*
X225713Y101268D01*
X225652Y101289D01*
X225592Y101313D01*
X225534Y101342D01*
X225477Y101374D01*
X225423Y101409D01*
X225371Y101447D01*
X225321Y101489D01*
X225274Y101533D01*
X225230Y101580D01*
X225188Y101630D01*
X225150Y101682D01*
X225115Y101736D01*
X225083Y101793D01*
X225054Y101851D01*
X225030Y101911D01*
X225009Y101972D01*
X224991Y102034D01*
X224978Y102098D01*
X224968Y102162D01*
X224962Y102226D01*
X224960Y102291D01*
X224959Y102291D02*
X224959Y104973D01*
X224960Y104973D02*
X224962Y105038D01*
X224968Y105102D01*
X224978Y105166D01*
X224991Y105230D01*
X225009Y105292D01*
X225030Y105353D01*
X225054Y105413D01*
X225083Y105471D01*
X225115Y105528D01*
X225150Y105582D01*
X225188Y105634D01*
X225230Y105684D01*
X225274Y105731D01*
X225321Y105775D01*
X225371Y105817D01*
X225423Y105855D01*
X225477Y105890D01*
X225534Y105922D01*
X225592Y105951D01*
X225652Y105975D01*
X225713Y105996D01*
X225775Y106014D01*
X225839Y106027D01*
X225903Y106037D01*
X225967Y106043D01*
X226032Y106045D01*
X227104Y106045D01*
X229560Y101219D02*
X230900Y101219D01*
X230971Y101221D01*
X231043Y101227D01*
X231113Y101236D01*
X231183Y101249D01*
X231253Y101266D01*
X231321Y101287D01*
X231388Y101311D01*
X231454Y101339D01*
X231518Y101370D01*
X231581Y101405D01*
X231641Y101443D01*
X231700Y101484D01*
X231756Y101528D01*
X231810Y101575D01*
X231861Y101624D01*
X231909Y101677D01*
X231955Y101732D01*
X231997Y101789D01*
X232037Y101849D01*
X232073Y101910D01*
X232106Y101974D01*
X232135Y102039D01*
X232161Y102105D01*
X232184Y102173D01*
X232203Y102242D01*
X232218Y102312D01*
X232229Y102382D01*
X232237Y102453D01*
X232241Y102524D01*
X232241Y102596D01*
X232237Y102667D01*
X232229Y102738D01*
X232218Y102808D01*
X232203Y102878D01*
X232184Y102947D01*
X232161Y103015D01*
X232135Y103081D01*
X232106Y103146D01*
X232073Y103210D01*
X232037Y103271D01*
X231997Y103331D01*
X231955Y103388D01*
X231909Y103443D01*
X231861Y103496D01*
X231810Y103545D01*
X231756Y103592D01*
X231700Y103636D01*
X231641Y103677D01*
X231581Y103715D01*
X231518Y103750D01*
X231454Y103781D01*
X231388Y103809D01*
X231321Y103833D01*
X231253Y103854D01*
X231183Y103871D01*
X231113Y103884D01*
X231043Y103893D01*
X230971Y103899D01*
X230900Y103901D01*
X231168Y106045D02*
X229560Y106045D01*
X231168Y106045D02*
X231233Y106043D01*
X231297Y106037D01*
X231361Y106027D01*
X231425Y106014D01*
X231487Y105996D01*
X231548Y105975D01*
X231608Y105951D01*
X231666Y105922D01*
X231723Y105890D01*
X231777Y105855D01*
X231829Y105817D01*
X231879Y105775D01*
X231926Y105731D01*
X231970Y105684D01*
X232012Y105634D01*
X232050Y105582D01*
X232085Y105528D01*
X232117Y105471D01*
X232146Y105413D01*
X232170Y105353D01*
X232191Y105292D01*
X232209Y105230D01*
X232222Y105166D01*
X232232Y105102D01*
X232238Y105038D01*
X232240Y104973D01*
X232238Y104908D01*
X232232Y104844D01*
X232222Y104780D01*
X232209Y104716D01*
X232191Y104654D01*
X232170Y104593D01*
X232146Y104533D01*
X232117Y104475D01*
X232085Y104418D01*
X232050Y104364D01*
X232012Y104312D01*
X231970Y104262D01*
X231926Y104215D01*
X231879Y104171D01*
X231829Y104129D01*
X231777Y104091D01*
X231723Y104056D01*
X231666Y104024D01*
X231608Y103995D01*
X231548Y103971D01*
X231487Y103950D01*
X231425Y103932D01*
X231361Y103919D01*
X231297Y103909D01*
X231233Y103903D01*
X231168Y103901D01*
X231168Y103900D02*
X230096Y103900D01*
X208054Y202819D02*
X206982Y202819D01*
X206917Y202821D01*
X206853Y202827D01*
X206789Y202837D01*
X206725Y202850D01*
X206663Y202868D01*
X206602Y202889D01*
X206542Y202913D01*
X206484Y202942D01*
X206427Y202974D01*
X206373Y203009D01*
X206321Y203047D01*
X206271Y203089D01*
X206224Y203133D01*
X206180Y203180D01*
X206138Y203230D01*
X206100Y203282D01*
X206065Y203336D01*
X206033Y203393D01*
X206004Y203451D01*
X205980Y203511D01*
X205959Y203572D01*
X205941Y203634D01*
X205928Y203698D01*
X205918Y203762D01*
X205912Y203826D01*
X205910Y203891D01*
X205909Y203891D02*
X205909Y206573D01*
X205910Y206573D02*
X205912Y206638D01*
X205918Y206702D01*
X205928Y206766D01*
X205941Y206830D01*
X205959Y206892D01*
X205980Y206953D01*
X206004Y207013D01*
X206033Y207071D01*
X206065Y207128D01*
X206100Y207182D01*
X206138Y207234D01*
X206180Y207284D01*
X206224Y207331D01*
X206271Y207375D01*
X206321Y207417D01*
X206373Y207455D01*
X206427Y207490D01*
X206484Y207522D01*
X206542Y207551D01*
X206602Y207575D01*
X206663Y207596D01*
X206725Y207614D01*
X206789Y207627D01*
X206853Y207637D01*
X206917Y207643D01*
X206982Y207645D01*
X208054Y207645D01*
X211582Y207645D02*
X210510Y203891D01*
X213191Y203891D01*
X212387Y204964D02*
X212387Y202819D01*
X338725Y60071D02*
X338725Y55245D01*
X338725Y57926D02*
X341406Y57926D01*
X341406Y60071D02*
X341406Y55245D01*
X344394Y58999D02*
X345735Y60071D01*
X345735Y55245D01*
X347075Y55245D02*
X344394Y55245D01*
X33925Y55245D02*
X33925Y60071D01*
X33925Y57926D02*
X36606Y57926D01*
X36606Y60071D02*
X36606Y55245D01*
X41069Y60071D02*
X41137Y60069D01*
X41204Y60063D01*
X41271Y60054D01*
X41338Y60041D01*
X41403Y60024D01*
X41468Y60003D01*
X41531Y59979D01*
X41593Y59951D01*
X41653Y59920D01*
X41711Y59886D01*
X41767Y59848D01*
X41822Y59808D01*
X41873Y59764D01*
X41922Y59717D01*
X41969Y59668D01*
X42013Y59617D01*
X42053Y59562D01*
X42091Y59506D01*
X42125Y59448D01*
X42156Y59388D01*
X42184Y59326D01*
X42208Y59263D01*
X42229Y59198D01*
X42246Y59133D01*
X42259Y59066D01*
X42268Y58999D01*
X42274Y58932D01*
X42276Y58864D01*
X41069Y60071D02*
X40991Y60069D01*
X40913Y60063D01*
X40836Y60053D01*
X40759Y60040D01*
X40683Y60022D01*
X40608Y60001D01*
X40534Y59976D01*
X40462Y59947D01*
X40391Y59915D01*
X40322Y59879D01*
X40254Y59840D01*
X40189Y59797D01*
X40126Y59751D01*
X40065Y59702D01*
X40007Y59650D01*
X39952Y59595D01*
X39899Y59538D01*
X39850Y59478D01*
X39803Y59415D01*
X39760Y59351D01*
X39720Y59284D01*
X39683Y59215D01*
X39650Y59144D01*
X39620Y59072D01*
X39594Y58999D01*
X41873Y57926D02*
X41922Y57975D01*
X41969Y58027D01*
X42012Y58082D01*
X42053Y58139D01*
X42091Y58198D01*
X42125Y58259D01*
X42156Y58322D01*
X42184Y58386D01*
X42208Y58452D01*
X42228Y58518D01*
X42245Y58586D01*
X42258Y58655D01*
X42267Y58724D01*
X42273Y58794D01*
X42275Y58864D01*
X41873Y57926D02*
X39594Y55245D01*
X42275Y55245D01*
D13*
X376200Y150100D02*
X376200Y180100D01*
X350200Y135100D02*
X333700Y135100D01*
X333700Y187600D02*
X333700Y195100D01*
X350200Y195100D01*
X333700Y142600D02*
X333700Y135100D01*
X326184Y140100D02*
X326186Y140163D01*
X326192Y140226D01*
X326202Y140289D01*
X326215Y140350D01*
X326233Y140411D01*
X326254Y140470D01*
X326279Y140529D01*
X326307Y140585D01*
X326339Y140640D01*
X326374Y140692D01*
X326413Y140742D01*
X326454Y140790D01*
X326499Y140835D01*
X326546Y140877D01*
X326595Y140916D01*
X326647Y140952D01*
X326701Y140985D01*
X326757Y141014D01*
X326815Y141040D01*
X326874Y141062D01*
X326934Y141081D01*
X326996Y141095D01*
X327058Y141106D01*
X327121Y141113D01*
X327184Y141116D01*
X327247Y141115D01*
X327310Y141110D01*
X327373Y141101D01*
X327435Y141088D01*
X327496Y141072D01*
X327556Y141052D01*
X327614Y141028D01*
X327671Y141000D01*
X327726Y140969D01*
X327779Y140935D01*
X327830Y140897D01*
X327878Y140856D01*
X327924Y140813D01*
X327967Y140766D01*
X328007Y140717D01*
X328044Y140666D01*
X328077Y140613D01*
X328107Y140557D01*
X328134Y140500D01*
X328157Y140441D01*
X328176Y140381D01*
X328192Y140319D01*
X328204Y140257D01*
X328212Y140195D01*
X328216Y140132D01*
X328216Y140068D01*
X328212Y140005D01*
X328204Y139943D01*
X328192Y139881D01*
X328176Y139819D01*
X328157Y139759D01*
X328134Y139700D01*
X328107Y139643D01*
X328077Y139587D01*
X328044Y139534D01*
X328007Y139483D01*
X327967Y139434D01*
X327924Y139387D01*
X327878Y139344D01*
X327830Y139303D01*
X327779Y139265D01*
X327726Y139231D01*
X327671Y139200D01*
X327614Y139172D01*
X327556Y139148D01*
X327496Y139128D01*
X327435Y139112D01*
X327373Y139099D01*
X327310Y139090D01*
X327247Y139085D01*
X327184Y139084D01*
X327121Y139087D01*
X327058Y139094D01*
X326996Y139105D01*
X326934Y139119D01*
X326874Y139138D01*
X326815Y139160D01*
X326757Y139186D01*
X326701Y139215D01*
X326647Y139248D01*
X326595Y139284D01*
X326546Y139323D01*
X326499Y139365D01*
X326454Y139410D01*
X326413Y139458D01*
X326374Y139508D01*
X326339Y139560D01*
X326307Y139615D01*
X326279Y139671D01*
X326254Y139730D01*
X326233Y139789D01*
X326215Y139850D01*
X326202Y139911D01*
X326192Y139974D01*
X326186Y140037D01*
X326184Y140100D01*
D12*
X367919Y174964D02*
X371673Y174964D01*
X371673Y174963D02*
X371738Y174961D01*
X371802Y174955D01*
X371866Y174945D01*
X371930Y174932D01*
X371992Y174914D01*
X372053Y174893D01*
X372113Y174869D01*
X372171Y174840D01*
X372228Y174808D01*
X372282Y174773D01*
X372334Y174735D01*
X372384Y174693D01*
X372431Y174649D01*
X372475Y174602D01*
X372517Y174552D01*
X372555Y174500D01*
X372590Y174446D01*
X372622Y174389D01*
X372651Y174331D01*
X372675Y174271D01*
X372696Y174210D01*
X372714Y174148D01*
X372727Y174084D01*
X372737Y174020D01*
X372743Y173956D01*
X372745Y173891D01*
X372745Y173355D01*
X368991Y177912D02*
X367919Y179252D01*
X372745Y179252D01*
X372745Y177912D02*
X372745Y180593D01*
D13*
X4800Y180100D02*
X4800Y150100D01*
X30800Y195100D02*
X47300Y195100D01*
X47300Y142600D02*
X47300Y135100D01*
X30800Y135100D01*
X47300Y187600D02*
X47300Y195100D01*
X52784Y190100D02*
X52786Y190163D01*
X52792Y190226D01*
X52802Y190289D01*
X52815Y190350D01*
X52833Y190411D01*
X52854Y190470D01*
X52879Y190529D01*
X52907Y190585D01*
X52939Y190640D01*
X52974Y190692D01*
X53013Y190742D01*
X53054Y190790D01*
X53099Y190835D01*
X53146Y190877D01*
X53195Y190916D01*
X53247Y190952D01*
X53301Y190985D01*
X53357Y191014D01*
X53415Y191040D01*
X53474Y191062D01*
X53534Y191081D01*
X53596Y191095D01*
X53658Y191106D01*
X53721Y191113D01*
X53784Y191116D01*
X53847Y191115D01*
X53910Y191110D01*
X53973Y191101D01*
X54035Y191088D01*
X54096Y191072D01*
X54156Y191052D01*
X54214Y191028D01*
X54271Y191000D01*
X54326Y190969D01*
X54379Y190935D01*
X54430Y190897D01*
X54478Y190856D01*
X54524Y190813D01*
X54567Y190766D01*
X54607Y190717D01*
X54644Y190666D01*
X54677Y190613D01*
X54707Y190557D01*
X54734Y190500D01*
X54757Y190441D01*
X54776Y190381D01*
X54792Y190319D01*
X54804Y190257D01*
X54812Y190195D01*
X54816Y190132D01*
X54816Y190068D01*
X54812Y190005D01*
X54804Y189943D01*
X54792Y189881D01*
X54776Y189819D01*
X54757Y189759D01*
X54734Y189700D01*
X54707Y189643D01*
X54677Y189587D01*
X54644Y189534D01*
X54607Y189483D01*
X54567Y189434D01*
X54524Y189387D01*
X54478Y189344D01*
X54430Y189303D01*
X54379Y189265D01*
X54326Y189231D01*
X54271Y189200D01*
X54214Y189172D01*
X54156Y189148D01*
X54096Y189128D01*
X54035Y189112D01*
X53973Y189099D01*
X53910Y189090D01*
X53847Y189085D01*
X53784Y189084D01*
X53721Y189087D01*
X53658Y189094D01*
X53596Y189105D01*
X53534Y189119D01*
X53474Y189138D01*
X53415Y189160D01*
X53357Y189186D01*
X53301Y189215D01*
X53247Y189248D01*
X53195Y189284D01*
X53146Y189323D01*
X53099Y189365D01*
X53054Y189410D01*
X53013Y189458D01*
X52974Y189508D01*
X52939Y189560D01*
X52907Y189615D01*
X52879Y189671D01*
X52854Y189730D01*
X52833Y189789D01*
X52815Y189850D01*
X52802Y189911D01*
X52792Y189974D01*
X52786Y190037D01*
X52784Y190100D01*
D12*
X13279Y147406D02*
X9525Y147406D01*
X13279Y147406D02*
X13344Y147404D01*
X13408Y147398D01*
X13472Y147388D01*
X13536Y147375D01*
X13598Y147357D01*
X13659Y147336D01*
X13719Y147312D01*
X13777Y147283D01*
X13834Y147251D01*
X13888Y147216D01*
X13940Y147178D01*
X13990Y147136D01*
X14037Y147092D01*
X14081Y147045D01*
X14123Y146995D01*
X14161Y146943D01*
X14196Y146889D01*
X14228Y146832D01*
X14257Y146774D01*
X14281Y146714D01*
X14302Y146653D01*
X14320Y146591D01*
X14333Y146527D01*
X14343Y146463D01*
X14349Y146399D01*
X14351Y146334D01*
X14351Y145797D01*
X9525Y151828D02*
X9527Y151896D01*
X9533Y151963D01*
X9542Y152030D01*
X9555Y152097D01*
X9572Y152162D01*
X9593Y152227D01*
X9617Y152290D01*
X9645Y152352D01*
X9676Y152412D01*
X9710Y152470D01*
X9748Y152526D01*
X9788Y152581D01*
X9832Y152632D01*
X9879Y152681D01*
X9928Y152728D01*
X9979Y152772D01*
X10034Y152812D01*
X10090Y152850D01*
X10148Y152884D01*
X10208Y152915D01*
X10270Y152943D01*
X10333Y152967D01*
X10398Y152988D01*
X10463Y153005D01*
X10530Y153018D01*
X10597Y153027D01*
X10664Y153033D01*
X10732Y153035D01*
X9525Y151828D02*
X9527Y151750D01*
X9533Y151672D01*
X9543Y151595D01*
X9556Y151518D01*
X9574Y151442D01*
X9595Y151367D01*
X9620Y151293D01*
X9649Y151221D01*
X9681Y151150D01*
X9717Y151081D01*
X9756Y151013D01*
X9799Y150948D01*
X9845Y150885D01*
X9894Y150824D01*
X9946Y150766D01*
X10001Y150711D01*
X10058Y150658D01*
X10118Y150609D01*
X10181Y150562D01*
X10246Y150519D01*
X10312Y150479D01*
X10381Y150442D01*
X10452Y150409D01*
X10524Y150379D01*
X10598Y150353D01*
X11670Y152633D02*
X11621Y152682D01*
X11569Y152729D01*
X11514Y152772D01*
X11457Y152813D01*
X11398Y152851D01*
X11337Y152885D01*
X11274Y152916D01*
X11210Y152944D01*
X11144Y152968D01*
X11078Y152988D01*
X11010Y153005D01*
X10941Y153018D01*
X10872Y153027D01*
X10802Y153033D01*
X10732Y153035D01*
X11670Y152633D02*
X14351Y150354D01*
X14351Y153035D01*
X134324Y14351D02*
X134324Y10597D01*
X134323Y10597D02*
X134321Y10532D01*
X134315Y10468D01*
X134305Y10404D01*
X134292Y10340D01*
X134274Y10278D01*
X134253Y10217D01*
X134229Y10157D01*
X134200Y10099D01*
X134168Y10042D01*
X134133Y9988D01*
X134095Y9936D01*
X134053Y9886D01*
X134009Y9839D01*
X133962Y9795D01*
X133912Y9753D01*
X133860Y9715D01*
X133806Y9680D01*
X133749Y9648D01*
X133691Y9619D01*
X133631Y9595D01*
X133570Y9574D01*
X133508Y9556D01*
X133444Y9543D01*
X133380Y9533D01*
X133316Y9527D01*
X133251Y9525D01*
X132715Y9525D01*
X137272Y9525D02*
X138612Y9525D01*
X138683Y9527D01*
X138755Y9533D01*
X138825Y9542D01*
X138895Y9555D01*
X138965Y9572D01*
X139033Y9593D01*
X139100Y9617D01*
X139166Y9645D01*
X139230Y9676D01*
X139293Y9711D01*
X139353Y9749D01*
X139412Y9790D01*
X139468Y9834D01*
X139522Y9881D01*
X139573Y9930D01*
X139621Y9983D01*
X139667Y10038D01*
X139709Y10095D01*
X139749Y10155D01*
X139785Y10216D01*
X139818Y10280D01*
X139847Y10345D01*
X139873Y10411D01*
X139896Y10479D01*
X139915Y10548D01*
X139930Y10618D01*
X139941Y10688D01*
X139949Y10759D01*
X139953Y10830D01*
X139953Y10902D01*
X139949Y10973D01*
X139941Y11044D01*
X139930Y11114D01*
X139915Y11184D01*
X139896Y11253D01*
X139873Y11321D01*
X139847Y11387D01*
X139818Y11452D01*
X139785Y11516D01*
X139749Y11577D01*
X139709Y11637D01*
X139667Y11694D01*
X139621Y11749D01*
X139573Y11802D01*
X139522Y11851D01*
X139468Y11898D01*
X139412Y11942D01*
X139353Y11983D01*
X139293Y12021D01*
X139230Y12056D01*
X139166Y12087D01*
X139100Y12115D01*
X139033Y12139D01*
X138965Y12160D01*
X138895Y12177D01*
X138825Y12190D01*
X138755Y12199D01*
X138683Y12205D01*
X138612Y12207D01*
X138880Y14351D02*
X137272Y14351D01*
X138880Y14351D02*
X138945Y14349D01*
X139009Y14343D01*
X139073Y14333D01*
X139137Y14320D01*
X139199Y14302D01*
X139260Y14281D01*
X139320Y14257D01*
X139378Y14228D01*
X139435Y14196D01*
X139489Y14161D01*
X139541Y14123D01*
X139591Y14081D01*
X139638Y14037D01*
X139682Y13990D01*
X139724Y13940D01*
X139762Y13888D01*
X139797Y13834D01*
X139829Y13777D01*
X139858Y13719D01*
X139882Y13659D01*
X139903Y13598D01*
X139921Y13536D01*
X139934Y13472D01*
X139944Y13408D01*
X139950Y13344D01*
X139952Y13279D01*
X139950Y13214D01*
X139944Y13150D01*
X139934Y13086D01*
X139921Y13022D01*
X139903Y12960D01*
X139882Y12899D01*
X139858Y12839D01*
X139829Y12781D01*
X139797Y12724D01*
X139762Y12670D01*
X139724Y12618D01*
X139682Y12568D01*
X139638Y12521D01*
X139591Y12477D01*
X139541Y12435D01*
X139489Y12397D01*
X139435Y12362D01*
X139378Y12330D01*
X139320Y12301D01*
X139260Y12277D01*
X139199Y12256D01*
X139137Y12238D01*
X139073Y12225D01*
X139009Y12215D01*
X138945Y12209D01*
X138880Y12207D01*
X138880Y12206D02*
X137808Y12206D01*
D13*
X216930Y102520D02*
X210930Y108520D01*
X216930Y102520D02*
X216930Y90520D01*
X210930Y84520D01*
X188191Y103303D02*
X192930Y108520D01*
X188191Y103303D02*
X188028Y103121D01*
X187868Y102936D01*
X187714Y102746D01*
X187564Y102553D01*
X187419Y102357D01*
X187279Y102156D01*
X187144Y101953D01*
X187013Y101746D01*
X186888Y101536D01*
X186768Y101323D01*
X186653Y101108D01*
X186544Y100889D01*
X186440Y100668D01*
X186341Y100444D01*
X186248Y100218D01*
X186160Y99990D01*
X186078Y99760D01*
X186002Y99528D01*
X185931Y99294D01*
X185866Y99058D01*
X185807Y98821D01*
X185754Y98583D01*
X185707Y98343D01*
X185665Y98102D01*
X185629Y97860D01*
X185599Y97618D01*
X185576Y97374D01*
X185558Y97131D01*
X185546Y96887D01*
X185540Y96642D01*
X185540Y96398D01*
X185546Y96153D01*
X185558Y95909D01*
X185576Y95666D01*
X185599Y95422D01*
X185629Y95180D01*
X185665Y94938D01*
X185707Y94697D01*
X185754Y94457D01*
X185807Y94219D01*
X185866Y93982D01*
X185931Y93746D01*
X186002Y93512D01*
X186078Y93280D01*
X186160Y93050D01*
X186248Y92822D01*
X186341Y92596D01*
X186440Y92372D01*
X186544Y92151D01*
X186653Y91932D01*
X186768Y91717D01*
X186888Y91504D01*
X187013Y91294D01*
X187144Y91087D01*
X187279Y90884D01*
X187419Y90683D01*
X187564Y90487D01*
X187714Y90294D01*
X187868Y90104D01*
X188028Y89919D01*
X188191Y89737D01*
X192930Y84520D01*
D12*
X212725Y73853D02*
X217551Y73853D01*
X217551Y75998D01*
X213797Y78406D02*
X212725Y79746D01*
X217551Y79746D01*
X217551Y78406D02*
X217551Y81087D01*
D13*
X108600Y90550D02*
X108600Y96550D01*
X100600Y96550D01*
X108600Y74550D02*
X108600Y68550D01*
X100600Y68550D01*
D12*
X85013Y65080D02*
X85013Y62936D01*
X85013Y65080D02*
X85015Y65151D01*
X85021Y65223D01*
X85030Y65293D01*
X85043Y65363D01*
X85060Y65433D01*
X85081Y65501D01*
X85105Y65568D01*
X85133Y65634D01*
X85164Y65698D01*
X85199Y65761D01*
X85237Y65821D01*
X85278Y65880D01*
X85322Y65936D01*
X85369Y65990D01*
X85418Y66041D01*
X85471Y66089D01*
X85526Y66135D01*
X85583Y66177D01*
X85643Y66217D01*
X85704Y66253D01*
X85768Y66286D01*
X85833Y66315D01*
X85899Y66341D01*
X85967Y66364D01*
X86036Y66383D01*
X86106Y66398D01*
X86176Y66409D01*
X86247Y66417D01*
X86318Y66421D01*
X86390Y66421D01*
X86461Y66417D01*
X86532Y66409D01*
X86602Y66398D01*
X86672Y66383D01*
X86741Y66364D01*
X86809Y66341D01*
X86875Y66315D01*
X86940Y66286D01*
X87004Y66253D01*
X87065Y66217D01*
X87125Y66177D01*
X87182Y66135D01*
X87237Y66089D01*
X87290Y66041D01*
X87339Y65990D01*
X87386Y65936D01*
X87430Y65880D01*
X87471Y65821D01*
X87509Y65761D01*
X87544Y65698D01*
X87575Y65634D01*
X87603Y65568D01*
X87627Y65501D01*
X87648Y65433D01*
X87665Y65363D01*
X87678Y65293D01*
X87687Y65223D01*
X87693Y65151D01*
X87695Y65080D01*
X87694Y65080D02*
X87694Y62936D01*
X87695Y62936D02*
X87693Y62865D01*
X87687Y62793D01*
X87678Y62723D01*
X87665Y62653D01*
X87648Y62583D01*
X87627Y62515D01*
X87603Y62448D01*
X87575Y62382D01*
X87544Y62318D01*
X87509Y62255D01*
X87471Y62195D01*
X87430Y62136D01*
X87386Y62080D01*
X87339Y62026D01*
X87290Y61975D01*
X87237Y61927D01*
X87182Y61881D01*
X87125Y61839D01*
X87065Y61799D01*
X87004Y61763D01*
X86940Y61730D01*
X86875Y61701D01*
X86809Y61675D01*
X86741Y61652D01*
X86672Y61633D01*
X86602Y61618D01*
X86532Y61607D01*
X86461Y61599D01*
X86390Y61595D01*
X86318Y61595D01*
X86247Y61599D01*
X86176Y61607D01*
X86106Y61618D01*
X86036Y61633D01*
X85967Y61652D01*
X85899Y61675D01*
X85833Y61701D01*
X85768Y61730D01*
X85704Y61763D01*
X85643Y61799D01*
X85583Y61839D01*
X85526Y61881D01*
X85471Y61927D01*
X85418Y61975D01*
X85369Y62026D01*
X85322Y62080D01*
X85278Y62136D01*
X85237Y62195D01*
X85199Y62255D01*
X85164Y62318D01*
X85133Y62382D01*
X85105Y62448D01*
X85081Y62515D01*
X85060Y62583D01*
X85043Y62653D01*
X85030Y62723D01*
X85021Y62793D01*
X85015Y62865D01*
X85013Y62936D01*
X87158Y62667D02*
X88231Y61595D01*
X90106Y65349D02*
X91446Y66421D01*
X91446Y61595D01*
X90106Y61595D02*
X92787Y61595D01*
D13*
X159400Y90550D02*
X159400Y96550D01*
X151400Y96550D01*
X159400Y74550D02*
X159400Y68550D01*
X151400Y68550D01*
D12*
X135813Y101036D02*
X135813Y103180D01*
X135815Y103251D01*
X135821Y103323D01*
X135830Y103393D01*
X135843Y103463D01*
X135860Y103533D01*
X135881Y103601D01*
X135905Y103668D01*
X135933Y103734D01*
X135964Y103798D01*
X135999Y103861D01*
X136037Y103921D01*
X136078Y103980D01*
X136122Y104036D01*
X136169Y104090D01*
X136218Y104141D01*
X136271Y104189D01*
X136326Y104235D01*
X136383Y104277D01*
X136443Y104317D01*
X136504Y104353D01*
X136568Y104386D01*
X136633Y104415D01*
X136699Y104441D01*
X136767Y104464D01*
X136836Y104483D01*
X136906Y104498D01*
X136976Y104509D01*
X137047Y104517D01*
X137118Y104521D01*
X137190Y104521D01*
X137261Y104517D01*
X137332Y104509D01*
X137402Y104498D01*
X137472Y104483D01*
X137541Y104464D01*
X137609Y104441D01*
X137675Y104415D01*
X137740Y104386D01*
X137804Y104353D01*
X137865Y104317D01*
X137925Y104277D01*
X137982Y104235D01*
X138037Y104189D01*
X138090Y104141D01*
X138139Y104090D01*
X138186Y104036D01*
X138230Y103980D01*
X138271Y103921D01*
X138309Y103861D01*
X138344Y103798D01*
X138375Y103734D01*
X138403Y103668D01*
X138427Y103601D01*
X138448Y103533D01*
X138465Y103463D01*
X138478Y103393D01*
X138487Y103323D01*
X138493Y103251D01*
X138495Y103180D01*
X138494Y103180D02*
X138494Y101036D01*
X138495Y101036D02*
X138493Y100965D01*
X138487Y100893D01*
X138478Y100823D01*
X138465Y100753D01*
X138448Y100683D01*
X138427Y100615D01*
X138403Y100548D01*
X138375Y100482D01*
X138344Y100418D01*
X138309Y100355D01*
X138271Y100295D01*
X138230Y100236D01*
X138186Y100180D01*
X138139Y100126D01*
X138090Y100075D01*
X138037Y100027D01*
X137982Y99981D01*
X137925Y99939D01*
X137865Y99899D01*
X137804Y99863D01*
X137740Y99830D01*
X137675Y99801D01*
X137609Y99775D01*
X137541Y99752D01*
X137472Y99733D01*
X137402Y99718D01*
X137332Y99707D01*
X137261Y99699D01*
X137190Y99695D01*
X137118Y99695D01*
X137047Y99699D01*
X136976Y99707D01*
X136906Y99718D01*
X136836Y99733D01*
X136767Y99752D01*
X136699Y99775D01*
X136633Y99801D01*
X136568Y99830D01*
X136504Y99863D01*
X136443Y99899D01*
X136383Y99939D01*
X136326Y99981D01*
X136271Y100027D01*
X136218Y100075D01*
X136169Y100126D01*
X136122Y100180D01*
X136078Y100236D01*
X136037Y100295D01*
X135999Y100355D01*
X135964Y100418D01*
X135933Y100482D01*
X135905Y100548D01*
X135881Y100615D01*
X135860Y100683D01*
X135843Y100753D01*
X135830Y100823D01*
X135821Y100893D01*
X135815Y100965D01*
X135813Y101036D01*
X137958Y100767D02*
X139031Y99695D01*
X143587Y103314D02*
X143585Y103382D01*
X143579Y103449D01*
X143570Y103516D01*
X143557Y103583D01*
X143540Y103648D01*
X143519Y103713D01*
X143495Y103776D01*
X143467Y103838D01*
X143436Y103898D01*
X143402Y103956D01*
X143364Y104012D01*
X143324Y104067D01*
X143280Y104118D01*
X143233Y104167D01*
X143184Y104214D01*
X143133Y104258D01*
X143078Y104298D01*
X143022Y104336D01*
X142964Y104370D01*
X142904Y104401D01*
X142842Y104429D01*
X142779Y104453D01*
X142714Y104474D01*
X142649Y104491D01*
X142582Y104504D01*
X142515Y104513D01*
X142448Y104519D01*
X142380Y104521D01*
X142302Y104519D01*
X142224Y104513D01*
X142147Y104503D01*
X142070Y104490D01*
X141994Y104472D01*
X141919Y104451D01*
X141845Y104426D01*
X141773Y104397D01*
X141702Y104365D01*
X141633Y104329D01*
X141565Y104290D01*
X141500Y104247D01*
X141437Y104201D01*
X141376Y104152D01*
X141318Y104100D01*
X141263Y104045D01*
X141210Y103988D01*
X141161Y103928D01*
X141114Y103865D01*
X141071Y103801D01*
X141031Y103734D01*
X140994Y103665D01*
X140961Y103594D01*
X140931Y103522D01*
X140905Y103449D01*
X143185Y102376D02*
X143234Y102425D01*
X143281Y102477D01*
X143324Y102532D01*
X143365Y102589D01*
X143403Y102648D01*
X143437Y102709D01*
X143468Y102772D01*
X143496Y102836D01*
X143520Y102902D01*
X143540Y102968D01*
X143557Y103036D01*
X143570Y103105D01*
X143579Y103174D01*
X143585Y103244D01*
X143587Y103314D01*
X143185Y102376D02*
X140906Y99695D01*
X143587Y99695D01*
X261378Y224155D02*
X261378Y228981D01*
X262719Y228981D01*
X262790Y228979D01*
X262862Y228973D01*
X262932Y228964D01*
X263002Y228951D01*
X263072Y228934D01*
X263140Y228913D01*
X263207Y228889D01*
X263273Y228861D01*
X263337Y228830D01*
X263400Y228795D01*
X263460Y228757D01*
X263519Y228716D01*
X263575Y228672D01*
X263629Y228625D01*
X263680Y228576D01*
X263728Y228523D01*
X263774Y228468D01*
X263816Y228411D01*
X263856Y228351D01*
X263892Y228290D01*
X263925Y228226D01*
X263954Y228161D01*
X263980Y228095D01*
X264003Y228027D01*
X264022Y227958D01*
X264037Y227888D01*
X264048Y227818D01*
X264056Y227747D01*
X264060Y227676D01*
X264060Y227604D01*
X264056Y227533D01*
X264048Y227462D01*
X264037Y227392D01*
X264022Y227322D01*
X264003Y227253D01*
X263980Y227185D01*
X263954Y227119D01*
X263925Y227054D01*
X263892Y226990D01*
X263856Y226929D01*
X263816Y226869D01*
X263774Y226812D01*
X263728Y226757D01*
X263680Y226704D01*
X263629Y226655D01*
X263575Y226608D01*
X263519Y226564D01*
X263460Y226523D01*
X263400Y226485D01*
X263337Y226450D01*
X263273Y226419D01*
X263207Y226391D01*
X263140Y226367D01*
X263072Y226346D01*
X263002Y226329D01*
X262932Y226316D01*
X262862Y226307D01*
X262790Y226301D01*
X262719Y226299D01*
X262719Y226300D02*
X261378Y226300D01*
X262987Y226300D02*
X264059Y224155D01*
X266801Y227909D02*
X268141Y228981D01*
X268141Y224155D01*
X266801Y224155D02*
X269482Y224155D01*
X107505Y119031D02*
X107505Y114205D01*
X107505Y119031D02*
X108846Y119031D01*
X108917Y119029D01*
X108989Y119023D01*
X109059Y119014D01*
X109129Y119001D01*
X109199Y118984D01*
X109267Y118963D01*
X109334Y118939D01*
X109400Y118911D01*
X109464Y118880D01*
X109527Y118845D01*
X109587Y118807D01*
X109646Y118766D01*
X109702Y118722D01*
X109756Y118675D01*
X109807Y118626D01*
X109855Y118573D01*
X109901Y118518D01*
X109943Y118461D01*
X109983Y118401D01*
X110019Y118340D01*
X110052Y118276D01*
X110081Y118211D01*
X110107Y118145D01*
X110130Y118077D01*
X110149Y118008D01*
X110164Y117938D01*
X110175Y117868D01*
X110183Y117797D01*
X110187Y117726D01*
X110187Y117654D01*
X110183Y117583D01*
X110175Y117512D01*
X110164Y117442D01*
X110149Y117372D01*
X110130Y117303D01*
X110107Y117235D01*
X110081Y117169D01*
X110052Y117104D01*
X110019Y117040D01*
X109983Y116979D01*
X109943Y116919D01*
X109901Y116862D01*
X109855Y116807D01*
X109807Y116754D01*
X109756Y116705D01*
X109702Y116658D01*
X109646Y116614D01*
X109587Y116573D01*
X109527Y116535D01*
X109464Y116500D01*
X109400Y116469D01*
X109334Y116441D01*
X109267Y116417D01*
X109199Y116396D01*
X109129Y116379D01*
X109059Y116366D01*
X108989Y116357D01*
X108917Y116351D01*
X108846Y116349D01*
X108846Y116350D02*
X107505Y116350D01*
X109114Y116350D02*
X110186Y114205D01*
X112928Y117959D02*
X114268Y119031D01*
X114268Y114205D01*
X112928Y114205D02*
X115609Y114205D01*
X118414Y116618D02*
X118416Y116738D01*
X118421Y116858D01*
X118430Y116978D01*
X118443Y117098D01*
X118459Y117217D01*
X118479Y117336D01*
X118503Y117454D01*
X118530Y117571D01*
X118560Y117687D01*
X118594Y117802D01*
X118632Y117917D01*
X118673Y118030D01*
X118717Y118141D01*
X118765Y118252D01*
X118816Y118361D01*
X118817Y118361D02*
X118838Y118418D01*
X118864Y118474D01*
X118892Y118529D01*
X118924Y118581D01*
X118960Y118632D01*
X118998Y118680D01*
X119039Y118726D01*
X119083Y118769D01*
X119129Y118809D01*
X119178Y118846D01*
X119230Y118880D01*
X119283Y118911D01*
X119338Y118939D01*
X119394Y118963D01*
X119452Y118984D01*
X119511Y119001D01*
X119571Y119014D01*
X119632Y119023D01*
X119694Y119029D01*
X119755Y119031D01*
X119816Y119029D01*
X119878Y119023D01*
X119939Y119014D01*
X119999Y119001D01*
X120058Y118984D01*
X120116Y118963D01*
X120172Y118939D01*
X120227Y118911D01*
X120280Y118880D01*
X120332Y118846D01*
X120381Y118809D01*
X120427Y118769D01*
X120471Y118726D01*
X120512Y118680D01*
X120550Y118632D01*
X120586Y118581D01*
X120618Y118529D01*
X120646Y118474D01*
X120672Y118418D01*
X120693Y118361D01*
X120744Y118252D01*
X120792Y118141D01*
X120836Y118030D01*
X120877Y117917D01*
X120915Y117802D01*
X120949Y117687D01*
X120979Y117571D01*
X121006Y117454D01*
X121030Y117336D01*
X121050Y117217D01*
X121066Y117098D01*
X121079Y116978D01*
X121088Y116858D01*
X121093Y116738D01*
X121095Y116618D01*
X118414Y116618D02*
X118416Y116498D01*
X118421Y116378D01*
X118430Y116258D01*
X118443Y116138D01*
X118459Y116019D01*
X118479Y115900D01*
X118503Y115782D01*
X118530Y115665D01*
X118560Y115549D01*
X118594Y115434D01*
X118632Y115319D01*
X118673Y115206D01*
X118717Y115095D01*
X118765Y114984D01*
X118816Y114875D01*
X118817Y114875D02*
X118838Y114818D01*
X118864Y114762D01*
X118892Y114707D01*
X118924Y114655D01*
X118960Y114604D01*
X118998Y114556D01*
X119039Y114510D01*
X119083Y114467D01*
X119129Y114427D01*
X119178Y114390D01*
X119230Y114356D01*
X119283Y114325D01*
X119338Y114297D01*
X119394Y114273D01*
X119452Y114252D01*
X119511Y114235D01*
X119571Y114222D01*
X119632Y114213D01*
X119694Y114207D01*
X119755Y114205D01*
X120693Y114875D02*
X120744Y114984D01*
X120792Y115095D01*
X120836Y115206D01*
X120877Y115319D01*
X120915Y115434D01*
X120949Y115549D01*
X120979Y115665D01*
X121006Y115782D01*
X121030Y115900D01*
X121050Y116019D01*
X121066Y116138D01*
X121079Y116258D01*
X121088Y116378D01*
X121093Y116498D01*
X121095Y116618D01*
X120693Y114875D02*
X120672Y114818D01*
X120646Y114762D01*
X120618Y114707D01*
X120586Y114655D01*
X120550Y114604D01*
X120512Y114556D01*
X120471Y114510D01*
X120427Y114467D01*
X120380Y114427D01*
X120332Y114390D01*
X120280Y114356D01*
X120227Y114325D01*
X120172Y114297D01*
X120116Y114273D01*
X120058Y114252D01*
X119999Y114235D01*
X119939Y114222D01*
X119878Y114213D01*
X119816Y114207D01*
X119755Y114205D01*
X118682Y115277D02*
X120827Y117959D01*
X124809Y57975D02*
X129635Y57975D01*
X124809Y57975D02*
X124809Y59316D01*
X124811Y59387D01*
X124817Y59459D01*
X124826Y59529D01*
X124839Y59599D01*
X124856Y59669D01*
X124877Y59737D01*
X124901Y59804D01*
X124929Y59870D01*
X124960Y59934D01*
X124995Y59997D01*
X125033Y60057D01*
X125074Y60116D01*
X125118Y60172D01*
X125165Y60226D01*
X125214Y60277D01*
X125267Y60325D01*
X125322Y60371D01*
X125379Y60413D01*
X125439Y60453D01*
X125500Y60489D01*
X125564Y60522D01*
X125629Y60551D01*
X125695Y60577D01*
X125763Y60600D01*
X125832Y60619D01*
X125902Y60634D01*
X125972Y60645D01*
X126043Y60653D01*
X126114Y60657D01*
X126186Y60657D01*
X126257Y60653D01*
X126328Y60645D01*
X126398Y60634D01*
X126468Y60619D01*
X126537Y60600D01*
X126605Y60577D01*
X126671Y60551D01*
X126736Y60522D01*
X126800Y60489D01*
X126861Y60453D01*
X126921Y60413D01*
X126978Y60371D01*
X127033Y60325D01*
X127086Y60277D01*
X127135Y60226D01*
X127182Y60172D01*
X127226Y60116D01*
X127267Y60057D01*
X127305Y59997D01*
X127340Y59934D01*
X127371Y59870D01*
X127399Y59804D01*
X127423Y59737D01*
X127444Y59669D01*
X127461Y59599D01*
X127474Y59529D01*
X127483Y59459D01*
X127489Y59387D01*
X127491Y59316D01*
X127490Y59316D02*
X127490Y57975D01*
X127490Y59584D02*
X129635Y60656D01*
X125881Y63398D02*
X124809Y64738D01*
X129635Y64738D01*
X129635Y63398D02*
X129635Y66079D01*
X125881Y68884D02*
X124809Y70225D01*
X129635Y70225D01*
X129635Y71565D02*
X129635Y68884D01*
X151955Y96869D02*
X151955Y101695D01*
X153295Y101695D01*
X153366Y101693D01*
X153438Y101687D01*
X153508Y101678D01*
X153578Y101665D01*
X153648Y101648D01*
X153716Y101627D01*
X153783Y101603D01*
X153849Y101575D01*
X153913Y101544D01*
X153976Y101509D01*
X154036Y101471D01*
X154095Y101430D01*
X154151Y101386D01*
X154205Y101339D01*
X154256Y101290D01*
X154304Y101237D01*
X154350Y101182D01*
X154392Y101125D01*
X154432Y101065D01*
X154468Y101004D01*
X154501Y100940D01*
X154530Y100875D01*
X154556Y100809D01*
X154579Y100741D01*
X154598Y100672D01*
X154613Y100602D01*
X154624Y100532D01*
X154632Y100461D01*
X154636Y100390D01*
X154636Y100318D01*
X154632Y100247D01*
X154624Y100176D01*
X154613Y100106D01*
X154598Y100036D01*
X154579Y99967D01*
X154556Y99899D01*
X154530Y99833D01*
X154501Y99768D01*
X154468Y99704D01*
X154432Y99643D01*
X154392Y99583D01*
X154350Y99526D01*
X154304Y99471D01*
X154256Y99418D01*
X154205Y99369D01*
X154151Y99322D01*
X154095Y99278D01*
X154036Y99237D01*
X153976Y99199D01*
X153913Y99164D01*
X153849Y99133D01*
X153783Y99105D01*
X153716Y99081D01*
X153648Y99060D01*
X153578Y99043D01*
X153508Y99030D01*
X153438Y99021D01*
X153366Y99015D01*
X153295Y99013D01*
X153295Y99014D02*
X151955Y99014D01*
X153564Y99014D02*
X154636Y96869D01*
X157378Y100623D02*
X158718Y101695D01*
X158718Y96869D01*
X157378Y96869D02*
X160059Y96869D01*
X164339Y101695D02*
X164407Y101693D01*
X164474Y101687D01*
X164541Y101678D01*
X164608Y101665D01*
X164673Y101648D01*
X164738Y101627D01*
X164801Y101603D01*
X164863Y101575D01*
X164923Y101544D01*
X164981Y101510D01*
X165037Y101472D01*
X165092Y101432D01*
X165143Y101388D01*
X165192Y101341D01*
X165239Y101292D01*
X165283Y101241D01*
X165323Y101186D01*
X165361Y101130D01*
X165395Y101072D01*
X165426Y101012D01*
X165454Y100950D01*
X165478Y100887D01*
X165499Y100822D01*
X165516Y100757D01*
X165529Y100690D01*
X165538Y100623D01*
X165544Y100556D01*
X165546Y100488D01*
X164339Y101695D02*
X164261Y101693D01*
X164183Y101687D01*
X164106Y101677D01*
X164029Y101664D01*
X163953Y101646D01*
X163878Y101625D01*
X163804Y101600D01*
X163732Y101571D01*
X163661Y101539D01*
X163592Y101503D01*
X163524Y101464D01*
X163459Y101421D01*
X163396Y101375D01*
X163335Y101326D01*
X163277Y101274D01*
X163222Y101219D01*
X163169Y101162D01*
X163120Y101102D01*
X163073Y101039D01*
X163030Y100975D01*
X162990Y100908D01*
X162953Y100839D01*
X162920Y100768D01*
X162890Y100696D01*
X162864Y100623D01*
X165143Y99550D02*
X165192Y99599D01*
X165239Y99651D01*
X165282Y99706D01*
X165323Y99763D01*
X165361Y99822D01*
X165395Y99883D01*
X165426Y99946D01*
X165454Y100010D01*
X165478Y100076D01*
X165498Y100142D01*
X165515Y100210D01*
X165528Y100279D01*
X165537Y100348D01*
X165543Y100418D01*
X165545Y100488D01*
X165143Y99550D02*
X162864Y96869D01*
X165545Y96869D01*
X252488Y177165D02*
X252488Y181991D01*
X253829Y181991D01*
X253900Y181989D01*
X253972Y181983D01*
X254042Y181974D01*
X254112Y181961D01*
X254182Y181944D01*
X254250Y181923D01*
X254317Y181899D01*
X254383Y181871D01*
X254447Y181840D01*
X254510Y181805D01*
X254570Y181767D01*
X254629Y181726D01*
X254685Y181682D01*
X254739Y181635D01*
X254790Y181586D01*
X254838Y181533D01*
X254884Y181478D01*
X254926Y181421D01*
X254966Y181361D01*
X255002Y181300D01*
X255035Y181236D01*
X255064Y181171D01*
X255090Y181105D01*
X255113Y181037D01*
X255132Y180968D01*
X255147Y180898D01*
X255158Y180828D01*
X255166Y180757D01*
X255170Y180686D01*
X255170Y180614D01*
X255166Y180543D01*
X255158Y180472D01*
X255147Y180402D01*
X255132Y180332D01*
X255113Y180263D01*
X255090Y180195D01*
X255064Y180129D01*
X255035Y180064D01*
X255002Y180000D01*
X254966Y179939D01*
X254926Y179879D01*
X254884Y179822D01*
X254838Y179767D01*
X254790Y179714D01*
X254739Y179665D01*
X254685Y179618D01*
X254629Y179574D01*
X254570Y179533D01*
X254510Y179495D01*
X254447Y179460D01*
X254383Y179429D01*
X254317Y179401D01*
X254250Y179377D01*
X254182Y179356D01*
X254112Y179339D01*
X254042Y179326D01*
X253972Y179317D01*
X253900Y179311D01*
X253829Y179309D01*
X253829Y179310D02*
X252488Y179310D01*
X254097Y179310D02*
X255169Y177165D01*
X259385Y181991D02*
X259453Y181989D01*
X259520Y181983D01*
X259587Y181974D01*
X259654Y181961D01*
X259719Y181944D01*
X259784Y181923D01*
X259847Y181899D01*
X259909Y181871D01*
X259969Y181840D01*
X260027Y181806D01*
X260083Y181768D01*
X260138Y181728D01*
X260189Y181684D01*
X260238Y181637D01*
X260285Y181588D01*
X260329Y181537D01*
X260369Y181482D01*
X260407Y181426D01*
X260441Y181368D01*
X260472Y181308D01*
X260500Y181246D01*
X260524Y181183D01*
X260545Y181118D01*
X260562Y181053D01*
X260575Y180986D01*
X260584Y180919D01*
X260590Y180852D01*
X260592Y180784D01*
X259385Y181991D02*
X259307Y181989D01*
X259229Y181983D01*
X259152Y181973D01*
X259075Y181960D01*
X258999Y181942D01*
X258924Y181921D01*
X258850Y181896D01*
X258778Y181867D01*
X258707Y181835D01*
X258638Y181799D01*
X258570Y181760D01*
X258505Y181717D01*
X258442Y181671D01*
X258381Y181622D01*
X258323Y181570D01*
X258268Y181515D01*
X258215Y181458D01*
X258166Y181398D01*
X258119Y181335D01*
X258076Y181271D01*
X258036Y181204D01*
X257999Y181135D01*
X257966Y181064D01*
X257936Y180992D01*
X257910Y180919D01*
X260190Y179846D02*
X260239Y179895D01*
X260286Y179947D01*
X260329Y180002D01*
X260370Y180059D01*
X260408Y180118D01*
X260442Y180179D01*
X260473Y180242D01*
X260501Y180306D01*
X260525Y180372D01*
X260545Y180438D01*
X260562Y180506D01*
X260575Y180575D01*
X260584Y180644D01*
X260590Y180714D01*
X260592Y180784D01*
X260190Y179846D02*
X257911Y177165D01*
X260592Y177165D01*
X327418Y243205D02*
X327418Y248031D01*
X328759Y248031D01*
X328830Y248029D01*
X328902Y248023D01*
X328972Y248014D01*
X329042Y248001D01*
X329112Y247984D01*
X329180Y247963D01*
X329247Y247939D01*
X329313Y247911D01*
X329377Y247880D01*
X329440Y247845D01*
X329500Y247807D01*
X329559Y247766D01*
X329615Y247722D01*
X329669Y247675D01*
X329720Y247626D01*
X329768Y247573D01*
X329814Y247518D01*
X329856Y247461D01*
X329896Y247401D01*
X329932Y247340D01*
X329965Y247276D01*
X329994Y247211D01*
X330020Y247145D01*
X330043Y247077D01*
X330062Y247008D01*
X330077Y246938D01*
X330088Y246868D01*
X330096Y246797D01*
X330100Y246726D01*
X330100Y246654D01*
X330096Y246583D01*
X330088Y246512D01*
X330077Y246442D01*
X330062Y246372D01*
X330043Y246303D01*
X330020Y246235D01*
X329994Y246169D01*
X329965Y246104D01*
X329932Y246040D01*
X329896Y245979D01*
X329856Y245919D01*
X329814Y245862D01*
X329768Y245807D01*
X329720Y245754D01*
X329669Y245705D01*
X329615Y245658D01*
X329559Y245614D01*
X329500Y245573D01*
X329440Y245535D01*
X329377Y245500D01*
X329313Y245469D01*
X329247Y245441D01*
X329180Y245417D01*
X329112Y245396D01*
X329042Y245379D01*
X328972Y245366D01*
X328902Y245357D01*
X328830Y245351D01*
X328759Y245349D01*
X328759Y245350D02*
X327418Y245350D01*
X329027Y245350D02*
X330099Y243205D01*
X332841Y243205D02*
X334181Y243205D01*
X334252Y243207D01*
X334324Y243213D01*
X334394Y243222D01*
X334464Y243235D01*
X334534Y243252D01*
X334602Y243273D01*
X334669Y243297D01*
X334735Y243325D01*
X334799Y243356D01*
X334862Y243391D01*
X334922Y243429D01*
X334981Y243470D01*
X335037Y243514D01*
X335091Y243561D01*
X335142Y243610D01*
X335190Y243663D01*
X335236Y243718D01*
X335278Y243775D01*
X335318Y243835D01*
X335354Y243896D01*
X335387Y243960D01*
X335416Y244025D01*
X335442Y244091D01*
X335465Y244159D01*
X335484Y244228D01*
X335499Y244298D01*
X335510Y244368D01*
X335518Y244439D01*
X335522Y244510D01*
X335522Y244582D01*
X335518Y244653D01*
X335510Y244724D01*
X335499Y244794D01*
X335484Y244864D01*
X335465Y244933D01*
X335442Y245001D01*
X335416Y245067D01*
X335387Y245132D01*
X335354Y245196D01*
X335318Y245257D01*
X335278Y245317D01*
X335236Y245374D01*
X335190Y245429D01*
X335142Y245482D01*
X335091Y245531D01*
X335037Y245578D01*
X334981Y245622D01*
X334922Y245663D01*
X334862Y245701D01*
X334799Y245736D01*
X334735Y245767D01*
X334669Y245795D01*
X334602Y245819D01*
X334534Y245840D01*
X334464Y245857D01*
X334394Y245870D01*
X334324Y245879D01*
X334252Y245885D01*
X334181Y245887D01*
X334449Y248031D02*
X332841Y248031D01*
X334449Y248031D02*
X334514Y248029D01*
X334578Y248023D01*
X334642Y248013D01*
X334706Y248000D01*
X334768Y247982D01*
X334829Y247961D01*
X334889Y247937D01*
X334947Y247908D01*
X335004Y247876D01*
X335058Y247841D01*
X335110Y247803D01*
X335160Y247761D01*
X335207Y247717D01*
X335251Y247670D01*
X335293Y247620D01*
X335331Y247568D01*
X335366Y247514D01*
X335398Y247457D01*
X335427Y247399D01*
X335451Y247339D01*
X335472Y247278D01*
X335490Y247216D01*
X335503Y247152D01*
X335513Y247088D01*
X335519Y247024D01*
X335521Y246959D01*
X335519Y246894D01*
X335513Y246830D01*
X335503Y246766D01*
X335490Y246702D01*
X335472Y246640D01*
X335451Y246579D01*
X335427Y246519D01*
X335398Y246461D01*
X335366Y246404D01*
X335331Y246350D01*
X335293Y246298D01*
X335251Y246248D01*
X335207Y246201D01*
X335160Y246157D01*
X335110Y246115D01*
X335058Y246077D01*
X335004Y246042D01*
X334947Y246010D01*
X334889Y245981D01*
X334829Y245957D01*
X334768Y245936D01*
X334706Y245918D01*
X334642Y245905D01*
X334578Y245895D01*
X334514Y245889D01*
X334449Y245887D01*
X334449Y245886D02*
X333377Y245886D01*
X268351Y139458D02*
X263525Y139458D01*
X263525Y140799D01*
X263527Y140870D01*
X263533Y140942D01*
X263542Y141012D01*
X263555Y141082D01*
X263572Y141152D01*
X263593Y141220D01*
X263617Y141287D01*
X263645Y141353D01*
X263676Y141417D01*
X263711Y141480D01*
X263749Y141540D01*
X263790Y141599D01*
X263834Y141655D01*
X263881Y141709D01*
X263930Y141760D01*
X263983Y141808D01*
X264038Y141854D01*
X264095Y141896D01*
X264155Y141936D01*
X264216Y141972D01*
X264280Y142005D01*
X264345Y142034D01*
X264411Y142060D01*
X264479Y142083D01*
X264548Y142102D01*
X264618Y142117D01*
X264688Y142128D01*
X264759Y142136D01*
X264830Y142140D01*
X264902Y142140D01*
X264973Y142136D01*
X265044Y142128D01*
X265114Y142117D01*
X265184Y142102D01*
X265253Y142083D01*
X265321Y142060D01*
X265387Y142034D01*
X265452Y142005D01*
X265516Y141972D01*
X265577Y141936D01*
X265637Y141896D01*
X265694Y141854D01*
X265749Y141808D01*
X265802Y141760D01*
X265851Y141709D01*
X265898Y141655D01*
X265942Y141599D01*
X265983Y141540D01*
X266021Y141480D01*
X266056Y141417D01*
X266087Y141353D01*
X266115Y141287D01*
X266139Y141220D01*
X266160Y141152D01*
X266177Y141082D01*
X266190Y141012D01*
X266199Y140942D01*
X266205Y140870D01*
X266207Y140799D01*
X266206Y140799D02*
X266206Y139458D01*
X266206Y141067D02*
X268351Y142139D01*
X267279Y144881D02*
X263525Y145953D01*
X267279Y144881D02*
X267279Y147562D01*
X266206Y146758D02*
X268351Y146758D01*
X186448Y202819D02*
X186448Y207645D01*
X187789Y207645D01*
X187860Y207643D01*
X187932Y207637D01*
X188002Y207628D01*
X188072Y207615D01*
X188142Y207598D01*
X188210Y207577D01*
X188277Y207553D01*
X188343Y207525D01*
X188407Y207494D01*
X188470Y207459D01*
X188530Y207421D01*
X188589Y207380D01*
X188645Y207336D01*
X188699Y207289D01*
X188750Y207240D01*
X188798Y207187D01*
X188844Y207132D01*
X188886Y207075D01*
X188926Y207015D01*
X188962Y206954D01*
X188995Y206890D01*
X189024Y206825D01*
X189050Y206759D01*
X189073Y206691D01*
X189092Y206622D01*
X189107Y206552D01*
X189118Y206482D01*
X189126Y206411D01*
X189130Y206340D01*
X189130Y206268D01*
X189126Y206197D01*
X189118Y206126D01*
X189107Y206056D01*
X189092Y205986D01*
X189073Y205917D01*
X189050Y205849D01*
X189024Y205783D01*
X188995Y205718D01*
X188962Y205654D01*
X188926Y205593D01*
X188886Y205533D01*
X188844Y205476D01*
X188798Y205421D01*
X188750Y205368D01*
X188699Y205319D01*
X188645Y205272D01*
X188589Y205228D01*
X188530Y205187D01*
X188470Y205149D01*
X188407Y205114D01*
X188343Y205083D01*
X188277Y205055D01*
X188210Y205031D01*
X188142Y205010D01*
X188072Y204993D01*
X188002Y204980D01*
X187932Y204971D01*
X187860Y204965D01*
X187789Y204963D01*
X187789Y204964D02*
X186448Y204964D01*
X188057Y204964D02*
X189129Y202819D01*
X191871Y202819D02*
X193479Y202819D01*
X193544Y202821D01*
X193608Y202827D01*
X193672Y202837D01*
X193736Y202850D01*
X193798Y202868D01*
X193859Y202889D01*
X193919Y202913D01*
X193977Y202942D01*
X194034Y202974D01*
X194088Y203009D01*
X194140Y203047D01*
X194190Y203089D01*
X194237Y203133D01*
X194281Y203180D01*
X194323Y203230D01*
X194361Y203282D01*
X194396Y203336D01*
X194428Y203393D01*
X194457Y203451D01*
X194481Y203511D01*
X194502Y203572D01*
X194520Y203634D01*
X194533Y203698D01*
X194543Y203762D01*
X194549Y203826D01*
X194551Y203891D01*
X194552Y203891D02*
X194552Y204428D01*
X194551Y204428D02*
X194549Y204493D01*
X194543Y204557D01*
X194533Y204621D01*
X194520Y204685D01*
X194502Y204747D01*
X194481Y204808D01*
X194457Y204868D01*
X194428Y204926D01*
X194396Y204983D01*
X194361Y205037D01*
X194323Y205089D01*
X194281Y205139D01*
X194237Y205186D01*
X194190Y205230D01*
X194140Y205272D01*
X194088Y205310D01*
X194034Y205345D01*
X193977Y205377D01*
X193919Y205406D01*
X193859Y205430D01*
X193798Y205451D01*
X193736Y205469D01*
X193672Y205482D01*
X193608Y205492D01*
X193544Y205498D01*
X193479Y205500D01*
X191871Y205500D01*
X191871Y207645D01*
X194552Y207645D01*
X242328Y74295D02*
X242328Y69469D01*
X242328Y74295D02*
X243669Y74295D01*
X243740Y74293D01*
X243812Y74287D01*
X243882Y74278D01*
X243952Y74265D01*
X244022Y74248D01*
X244090Y74227D01*
X244157Y74203D01*
X244223Y74175D01*
X244287Y74144D01*
X244350Y74109D01*
X244410Y74071D01*
X244469Y74030D01*
X244525Y73986D01*
X244579Y73939D01*
X244630Y73890D01*
X244678Y73837D01*
X244724Y73782D01*
X244766Y73725D01*
X244806Y73665D01*
X244842Y73604D01*
X244875Y73540D01*
X244904Y73475D01*
X244930Y73409D01*
X244953Y73341D01*
X244972Y73272D01*
X244987Y73202D01*
X244998Y73132D01*
X245006Y73061D01*
X245010Y72990D01*
X245010Y72918D01*
X245006Y72847D01*
X244998Y72776D01*
X244987Y72706D01*
X244972Y72636D01*
X244953Y72567D01*
X244930Y72499D01*
X244904Y72433D01*
X244875Y72368D01*
X244842Y72304D01*
X244806Y72243D01*
X244766Y72183D01*
X244724Y72126D01*
X244678Y72071D01*
X244630Y72018D01*
X244579Y71969D01*
X244525Y71922D01*
X244469Y71878D01*
X244410Y71837D01*
X244350Y71799D01*
X244287Y71764D01*
X244223Y71733D01*
X244157Y71705D01*
X244090Y71681D01*
X244022Y71660D01*
X243952Y71643D01*
X243882Y71630D01*
X243812Y71621D01*
X243740Y71615D01*
X243669Y71613D01*
X243669Y71614D02*
X242328Y71614D01*
X243937Y71614D02*
X245009Y69469D01*
X247751Y72150D02*
X249359Y72150D01*
X249424Y72148D01*
X249488Y72142D01*
X249552Y72132D01*
X249616Y72119D01*
X249678Y72101D01*
X249739Y72080D01*
X249799Y72056D01*
X249857Y72027D01*
X249914Y71995D01*
X249968Y71960D01*
X250020Y71922D01*
X250070Y71880D01*
X250117Y71836D01*
X250161Y71789D01*
X250203Y71739D01*
X250241Y71687D01*
X250276Y71633D01*
X250308Y71576D01*
X250337Y71518D01*
X250361Y71458D01*
X250382Y71397D01*
X250400Y71335D01*
X250413Y71271D01*
X250423Y71207D01*
X250429Y71143D01*
X250431Y71078D01*
X250432Y71078D02*
X250432Y70810D01*
X250430Y70739D01*
X250424Y70667D01*
X250415Y70597D01*
X250402Y70527D01*
X250385Y70457D01*
X250364Y70389D01*
X250340Y70322D01*
X250312Y70256D01*
X250281Y70192D01*
X250246Y70129D01*
X250208Y70069D01*
X250167Y70010D01*
X250123Y69954D01*
X250076Y69900D01*
X250027Y69849D01*
X249974Y69801D01*
X249919Y69755D01*
X249862Y69713D01*
X249802Y69673D01*
X249741Y69637D01*
X249677Y69604D01*
X249612Y69575D01*
X249546Y69549D01*
X249478Y69526D01*
X249409Y69507D01*
X249339Y69492D01*
X249269Y69481D01*
X249198Y69473D01*
X249127Y69469D01*
X249055Y69469D01*
X248984Y69473D01*
X248913Y69481D01*
X248843Y69492D01*
X248773Y69507D01*
X248704Y69526D01*
X248636Y69549D01*
X248570Y69575D01*
X248505Y69604D01*
X248441Y69637D01*
X248380Y69673D01*
X248320Y69713D01*
X248263Y69755D01*
X248208Y69801D01*
X248155Y69849D01*
X248106Y69900D01*
X248059Y69954D01*
X248015Y70010D01*
X247974Y70069D01*
X247936Y70129D01*
X247901Y70192D01*
X247870Y70256D01*
X247842Y70322D01*
X247818Y70389D01*
X247797Y70457D01*
X247780Y70527D01*
X247767Y70597D01*
X247758Y70667D01*
X247752Y70739D01*
X247750Y70810D01*
X247751Y70810D02*
X247751Y72150D01*
X247753Y72241D01*
X247759Y72332D01*
X247768Y72422D01*
X247782Y72513D01*
X247799Y72602D01*
X247820Y72690D01*
X247845Y72778D01*
X247874Y72865D01*
X247906Y72950D01*
X247941Y73034D01*
X247981Y73116D01*
X248023Y73196D01*
X248069Y73275D01*
X248119Y73351D01*
X248171Y73425D01*
X248227Y73498D01*
X248286Y73567D01*
X248347Y73634D01*
X248412Y73699D01*
X248479Y73760D01*
X248548Y73819D01*
X248620Y73875D01*
X248695Y73927D01*
X248771Y73977D01*
X248850Y74023D01*
X248930Y74065D01*
X249012Y74105D01*
X249096Y74140D01*
X249181Y74172D01*
X249268Y74201D01*
X249355Y74226D01*
X249444Y74247D01*
X249533Y74264D01*
X249624Y74278D01*
X249714Y74287D01*
X249805Y74293D01*
X249896Y74295D01*
X25781Y78498D02*
X20955Y78498D01*
X20955Y79839D01*
X20957Y79910D01*
X20963Y79982D01*
X20972Y80052D01*
X20985Y80122D01*
X21002Y80192D01*
X21023Y80260D01*
X21047Y80327D01*
X21075Y80393D01*
X21106Y80457D01*
X21141Y80520D01*
X21179Y80580D01*
X21220Y80639D01*
X21264Y80695D01*
X21311Y80749D01*
X21360Y80800D01*
X21413Y80848D01*
X21468Y80894D01*
X21525Y80936D01*
X21585Y80976D01*
X21646Y81012D01*
X21710Y81045D01*
X21775Y81074D01*
X21841Y81100D01*
X21909Y81123D01*
X21978Y81142D01*
X22048Y81157D01*
X22118Y81168D01*
X22189Y81176D01*
X22260Y81180D01*
X22332Y81180D01*
X22403Y81176D01*
X22474Y81168D01*
X22544Y81157D01*
X22614Y81142D01*
X22683Y81123D01*
X22751Y81100D01*
X22817Y81074D01*
X22882Y81045D01*
X22946Y81012D01*
X23007Y80976D01*
X23067Y80936D01*
X23124Y80894D01*
X23179Y80848D01*
X23232Y80800D01*
X23281Y80749D01*
X23328Y80695D01*
X23372Y80639D01*
X23413Y80580D01*
X23451Y80520D01*
X23486Y80457D01*
X23517Y80393D01*
X23545Y80327D01*
X23569Y80260D01*
X23590Y80192D01*
X23607Y80122D01*
X23620Y80052D01*
X23629Y79982D01*
X23635Y79910D01*
X23637Y79839D01*
X23636Y79839D02*
X23636Y78498D01*
X23636Y80107D02*
X25781Y81179D01*
X21491Y83921D02*
X20955Y83921D01*
X20955Y86602D01*
X25781Y85261D01*
X50419Y129298D02*
X55245Y129298D01*
X50419Y129298D02*
X50419Y130639D01*
X50421Y130710D01*
X50427Y130782D01*
X50436Y130852D01*
X50449Y130922D01*
X50466Y130992D01*
X50487Y131060D01*
X50511Y131127D01*
X50539Y131193D01*
X50570Y131257D01*
X50605Y131320D01*
X50643Y131380D01*
X50684Y131439D01*
X50728Y131495D01*
X50775Y131549D01*
X50824Y131600D01*
X50877Y131648D01*
X50932Y131694D01*
X50989Y131736D01*
X51049Y131776D01*
X51110Y131812D01*
X51174Y131845D01*
X51239Y131874D01*
X51305Y131900D01*
X51373Y131923D01*
X51442Y131942D01*
X51512Y131957D01*
X51582Y131968D01*
X51653Y131976D01*
X51724Y131980D01*
X51796Y131980D01*
X51867Y131976D01*
X51938Y131968D01*
X52008Y131957D01*
X52078Y131942D01*
X52147Y131923D01*
X52215Y131900D01*
X52281Y131874D01*
X52346Y131845D01*
X52410Y131812D01*
X52471Y131776D01*
X52531Y131736D01*
X52588Y131694D01*
X52643Y131648D01*
X52696Y131600D01*
X52745Y131549D01*
X52792Y131495D01*
X52836Y131439D01*
X52877Y131380D01*
X52915Y131320D01*
X52950Y131257D01*
X52981Y131193D01*
X53009Y131127D01*
X53033Y131060D01*
X53054Y130992D01*
X53071Y130922D01*
X53084Y130852D01*
X53093Y130782D01*
X53099Y130710D01*
X53101Y130639D01*
X53100Y130639D02*
X53100Y129298D01*
X53100Y130907D02*
X55245Y131979D01*
X53904Y134720D02*
X53833Y134722D01*
X53761Y134728D01*
X53691Y134737D01*
X53621Y134750D01*
X53551Y134767D01*
X53483Y134788D01*
X53416Y134812D01*
X53350Y134840D01*
X53286Y134871D01*
X53223Y134906D01*
X53163Y134944D01*
X53104Y134985D01*
X53048Y135029D01*
X52994Y135076D01*
X52943Y135125D01*
X52895Y135178D01*
X52849Y135233D01*
X52807Y135290D01*
X52767Y135350D01*
X52731Y135411D01*
X52698Y135475D01*
X52669Y135540D01*
X52643Y135606D01*
X52620Y135674D01*
X52601Y135743D01*
X52586Y135813D01*
X52575Y135883D01*
X52567Y135954D01*
X52563Y136025D01*
X52563Y136097D01*
X52567Y136168D01*
X52575Y136239D01*
X52586Y136309D01*
X52601Y136379D01*
X52620Y136448D01*
X52643Y136516D01*
X52669Y136582D01*
X52698Y136647D01*
X52731Y136711D01*
X52767Y136772D01*
X52807Y136832D01*
X52849Y136889D01*
X52895Y136944D01*
X52943Y136997D01*
X52994Y137046D01*
X53048Y137093D01*
X53104Y137137D01*
X53163Y137178D01*
X53223Y137216D01*
X53286Y137251D01*
X53350Y137282D01*
X53416Y137310D01*
X53483Y137334D01*
X53551Y137355D01*
X53621Y137372D01*
X53691Y137385D01*
X53761Y137394D01*
X53833Y137400D01*
X53904Y137402D01*
X53975Y137400D01*
X54047Y137394D01*
X54117Y137385D01*
X54187Y137372D01*
X54257Y137355D01*
X54325Y137334D01*
X54392Y137310D01*
X54458Y137282D01*
X54522Y137251D01*
X54585Y137216D01*
X54645Y137178D01*
X54704Y137137D01*
X54760Y137093D01*
X54814Y137046D01*
X54865Y136997D01*
X54913Y136944D01*
X54959Y136889D01*
X55001Y136832D01*
X55041Y136772D01*
X55077Y136711D01*
X55110Y136647D01*
X55139Y136582D01*
X55165Y136516D01*
X55188Y136448D01*
X55207Y136379D01*
X55222Y136309D01*
X55233Y136239D01*
X55241Y136168D01*
X55245Y136097D01*
X55245Y136025D01*
X55241Y135954D01*
X55233Y135883D01*
X55222Y135813D01*
X55207Y135743D01*
X55188Y135674D01*
X55165Y135606D01*
X55139Y135540D01*
X55110Y135475D01*
X55077Y135411D01*
X55041Y135350D01*
X55001Y135290D01*
X54959Y135233D01*
X54913Y135178D01*
X54865Y135125D01*
X54814Y135076D01*
X54760Y135029D01*
X54704Y134985D01*
X54645Y134944D01*
X54585Y134906D01*
X54522Y134871D01*
X54458Y134840D01*
X54392Y134812D01*
X54325Y134788D01*
X54257Y134767D01*
X54187Y134750D01*
X54117Y134737D01*
X54047Y134728D01*
X53975Y134722D01*
X53904Y134720D01*
X51491Y134989D02*
X51426Y134991D01*
X51362Y134997D01*
X51298Y135007D01*
X51234Y135020D01*
X51172Y135038D01*
X51111Y135059D01*
X51051Y135083D01*
X50993Y135112D01*
X50936Y135144D01*
X50882Y135179D01*
X50830Y135217D01*
X50780Y135259D01*
X50733Y135303D01*
X50689Y135350D01*
X50647Y135400D01*
X50609Y135452D01*
X50574Y135506D01*
X50542Y135563D01*
X50513Y135621D01*
X50489Y135681D01*
X50468Y135742D01*
X50450Y135804D01*
X50437Y135868D01*
X50427Y135932D01*
X50421Y135996D01*
X50419Y136061D01*
X50421Y136126D01*
X50427Y136190D01*
X50437Y136254D01*
X50450Y136318D01*
X50468Y136380D01*
X50489Y136441D01*
X50513Y136501D01*
X50542Y136559D01*
X50574Y136616D01*
X50609Y136670D01*
X50647Y136722D01*
X50689Y136772D01*
X50733Y136819D01*
X50780Y136863D01*
X50830Y136905D01*
X50882Y136943D01*
X50936Y136978D01*
X50993Y137010D01*
X51051Y137039D01*
X51111Y137063D01*
X51172Y137084D01*
X51234Y137102D01*
X51298Y137115D01*
X51362Y137125D01*
X51426Y137131D01*
X51491Y137133D01*
X51556Y137131D01*
X51620Y137125D01*
X51684Y137115D01*
X51748Y137102D01*
X51810Y137084D01*
X51871Y137063D01*
X51931Y137039D01*
X51989Y137010D01*
X52046Y136978D01*
X52100Y136943D01*
X52152Y136905D01*
X52202Y136863D01*
X52249Y136819D01*
X52293Y136772D01*
X52335Y136722D01*
X52373Y136670D01*
X52408Y136616D01*
X52440Y136559D01*
X52469Y136501D01*
X52493Y136441D01*
X52514Y136380D01*
X52532Y136318D01*
X52545Y136254D01*
X52555Y136190D01*
X52561Y136126D01*
X52563Y136061D01*
X52561Y135996D01*
X52555Y135932D01*
X52545Y135868D01*
X52532Y135804D01*
X52514Y135742D01*
X52493Y135681D01*
X52469Y135621D01*
X52440Y135563D01*
X52408Y135506D01*
X52373Y135452D01*
X52335Y135400D01*
X52293Y135350D01*
X52249Y135303D01*
X52202Y135259D01*
X52152Y135217D01*
X52100Y135179D01*
X52046Y135144D01*
X51989Y135112D01*
X51931Y135083D01*
X51871Y135059D01*
X51810Y135038D01*
X51748Y135020D01*
X51684Y135007D01*
X51620Y134997D01*
X51556Y134991D01*
X51491Y134989D01*
X65119Y78498D02*
X69945Y78498D01*
X65119Y78498D02*
X65119Y79839D01*
X65121Y79910D01*
X65127Y79982D01*
X65136Y80052D01*
X65149Y80122D01*
X65166Y80192D01*
X65187Y80260D01*
X65211Y80327D01*
X65239Y80393D01*
X65270Y80457D01*
X65305Y80520D01*
X65343Y80580D01*
X65384Y80639D01*
X65428Y80695D01*
X65475Y80749D01*
X65524Y80800D01*
X65577Y80848D01*
X65632Y80894D01*
X65689Y80936D01*
X65749Y80976D01*
X65810Y81012D01*
X65874Y81045D01*
X65939Y81074D01*
X66005Y81100D01*
X66073Y81123D01*
X66142Y81142D01*
X66212Y81157D01*
X66282Y81168D01*
X66353Y81176D01*
X66424Y81180D01*
X66496Y81180D01*
X66567Y81176D01*
X66638Y81168D01*
X66708Y81157D01*
X66778Y81142D01*
X66847Y81123D01*
X66915Y81100D01*
X66981Y81074D01*
X67046Y81045D01*
X67110Y81012D01*
X67171Y80976D01*
X67231Y80936D01*
X67288Y80894D01*
X67343Y80848D01*
X67396Y80800D01*
X67445Y80749D01*
X67492Y80695D01*
X67536Y80639D01*
X67577Y80580D01*
X67615Y80520D01*
X67650Y80457D01*
X67681Y80393D01*
X67709Y80327D01*
X67733Y80260D01*
X67754Y80192D01*
X67771Y80122D01*
X67784Y80052D01*
X67793Y79982D01*
X67799Y79910D01*
X67801Y79839D01*
X67800Y79839D02*
X67800Y78498D01*
X67800Y80107D02*
X69945Y81179D01*
X67800Y84993D02*
X67800Y86602D01*
X67800Y84993D02*
X67798Y84928D01*
X67792Y84864D01*
X67782Y84800D01*
X67769Y84736D01*
X67751Y84674D01*
X67730Y84613D01*
X67706Y84553D01*
X67677Y84495D01*
X67645Y84438D01*
X67610Y84384D01*
X67572Y84332D01*
X67530Y84282D01*
X67486Y84235D01*
X67439Y84191D01*
X67389Y84149D01*
X67337Y84111D01*
X67283Y84076D01*
X67226Y84044D01*
X67168Y84015D01*
X67108Y83991D01*
X67047Y83970D01*
X66985Y83952D01*
X66921Y83939D01*
X66857Y83929D01*
X66793Y83923D01*
X66728Y83921D01*
X66460Y83921D01*
X66460Y83920D02*
X66389Y83922D01*
X66317Y83928D01*
X66247Y83937D01*
X66177Y83950D01*
X66107Y83967D01*
X66039Y83988D01*
X65972Y84012D01*
X65906Y84040D01*
X65842Y84071D01*
X65779Y84106D01*
X65719Y84144D01*
X65660Y84185D01*
X65604Y84229D01*
X65550Y84276D01*
X65499Y84325D01*
X65451Y84378D01*
X65405Y84433D01*
X65363Y84490D01*
X65323Y84550D01*
X65287Y84611D01*
X65254Y84675D01*
X65225Y84740D01*
X65199Y84806D01*
X65176Y84874D01*
X65157Y84943D01*
X65142Y85013D01*
X65131Y85083D01*
X65123Y85154D01*
X65119Y85225D01*
X65119Y85297D01*
X65123Y85368D01*
X65131Y85439D01*
X65142Y85509D01*
X65157Y85579D01*
X65176Y85648D01*
X65199Y85716D01*
X65225Y85782D01*
X65254Y85847D01*
X65287Y85911D01*
X65323Y85972D01*
X65363Y86032D01*
X65405Y86089D01*
X65451Y86144D01*
X65499Y86197D01*
X65550Y86246D01*
X65604Y86293D01*
X65660Y86337D01*
X65719Y86378D01*
X65779Y86416D01*
X65842Y86451D01*
X65906Y86482D01*
X65972Y86510D01*
X66039Y86534D01*
X66107Y86555D01*
X66177Y86572D01*
X66247Y86585D01*
X66317Y86594D01*
X66389Y86600D01*
X66460Y86602D01*
X67800Y86602D01*
X67891Y86600D01*
X67982Y86594D01*
X68072Y86585D01*
X68163Y86571D01*
X68252Y86554D01*
X68340Y86533D01*
X68428Y86508D01*
X68515Y86479D01*
X68600Y86447D01*
X68684Y86412D01*
X68766Y86372D01*
X68846Y86330D01*
X68925Y86284D01*
X69001Y86234D01*
X69075Y86182D01*
X69148Y86126D01*
X69217Y86067D01*
X69284Y86006D01*
X69349Y85941D01*
X69410Y85874D01*
X69469Y85805D01*
X69525Y85732D01*
X69577Y85658D01*
X69627Y85582D01*
X69673Y85503D01*
X69715Y85423D01*
X69755Y85341D01*
X69790Y85257D01*
X69822Y85172D01*
X69851Y85085D01*
X69876Y84997D01*
X69897Y84909D01*
X69914Y84820D01*
X69928Y84729D01*
X69937Y84639D01*
X69943Y84548D01*
X69945Y84457D01*
D13*
X165500Y141100D02*
X165500Y189100D01*
X215500Y189100D01*
X215500Y141100D01*
X165500Y141100D01*
X168910Y135890D02*
X168912Y136013D01*
X168918Y136137D01*
X168928Y136260D01*
X168942Y136382D01*
X168960Y136504D01*
X168982Y136626D01*
X169007Y136746D01*
X169037Y136866D01*
X169071Y136985D01*
X169108Y137103D01*
X169149Y137219D01*
X169194Y137334D01*
X169243Y137447D01*
X169295Y137559D01*
X169351Y137669D01*
X169410Y137777D01*
X169473Y137883D01*
X169539Y137987D01*
X169609Y138089D01*
X169682Y138189D01*
X169758Y138286D01*
X169837Y138381D01*
X169919Y138473D01*
X170004Y138562D01*
X170092Y138649D01*
X170183Y138732D01*
X170276Y138813D01*
X170372Y138891D01*
X170471Y138965D01*
X170571Y139036D01*
X170674Y139104D01*
X170779Y139169D01*
X170887Y139230D01*
X170996Y139288D01*
X171107Y139342D01*
X171219Y139392D01*
X171334Y139439D01*
X171449Y139482D01*
X171566Y139521D01*
X171684Y139557D01*
X171804Y139588D01*
X171924Y139616D01*
X172045Y139640D01*
X172167Y139660D01*
X172289Y139676D01*
X172412Y139688D01*
X172535Y139696D01*
X172658Y139700D01*
X172782Y139700D01*
X172905Y139696D01*
X173028Y139688D01*
X173151Y139676D01*
X173273Y139660D01*
X173395Y139640D01*
X173516Y139616D01*
X173636Y139588D01*
X173756Y139557D01*
X173874Y139521D01*
X173991Y139482D01*
X174106Y139439D01*
X174221Y139392D01*
X174333Y139342D01*
X174444Y139288D01*
X174553Y139230D01*
X174661Y139169D01*
X174766Y139104D01*
X174869Y139036D01*
X174969Y138965D01*
X175068Y138891D01*
X175164Y138813D01*
X175257Y138732D01*
X175348Y138649D01*
X175436Y138562D01*
X175521Y138473D01*
X175603Y138381D01*
X175682Y138286D01*
X175758Y138189D01*
X175831Y138089D01*
X175901Y137987D01*
X175967Y137883D01*
X176030Y137777D01*
X176089Y137669D01*
X176145Y137559D01*
X176197Y137447D01*
X176246Y137334D01*
X176291Y137219D01*
X176332Y137103D01*
X176369Y136985D01*
X176403Y136866D01*
X176433Y136746D01*
X176458Y136626D01*
X176480Y136504D01*
X176498Y136382D01*
X176512Y136260D01*
X176522Y136137D01*
X176528Y136013D01*
X176530Y135890D01*
X176528Y135767D01*
X176522Y135643D01*
X176512Y135520D01*
X176498Y135398D01*
X176480Y135276D01*
X176458Y135154D01*
X176433Y135034D01*
X176403Y134914D01*
X176369Y134795D01*
X176332Y134677D01*
X176291Y134561D01*
X176246Y134446D01*
X176197Y134333D01*
X176145Y134221D01*
X176089Y134111D01*
X176030Y134003D01*
X175967Y133897D01*
X175901Y133793D01*
X175831Y133691D01*
X175758Y133591D01*
X175682Y133494D01*
X175603Y133399D01*
X175521Y133307D01*
X175436Y133218D01*
X175348Y133131D01*
X175257Y133048D01*
X175164Y132967D01*
X175068Y132889D01*
X174969Y132815D01*
X174869Y132744D01*
X174766Y132676D01*
X174661Y132611D01*
X174553Y132550D01*
X174444Y132492D01*
X174333Y132438D01*
X174221Y132388D01*
X174106Y132341D01*
X173991Y132298D01*
X173874Y132259D01*
X173756Y132223D01*
X173636Y132192D01*
X173516Y132164D01*
X173395Y132140D01*
X173273Y132120D01*
X173151Y132104D01*
X173028Y132092D01*
X172905Y132084D01*
X172782Y132080D01*
X172658Y132080D01*
X172535Y132084D01*
X172412Y132092D01*
X172289Y132104D01*
X172167Y132120D01*
X172045Y132140D01*
X171924Y132164D01*
X171804Y132192D01*
X171684Y132223D01*
X171566Y132259D01*
X171449Y132298D01*
X171334Y132341D01*
X171219Y132388D01*
X171107Y132438D01*
X170996Y132492D01*
X170887Y132550D01*
X170779Y132611D01*
X170674Y132676D01*
X170571Y132744D01*
X170471Y132815D01*
X170372Y132889D01*
X170276Y132967D01*
X170183Y133048D01*
X170092Y133131D01*
X170004Y133218D01*
X169919Y133307D01*
X169837Y133399D01*
X169758Y133494D01*
X169682Y133591D01*
X169609Y133691D01*
X169539Y133793D01*
X169473Y133897D01*
X169410Y134003D01*
X169351Y134111D01*
X169295Y134221D01*
X169243Y134333D01*
X169194Y134446D01*
X169149Y134561D01*
X169108Y134677D01*
X169071Y134795D01*
X169037Y134914D01*
X169007Y135034D01*
X168982Y135154D01*
X168960Y135276D01*
X168942Y135398D01*
X168928Y135520D01*
X168918Y135643D01*
X168912Y135767D01*
X168910Y135890D01*
X180848Y135890D02*
X180850Y136013D01*
X180856Y136137D01*
X180866Y136260D01*
X180880Y136382D01*
X180898Y136504D01*
X180920Y136626D01*
X180945Y136746D01*
X180975Y136866D01*
X181009Y136985D01*
X181046Y137103D01*
X181087Y137219D01*
X181132Y137334D01*
X181181Y137447D01*
X181233Y137559D01*
X181289Y137669D01*
X181348Y137777D01*
X181411Y137883D01*
X181477Y137987D01*
X181547Y138089D01*
X181620Y138189D01*
X181696Y138286D01*
X181775Y138381D01*
X181857Y138473D01*
X181942Y138562D01*
X182030Y138649D01*
X182121Y138732D01*
X182214Y138813D01*
X182310Y138891D01*
X182409Y138965D01*
X182509Y139036D01*
X182612Y139104D01*
X182717Y139169D01*
X182825Y139230D01*
X182934Y139288D01*
X183045Y139342D01*
X183157Y139392D01*
X183272Y139439D01*
X183387Y139482D01*
X183504Y139521D01*
X183622Y139557D01*
X183742Y139588D01*
X183862Y139616D01*
X183983Y139640D01*
X184105Y139660D01*
X184227Y139676D01*
X184350Y139688D01*
X184473Y139696D01*
X184596Y139700D01*
X184720Y139700D01*
X184843Y139696D01*
X184966Y139688D01*
X185089Y139676D01*
X185211Y139660D01*
X185333Y139640D01*
X185454Y139616D01*
X185574Y139588D01*
X185694Y139557D01*
X185812Y139521D01*
X185929Y139482D01*
X186044Y139439D01*
X186159Y139392D01*
X186271Y139342D01*
X186382Y139288D01*
X186491Y139230D01*
X186599Y139169D01*
X186704Y139104D01*
X186807Y139036D01*
X186907Y138965D01*
X187006Y138891D01*
X187102Y138813D01*
X187195Y138732D01*
X187286Y138649D01*
X187374Y138562D01*
X187459Y138473D01*
X187541Y138381D01*
X187620Y138286D01*
X187696Y138189D01*
X187769Y138089D01*
X187839Y137987D01*
X187905Y137883D01*
X187968Y137777D01*
X188027Y137669D01*
X188083Y137559D01*
X188135Y137447D01*
X188184Y137334D01*
X188229Y137219D01*
X188270Y137103D01*
X188307Y136985D01*
X188341Y136866D01*
X188371Y136746D01*
X188396Y136626D01*
X188418Y136504D01*
X188436Y136382D01*
X188450Y136260D01*
X188460Y136137D01*
X188466Y136013D01*
X188468Y135890D01*
X188466Y135767D01*
X188460Y135643D01*
X188450Y135520D01*
X188436Y135398D01*
X188418Y135276D01*
X188396Y135154D01*
X188371Y135034D01*
X188341Y134914D01*
X188307Y134795D01*
X188270Y134677D01*
X188229Y134561D01*
X188184Y134446D01*
X188135Y134333D01*
X188083Y134221D01*
X188027Y134111D01*
X187968Y134003D01*
X187905Y133897D01*
X187839Y133793D01*
X187769Y133691D01*
X187696Y133591D01*
X187620Y133494D01*
X187541Y133399D01*
X187459Y133307D01*
X187374Y133218D01*
X187286Y133131D01*
X187195Y133048D01*
X187102Y132967D01*
X187006Y132889D01*
X186907Y132815D01*
X186807Y132744D01*
X186704Y132676D01*
X186599Y132611D01*
X186491Y132550D01*
X186382Y132492D01*
X186271Y132438D01*
X186159Y132388D01*
X186044Y132341D01*
X185929Y132298D01*
X185812Y132259D01*
X185694Y132223D01*
X185574Y132192D01*
X185454Y132164D01*
X185333Y132140D01*
X185211Y132120D01*
X185089Y132104D01*
X184966Y132092D01*
X184843Y132084D01*
X184720Y132080D01*
X184596Y132080D01*
X184473Y132084D01*
X184350Y132092D01*
X184227Y132104D01*
X184105Y132120D01*
X183983Y132140D01*
X183862Y132164D01*
X183742Y132192D01*
X183622Y132223D01*
X183504Y132259D01*
X183387Y132298D01*
X183272Y132341D01*
X183157Y132388D01*
X183045Y132438D01*
X182934Y132492D01*
X182825Y132550D01*
X182717Y132611D01*
X182612Y132676D01*
X182509Y132744D01*
X182409Y132815D01*
X182310Y132889D01*
X182214Y132967D01*
X182121Y133048D01*
X182030Y133131D01*
X181942Y133218D01*
X181857Y133307D01*
X181775Y133399D01*
X181696Y133494D01*
X181620Y133591D01*
X181547Y133691D01*
X181477Y133793D01*
X181411Y133897D01*
X181348Y134003D01*
X181289Y134111D01*
X181233Y134221D01*
X181181Y134333D01*
X181132Y134446D01*
X181087Y134561D01*
X181046Y134677D01*
X181009Y134795D01*
X180975Y134914D01*
X180945Y135034D01*
X180920Y135154D01*
X180898Y135276D01*
X180880Y135398D01*
X180866Y135520D01*
X180856Y135643D01*
X180850Y135767D01*
X180848Y135890D01*
X193802Y135890D02*
X193804Y136013D01*
X193810Y136137D01*
X193820Y136260D01*
X193834Y136382D01*
X193852Y136504D01*
X193874Y136626D01*
X193899Y136746D01*
X193929Y136866D01*
X193963Y136985D01*
X194000Y137103D01*
X194041Y137219D01*
X194086Y137334D01*
X194135Y137447D01*
X194187Y137559D01*
X194243Y137669D01*
X194302Y137777D01*
X194365Y137883D01*
X194431Y137987D01*
X194501Y138089D01*
X194574Y138189D01*
X194650Y138286D01*
X194729Y138381D01*
X194811Y138473D01*
X194896Y138562D01*
X194984Y138649D01*
X195075Y138732D01*
X195168Y138813D01*
X195264Y138891D01*
X195363Y138965D01*
X195463Y139036D01*
X195566Y139104D01*
X195671Y139169D01*
X195779Y139230D01*
X195888Y139288D01*
X195999Y139342D01*
X196111Y139392D01*
X196226Y139439D01*
X196341Y139482D01*
X196458Y139521D01*
X196576Y139557D01*
X196696Y139588D01*
X196816Y139616D01*
X196937Y139640D01*
X197059Y139660D01*
X197181Y139676D01*
X197304Y139688D01*
X197427Y139696D01*
X197550Y139700D01*
X197674Y139700D01*
X197797Y139696D01*
X197920Y139688D01*
X198043Y139676D01*
X198165Y139660D01*
X198287Y139640D01*
X198408Y139616D01*
X198528Y139588D01*
X198648Y139557D01*
X198766Y139521D01*
X198883Y139482D01*
X198998Y139439D01*
X199113Y139392D01*
X199225Y139342D01*
X199336Y139288D01*
X199445Y139230D01*
X199553Y139169D01*
X199658Y139104D01*
X199761Y139036D01*
X199861Y138965D01*
X199960Y138891D01*
X200056Y138813D01*
X200149Y138732D01*
X200240Y138649D01*
X200328Y138562D01*
X200413Y138473D01*
X200495Y138381D01*
X200574Y138286D01*
X200650Y138189D01*
X200723Y138089D01*
X200793Y137987D01*
X200859Y137883D01*
X200922Y137777D01*
X200981Y137669D01*
X201037Y137559D01*
X201089Y137447D01*
X201138Y137334D01*
X201183Y137219D01*
X201224Y137103D01*
X201261Y136985D01*
X201295Y136866D01*
X201325Y136746D01*
X201350Y136626D01*
X201372Y136504D01*
X201390Y136382D01*
X201404Y136260D01*
X201414Y136137D01*
X201420Y136013D01*
X201422Y135890D01*
X201420Y135767D01*
X201414Y135643D01*
X201404Y135520D01*
X201390Y135398D01*
X201372Y135276D01*
X201350Y135154D01*
X201325Y135034D01*
X201295Y134914D01*
X201261Y134795D01*
X201224Y134677D01*
X201183Y134561D01*
X201138Y134446D01*
X201089Y134333D01*
X201037Y134221D01*
X200981Y134111D01*
X200922Y134003D01*
X200859Y133897D01*
X200793Y133793D01*
X200723Y133691D01*
X200650Y133591D01*
X200574Y133494D01*
X200495Y133399D01*
X200413Y133307D01*
X200328Y133218D01*
X200240Y133131D01*
X200149Y133048D01*
X200056Y132967D01*
X199960Y132889D01*
X199861Y132815D01*
X199761Y132744D01*
X199658Y132676D01*
X199553Y132611D01*
X199445Y132550D01*
X199336Y132492D01*
X199225Y132438D01*
X199113Y132388D01*
X198998Y132341D01*
X198883Y132298D01*
X198766Y132259D01*
X198648Y132223D01*
X198528Y132192D01*
X198408Y132164D01*
X198287Y132140D01*
X198165Y132120D01*
X198043Y132104D01*
X197920Y132092D01*
X197797Y132084D01*
X197674Y132080D01*
X197550Y132080D01*
X197427Y132084D01*
X197304Y132092D01*
X197181Y132104D01*
X197059Y132120D01*
X196937Y132140D01*
X196816Y132164D01*
X196696Y132192D01*
X196576Y132223D01*
X196458Y132259D01*
X196341Y132298D01*
X196226Y132341D01*
X196111Y132388D01*
X195999Y132438D01*
X195888Y132492D01*
X195779Y132550D01*
X195671Y132611D01*
X195566Y132676D01*
X195463Y132744D01*
X195363Y132815D01*
X195264Y132889D01*
X195168Y132967D01*
X195075Y133048D01*
X194984Y133131D01*
X194896Y133218D01*
X194811Y133307D01*
X194729Y133399D01*
X194650Y133494D01*
X194574Y133591D01*
X194501Y133691D01*
X194431Y133793D01*
X194365Y133897D01*
X194302Y134003D01*
X194243Y134111D01*
X194187Y134221D01*
X194135Y134333D01*
X194086Y134446D01*
X194041Y134561D01*
X194000Y134677D01*
X193963Y134795D01*
X193929Y134914D01*
X193899Y135034D01*
X193874Y135154D01*
X193852Y135276D01*
X193834Y135398D01*
X193820Y135520D01*
X193810Y135643D01*
X193804Y135767D01*
X193802Y135890D01*
X205740Y135890D02*
X205742Y136013D01*
X205748Y136137D01*
X205758Y136260D01*
X205772Y136382D01*
X205790Y136504D01*
X205812Y136626D01*
X205837Y136746D01*
X205867Y136866D01*
X205901Y136985D01*
X205938Y137103D01*
X205979Y137219D01*
X206024Y137334D01*
X206073Y137447D01*
X206125Y137559D01*
X206181Y137669D01*
X206240Y137777D01*
X206303Y137883D01*
X206369Y137987D01*
X206439Y138089D01*
X206512Y138189D01*
X206588Y138286D01*
X206667Y138381D01*
X206749Y138473D01*
X206834Y138562D01*
X206922Y138649D01*
X207013Y138732D01*
X207106Y138813D01*
X207202Y138891D01*
X207301Y138965D01*
X207401Y139036D01*
X207504Y139104D01*
X207609Y139169D01*
X207717Y139230D01*
X207826Y139288D01*
X207937Y139342D01*
X208049Y139392D01*
X208164Y139439D01*
X208279Y139482D01*
X208396Y139521D01*
X208514Y139557D01*
X208634Y139588D01*
X208754Y139616D01*
X208875Y139640D01*
X208997Y139660D01*
X209119Y139676D01*
X209242Y139688D01*
X209365Y139696D01*
X209488Y139700D01*
X209612Y139700D01*
X209735Y139696D01*
X209858Y139688D01*
X209981Y139676D01*
X210103Y139660D01*
X210225Y139640D01*
X210346Y139616D01*
X210466Y139588D01*
X210586Y139557D01*
X210704Y139521D01*
X210821Y139482D01*
X210936Y139439D01*
X211051Y139392D01*
X211163Y139342D01*
X211274Y139288D01*
X211383Y139230D01*
X211491Y139169D01*
X211596Y139104D01*
X211699Y139036D01*
X211799Y138965D01*
X211898Y138891D01*
X211994Y138813D01*
X212087Y138732D01*
X212178Y138649D01*
X212266Y138562D01*
X212351Y138473D01*
X212433Y138381D01*
X212512Y138286D01*
X212588Y138189D01*
X212661Y138089D01*
X212731Y137987D01*
X212797Y137883D01*
X212860Y137777D01*
X212919Y137669D01*
X212975Y137559D01*
X213027Y137447D01*
X213076Y137334D01*
X213121Y137219D01*
X213162Y137103D01*
X213199Y136985D01*
X213233Y136866D01*
X213263Y136746D01*
X213288Y136626D01*
X213310Y136504D01*
X213328Y136382D01*
X213342Y136260D01*
X213352Y136137D01*
X213358Y136013D01*
X213360Y135890D01*
X213358Y135767D01*
X213352Y135643D01*
X213342Y135520D01*
X213328Y135398D01*
X213310Y135276D01*
X213288Y135154D01*
X213263Y135034D01*
X213233Y134914D01*
X213199Y134795D01*
X213162Y134677D01*
X213121Y134561D01*
X213076Y134446D01*
X213027Y134333D01*
X212975Y134221D01*
X212919Y134111D01*
X212860Y134003D01*
X212797Y133897D01*
X212731Y133793D01*
X212661Y133691D01*
X212588Y133591D01*
X212512Y133494D01*
X212433Y133399D01*
X212351Y133307D01*
X212266Y133218D01*
X212178Y133131D01*
X212087Y133048D01*
X211994Y132967D01*
X211898Y132889D01*
X211799Y132815D01*
X211699Y132744D01*
X211596Y132676D01*
X211491Y132611D01*
X211383Y132550D01*
X211274Y132492D01*
X211163Y132438D01*
X211051Y132388D01*
X210936Y132341D01*
X210821Y132298D01*
X210704Y132259D01*
X210586Y132223D01*
X210466Y132192D01*
X210346Y132164D01*
X210225Y132140D01*
X210103Y132120D01*
X209981Y132104D01*
X209858Y132092D01*
X209735Y132084D01*
X209612Y132080D01*
X209488Y132080D01*
X209365Y132084D01*
X209242Y132092D01*
X209119Y132104D01*
X208997Y132120D01*
X208875Y132140D01*
X208754Y132164D01*
X208634Y132192D01*
X208514Y132223D01*
X208396Y132259D01*
X208279Y132298D01*
X208164Y132341D01*
X208049Y132388D01*
X207937Y132438D01*
X207826Y132492D01*
X207717Y132550D01*
X207609Y132611D01*
X207504Y132676D01*
X207401Y132744D01*
X207301Y132815D01*
X207202Y132889D01*
X207106Y132967D01*
X207013Y133048D01*
X206922Y133131D01*
X206834Y133218D01*
X206749Y133307D01*
X206667Y133399D01*
X206588Y133494D01*
X206512Y133591D01*
X206439Y133691D01*
X206369Y133793D01*
X206303Y133897D01*
X206240Y134003D01*
X206181Y134111D01*
X206125Y134221D01*
X206073Y134333D01*
X206024Y134446D01*
X205979Y134561D01*
X205938Y134677D01*
X205901Y134795D01*
X205867Y134914D01*
X205837Y135034D01*
X205812Y135154D01*
X205790Y135276D01*
X205772Y135398D01*
X205758Y135520D01*
X205748Y135643D01*
X205742Y135767D01*
X205740Y135890D01*
X203200Y168910D02*
X203202Y168981D01*
X203208Y169052D01*
X203218Y169123D01*
X203232Y169193D01*
X203250Y169262D01*
X203271Y169329D01*
X203297Y169396D01*
X203326Y169461D01*
X203358Y169524D01*
X203395Y169586D01*
X203434Y169645D01*
X203477Y169702D01*
X203523Y169756D01*
X203572Y169808D01*
X203624Y169857D01*
X203678Y169903D01*
X203735Y169946D01*
X203794Y169985D01*
X203856Y170022D01*
X203919Y170054D01*
X203984Y170083D01*
X204051Y170109D01*
X204118Y170130D01*
X204187Y170148D01*
X204257Y170162D01*
X204328Y170172D01*
X204399Y170178D01*
X204470Y170180D01*
X204541Y170178D01*
X204612Y170172D01*
X204683Y170162D01*
X204753Y170148D01*
X204822Y170130D01*
X204889Y170109D01*
X204956Y170083D01*
X205021Y170054D01*
X205084Y170022D01*
X205146Y169985D01*
X205205Y169946D01*
X205262Y169903D01*
X205316Y169857D01*
X205368Y169808D01*
X205417Y169756D01*
X205463Y169702D01*
X205506Y169645D01*
X205545Y169586D01*
X205582Y169524D01*
X205614Y169461D01*
X205643Y169396D01*
X205669Y169329D01*
X205690Y169262D01*
X205708Y169193D01*
X205722Y169123D01*
X205732Y169052D01*
X205738Y168981D01*
X205740Y168910D01*
X205738Y168839D01*
X205732Y168768D01*
X205722Y168697D01*
X205708Y168627D01*
X205690Y168558D01*
X205669Y168491D01*
X205643Y168424D01*
X205614Y168359D01*
X205582Y168296D01*
X205545Y168234D01*
X205506Y168175D01*
X205463Y168118D01*
X205417Y168064D01*
X205368Y168012D01*
X205316Y167963D01*
X205262Y167917D01*
X205205Y167874D01*
X205146Y167835D01*
X205084Y167798D01*
X205021Y167766D01*
X204956Y167737D01*
X204889Y167711D01*
X204822Y167690D01*
X204753Y167672D01*
X204683Y167658D01*
X204612Y167648D01*
X204541Y167642D01*
X204470Y167640D01*
X204399Y167642D01*
X204328Y167648D01*
X204257Y167658D01*
X204187Y167672D01*
X204118Y167690D01*
X204051Y167711D01*
X203984Y167737D01*
X203919Y167766D01*
X203856Y167798D01*
X203794Y167835D01*
X203735Y167874D01*
X203678Y167917D01*
X203624Y167963D01*
X203572Y168012D01*
X203523Y168064D01*
X203477Y168118D01*
X203434Y168175D01*
X203395Y168234D01*
X203358Y168296D01*
X203326Y168359D01*
X203297Y168424D01*
X203271Y168491D01*
X203250Y168558D01*
X203232Y168627D01*
X203218Y168697D01*
X203208Y168768D01*
X203202Y168839D01*
X203200Y168910D01*
X155500Y198100D02*
X155500Y132100D01*
X220500Y132100D01*
X225500Y139700D01*
X225500Y198100D01*
X155500Y198100D01*
X87350Y172750D02*
X87350Y144750D01*
X115850Y144750D02*
X115850Y172750D01*
D14*
X116600Y176750D03*
D12*
X121285Y154575D02*
X124770Y154575D01*
X124770Y154574D02*
X124841Y154576D01*
X124913Y154582D01*
X124983Y154591D01*
X125053Y154604D01*
X125123Y154621D01*
X125191Y154642D01*
X125258Y154666D01*
X125324Y154694D01*
X125388Y154725D01*
X125451Y154760D01*
X125511Y154798D01*
X125570Y154839D01*
X125626Y154883D01*
X125680Y154930D01*
X125731Y154979D01*
X125779Y155032D01*
X125825Y155087D01*
X125867Y155144D01*
X125907Y155204D01*
X125943Y155265D01*
X125976Y155329D01*
X126005Y155394D01*
X126031Y155460D01*
X126054Y155528D01*
X126073Y155597D01*
X126088Y155667D01*
X126099Y155737D01*
X126107Y155808D01*
X126111Y155879D01*
X126111Y155951D01*
X126107Y156022D01*
X126099Y156093D01*
X126088Y156163D01*
X126073Y156233D01*
X126054Y156302D01*
X126031Y156370D01*
X126005Y156436D01*
X125976Y156501D01*
X125943Y156565D01*
X125907Y156626D01*
X125867Y156686D01*
X125825Y156743D01*
X125779Y156798D01*
X125731Y156851D01*
X125680Y156900D01*
X125626Y156947D01*
X125570Y156991D01*
X125511Y157032D01*
X125451Y157070D01*
X125388Y157105D01*
X125324Y157136D01*
X125258Y157164D01*
X125191Y157188D01*
X125123Y157209D01*
X125053Y157226D01*
X124983Y157239D01*
X124913Y157248D01*
X124841Y157254D01*
X124770Y157256D01*
X121285Y157256D01*
X121285Y161719D02*
X121287Y161787D01*
X121293Y161854D01*
X121302Y161921D01*
X121315Y161988D01*
X121332Y162053D01*
X121353Y162118D01*
X121377Y162181D01*
X121405Y162243D01*
X121436Y162303D01*
X121470Y162361D01*
X121508Y162417D01*
X121548Y162472D01*
X121592Y162523D01*
X121639Y162572D01*
X121688Y162619D01*
X121739Y162663D01*
X121794Y162703D01*
X121850Y162741D01*
X121908Y162775D01*
X121968Y162806D01*
X122030Y162834D01*
X122093Y162858D01*
X122158Y162879D01*
X122223Y162896D01*
X122290Y162909D01*
X122357Y162918D01*
X122424Y162924D01*
X122492Y162926D01*
X121285Y161719D02*
X121287Y161641D01*
X121293Y161563D01*
X121303Y161486D01*
X121316Y161409D01*
X121334Y161333D01*
X121355Y161258D01*
X121380Y161184D01*
X121409Y161112D01*
X121441Y161041D01*
X121477Y160972D01*
X121516Y160904D01*
X121559Y160839D01*
X121605Y160776D01*
X121654Y160715D01*
X121706Y160657D01*
X121761Y160602D01*
X121818Y160549D01*
X121878Y160500D01*
X121941Y160453D01*
X122006Y160410D01*
X122072Y160370D01*
X122141Y160333D01*
X122212Y160300D01*
X122284Y160270D01*
X122358Y160244D01*
X123430Y162523D02*
X123381Y162572D01*
X123329Y162619D01*
X123274Y162662D01*
X123217Y162703D01*
X123158Y162741D01*
X123097Y162775D01*
X123034Y162806D01*
X122970Y162834D01*
X122904Y162858D01*
X122838Y162878D01*
X122770Y162895D01*
X122701Y162908D01*
X122632Y162917D01*
X122562Y162923D01*
X122492Y162925D01*
X123430Y162523D02*
X126111Y160244D01*
X126111Y162925D01*
D13*
X273330Y127280D02*
X275830Y129780D01*
X274320Y153162D02*
X274320Y159766D01*
X307340Y159766D02*
X307340Y153162D01*
X307340Y136652D02*
X307340Y130048D01*
D12*
X89725Y40005D02*
X89725Y35179D01*
X89725Y40005D02*
X91065Y40005D01*
X91136Y40003D01*
X91208Y39997D01*
X91278Y39988D01*
X91348Y39975D01*
X91418Y39958D01*
X91486Y39937D01*
X91553Y39913D01*
X91619Y39885D01*
X91683Y39854D01*
X91746Y39819D01*
X91806Y39781D01*
X91865Y39740D01*
X91921Y39696D01*
X91975Y39649D01*
X92026Y39600D01*
X92074Y39547D01*
X92120Y39492D01*
X92162Y39435D01*
X92202Y39375D01*
X92238Y39314D01*
X92271Y39250D01*
X92300Y39185D01*
X92326Y39119D01*
X92349Y39051D01*
X92368Y38982D01*
X92383Y38912D01*
X92394Y38842D01*
X92402Y38771D01*
X92406Y38700D01*
X92406Y38628D01*
X92402Y38557D01*
X92394Y38486D01*
X92383Y38416D01*
X92368Y38346D01*
X92349Y38277D01*
X92326Y38209D01*
X92300Y38143D01*
X92271Y38078D01*
X92238Y38014D01*
X92202Y37953D01*
X92162Y37893D01*
X92120Y37836D01*
X92074Y37781D01*
X92026Y37728D01*
X91975Y37679D01*
X91921Y37632D01*
X91865Y37588D01*
X91806Y37547D01*
X91746Y37509D01*
X91683Y37474D01*
X91619Y37443D01*
X91553Y37415D01*
X91486Y37391D01*
X91418Y37370D01*
X91348Y37353D01*
X91278Y37340D01*
X91208Y37331D01*
X91136Y37325D01*
X91065Y37323D01*
X91065Y37324D02*
X89725Y37324D01*
X91334Y37324D02*
X92406Y35179D01*
X95148Y38933D02*
X96488Y40005D01*
X96488Y35179D01*
X95148Y35179D02*
X97829Y35179D01*
X100634Y35179D02*
X101974Y35179D01*
X102045Y35181D01*
X102117Y35187D01*
X102187Y35196D01*
X102257Y35209D01*
X102327Y35226D01*
X102395Y35247D01*
X102462Y35271D01*
X102528Y35299D01*
X102592Y35330D01*
X102655Y35365D01*
X102715Y35403D01*
X102774Y35444D01*
X102830Y35488D01*
X102884Y35535D01*
X102935Y35584D01*
X102983Y35637D01*
X103029Y35692D01*
X103071Y35749D01*
X103111Y35809D01*
X103147Y35870D01*
X103180Y35934D01*
X103209Y35999D01*
X103235Y36065D01*
X103258Y36133D01*
X103277Y36202D01*
X103292Y36272D01*
X103303Y36342D01*
X103311Y36413D01*
X103315Y36484D01*
X103315Y36556D01*
X103311Y36627D01*
X103303Y36698D01*
X103292Y36768D01*
X103277Y36838D01*
X103258Y36907D01*
X103235Y36975D01*
X103209Y37041D01*
X103180Y37106D01*
X103147Y37170D01*
X103111Y37231D01*
X103071Y37291D01*
X103029Y37348D01*
X102983Y37403D01*
X102935Y37456D01*
X102884Y37505D01*
X102830Y37552D01*
X102774Y37596D01*
X102715Y37637D01*
X102655Y37675D01*
X102592Y37710D01*
X102528Y37741D01*
X102462Y37769D01*
X102395Y37793D01*
X102327Y37814D01*
X102257Y37831D01*
X102187Y37844D01*
X102117Y37853D01*
X102045Y37859D01*
X101974Y37861D01*
X102243Y40005D02*
X100634Y40005D01*
X102243Y40005D02*
X102308Y40003D01*
X102372Y39997D01*
X102436Y39987D01*
X102500Y39974D01*
X102562Y39956D01*
X102623Y39935D01*
X102683Y39911D01*
X102741Y39882D01*
X102798Y39850D01*
X102852Y39815D01*
X102904Y39777D01*
X102954Y39735D01*
X103001Y39691D01*
X103045Y39644D01*
X103087Y39594D01*
X103125Y39542D01*
X103160Y39488D01*
X103192Y39431D01*
X103221Y39373D01*
X103245Y39313D01*
X103266Y39252D01*
X103284Y39190D01*
X103297Y39126D01*
X103307Y39062D01*
X103313Y38998D01*
X103315Y38933D01*
X103313Y38868D01*
X103307Y38804D01*
X103297Y38740D01*
X103284Y38676D01*
X103266Y38614D01*
X103245Y38553D01*
X103221Y38493D01*
X103192Y38435D01*
X103160Y38378D01*
X103125Y38324D01*
X103087Y38272D01*
X103045Y38222D01*
X103001Y38175D01*
X102954Y38131D01*
X102904Y38089D01*
X102852Y38051D01*
X102798Y38016D01*
X102741Y37984D01*
X102683Y37955D01*
X102623Y37931D01*
X102562Y37910D01*
X102500Y37892D01*
X102436Y37879D01*
X102372Y37869D01*
X102308Y37863D01*
X102243Y37861D01*
X102243Y37860D02*
X101170Y37860D01*
D13*
X80645Y32703D02*
X80645Y23178D01*
D12*
X92345Y20955D02*
X92345Y16129D01*
X92345Y20955D02*
X93685Y20955D01*
X93755Y20953D01*
X93825Y20948D01*
X93895Y20938D01*
X93964Y20926D01*
X94032Y20909D01*
X94099Y20889D01*
X94166Y20866D01*
X94230Y20839D01*
X94294Y20809D01*
X94356Y20775D01*
X94415Y20739D01*
X94473Y20699D01*
X94529Y20656D01*
X94582Y20611D01*
X94633Y20562D01*
X94682Y20511D01*
X94727Y20458D01*
X94770Y20402D01*
X94810Y20344D01*
X94846Y20285D01*
X94880Y20223D01*
X94910Y20159D01*
X94937Y20095D01*
X94960Y20028D01*
X94980Y19961D01*
X94997Y19893D01*
X95009Y19824D01*
X95019Y19754D01*
X95024Y19684D01*
X95026Y19614D01*
X95026Y17470D01*
X95024Y17400D01*
X95019Y17330D01*
X95009Y17260D01*
X94997Y17191D01*
X94980Y17123D01*
X94960Y17056D01*
X94937Y16989D01*
X94910Y16925D01*
X94880Y16861D01*
X94846Y16799D01*
X94810Y16740D01*
X94770Y16682D01*
X94727Y16626D01*
X94682Y16573D01*
X94633Y16522D01*
X94582Y16473D01*
X94529Y16428D01*
X94473Y16385D01*
X94415Y16345D01*
X94355Y16309D01*
X94294Y16275D01*
X94230Y16245D01*
X94166Y16218D01*
X94099Y16195D01*
X94032Y16175D01*
X93964Y16158D01*
X93895Y16146D01*
X93825Y16136D01*
X93755Y16131D01*
X93685Y16129D01*
X92345Y16129D01*
X98014Y19883D02*
X99355Y20955D01*
X99355Y16129D01*
X100695Y16129D02*
X98014Y16129D01*
X197824Y253167D02*
X197824Y256921D01*
X197823Y253167D02*
X197821Y253102D01*
X197815Y253038D01*
X197805Y252974D01*
X197792Y252910D01*
X197774Y252848D01*
X197753Y252787D01*
X197729Y252727D01*
X197700Y252669D01*
X197668Y252612D01*
X197633Y252558D01*
X197595Y252506D01*
X197553Y252456D01*
X197509Y252409D01*
X197462Y252365D01*
X197412Y252323D01*
X197360Y252285D01*
X197306Y252250D01*
X197249Y252218D01*
X197191Y252189D01*
X197131Y252165D01*
X197070Y252144D01*
X197008Y252126D01*
X196944Y252113D01*
X196880Y252103D01*
X196816Y252097D01*
X196751Y252095D01*
X196215Y252095D01*
X200772Y253167D02*
X201844Y256921D01*
X200772Y253167D02*
X203453Y253167D01*
X202648Y252095D02*
X202648Y254240D01*
X168614Y253167D02*
X168614Y256921D01*
X168613Y253167D02*
X168611Y253102D01*
X168605Y253038D01*
X168595Y252974D01*
X168582Y252910D01*
X168564Y252848D01*
X168543Y252787D01*
X168519Y252727D01*
X168490Y252669D01*
X168458Y252612D01*
X168423Y252558D01*
X168385Y252506D01*
X168343Y252456D01*
X168299Y252409D01*
X168252Y252365D01*
X168202Y252323D01*
X168150Y252285D01*
X168096Y252250D01*
X168039Y252218D01*
X167981Y252189D01*
X167921Y252165D01*
X167860Y252144D01*
X167798Y252126D01*
X167734Y252113D01*
X167670Y252103D01*
X167606Y252097D01*
X167541Y252095D01*
X167005Y252095D01*
X171562Y252095D02*
X173170Y252095D01*
X173235Y252097D01*
X173299Y252103D01*
X173363Y252113D01*
X173427Y252126D01*
X173489Y252144D01*
X173550Y252165D01*
X173610Y252189D01*
X173668Y252218D01*
X173725Y252250D01*
X173779Y252285D01*
X173831Y252323D01*
X173881Y252365D01*
X173928Y252409D01*
X173972Y252456D01*
X174014Y252506D01*
X174052Y252558D01*
X174087Y252612D01*
X174119Y252669D01*
X174148Y252727D01*
X174172Y252787D01*
X174193Y252848D01*
X174211Y252910D01*
X174224Y252974D01*
X174234Y253038D01*
X174240Y253102D01*
X174242Y253167D01*
X174243Y253167D02*
X174243Y253704D01*
X174242Y253704D02*
X174240Y253769D01*
X174234Y253833D01*
X174224Y253897D01*
X174211Y253961D01*
X174193Y254023D01*
X174172Y254084D01*
X174148Y254144D01*
X174119Y254202D01*
X174087Y254259D01*
X174052Y254313D01*
X174014Y254365D01*
X173972Y254415D01*
X173928Y254462D01*
X173881Y254506D01*
X173831Y254548D01*
X173779Y254586D01*
X173725Y254621D01*
X173668Y254653D01*
X173610Y254682D01*
X173550Y254706D01*
X173489Y254727D01*
X173427Y254745D01*
X173363Y254758D01*
X173299Y254768D01*
X173235Y254774D01*
X173170Y254776D01*
X171562Y254776D01*
X171562Y256921D01*
X174243Y256921D01*
M02*
