G04 EAGLE Gerber RS-274X export*
G75*
%MOMM*%
%FSLAX34Y34*%
%LPD*%
%INSilkscreen Bottom*%
%IPPOS*%
%AMOC8*
5,1,8,0,0,1.08239X$1,22.5*%
G01*
%ADD10C,0.152400*%
%ADD11C,0.127000*%
%ADD12C,0.203200*%

G36*
X185624Y79470D02*
X185624Y79470D01*
X185711Y79473D01*
X185711Y79474D01*
X185712Y79474D01*
X185787Y79515D01*
X185863Y79556D01*
X185863Y79557D01*
X185864Y79557D01*
X185915Y79629D01*
X185963Y79698D01*
X185963Y79699D01*
X185964Y79706D01*
X185990Y79840D01*
X185990Y107440D01*
X185986Y107460D01*
X185987Y107487D01*
X185787Y109087D01*
X185776Y109119D01*
X185768Y109168D01*
X185268Y110568D01*
X185260Y110580D01*
X185256Y110597D01*
X184756Y111697D01*
X184738Y111721D01*
X184722Y111758D01*
X184022Y112758D01*
X184003Y112775D01*
X183992Y112794D01*
X183970Y112810D01*
X183943Y112840D01*
X183043Y113540D01*
X183032Y113545D01*
X183021Y113556D01*
X182121Y114156D01*
X182090Y114168D01*
X182051Y114193D01*
X181051Y114593D01*
X181036Y114595D01*
X181019Y114604D01*
X180019Y114904D01*
X180000Y114905D01*
X179978Y114914D01*
X178878Y115114D01*
X178849Y115113D01*
X178810Y115120D01*
X177110Y115120D01*
X177087Y115115D01*
X177056Y115116D01*
X176356Y115016D01*
X176323Y115003D01*
X176269Y114993D01*
X175779Y114797D01*
X175548Y114720D01*
X175410Y114720D01*
X175241Y114681D01*
X175108Y114571D01*
X175037Y114412D01*
X175043Y114239D01*
X175126Y114087D01*
X175268Y113987D01*
X175389Y113964D01*
X175599Y113824D01*
X175630Y113812D01*
X175718Y113771D01*
X176043Y113690D01*
X176382Y113436D01*
X176398Y113429D01*
X176414Y113414D01*
X177374Y112838D01*
X177708Y112504D01*
X177962Y112080D01*
X178130Y111578D01*
X178130Y111002D01*
X177961Y110496D01*
X177596Y109858D01*
X177149Y109321D01*
X176520Y108872D01*
X175682Y108499D01*
X174671Y108223D01*
X173171Y108317D01*
X171757Y108694D01*
X170671Y109328D01*
X169944Y110328D01*
X169496Y111403D01*
X169585Y112654D01*
X170139Y114039D01*
X171388Y115481D01*
X173079Y117171D01*
X173093Y117193D01*
X173118Y117217D01*
X174418Y119017D01*
X174424Y119032D01*
X174438Y119047D01*
X175438Y120747D01*
X175449Y120784D01*
X175481Y120858D01*
X175881Y122658D01*
X175881Y122691D01*
X175890Y122740D01*
X175890Y124440D01*
X175881Y124478D01*
X175873Y124553D01*
X175373Y126153D01*
X175353Y126187D01*
X175323Y126255D01*
X174223Y127855D01*
X174196Y127880D01*
X174162Y127925D01*
X172462Y129425D01*
X172427Y129444D01*
X172374Y129483D01*
X170074Y130583D01*
X170041Y130590D01*
X169994Y130611D01*
X167794Y131111D01*
X167756Y131111D01*
X167691Y131120D01*
X165691Y131020D01*
X165665Y131012D01*
X165628Y131011D01*
X163828Y130611D01*
X163797Y130597D01*
X163749Y130585D01*
X162249Y129885D01*
X162245Y129882D01*
X162240Y129880D01*
X161706Y129613D01*
X161040Y129280D01*
X161018Y129262D01*
X160982Y129244D01*
X160182Y128644D01*
X160167Y128626D01*
X160141Y128609D01*
X159941Y128409D01*
X159928Y128387D01*
X159908Y128371D01*
X159882Y128314D01*
X159850Y128262D01*
X159847Y128236D01*
X159837Y128212D01*
X159839Y128151D01*
X159833Y128089D01*
X159842Y128065D01*
X159843Y128039D01*
X159873Y127985D01*
X159895Y127927D01*
X159914Y127910D01*
X159926Y127887D01*
X159977Y127852D01*
X160022Y127810D01*
X160047Y127802D01*
X160068Y127787D01*
X160152Y127771D01*
X160188Y127760D01*
X160198Y127762D01*
X160210Y127760D01*
X160310Y127760D01*
X160346Y127768D01*
X160402Y127771D01*
X160788Y127868D01*
X161341Y127960D01*
X161986Y127960D01*
X162725Y127867D01*
X163564Y127588D01*
X164298Y127221D01*
X164938Y126672D01*
X165399Y126119D01*
X165662Y125680D01*
X165830Y125178D01*
X165830Y124102D01*
X165661Y123596D01*
X165289Y122946D01*
X164819Y122287D01*
X163664Y121131D01*
X163005Y120661D01*
X162330Y120275D01*
X161994Y120107D01*
X161558Y119889D01*
X160815Y119611D01*
X160183Y119520D01*
X159688Y119520D01*
X159107Y119769D01*
X158713Y120085D01*
X158462Y120586D01*
X158290Y121102D01*
X158290Y122078D01*
X158371Y122320D01*
X158373Y122341D01*
X158379Y122356D01*
X158378Y122379D01*
X158390Y122440D01*
X158390Y122640D01*
X158376Y122703D01*
X158368Y122767D01*
X158356Y122786D01*
X158351Y122809D01*
X158310Y122859D01*
X158275Y122913D01*
X158255Y122925D01*
X158241Y122942D01*
X158182Y122969D01*
X158127Y123002D01*
X158104Y123004D01*
X158082Y123013D01*
X158018Y123011D01*
X157954Y123016D01*
X157929Y123007D01*
X157909Y123007D01*
X157876Y122988D01*
X157817Y122968D01*
X156117Y121968D01*
X156089Y121941D01*
X156033Y121901D01*
X154433Y120201D01*
X154417Y120172D01*
X154385Y120138D01*
X152985Y117838D01*
X152975Y117806D01*
X152951Y117764D01*
X151951Y114864D01*
X151948Y114836D01*
X151934Y114799D01*
X151434Y111599D01*
X151437Y111566D01*
X151430Y111518D01*
X151630Y108018D01*
X151640Y107987D01*
X151643Y107941D01*
X152643Y104241D01*
X152660Y104209D01*
X152678Y104155D01*
X154678Y100555D01*
X154695Y100537D01*
X154710Y100507D01*
X156110Y98707D01*
X156122Y98697D01*
X156133Y98680D01*
X157633Y97080D01*
X157651Y97068D01*
X157668Y97046D01*
X159368Y95646D01*
X159387Y95637D01*
X159407Y95619D01*
X161307Y94419D01*
X161335Y94409D01*
X161369Y94387D01*
X163369Y93587D01*
X163381Y93585D01*
X163395Y93578D01*
X165595Y92878D01*
X165624Y92875D01*
X165663Y92863D01*
X168063Y92563D01*
X168084Y92565D01*
X168110Y92560D01*
X171863Y92560D01*
X172977Y92281D01*
X173922Y91809D01*
X174979Y91136D01*
X175941Y90270D01*
X176929Y89184D01*
X176930Y89183D01*
X176931Y89182D01*
X178125Y87888D01*
X179321Y86493D01*
X179327Y86489D01*
X179331Y86482D01*
X180530Y85183D01*
X182730Y82783D01*
X183618Y81796D01*
X184310Y80907D01*
X184316Y80901D01*
X184321Y80893D01*
X184913Y80202D01*
X185185Y79839D01*
X185269Y79671D01*
X185270Y79670D01*
X185322Y79607D01*
X185379Y79538D01*
X185380Y79537D01*
X185381Y79537D01*
X185456Y79503D01*
X185538Y79467D01*
X185539Y79466D01*
X185624Y79470D01*
G37*
G36*
X277039Y28571D02*
X277039Y28571D01*
X277111Y28573D01*
X277125Y28581D01*
X277140Y28583D01*
X277255Y28652D01*
X277263Y28656D01*
X277263Y28657D01*
X277264Y28657D01*
X278256Y29550D01*
X279248Y30343D01*
X279254Y30351D01*
X279264Y30357D01*
X280264Y31257D01*
X280270Y31265D01*
X280279Y31271D01*
X281164Y32156D01*
X282148Y32943D01*
X282154Y32951D01*
X282164Y32957D01*
X283163Y33856D01*
X284063Y34656D01*
X284063Y34657D01*
X284064Y34657D01*
X285064Y35557D01*
X285115Y35630D01*
X285163Y35698D01*
X285163Y35699D01*
X285163Y35700D01*
X285165Y35708D01*
X285190Y35840D01*
X285190Y72740D01*
X285188Y72749D01*
X285190Y72759D01*
X285168Y72833D01*
X285151Y72909D01*
X285145Y72916D01*
X285142Y72925D01*
X285090Y72983D01*
X285041Y73042D01*
X285032Y73046D01*
X285025Y73053D01*
X284893Y73111D01*
X283093Y73511D01*
X283073Y73511D01*
X283048Y73518D01*
X282070Y73616D01*
X281193Y73811D01*
X281174Y73811D01*
X281152Y73818D01*
X280272Y73916D01*
X279393Y74111D01*
X279389Y74111D01*
X279385Y74113D01*
X278385Y74313D01*
X278370Y74312D01*
X278352Y74318D01*
X277452Y74418D01*
X277381Y74409D01*
X277309Y74407D01*
X277296Y74399D01*
X277280Y74397D01*
X277220Y74358D01*
X277157Y74324D01*
X277148Y74311D01*
X277135Y74303D01*
X277099Y74241D01*
X277057Y74182D01*
X277054Y74165D01*
X277047Y74153D01*
X277044Y74114D01*
X277030Y74040D01*
X277030Y71609D01*
X276918Y71764D01*
X276907Y71773D01*
X276903Y71781D01*
X276893Y71788D01*
X276879Y71809D01*
X275979Y72709D01*
X275970Y72714D01*
X275963Y72724D01*
X275063Y73524D01*
X275036Y73538D01*
X275006Y73566D01*
X274006Y74166D01*
X273977Y74175D01*
X273940Y74197D01*
X272840Y74597D01*
X272835Y74598D01*
X272830Y74601D01*
X271630Y75001D01*
X271594Y75004D01*
X271539Y75019D01*
X270241Y75119D01*
X269042Y75219D01*
X269013Y75215D01*
X268973Y75218D01*
X265873Y74918D01*
X265841Y74907D01*
X265790Y74901D01*
X263090Y74001D01*
X263057Y73980D01*
X262996Y73954D01*
X260796Y72454D01*
X260773Y72430D01*
X260734Y72402D01*
X258934Y70502D01*
X258917Y70473D01*
X258885Y70438D01*
X257485Y68138D01*
X257475Y68108D01*
X257452Y68069D01*
X256552Y65569D01*
X256550Y65547D01*
X256538Y65520D01*
X255938Y62720D01*
X255939Y62696D01*
X255931Y62665D01*
X255731Y59665D01*
X255734Y59643D01*
X255731Y59613D01*
X255931Y56813D01*
X255938Y56790D01*
X255939Y56758D01*
X256539Y54058D01*
X256549Y54037D01*
X256554Y54007D01*
X257454Y51607D01*
X257472Y51579D01*
X257489Y51536D01*
X258889Y49336D01*
X258908Y49317D01*
X258927Y49286D01*
X260627Y47386D01*
X260658Y47364D01*
X260706Y47319D01*
X262906Y45919D01*
X262938Y45908D01*
X262981Y45882D01*
X265481Y44982D01*
X265517Y44978D01*
X265571Y44962D01*
X268471Y44662D01*
X268500Y44665D01*
X268539Y44661D01*
X269839Y44761D01*
X269854Y44765D01*
X269873Y44765D01*
X271073Y44965D01*
X271085Y44970D01*
X271102Y44971D01*
X272302Y45271D01*
X272328Y45285D01*
X272367Y45294D01*
X273467Y45794D01*
X273477Y45801D01*
X273492Y45806D01*
X274592Y46406D01*
X274606Y46419D01*
X274628Y46429D01*
X275628Y47129D01*
X275652Y47155D01*
X275694Y47187D01*
X276494Y48087D01*
X276498Y48095D01*
X276507Y48102D01*
X276630Y48256D01*
X276630Y28940D01*
X276633Y28925D01*
X276631Y28909D01*
X276653Y28841D01*
X276669Y28771D01*
X276679Y28759D01*
X276684Y28744D01*
X276734Y28693D01*
X276779Y28638D01*
X276794Y28631D01*
X276805Y28620D01*
X276872Y28596D01*
X276938Y28567D01*
X276953Y28567D01*
X276968Y28562D01*
X277039Y28571D01*
G37*
G36*
X245226Y44564D02*
X245226Y44564D01*
X245248Y44562D01*
X246248Y44662D01*
X246267Y44668D01*
X246293Y44669D01*
X248093Y45069D01*
X248108Y45076D01*
X248130Y45079D01*
X249030Y45379D01*
X249050Y45392D01*
X249080Y45400D01*
X249760Y45740D01*
X249880Y45800D01*
X249887Y45806D01*
X249899Y45810D01*
X250599Y46210D01*
X250611Y46222D01*
X250631Y46231D01*
X251331Y46731D01*
X251340Y46740D01*
X251353Y46748D01*
X251953Y47248D01*
X251976Y47278D01*
X252019Y47319D01*
X252511Y48008D01*
X253002Y48597D01*
X253018Y48628D01*
X253050Y48670D01*
X253450Y49470D01*
X253454Y49487D01*
X253466Y49507D01*
X253766Y50307D01*
X253768Y50318D01*
X253774Y50331D01*
X254074Y51331D01*
X254076Y51360D01*
X254088Y51398D01*
X254188Y52298D01*
X254188Y52302D01*
X254189Y52306D01*
X254289Y53406D01*
X254284Y53440D01*
X254287Y53491D01*
X253987Y55691D01*
X253975Y55721D01*
X253969Y55767D01*
X253369Y57467D01*
X253350Y57496D01*
X253330Y57546D01*
X252430Y58946D01*
X252402Y58973D01*
X252356Y59030D01*
X251056Y60130D01*
X251036Y60140D01*
X251016Y60160D01*
X249616Y61060D01*
X249584Y61071D01*
X249544Y61096D01*
X247944Y61696D01*
X247922Y61699D01*
X247897Y61710D01*
X246197Y62110D01*
X246186Y62110D01*
X246173Y62115D01*
X244373Y62415D01*
X244363Y62414D01*
X244352Y62418D01*
X242553Y62618D01*
X240854Y62818D01*
X239290Y63013D01*
X238027Y63402D01*
X236864Y63790D01*
X236066Y64233D01*
X235578Y64883D01*
X235490Y65759D01*
X235490Y66309D01*
X235583Y66862D01*
X235669Y67207D01*
X236040Y67949D01*
X236206Y68198D01*
X236452Y68445D01*
X236701Y68611D01*
X237043Y68781D01*
X237402Y68871D01*
X237432Y68887D01*
X237480Y68900D01*
X237551Y68935D01*
X237800Y69060D01*
X238110Y69060D01*
X238140Y69067D01*
X238185Y69067D01*
X239148Y69260D01*
X240579Y69260D01*
X241141Y69166D01*
X241627Y69069D01*
X242018Y68971D01*
X242026Y68971D01*
X242035Y68967D01*
X242486Y68877D01*
X242819Y68711D01*
X243099Y68524D01*
X243119Y68516D01*
X243140Y68500D01*
X243485Y68328D01*
X243998Y67815D01*
X244547Y66716D01*
X244637Y66265D01*
X244649Y66239D01*
X244657Y66199D01*
X244830Y65767D01*
X244830Y65340D01*
X244841Y65290D01*
X244843Y65239D01*
X244861Y65207D01*
X244869Y65171D01*
X244902Y65132D01*
X244926Y65087D01*
X244956Y65066D01*
X244979Y65038D01*
X245026Y65017D01*
X245068Y64987D01*
X245110Y64979D01*
X245138Y64967D01*
X245168Y64968D01*
X245210Y64960D01*
X253010Y64960D01*
X253087Y64978D01*
X253165Y64993D01*
X253171Y64997D01*
X253179Y64999D01*
X253240Y65050D01*
X253303Y65098D01*
X253307Y65105D01*
X253312Y65109D01*
X253345Y65182D01*
X253380Y65253D01*
X253380Y65261D01*
X253383Y65268D01*
X253382Y65301D01*
X253386Y65398D01*
X253186Y66698D01*
X253181Y66710D01*
X253181Y66715D01*
X253180Y66717D01*
X253179Y66732D01*
X252879Y67932D01*
X252869Y67952D01*
X252863Y67981D01*
X252463Y68981D01*
X252455Y68993D01*
X252450Y69010D01*
X251950Y70010D01*
X251937Y70026D01*
X251926Y70051D01*
X251326Y70951D01*
X251310Y70966D01*
X251296Y70990D01*
X250596Y71790D01*
X250565Y71813D01*
X250521Y71856D01*
X248721Y73056D01*
X248708Y73061D01*
X248695Y73072D01*
X247795Y73572D01*
X247787Y73574D01*
X247780Y73580D01*
X246780Y74080D01*
X246750Y74087D01*
X246710Y74107D01*
X244510Y74707D01*
X244493Y74707D01*
X244473Y74715D01*
X243273Y74915D01*
X243260Y74914D01*
X243244Y74919D01*
X242144Y75019D01*
X242143Y75019D01*
X242142Y75019D01*
X240942Y75119D01*
X240927Y75117D01*
X240910Y75120D01*
X237510Y75120D01*
X237494Y75116D01*
X237472Y75118D01*
X236472Y75018D01*
X236459Y75014D01*
X236442Y75014D01*
X234242Y74614D01*
X234239Y74613D01*
X234235Y74613D01*
X233235Y74413D01*
X233221Y74406D01*
X233201Y74404D01*
X232201Y74104D01*
X232182Y74094D01*
X232156Y74087D01*
X231256Y73687D01*
X231244Y73678D01*
X231225Y73672D01*
X230325Y73172D01*
X230309Y73157D01*
X230282Y73144D01*
X229482Y72544D01*
X229475Y72536D01*
X229463Y72529D01*
X228763Y71929D01*
X228742Y71901D01*
X228706Y71868D01*
X228106Y71068D01*
X228100Y71055D01*
X228088Y71042D01*
X227588Y70242D01*
X227575Y70205D01*
X227546Y70149D01*
X227246Y69149D01*
X227246Y69145D01*
X227243Y69140D01*
X226943Y68040D01*
X226942Y68002D01*
X226930Y67940D01*
X226930Y51078D01*
X226837Y50615D01*
X226838Y50583D01*
X226830Y50540D01*
X226830Y49278D01*
X226737Y48815D01*
X226738Y48783D01*
X226730Y48740D01*
X226730Y48387D01*
X226441Y47232D01*
X226441Y47196D01*
X226430Y47140D01*
X226430Y46902D01*
X226365Y46709D01*
X226194Y46451D01*
X226180Y46415D01*
X226149Y46360D01*
X226058Y46086D01*
X225970Y45910D01*
X225958Y45860D01*
X225937Y45812D01*
X225938Y45777D01*
X225930Y45742D01*
X225941Y45691D01*
X225943Y45639D01*
X225961Y45608D01*
X225969Y45573D01*
X226001Y45533D01*
X226026Y45487D01*
X226055Y45466D01*
X226078Y45439D01*
X226125Y45417D01*
X226168Y45387D01*
X226209Y45379D01*
X226236Y45367D01*
X226267Y45368D01*
X226310Y45360D01*
X234210Y45360D01*
X234260Y45371D01*
X234311Y45373D01*
X234343Y45391D01*
X234379Y45399D01*
X234418Y45432D01*
X234463Y45456D01*
X234484Y45486D01*
X234512Y45509D01*
X234533Y45556D01*
X234563Y45598D01*
X234571Y45640D01*
X234583Y45668D01*
X234582Y45698D01*
X234590Y45740D01*
X234590Y45789D01*
X234619Y45836D01*
X234663Y45898D01*
X234665Y45910D01*
X234670Y45918D01*
X234674Y45955D01*
X234690Y46040D01*
X234690Y46150D01*
X234723Y46215D01*
X234779Y46271D01*
X234819Y46336D01*
X234863Y46398D01*
X234865Y46410D01*
X234870Y46418D01*
X234874Y46455D01*
X234890Y46540D01*
X234890Y46789D01*
X234919Y46836D01*
X234963Y46898D01*
X234965Y46910D01*
X234970Y46918D01*
X234974Y46955D01*
X234990Y47040D01*
X234990Y47350D01*
X235050Y47470D01*
X235054Y47485D01*
X235063Y47498D01*
X235087Y47625D01*
X235441Y47271D01*
X235457Y47261D01*
X235472Y47243D01*
X235972Y46843D01*
X235993Y46833D01*
X236014Y46814D01*
X236514Y46514D01*
X236527Y46510D01*
X236540Y46500D01*
X238340Y45600D01*
X238363Y45594D01*
X238390Y45579D01*
X239590Y45179D01*
X239615Y45177D01*
X239648Y45165D01*
X240226Y45069D01*
X240906Y44874D01*
X240925Y44873D01*
X240948Y44865D01*
X241548Y44765D01*
X241552Y44765D01*
X241556Y44764D01*
X242256Y44664D01*
X242280Y44666D01*
X242310Y44660D01*
X242883Y44660D01*
X243556Y44564D01*
X243580Y44566D01*
X243610Y44560D01*
X245210Y44560D01*
X245226Y44564D01*
G37*
G36*
X183142Y45467D02*
X183142Y45467D01*
X183176Y45465D01*
X183226Y45487D01*
X183279Y45499D01*
X183304Y45520D01*
X183335Y45533D01*
X183382Y45585D01*
X183412Y45609D01*
X183419Y45625D01*
X183433Y45640D01*
X190985Y57839D01*
X193530Y55379D01*
X193530Y45840D01*
X193541Y45790D01*
X193543Y45739D01*
X193561Y45707D01*
X193569Y45671D01*
X193602Y45632D01*
X193626Y45587D01*
X193656Y45566D01*
X193679Y45538D01*
X193726Y45517D01*
X193768Y45487D01*
X193810Y45479D01*
X193838Y45467D01*
X193868Y45468D01*
X193910Y45460D01*
X201710Y45460D01*
X201760Y45471D01*
X201811Y45473D01*
X201843Y45491D01*
X201879Y45499D01*
X201918Y45532D01*
X201963Y45556D01*
X201984Y45586D01*
X202012Y45609D01*
X202033Y45656D01*
X202063Y45698D01*
X202071Y45740D01*
X202083Y45768D01*
X202082Y45798D01*
X202090Y45840D01*
X202090Y80540D01*
X202081Y80582D01*
X202081Y80624D01*
X202061Y80665D01*
X202051Y80709D01*
X202024Y80742D01*
X202005Y80780D01*
X201963Y80815D01*
X201941Y80842D01*
X201918Y80852D01*
X201894Y80873D01*
X194094Y85173D01*
X194037Y85189D01*
X193982Y85213D01*
X193954Y85212D01*
X193927Y85220D01*
X193869Y85209D01*
X193809Y85207D01*
X193784Y85193D01*
X193757Y85188D01*
X193709Y85152D01*
X193657Y85124D01*
X193641Y85101D01*
X193618Y85084D01*
X193591Y85031D01*
X193557Y84982D01*
X193551Y84951D01*
X193540Y84929D01*
X193540Y84893D01*
X193530Y84840D01*
X193530Y64878D01*
X184383Y74305D01*
X184317Y74347D01*
X184252Y74393D01*
X184243Y74394D01*
X184237Y74398D01*
X184203Y74402D01*
X184110Y74420D01*
X174910Y74420D01*
X174882Y74414D01*
X174854Y74416D01*
X174799Y74394D01*
X174741Y74381D01*
X174719Y74363D01*
X174693Y74352D01*
X174653Y74308D01*
X174608Y74271D01*
X174596Y74245D01*
X174577Y74223D01*
X174561Y74166D01*
X174537Y74112D01*
X174538Y74084D01*
X174530Y74057D01*
X174541Y73999D01*
X174543Y73939D01*
X174557Y73914D01*
X174562Y73886D01*
X174608Y73821D01*
X174626Y73787D01*
X174636Y73780D01*
X174645Y73767D01*
X185118Y63588D01*
X173394Y46051D01*
X173367Y45981D01*
X173337Y45912D01*
X173337Y45900D01*
X173333Y45889D01*
X173340Y45814D01*
X173343Y45739D01*
X173349Y45729D01*
X173350Y45717D01*
X173390Y45653D01*
X173426Y45587D01*
X173436Y45580D01*
X173442Y45570D01*
X173506Y45531D01*
X173568Y45487D01*
X173581Y45485D01*
X173590Y45479D01*
X173628Y45476D01*
X173710Y45460D01*
X183110Y45460D01*
X183142Y45467D01*
G37*
G36*
X104260Y45471D02*
X104260Y45471D01*
X104311Y45473D01*
X104343Y45491D01*
X104379Y45499D01*
X104418Y45532D01*
X104463Y45556D01*
X104484Y45586D01*
X104512Y45609D01*
X104533Y45656D01*
X104563Y45698D01*
X104571Y45740D01*
X104583Y45768D01*
X104582Y45798D01*
X104590Y45840D01*
X104590Y61729D01*
X104689Y63402D01*
X104884Y64767D01*
X105169Y65907D01*
X105623Y66815D01*
X106241Y67433D01*
X107074Y67896D01*
X107997Y68265D01*
X109211Y68359D01*
X110540Y68264D01*
X111754Y67890D01*
X112684Y67332D01*
X113508Y66600D01*
X114056Y65595D01*
X114439Y64255D01*
X114731Y62597D01*
X114830Y60630D01*
X114830Y45840D01*
X114841Y45790D01*
X114843Y45739D01*
X114861Y45707D01*
X114869Y45671D01*
X114902Y45632D01*
X114926Y45587D01*
X114956Y45566D01*
X114979Y45538D01*
X115026Y45517D01*
X115068Y45487D01*
X115110Y45479D01*
X115138Y45467D01*
X115168Y45468D01*
X115210Y45460D01*
X123010Y45460D01*
X123060Y45471D01*
X123111Y45473D01*
X123143Y45491D01*
X123179Y45499D01*
X123218Y45532D01*
X123263Y45556D01*
X123284Y45586D01*
X123312Y45609D01*
X123333Y45656D01*
X123363Y45698D01*
X123371Y45740D01*
X123383Y45768D01*
X123382Y45798D01*
X123390Y45840D01*
X123390Y70540D01*
X123389Y70545D01*
X123390Y70551D01*
X123290Y74051D01*
X123278Y74095D01*
X123277Y74141D01*
X123257Y74178D01*
X123246Y74218D01*
X123216Y74253D01*
X123194Y74293D01*
X123160Y74317D01*
X123132Y74349D01*
X123090Y74366D01*
X123052Y74393D01*
X123003Y74402D01*
X122972Y74415D01*
X122945Y74413D01*
X122910Y74420D01*
X115510Y74420D01*
X115460Y74409D01*
X115409Y74407D01*
X115377Y74389D01*
X115341Y74381D01*
X115302Y74348D01*
X115257Y74324D01*
X115236Y74294D01*
X115208Y74271D01*
X115187Y74224D01*
X115157Y74182D01*
X115149Y74140D01*
X115137Y74112D01*
X115138Y74082D01*
X115130Y74040D01*
X115130Y71172D01*
X114918Y71464D01*
X114904Y71475D01*
X114893Y71494D01*
X113993Y72494D01*
X113971Y72510D01*
X113948Y72537D01*
X112948Y73337D01*
X112931Y73345D01*
X112914Y73361D01*
X111814Y74061D01*
X111788Y74070D01*
X111756Y74091D01*
X110556Y74591D01*
X110532Y74595D01*
X110502Y74609D01*
X109302Y74909D01*
X109288Y74909D01*
X109273Y74915D01*
X108073Y75115D01*
X108059Y75114D01*
X108042Y75119D01*
X106842Y75219D01*
X106816Y75215D01*
X106783Y75219D01*
X103983Y75019D01*
X103955Y75011D01*
X103914Y75008D01*
X101614Y74408D01*
X101581Y74391D01*
X101525Y74372D01*
X99725Y73372D01*
X99697Y73346D01*
X99641Y73309D01*
X98241Y71909D01*
X98221Y71877D01*
X98182Y71833D01*
X97182Y70133D01*
X97172Y70098D01*
X97146Y70049D01*
X96546Y68049D01*
X96545Y68030D01*
X96536Y68008D01*
X96136Y65808D01*
X96137Y65785D01*
X96130Y65755D01*
X96030Y63255D01*
X96031Y63248D01*
X96030Y63240D01*
X96030Y45840D01*
X96041Y45790D01*
X96043Y45739D01*
X96061Y45707D01*
X96069Y45671D01*
X96102Y45632D01*
X96126Y45587D01*
X96156Y45566D01*
X96179Y45538D01*
X96226Y45517D01*
X96268Y45487D01*
X96310Y45479D01*
X96338Y45467D01*
X96368Y45468D01*
X96410Y45460D01*
X104210Y45460D01*
X104260Y45471D01*
G37*
G36*
X146137Y44861D02*
X146137Y44861D01*
X146165Y44869D01*
X146206Y44872D01*
X148506Y45472D01*
X148539Y45489D01*
X148595Y45508D01*
X150395Y46508D01*
X150423Y46534D01*
X150479Y46571D01*
X151879Y47971D01*
X151900Y48004D01*
X151946Y48062D01*
X152846Y49762D01*
X152852Y49786D01*
X152869Y49814D01*
X153569Y51814D01*
X153572Y51846D01*
X153587Y51889D01*
X153887Y54089D01*
X153885Y54105D01*
X153890Y54125D01*
X153990Y56625D01*
X153989Y56632D01*
X153990Y56640D01*
X153990Y74040D01*
X153979Y74090D01*
X153977Y74141D01*
X153959Y74173D01*
X153951Y74209D01*
X153918Y74248D01*
X153894Y74293D01*
X153864Y74314D01*
X153841Y74342D01*
X153794Y74363D01*
X153752Y74393D01*
X153710Y74401D01*
X153682Y74413D01*
X153652Y74412D01*
X153610Y74420D01*
X145910Y74420D01*
X145860Y74409D01*
X145809Y74407D01*
X145777Y74389D01*
X145741Y74381D01*
X145702Y74348D01*
X145657Y74324D01*
X145636Y74294D01*
X145608Y74271D01*
X145587Y74224D01*
X145557Y74182D01*
X145549Y74140D01*
X145537Y74112D01*
X145538Y74082D01*
X145530Y74040D01*
X145530Y58151D01*
X145431Y56478D01*
X145238Y55128D01*
X144858Y53986D01*
X144391Y53052D01*
X143855Y52427D01*
X143050Y51891D01*
X142044Y51616D01*
X140907Y51521D01*
X139484Y51616D01*
X138362Y51990D01*
X137340Y52548D01*
X136618Y53270D01*
X136058Y54296D01*
X135579Y55638D01*
X135290Y57273D01*
X135290Y74040D01*
X135279Y74090D01*
X135277Y74141D01*
X135259Y74173D01*
X135251Y74209D01*
X135218Y74248D01*
X135194Y74293D01*
X135164Y74314D01*
X135141Y74342D01*
X135094Y74363D01*
X135052Y74393D01*
X135010Y74401D01*
X134982Y74413D01*
X134952Y74412D01*
X134910Y74420D01*
X127110Y74420D01*
X127060Y74409D01*
X127009Y74407D01*
X126977Y74389D01*
X126941Y74381D01*
X126902Y74348D01*
X126857Y74324D01*
X126836Y74294D01*
X126808Y74271D01*
X126787Y74224D01*
X126757Y74182D01*
X126749Y74140D01*
X126737Y74112D01*
X126738Y74082D01*
X126730Y74040D01*
X126730Y49340D01*
X126731Y49335D01*
X126730Y49329D01*
X126830Y45829D01*
X126842Y45785D01*
X126843Y45739D01*
X126863Y45702D01*
X126874Y45662D01*
X126904Y45627D01*
X126926Y45587D01*
X126960Y45563D01*
X126988Y45531D01*
X127030Y45514D01*
X127068Y45487D01*
X127117Y45478D01*
X127148Y45465D01*
X127175Y45467D01*
X127210Y45460D01*
X134610Y45460D01*
X134660Y45471D01*
X134711Y45473D01*
X134743Y45491D01*
X134779Y45499D01*
X134818Y45532D01*
X134863Y45556D01*
X134884Y45586D01*
X134912Y45609D01*
X134933Y45656D01*
X134963Y45698D01*
X134971Y45740D01*
X134983Y45768D01*
X134982Y45798D01*
X134990Y45840D01*
X134990Y48571D01*
X135102Y48416D01*
X135122Y48400D01*
X135141Y48371D01*
X136141Y47371D01*
X136157Y47361D01*
X136172Y47343D01*
X137172Y46543D01*
X137189Y46535D01*
X137206Y46519D01*
X138306Y45819D01*
X138328Y45811D01*
X138353Y45794D01*
X139453Y45294D01*
X139481Y45288D01*
X139518Y45271D01*
X140718Y44971D01*
X140734Y44971D01*
X140752Y44964D01*
X142052Y44764D01*
X142064Y44765D01*
X142078Y44761D01*
X143278Y44661D01*
X143304Y44665D01*
X143337Y44661D01*
X146137Y44861D01*
G37*
G36*
X303326Y44760D02*
X303326Y44760D01*
X303346Y44766D01*
X303373Y44765D01*
X305773Y45165D01*
X305794Y45174D01*
X305825Y45178D01*
X308025Y45878D01*
X308047Y45891D01*
X308080Y45900D01*
X308721Y46220D01*
X309481Y46600D01*
X309481Y46601D01*
X310080Y46900D01*
X310103Y46919D01*
X310141Y46938D01*
X311841Y48238D01*
X311865Y48267D01*
X311912Y48309D01*
X313212Y50009D01*
X313228Y50044D01*
X313262Y50096D01*
X314162Y52296D01*
X314167Y52331D01*
X314185Y52380D01*
X314585Y54880D01*
X314580Y54960D01*
X314577Y55041D01*
X314574Y55046D01*
X314573Y55053D01*
X314532Y55122D01*
X314494Y55193D01*
X314489Y55197D01*
X314485Y55202D01*
X314418Y55247D01*
X314352Y55293D01*
X314345Y55294D01*
X314341Y55297D01*
X314310Y55301D01*
X314210Y55320D01*
X306810Y55320D01*
X306777Y55313D01*
X306743Y55314D01*
X306694Y55293D01*
X306641Y55281D01*
X306615Y55259D01*
X306584Y55246D01*
X306549Y55205D01*
X306508Y55171D01*
X306494Y55140D01*
X306472Y55114D01*
X306453Y55048D01*
X306437Y55012D01*
X306437Y55003D01*
X306436Y54999D01*
X306436Y54990D01*
X306431Y54974D01*
X306336Y53930D01*
X305976Y53028D01*
X305430Y52300D01*
X304690Y51653D01*
X303861Y51192D01*
X302918Y50909D01*
X301957Y50717D01*
X300794Y50620D01*
X300052Y50620D01*
X299198Y50810D01*
X298443Y50999D01*
X297690Y51375D01*
X297056Y51737D01*
X296542Y52337D01*
X296275Y53048D01*
X296101Y53835D01*
X296266Y54497D01*
X296601Y55083D01*
X297311Y55615D01*
X297533Y55726D01*
X297533Y55727D01*
X298268Y56094D01*
X299433Y56579D01*
X300900Y56971D01*
X302693Y57369D01*
X302697Y57371D01*
X302702Y57371D01*
X306302Y58271D01*
X306309Y58274D01*
X306317Y58275D01*
X308017Y58775D01*
X308031Y58783D01*
X308051Y58787D01*
X309551Y59387D01*
X309567Y59398D01*
X309590Y59405D01*
X310890Y60105D01*
X310914Y60126D01*
X310953Y60148D01*
X312153Y61148D01*
X312175Y61176D01*
X312214Y61212D01*
X313114Y62412D01*
X313130Y62448D01*
X313168Y62512D01*
X313668Y63912D01*
X313672Y63947D01*
X313678Y63964D01*
X313685Y63980D01*
X313685Y63986D01*
X313688Y63996D01*
X313888Y65696D01*
X313884Y65731D01*
X313888Y65785D01*
X313588Y68285D01*
X313578Y68311D01*
X313577Y68336D01*
X313572Y68346D01*
X313569Y68366D01*
X312869Y70366D01*
X312851Y70393D01*
X312805Y70480D01*
X311505Y72080D01*
X311476Y72102D01*
X311438Y72144D01*
X309838Y73344D01*
X309806Y73358D01*
X309764Y73387D01*
X307964Y74187D01*
X307942Y74192D01*
X307914Y74206D01*
X305814Y74806D01*
X305791Y74807D01*
X305761Y74817D01*
X303561Y75117D01*
X303546Y75115D01*
X303527Y75120D01*
X301227Y75220D01*
X301212Y75217D01*
X301193Y75220D01*
X298893Y75120D01*
X298877Y75115D01*
X298856Y75116D01*
X296756Y74816D01*
X296735Y74808D01*
X296706Y74806D01*
X294606Y74206D01*
X294580Y74191D01*
X294540Y74180D01*
X293979Y73900D01*
X293218Y73519D01*
X292740Y73280D01*
X292718Y73262D01*
X292682Y73244D01*
X291082Y72044D01*
X291057Y72014D01*
X291006Y71968D01*
X289806Y70368D01*
X289793Y70339D01*
X289766Y70303D01*
X288866Y68403D01*
X288859Y68368D01*
X288838Y68318D01*
X288338Y65918D01*
X288338Y65915D01*
X288337Y65912D01*
X288340Y65828D01*
X288342Y65744D01*
X288343Y65742D01*
X288343Y65739D01*
X288383Y65665D01*
X288423Y65591D01*
X288425Y65589D01*
X288426Y65587D01*
X288494Y65539D01*
X288563Y65489D01*
X288566Y65489D01*
X288568Y65487D01*
X288710Y65460D01*
X296110Y65460D01*
X296123Y65463D01*
X296137Y65461D01*
X296207Y65482D01*
X296279Y65499D01*
X296289Y65508D01*
X296302Y65512D01*
X296356Y65563D01*
X296412Y65609D01*
X296418Y65622D01*
X296428Y65631D01*
X296483Y65765D01*
X296673Y66716D01*
X297037Y67443D01*
X297491Y68079D01*
X298020Y68520D01*
X298290Y68655D01*
X298738Y68879D01*
X300452Y69260D01*
X302086Y69260D01*
X302859Y69163D01*
X303531Y69067D01*
X304149Y68891D01*
X304668Y68545D01*
X304998Y68215D01*
X305251Y67707D01*
X305420Y67031D01*
X305257Y66212D01*
X304755Y65627D01*
X303925Y65073D01*
X302875Y64596D01*
X301617Y64209D01*
X300135Y63913D01*
X300128Y63909D01*
X300118Y63909D01*
X298531Y63512D01*
X296844Y63214D01*
X296824Y63206D01*
X296797Y63203D01*
X295201Y62704D01*
X293503Y62205D01*
X293489Y62197D01*
X293469Y62193D01*
X291969Y61593D01*
X291946Y61577D01*
X291911Y61564D01*
X290611Y60764D01*
X290594Y60747D01*
X290567Y60732D01*
X289367Y59732D01*
X289343Y59701D01*
X289297Y59656D01*
X288397Y58356D01*
X288383Y58320D01*
X288349Y58260D01*
X287849Y56760D01*
X287846Y56727D01*
X287832Y56682D01*
X287632Y54882D01*
X287636Y54847D01*
X287632Y54795D01*
X287932Y52295D01*
X287945Y52260D01*
X287955Y52205D01*
X288755Y50105D01*
X288777Y50072D01*
X288808Y50009D01*
X290108Y48309D01*
X290132Y48289D01*
X290160Y48254D01*
X291760Y46854D01*
X291793Y46836D01*
X291840Y46800D01*
X293840Y45800D01*
X293870Y45793D01*
X293910Y45773D01*
X296110Y45173D01*
X296126Y45173D01*
X296145Y45165D01*
X298445Y44765D01*
X298467Y44767D01*
X298494Y44760D01*
X300894Y44660D01*
X300908Y44663D01*
X300926Y44660D01*
X303326Y44760D01*
G37*
G36*
X169060Y45471D02*
X169060Y45471D01*
X169111Y45473D01*
X169143Y45491D01*
X169179Y45499D01*
X169218Y45532D01*
X169263Y45556D01*
X169284Y45586D01*
X169312Y45609D01*
X169333Y45656D01*
X169363Y45698D01*
X169371Y45740D01*
X169383Y45768D01*
X169382Y45798D01*
X169390Y45840D01*
X169390Y68460D01*
X176710Y68460D01*
X176735Y68466D01*
X176761Y68463D01*
X176819Y68485D01*
X176879Y68499D01*
X176899Y68516D01*
X176923Y68525D01*
X176965Y68570D01*
X177012Y68609D01*
X177023Y68633D01*
X177040Y68652D01*
X177058Y68711D01*
X177083Y68768D01*
X177082Y68793D01*
X177090Y68818D01*
X177079Y68879D01*
X177077Y68941D01*
X177064Y68963D01*
X177060Y68989D01*
X177012Y69060D01*
X176994Y69093D01*
X176986Y69099D01*
X176979Y69109D01*
X176279Y69809D01*
X176268Y69816D01*
X176257Y69829D01*
X175580Y70410D01*
X174999Y71087D01*
X174978Y71102D01*
X174957Y71129D01*
X174280Y71710D01*
X173699Y72387D01*
X173678Y72402D01*
X173657Y72429D01*
X172968Y73019D01*
X171679Y74309D01*
X171614Y74349D01*
X171552Y74393D01*
X171540Y74395D01*
X171532Y74400D01*
X171495Y74404D01*
X171410Y74420D01*
X169390Y74420D01*
X169390Y76240D01*
X169388Y76249D01*
X169390Y76261D01*
X169290Y78061D01*
X169280Y78095D01*
X169275Y78147D01*
X168775Y79847D01*
X168761Y79872D01*
X168750Y79910D01*
X168050Y81310D01*
X168031Y81334D01*
X168011Y81372D01*
X167011Y82672D01*
X166981Y82697D01*
X166931Y82749D01*
X165531Y83749D01*
X165507Y83759D01*
X165480Y83780D01*
X163880Y84580D01*
X163844Y84589D01*
X163835Y84592D01*
X163827Y84598D01*
X163818Y84600D01*
X163788Y84612D01*
X161888Y85012D01*
X161868Y85012D01*
X161843Y85019D01*
X159543Y85219D01*
X159528Y85217D01*
X159510Y85220D01*
X158010Y85220D01*
X157980Y85213D01*
X157935Y85213D01*
X157472Y85120D01*
X156410Y85120D01*
X156380Y85113D01*
X156335Y85113D01*
X155872Y85020D01*
X155410Y85020D01*
X155360Y85009D01*
X155309Y85007D01*
X155277Y84989D01*
X155241Y84981D01*
X155202Y84948D01*
X155157Y84924D01*
X155136Y84894D01*
X155108Y84871D01*
X155087Y84824D01*
X155057Y84782D01*
X155049Y84740D01*
X155037Y84712D01*
X155037Y84699D01*
X155037Y84698D01*
X155037Y84680D01*
X155030Y84640D01*
X155030Y78840D01*
X155032Y78830D01*
X155030Y78820D01*
X155052Y78746D01*
X155069Y78671D01*
X155076Y78663D01*
X155079Y78653D01*
X155130Y78597D01*
X155179Y78538D01*
X155189Y78533D01*
X155196Y78526D01*
X155267Y78498D01*
X155338Y78467D01*
X155348Y78467D01*
X155358Y78463D01*
X155502Y78471D01*
X155857Y78560D01*
X157610Y78560D01*
X157647Y78568D01*
X157730Y78579D01*
X157972Y78660D01*
X158283Y78660D01*
X158953Y78564D01*
X159518Y78470D01*
X160005Y78308D01*
X160322Y77990D01*
X160569Y77661D01*
X160738Y77152D01*
X160830Y76513D01*
X160830Y74420D01*
X155910Y74420D01*
X155860Y74409D01*
X155809Y74407D01*
X155777Y74389D01*
X155741Y74381D01*
X155702Y74348D01*
X155657Y74324D01*
X155636Y74294D01*
X155608Y74271D01*
X155587Y74224D01*
X155557Y74182D01*
X155549Y74140D01*
X155537Y74112D01*
X155538Y74082D01*
X155530Y74040D01*
X155530Y68840D01*
X155541Y68790D01*
X155543Y68739D01*
X155561Y68707D01*
X155569Y68671D01*
X155602Y68632D01*
X155626Y68587D01*
X155656Y68566D01*
X155679Y68538D01*
X155726Y68517D01*
X155768Y68487D01*
X155810Y68479D01*
X155838Y68467D01*
X155868Y68468D01*
X155910Y68460D01*
X160830Y68460D01*
X160830Y45840D01*
X160841Y45790D01*
X160843Y45739D01*
X160861Y45707D01*
X160869Y45671D01*
X160902Y45632D01*
X160926Y45587D01*
X160956Y45566D01*
X160979Y45538D01*
X161026Y45517D01*
X161068Y45487D01*
X161110Y45479D01*
X161138Y45467D01*
X161168Y45468D01*
X161210Y45460D01*
X169010Y45460D01*
X169060Y45471D01*
G37*
G36*
X83886Y48128D02*
X83886Y48128D01*
X83952Y48133D01*
X83970Y48144D01*
X83991Y48149D01*
X84076Y48209D01*
X84100Y48223D01*
X84103Y48228D01*
X84108Y48232D01*
X86308Y50532D01*
X86316Y50545D01*
X86329Y50555D01*
X86360Y50619D01*
X86396Y50681D01*
X86397Y50697D01*
X86404Y50711D01*
X86403Y50782D01*
X86409Y50853D01*
X86403Y50868D01*
X86402Y50884D01*
X86345Y51009D01*
X86343Y51013D01*
X86343Y51014D01*
X84475Y53629D01*
X84477Y53640D01*
X84486Y53653D01*
X84497Y53711D01*
X84506Y53732D01*
X84506Y53754D01*
X84512Y53787D01*
X84513Y53792D01*
X84513Y53793D01*
X84513Y53794D01*
X84513Y53804D01*
X84546Y53869D01*
X84602Y53926D01*
X84613Y53944D01*
X84625Y53953D01*
X84633Y53972D01*
X84673Y54024D01*
X84746Y54169D01*
X84802Y54226D01*
X84842Y54290D01*
X84886Y54353D01*
X84888Y54365D01*
X84893Y54373D01*
X84897Y54408D01*
X84913Y54494D01*
X84913Y54543D01*
X84942Y54590D01*
X84986Y54653D01*
X84988Y54665D01*
X84993Y54673D01*
X84997Y54708D01*
X85013Y54794D01*
X85013Y54904D01*
X85046Y54969D01*
X85102Y55026D01*
X85142Y55090D01*
X85186Y55153D01*
X85188Y55165D01*
X85193Y55173D01*
X85197Y55208D01*
X85203Y55241D01*
X85206Y55249D01*
X85206Y55257D01*
X85213Y55294D01*
X85213Y55343D01*
X85242Y55390D01*
X85286Y55453D01*
X85288Y55465D01*
X85293Y55473D01*
X85297Y55508D01*
X85313Y55594D01*
X85313Y55704D01*
X85342Y55762D01*
X88598Y56320D01*
X88616Y56327D01*
X88635Y56328D01*
X88695Y56361D01*
X88757Y56387D01*
X88770Y56402D01*
X88787Y56411D01*
X88826Y56467D01*
X88870Y56518D01*
X88875Y56537D01*
X88886Y56553D01*
X88908Y56664D01*
X88913Y56686D01*
X88912Y56690D01*
X88913Y56694D01*
X88913Y59894D01*
X88909Y59913D01*
X88911Y59932D01*
X88900Y59966D01*
X88899Y59973D01*
X88894Y59983D01*
X88889Y59996D01*
X88874Y60062D01*
X88861Y60077D01*
X88855Y60095D01*
X88807Y60143D01*
X88764Y60196D01*
X88746Y60203D01*
X88732Y60217D01*
X88626Y60257D01*
X88606Y60266D01*
X88602Y60266D01*
X88598Y60268D01*
X85386Y60818D01*
X85375Y60857D01*
X85374Y60862D01*
X85373Y60863D01*
X85313Y60983D01*
X85313Y60994D01*
X85310Y61009D01*
X85312Y61025D01*
X85292Y61095D01*
X85292Y61110D01*
X85284Y61124D01*
X85275Y61157D01*
X85274Y61162D01*
X85273Y61163D01*
X85213Y61283D01*
X85213Y61294D01*
X85210Y61309D01*
X85212Y61325D01*
X85175Y61457D01*
X85174Y61462D01*
X85173Y61463D01*
X85013Y61783D01*
X85013Y61794D01*
X85010Y61809D01*
X85012Y61825D01*
X84975Y61957D01*
X84974Y61962D01*
X84973Y61963D01*
X84873Y62163D01*
X84850Y62191D01*
X84813Y62245D01*
X84813Y62294D01*
X84796Y62368D01*
X84782Y62443D01*
X84776Y62453D01*
X84774Y62462D01*
X84751Y62490D01*
X84702Y62562D01*
X84646Y62618D01*
X84573Y62763D01*
X84550Y62791D01*
X84513Y62845D01*
X84513Y62894D01*
X84496Y62968D01*
X84492Y62990D01*
X86346Y65678D01*
X86352Y65694D01*
X86364Y65707D01*
X86384Y65774D01*
X86409Y65839D01*
X86408Y65857D01*
X86413Y65873D01*
X86400Y65942D01*
X86394Y66012D01*
X86385Y66026D01*
X86382Y66043D01*
X86311Y66149D01*
X86304Y66160D01*
X86303Y66160D01*
X86302Y66162D01*
X84102Y68362D01*
X84088Y68371D01*
X84077Y68385D01*
X84015Y68416D01*
X83955Y68453D01*
X83938Y68455D01*
X83923Y68462D01*
X83853Y68463D01*
X83783Y68469D01*
X83767Y68463D01*
X83750Y68463D01*
X83632Y68412D01*
X83621Y68408D01*
X83620Y68407D01*
X83619Y68406D01*
X80920Y66544D01*
X80902Y66562D01*
X80837Y66602D01*
X80775Y66646D01*
X80763Y66648D01*
X80755Y66653D01*
X80720Y66656D01*
X80634Y66673D01*
X80584Y66673D01*
X80572Y66681D01*
X80504Y66733D01*
X80359Y66805D01*
X80302Y66862D01*
X80237Y66902D01*
X80175Y66946D01*
X80163Y66948D01*
X80155Y66953D01*
X80120Y66956D01*
X80034Y66973D01*
X79984Y66973D01*
X79972Y66981D01*
X79904Y67033D01*
X79704Y67133D01*
X79688Y67137D01*
X79675Y67146D01*
X79541Y67172D01*
X79535Y67173D01*
X79534Y67173D01*
X79524Y67173D01*
X79404Y67233D01*
X79388Y67237D01*
X79375Y67246D01*
X79241Y67272D01*
X79235Y67273D01*
X79234Y67273D01*
X79184Y67273D01*
X79137Y67302D01*
X79075Y67346D01*
X79063Y67348D01*
X79055Y67353D01*
X79020Y67356D01*
X78934Y67373D01*
X78824Y67373D01*
X78766Y67402D01*
X78208Y70658D01*
X78200Y70676D01*
X78199Y70695D01*
X78167Y70754D01*
X78140Y70817D01*
X78126Y70830D01*
X78116Y70847D01*
X78061Y70886D01*
X78009Y70930D01*
X77990Y70935D01*
X77975Y70946D01*
X77864Y70967D01*
X77842Y70973D01*
X77838Y70972D01*
X77834Y70973D01*
X74634Y70973D01*
X74615Y70969D01*
X74596Y70971D01*
X74532Y70949D01*
X74466Y70933D01*
X74451Y70921D01*
X74432Y70915D01*
X74385Y70867D01*
X74332Y70823D01*
X74324Y70806D01*
X74311Y70792D01*
X74271Y70686D01*
X74262Y70665D01*
X74262Y70662D01*
X74260Y70658D01*
X73710Y67446D01*
X73671Y67435D01*
X73666Y67433D01*
X73665Y67433D01*
X73664Y67433D01*
X73544Y67373D01*
X73534Y67373D01*
X73518Y67369D01*
X73502Y67372D01*
X73371Y67335D01*
X73366Y67333D01*
X73365Y67333D01*
X73364Y67333D01*
X73244Y67273D01*
X73234Y67273D01*
X73218Y67269D01*
X73202Y67272D01*
X73071Y67235D01*
X73066Y67233D01*
X73065Y67233D01*
X73064Y67233D01*
X72944Y67173D01*
X72834Y67173D01*
X72760Y67156D01*
X72684Y67142D01*
X72675Y67136D01*
X72666Y67133D01*
X72638Y67111D01*
X72566Y67062D01*
X72509Y67005D01*
X72444Y66973D01*
X72434Y66973D01*
X72418Y66969D01*
X72402Y66972D01*
X72271Y66935D01*
X72266Y66933D01*
X72265Y66933D01*
X72264Y66933D01*
X72064Y66833D01*
X72037Y66810D01*
X71966Y66762D01*
X71909Y66705D01*
X71844Y66673D01*
X71834Y66673D01*
X71818Y66669D01*
X71802Y66672D01*
X71671Y66635D01*
X71666Y66633D01*
X71665Y66633D01*
X71664Y66633D01*
X71523Y66562D01*
X68849Y68406D01*
X68837Y68411D01*
X68828Y68420D01*
X68757Y68442D01*
X68688Y68469D01*
X68675Y68468D01*
X68663Y68472D01*
X68590Y68460D01*
X68516Y68454D01*
X68505Y68447D01*
X68492Y68445D01*
X68372Y68368D01*
X66072Y66168D01*
X66058Y66146D01*
X66038Y66130D01*
X66011Y66074D01*
X65977Y66023D01*
X65974Y65997D01*
X65963Y65974D01*
X65964Y65912D01*
X65957Y65851D01*
X65966Y65827D01*
X65966Y65801D01*
X66004Y65721D01*
X66015Y65688D01*
X66022Y65682D01*
X66027Y65671D01*
X67962Y62998D01*
X67922Y62918D01*
X67866Y62862D01*
X67826Y62797D01*
X67782Y62734D01*
X67780Y62723D01*
X67775Y62715D01*
X67771Y62680D01*
X67755Y62594D01*
X67755Y62544D01*
X67747Y62531D01*
X67695Y62463D01*
X67622Y62318D01*
X67566Y62262D01*
X67526Y62197D01*
X67482Y62134D01*
X67480Y62123D01*
X67475Y62115D01*
X67471Y62080D01*
X67455Y61994D01*
X67455Y61944D01*
X67426Y61897D01*
X67382Y61834D01*
X67380Y61823D01*
X67375Y61815D01*
X67371Y61780D01*
X67355Y61694D01*
X67355Y61583D01*
X67322Y61518D01*
X67266Y61462D01*
X67226Y61397D01*
X67182Y61334D01*
X67180Y61323D01*
X67175Y61315D01*
X67171Y61280D01*
X67155Y61194D01*
X67155Y61144D01*
X67126Y61097D01*
X67082Y61034D01*
X67080Y61023D01*
X67075Y61015D01*
X67071Y60980D01*
X67055Y60894D01*
X67055Y60815D01*
X63772Y60268D01*
X63753Y60260D01*
X63733Y60259D01*
X63674Y60227D01*
X63612Y60201D01*
X63599Y60186D01*
X63581Y60176D01*
X63543Y60121D01*
X63499Y60071D01*
X63493Y60051D01*
X63482Y60034D01*
X63466Y59953D01*
X63462Y59943D01*
X63462Y59932D01*
X63461Y59928D01*
X63455Y59903D01*
X63456Y59899D01*
X63455Y59894D01*
X63455Y56694D01*
X63459Y56675D01*
X63457Y56656D01*
X63479Y56591D01*
X63494Y56525D01*
X63507Y56510D01*
X63513Y56492D01*
X63561Y56444D01*
X63604Y56392D01*
X63622Y56384D01*
X63636Y56370D01*
X63742Y56330D01*
X63762Y56321D01*
X63766Y56321D01*
X63770Y56320D01*
X67058Y55756D01*
X67093Y55631D01*
X67094Y55625D01*
X67095Y55625D01*
X67095Y55624D01*
X67155Y55504D01*
X67155Y55494D01*
X67158Y55478D01*
X67156Y55462D01*
X67193Y55331D01*
X67194Y55325D01*
X67195Y55325D01*
X67195Y55324D01*
X67255Y55204D01*
X67255Y55194D01*
X67258Y55178D01*
X67256Y55162D01*
X67293Y55031D01*
X67294Y55025D01*
X67295Y55025D01*
X67295Y55024D01*
X67455Y54704D01*
X67455Y54694D01*
X67458Y54678D01*
X67456Y54662D01*
X67493Y54531D01*
X67494Y54525D01*
X67495Y54525D01*
X67495Y54524D01*
X67595Y54324D01*
X67618Y54296D01*
X67666Y54226D01*
X67722Y54169D01*
X67755Y54104D01*
X67755Y54094D01*
X67758Y54078D01*
X67756Y54062D01*
X67793Y53931D01*
X67794Y53925D01*
X67795Y53925D01*
X67795Y53924D01*
X67895Y53724D01*
X67918Y53696D01*
X67966Y53626D01*
X67976Y53615D01*
X66031Y51021D01*
X66021Y50999D01*
X66004Y50980D01*
X65986Y50920D01*
X65961Y50863D01*
X65962Y50838D01*
X65955Y50814D01*
X65966Y50753D01*
X65969Y50690D01*
X65981Y50668D01*
X65986Y50644D01*
X66037Y50569D01*
X66053Y50539D01*
X66060Y50534D01*
X66066Y50526D01*
X68366Y48226D01*
X68380Y48217D01*
X68391Y48203D01*
X68453Y48171D01*
X68513Y48134D01*
X68530Y48133D01*
X68545Y48125D01*
X68616Y48125D01*
X68685Y48118D01*
X68701Y48124D01*
X68718Y48124D01*
X68836Y48176D01*
X68847Y48180D01*
X68848Y48181D01*
X68849Y48181D01*
X71548Y50043D01*
X71566Y50026D01*
X71631Y49985D01*
X71693Y49941D01*
X71705Y49939D01*
X71713Y49934D01*
X71748Y49931D01*
X71763Y49928D01*
X71766Y49926D01*
X71831Y49885D01*
X71893Y49841D01*
X71905Y49839D01*
X71913Y49834D01*
X71948Y49831D01*
X72034Y49814D01*
X72084Y49814D01*
X72131Y49785D01*
X72193Y49741D01*
X72205Y49739D01*
X72213Y49734D01*
X72248Y49731D01*
X72263Y49728D01*
X72266Y49726D01*
X72331Y49685D01*
X72393Y49641D01*
X72405Y49639D01*
X72413Y49634D01*
X72448Y49631D01*
X72463Y49628D01*
X72466Y49626D01*
X72531Y49585D01*
X72593Y49541D01*
X72605Y49539D01*
X72613Y49534D01*
X72648Y49531D01*
X72677Y49525D01*
X72704Y49492D01*
X72723Y49484D01*
X72738Y49469D01*
X72801Y49449D01*
X72862Y49421D01*
X72883Y49422D01*
X72902Y49416D01*
X72968Y49426D01*
X73035Y49428D01*
X73053Y49438D01*
X73073Y49441D01*
X73128Y49479D01*
X73187Y49511D01*
X73199Y49528D01*
X73215Y49540D01*
X73272Y49632D01*
X73286Y49653D01*
X73287Y49658D01*
X73290Y49662D01*
X75290Y55062D01*
X75294Y55093D01*
X75306Y55121D01*
X75304Y55177D01*
X75311Y55234D01*
X75301Y55263D01*
X75300Y55294D01*
X75273Y55344D01*
X75254Y55397D01*
X75232Y55419D01*
X75217Y55446D01*
X75157Y55492D01*
X75130Y55518D01*
X75117Y55522D01*
X75104Y55533D01*
X74559Y55805D01*
X74402Y55962D01*
X74372Y55981D01*
X74304Y56033D01*
X74159Y56105D01*
X73846Y56418D01*
X73773Y56563D01*
X73750Y56591D01*
X73702Y56662D01*
X73546Y56818D01*
X73485Y56939D01*
X73394Y57214D01*
X73382Y57233D01*
X73373Y57263D01*
X73313Y57383D01*
X73313Y57494D01*
X73305Y57529D01*
X73294Y57614D01*
X73213Y57855D01*
X73213Y58632D01*
X73294Y58874D01*
X73297Y58910D01*
X73313Y58994D01*
X73313Y59179D01*
X73450Y59383D01*
X73463Y59418D01*
X73494Y59474D01*
X73578Y59726D01*
X73929Y60252D01*
X74276Y60599D01*
X74802Y60950D01*
X75054Y61034D01*
X75072Y61045D01*
X75086Y61048D01*
X75099Y61059D01*
X75144Y61078D01*
X75349Y61214D01*
X75534Y61214D01*
X75569Y61223D01*
X75654Y61234D01*
X75896Y61314D01*
X76487Y61314D01*
X76842Y61226D01*
X76878Y61225D01*
X76934Y61214D01*
X77119Y61214D01*
X77324Y61078D01*
X77359Y61065D01*
X77408Y61037D01*
X77410Y61036D01*
X77411Y61036D01*
X77414Y61034D01*
X77666Y60950D01*
X77893Y60799D01*
X78066Y60626D01*
X78092Y60609D01*
X78124Y60578D01*
X78393Y60399D01*
X78539Y60252D01*
X78890Y59726D01*
X79255Y58632D01*
X79255Y58155D01*
X79174Y57914D01*
X79171Y57878D01*
X79155Y57794D01*
X79155Y57583D01*
X78995Y57263D01*
X78989Y57241D01*
X78974Y57214D01*
X78883Y56939D01*
X78722Y56618D01*
X78566Y56462D01*
X78547Y56431D01*
X78495Y56363D01*
X78422Y56218D01*
X78309Y56105D01*
X78164Y56033D01*
X78137Y56010D01*
X78066Y55962D01*
X77909Y55805D01*
X77588Y55645D01*
X77314Y55553D01*
X77265Y55523D01*
X77212Y55501D01*
X77192Y55479D01*
X77167Y55463D01*
X77136Y55414D01*
X77099Y55371D01*
X77091Y55342D01*
X77075Y55316D01*
X77069Y55259D01*
X77055Y55203D01*
X77061Y55169D01*
X77058Y55144D01*
X77070Y55112D01*
X77078Y55062D01*
X79078Y49662D01*
X79104Y49624D01*
X79120Y49581D01*
X79151Y49553D01*
X79174Y49518D01*
X79214Y49495D01*
X79247Y49464D01*
X79287Y49452D01*
X79324Y49431D01*
X79369Y49428D01*
X79413Y49415D01*
X79454Y49422D01*
X79496Y49420D01*
X79539Y49437D01*
X79584Y49445D01*
X79625Y49473D01*
X79656Y49486D01*
X79673Y49506D01*
X79686Y49514D01*
X79734Y49514D01*
X79808Y49532D01*
X79884Y49545D01*
X79893Y49552D01*
X79902Y49554D01*
X79930Y49577D01*
X80002Y49626D01*
X80009Y49632D01*
X80084Y49645D01*
X80093Y49652D01*
X80102Y49654D01*
X80130Y49677D01*
X80202Y49726D01*
X80209Y49732D01*
X80284Y49745D01*
X80293Y49752D01*
X80302Y49754D01*
X80330Y49777D01*
X80402Y49826D01*
X80409Y49832D01*
X80484Y49845D01*
X80493Y49852D01*
X80502Y49854D01*
X80530Y49877D01*
X80602Y49926D01*
X80609Y49932D01*
X80684Y49945D01*
X80693Y49952D01*
X80702Y49954D01*
X80730Y49977D01*
X80802Y50026D01*
X80809Y50032D01*
X80884Y50045D01*
X80893Y50052D01*
X80902Y50054D01*
X80903Y50054D01*
X83619Y48181D01*
X83639Y48174D01*
X83655Y48160D01*
X83718Y48142D01*
X83780Y48118D01*
X83801Y48120D01*
X83822Y48115D01*
X83886Y48128D01*
G37*
G36*
X223060Y45371D02*
X223060Y45371D01*
X223111Y45373D01*
X223143Y45391D01*
X223179Y45399D01*
X223218Y45432D01*
X223263Y45456D01*
X223284Y45486D01*
X223312Y45509D01*
X223333Y45556D01*
X223363Y45598D01*
X223371Y45640D01*
X223383Y45668D01*
X223382Y45698D01*
X223390Y45740D01*
X223390Y69340D01*
X223389Y69345D01*
X223390Y69351D01*
X223290Y72751D01*
X223289Y72755D01*
X223290Y72759D01*
X223278Y72799D01*
X223277Y72838D01*
X223258Y72874D01*
X223246Y72919D01*
X223243Y72922D01*
X223242Y72925D01*
X223211Y72959D01*
X223194Y72991D01*
X223164Y73012D01*
X223132Y73049D01*
X223128Y73051D01*
X223125Y73053D01*
X223072Y73077D01*
X223052Y73090D01*
X223031Y73095D01*
X222993Y73111D01*
X222093Y73311D01*
X222073Y73311D01*
X222048Y73318D01*
X221070Y73416D01*
X219293Y73811D01*
X219274Y73811D01*
X219252Y73818D01*
X218372Y73916D01*
X217493Y74111D01*
X217489Y74111D01*
X217485Y74113D01*
X216485Y74313D01*
X216470Y74312D01*
X216452Y74318D01*
X215552Y74418D01*
X215481Y74409D01*
X215409Y74407D01*
X215396Y74399D01*
X215380Y74397D01*
X215320Y74358D01*
X215257Y74324D01*
X215248Y74311D01*
X215235Y74303D01*
X215199Y74241D01*
X215157Y74182D01*
X215154Y74165D01*
X215147Y74153D01*
X215144Y74114D01*
X215130Y74040D01*
X215130Y70338D01*
X215118Y70364D01*
X214318Y71464D01*
X214311Y71469D01*
X214311Y71470D01*
X214309Y71471D01*
X214298Y71481D01*
X214279Y71509D01*
X213279Y72509D01*
X213259Y72521D01*
X213238Y72544D01*
X212038Y73444D01*
X212020Y73452D01*
X212002Y73468D01*
X210802Y74168D01*
X210786Y74173D01*
X210769Y74185D01*
X209469Y74785D01*
X209436Y74792D01*
X209390Y74812D01*
X207990Y75112D01*
X207966Y75111D01*
X207935Y75119D01*
X206435Y75219D01*
X206424Y75218D01*
X206410Y75220D01*
X205810Y75220D01*
X205795Y75217D01*
X205780Y75219D01*
X205648Y75182D01*
X205641Y75181D01*
X205641Y75180D01*
X205640Y75180D01*
X205520Y75120D01*
X205410Y75120D01*
X205373Y75112D01*
X205290Y75101D01*
X205048Y75020D01*
X204910Y75020D01*
X204895Y75017D01*
X204880Y75019D01*
X204748Y74982D01*
X204741Y74981D01*
X204741Y74980D01*
X204740Y74980D01*
X204739Y74980D01*
X204540Y74880D01*
X204501Y74848D01*
X204457Y74824D01*
X204436Y74793D01*
X204407Y74769D01*
X204386Y74723D01*
X204357Y74682D01*
X204349Y74639D01*
X204336Y74611D01*
X204338Y74581D01*
X204330Y74540D01*
X204330Y67340D01*
X204335Y67316D01*
X204333Y67291D01*
X204355Y67232D01*
X204369Y67171D01*
X204385Y67152D01*
X204394Y67129D01*
X204440Y67086D01*
X204479Y67038D01*
X204502Y67027D01*
X204521Y67010D01*
X204580Y66992D01*
X204638Y66967D01*
X204663Y66968D01*
X204687Y66960D01*
X204774Y66972D01*
X204811Y66973D01*
X204819Y66978D01*
X204830Y66979D01*
X205072Y67060D01*
X205310Y67060D01*
X205346Y67068D01*
X205402Y67071D01*
X205757Y67160D01*
X206410Y67160D01*
X206446Y67168D01*
X206502Y67171D01*
X206857Y67260D01*
X207491Y67260D01*
X209434Y67065D01*
X210948Y66592D01*
X212262Y65747D01*
X213205Y64710D01*
X213961Y63481D01*
X214440Y61950D01*
X214732Y60296D01*
X214830Y58530D01*
X214830Y45740D01*
X214841Y45690D01*
X214843Y45639D01*
X214861Y45607D01*
X214869Y45571D01*
X214902Y45532D01*
X214926Y45487D01*
X214956Y45466D01*
X214979Y45438D01*
X215026Y45417D01*
X215068Y45387D01*
X215110Y45379D01*
X215138Y45367D01*
X215168Y45368D01*
X215210Y45360D01*
X223010Y45360D01*
X223060Y45371D01*
G37*
%LPC*%
G36*
X268908Y51412D02*
X268908Y51412D01*
X267602Y51972D01*
X266475Y52816D01*
X265638Y53839D01*
X265066Y55175D01*
X264583Y56625D01*
X264389Y58175D01*
X264291Y59840D01*
X264389Y61506D01*
X264583Y63157D01*
X265062Y64594D01*
X265735Y65939D01*
X266582Y67068D01*
X267692Y67901D01*
X268996Y68367D01*
X270709Y68557D01*
X272327Y68367D01*
X273723Y67901D01*
X274734Y67075D01*
X275585Y65939D01*
X276253Y64605D01*
X276360Y64203D01*
X276360Y64202D01*
X276461Y63822D01*
X276563Y63442D01*
X276638Y63158D01*
X276932Y61496D01*
X277029Y59840D01*
X276932Y58186D01*
X276639Y56624D01*
X276253Y55175D01*
X275589Y53848D01*
X274745Y52816D01*
X273622Y51974D01*
X272216Y51412D01*
X270609Y51223D01*
X268908Y51412D01*
G37*
%LPD*%
%LPC*%
G36*
X240348Y50620D02*
X240348Y50620D01*
X239393Y50811D01*
X238653Y50996D01*
X237999Y51370D01*
X237989Y51373D01*
X237980Y51380D01*
X237435Y51653D01*
X236994Y52094D01*
X236242Y53034D01*
X236063Y53481D01*
X236055Y53493D01*
X236050Y53510D01*
X235773Y54064D01*
X235490Y55478D01*
X235490Y58863D01*
X235699Y58724D01*
X235730Y58712D01*
X235818Y58671D01*
X236604Y58475D01*
X236890Y58379D01*
X236911Y58377D01*
X236935Y58367D01*
X237427Y58269D01*
X238218Y58071D01*
X238254Y58071D01*
X238310Y58060D01*
X238763Y58060D01*
X239118Y57971D01*
X239126Y57971D01*
X239135Y57967D01*
X239635Y57867D01*
X239667Y57868D01*
X239710Y57860D01*
X240072Y57860D01*
X241027Y57669D01*
X241418Y57571D01*
X241426Y57571D01*
X241435Y57567D01*
X241927Y57469D01*
X242718Y57271D01*
X243077Y57181D01*
X243440Y57000D01*
X243473Y56992D01*
X243518Y56971D01*
X243877Y56881D01*
X244219Y56711D01*
X244468Y56545D01*
X245015Y55998D01*
X245381Y55449D01*
X245551Y55107D01*
X245639Y54757D01*
X245730Y54302D01*
X245730Y53378D01*
X245639Y52923D01*
X245551Y52573D01*
X245381Y52231D01*
X245015Y51682D01*
X244768Y51436D01*
X244519Y51270D01*
X244164Y51092D01*
X243890Y51001D01*
X243870Y50989D01*
X243853Y50985D01*
X243851Y50983D01*
X243840Y50980D01*
X243477Y50799D01*
X243127Y50711D01*
X242672Y50620D01*
X240348Y50620D01*
G37*
%LPD*%
D10*
X298450Y97790D02*
X323850Y97790D01*
X298450Y118110D02*
X298317Y118108D01*
X298184Y118102D01*
X298052Y118093D01*
X297919Y118079D01*
X297787Y118062D01*
X297656Y118041D01*
X297525Y118016D01*
X297396Y117987D01*
X297267Y117954D01*
X297139Y117918D01*
X297012Y117878D01*
X296886Y117834D01*
X296762Y117787D01*
X296639Y117736D01*
X296518Y117682D01*
X296398Y117624D01*
X296280Y117562D01*
X296164Y117497D01*
X296050Y117429D01*
X295938Y117358D01*
X295828Y117283D01*
X295720Y117205D01*
X295614Y117124D01*
X295511Y117040D01*
X295411Y116953D01*
X295313Y116864D01*
X295217Y116771D01*
X295124Y116675D01*
X295035Y116577D01*
X294948Y116477D01*
X294864Y116374D01*
X294783Y116268D01*
X294705Y116160D01*
X294630Y116050D01*
X294559Y115938D01*
X294491Y115824D01*
X294426Y115708D01*
X294364Y115590D01*
X294306Y115470D01*
X294252Y115349D01*
X294201Y115226D01*
X294154Y115102D01*
X294110Y114976D01*
X294070Y114849D01*
X294034Y114721D01*
X294001Y114592D01*
X293972Y114463D01*
X293947Y114332D01*
X293926Y114201D01*
X293909Y114069D01*
X293895Y113936D01*
X293886Y113804D01*
X293880Y113671D01*
X293878Y113538D01*
X323850Y118110D02*
X323983Y118108D01*
X324116Y118102D01*
X324248Y118093D01*
X324381Y118079D01*
X324513Y118062D01*
X324644Y118041D01*
X324775Y118016D01*
X324904Y117987D01*
X325033Y117954D01*
X325161Y117918D01*
X325288Y117878D01*
X325414Y117834D01*
X325538Y117787D01*
X325661Y117736D01*
X325782Y117682D01*
X325902Y117624D01*
X326020Y117562D01*
X326136Y117497D01*
X326250Y117429D01*
X326362Y117358D01*
X326472Y117283D01*
X326580Y117205D01*
X326686Y117124D01*
X326789Y117040D01*
X326889Y116953D01*
X326987Y116864D01*
X327083Y116771D01*
X327176Y116675D01*
X327265Y116577D01*
X327352Y116477D01*
X327436Y116374D01*
X327517Y116268D01*
X327595Y116160D01*
X327670Y116050D01*
X327741Y115938D01*
X327809Y115824D01*
X327874Y115708D01*
X327936Y115590D01*
X327994Y115470D01*
X328048Y115349D01*
X328099Y115226D01*
X328146Y115102D01*
X328190Y114976D01*
X328230Y114849D01*
X328266Y114721D01*
X328299Y114592D01*
X328328Y114463D01*
X328353Y114332D01*
X328374Y114201D01*
X328391Y114069D01*
X328405Y113936D01*
X328414Y113804D01*
X328420Y113671D01*
X328422Y113538D01*
X328422Y102362D02*
X328420Y102229D01*
X328414Y102096D01*
X328405Y101964D01*
X328391Y101831D01*
X328374Y101699D01*
X328353Y101568D01*
X328328Y101437D01*
X328299Y101308D01*
X328266Y101179D01*
X328230Y101051D01*
X328190Y100924D01*
X328146Y100798D01*
X328099Y100674D01*
X328048Y100551D01*
X327994Y100430D01*
X327936Y100310D01*
X327874Y100192D01*
X327809Y100076D01*
X327741Y99962D01*
X327670Y99850D01*
X327595Y99740D01*
X327517Y99632D01*
X327436Y99526D01*
X327352Y99423D01*
X327265Y99323D01*
X327176Y99225D01*
X327083Y99129D01*
X326987Y99036D01*
X326889Y98947D01*
X326789Y98860D01*
X326686Y98776D01*
X326580Y98695D01*
X326472Y98617D01*
X326362Y98542D01*
X326250Y98471D01*
X326136Y98403D01*
X326020Y98338D01*
X325902Y98276D01*
X325782Y98218D01*
X325661Y98164D01*
X325538Y98113D01*
X325414Y98066D01*
X325288Y98022D01*
X325161Y97982D01*
X325033Y97946D01*
X324904Y97913D01*
X324775Y97884D01*
X324644Y97859D01*
X324513Y97838D01*
X324381Y97821D01*
X324248Y97807D01*
X324116Y97798D01*
X323983Y97792D01*
X323850Y97790D01*
X298450Y97790D02*
X298317Y97792D01*
X298184Y97798D01*
X298052Y97807D01*
X297919Y97821D01*
X297787Y97838D01*
X297656Y97859D01*
X297525Y97884D01*
X297396Y97913D01*
X297267Y97946D01*
X297139Y97982D01*
X297012Y98022D01*
X296886Y98066D01*
X296762Y98113D01*
X296639Y98164D01*
X296518Y98218D01*
X296398Y98276D01*
X296280Y98338D01*
X296164Y98403D01*
X296050Y98471D01*
X295938Y98542D01*
X295828Y98617D01*
X295720Y98695D01*
X295614Y98776D01*
X295511Y98860D01*
X295411Y98947D01*
X295313Y99036D01*
X295217Y99129D01*
X295124Y99225D01*
X295035Y99323D01*
X294948Y99423D01*
X294864Y99526D01*
X294783Y99632D01*
X294705Y99740D01*
X294630Y99850D01*
X294559Y99962D01*
X294491Y100076D01*
X294426Y100192D01*
X294364Y100310D01*
X294306Y100430D01*
X294252Y100551D01*
X294201Y100674D01*
X294154Y100798D01*
X294110Y100924D01*
X294070Y101051D01*
X294034Y101179D01*
X294001Y101308D01*
X293972Y101437D01*
X293947Y101568D01*
X293926Y101699D01*
X293909Y101831D01*
X293895Y101964D01*
X293886Y102096D01*
X293880Y102229D01*
X293878Y102362D01*
X293878Y113538D01*
X328422Y113538D02*
X328422Y102362D01*
X323850Y118110D02*
X298450Y118110D01*
D11*
X315903Y121087D02*
X315903Y124841D01*
X315904Y121087D02*
X315906Y121022D01*
X315912Y120958D01*
X315922Y120894D01*
X315935Y120830D01*
X315953Y120768D01*
X315974Y120707D01*
X315998Y120647D01*
X316027Y120589D01*
X316059Y120532D01*
X316094Y120478D01*
X316132Y120426D01*
X316174Y120376D01*
X316218Y120329D01*
X316265Y120285D01*
X316315Y120243D01*
X316367Y120205D01*
X316421Y120170D01*
X316478Y120138D01*
X316536Y120109D01*
X316596Y120085D01*
X316657Y120064D01*
X316719Y120046D01*
X316783Y120033D01*
X316847Y120023D01*
X316911Y120017D01*
X316976Y120015D01*
X317512Y120015D01*
X312626Y120015D02*
X312626Y124841D01*
X311286Y124841D01*
X311215Y124839D01*
X311143Y124833D01*
X311073Y124824D01*
X311003Y124811D01*
X310933Y124794D01*
X310865Y124773D01*
X310798Y124749D01*
X310732Y124721D01*
X310668Y124690D01*
X310605Y124655D01*
X310545Y124617D01*
X310486Y124576D01*
X310430Y124532D01*
X310376Y124485D01*
X310325Y124436D01*
X310277Y124383D01*
X310231Y124328D01*
X310189Y124271D01*
X310149Y124211D01*
X310113Y124150D01*
X310080Y124086D01*
X310051Y124021D01*
X310025Y123955D01*
X310002Y123887D01*
X309983Y123818D01*
X309968Y123748D01*
X309957Y123678D01*
X309949Y123607D01*
X309945Y123536D01*
X309945Y123464D01*
X309949Y123393D01*
X309957Y123322D01*
X309968Y123252D01*
X309983Y123182D01*
X310002Y123113D01*
X310025Y123045D01*
X310051Y122979D01*
X310080Y122914D01*
X310113Y122850D01*
X310149Y122789D01*
X310189Y122729D01*
X310231Y122672D01*
X310277Y122617D01*
X310325Y122564D01*
X310376Y122515D01*
X310430Y122468D01*
X310486Y122424D01*
X310545Y122383D01*
X310605Y122345D01*
X310668Y122310D01*
X310732Y122279D01*
X310798Y122251D01*
X310865Y122227D01*
X310933Y122206D01*
X311003Y122189D01*
X311073Y122176D01*
X311143Y122167D01*
X311215Y122161D01*
X311286Y122159D01*
X311286Y122160D02*
X312626Y122160D01*
X307469Y123769D02*
X306129Y124841D01*
X306129Y120015D01*
X307469Y120015D02*
X304788Y120015D01*
D10*
X342900Y97790D02*
X368300Y97790D01*
X342900Y118110D02*
X342800Y118108D01*
X342701Y118102D01*
X342601Y118092D01*
X342503Y118079D01*
X342404Y118061D01*
X342307Y118040D01*
X342211Y118015D01*
X342115Y117986D01*
X342021Y117953D01*
X341928Y117917D01*
X341837Y117877D01*
X341747Y117833D01*
X341659Y117786D01*
X341573Y117736D01*
X341489Y117682D01*
X341407Y117625D01*
X341328Y117565D01*
X341250Y117501D01*
X341176Y117435D01*
X341104Y117366D01*
X341035Y117294D01*
X340969Y117220D01*
X340905Y117142D01*
X340845Y117063D01*
X340788Y116981D01*
X340734Y116897D01*
X340684Y116811D01*
X340637Y116723D01*
X340593Y116633D01*
X340553Y116542D01*
X340517Y116449D01*
X340484Y116355D01*
X340455Y116259D01*
X340430Y116163D01*
X340409Y116066D01*
X340391Y115967D01*
X340378Y115869D01*
X340368Y115769D01*
X340362Y115670D01*
X340360Y115570D01*
X368300Y118110D02*
X368400Y118108D01*
X368499Y118102D01*
X368599Y118092D01*
X368697Y118079D01*
X368796Y118061D01*
X368893Y118040D01*
X368989Y118015D01*
X369085Y117986D01*
X369179Y117953D01*
X369272Y117917D01*
X369363Y117877D01*
X369453Y117833D01*
X369541Y117786D01*
X369627Y117736D01*
X369711Y117682D01*
X369793Y117625D01*
X369872Y117565D01*
X369950Y117501D01*
X370024Y117435D01*
X370096Y117366D01*
X370165Y117294D01*
X370231Y117220D01*
X370295Y117142D01*
X370355Y117063D01*
X370412Y116981D01*
X370466Y116897D01*
X370516Y116811D01*
X370563Y116723D01*
X370607Y116633D01*
X370647Y116542D01*
X370683Y116449D01*
X370716Y116355D01*
X370745Y116259D01*
X370770Y116163D01*
X370791Y116066D01*
X370809Y115967D01*
X370822Y115869D01*
X370832Y115769D01*
X370838Y115670D01*
X370840Y115570D01*
X370840Y100330D02*
X370838Y100230D01*
X370832Y100131D01*
X370822Y100031D01*
X370809Y99933D01*
X370791Y99834D01*
X370770Y99737D01*
X370745Y99641D01*
X370716Y99545D01*
X370683Y99451D01*
X370647Y99358D01*
X370607Y99267D01*
X370563Y99177D01*
X370516Y99089D01*
X370466Y99003D01*
X370412Y98919D01*
X370355Y98837D01*
X370295Y98758D01*
X370231Y98680D01*
X370165Y98606D01*
X370096Y98534D01*
X370024Y98465D01*
X369950Y98399D01*
X369872Y98335D01*
X369793Y98275D01*
X369711Y98218D01*
X369627Y98164D01*
X369541Y98114D01*
X369453Y98067D01*
X369363Y98023D01*
X369272Y97983D01*
X369179Y97947D01*
X369085Y97914D01*
X368989Y97885D01*
X368893Y97860D01*
X368796Y97839D01*
X368697Y97821D01*
X368599Y97808D01*
X368499Y97798D01*
X368400Y97792D01*
X368300Y97790D01*
X342900Y97790D02*
X342800Y97792D01*
X342701Y97798D01*
X342601Y97808D01*
X342503Y97821D01*
X342404Y97839D01*
X342307Y97860D01*
X342211Y97885D01*
X342115Y97914D01*
X342021Y97947D01*
X341928Y97983D01*
X341837Y98023D01*
X341747Y98067D01*
X341659Y98114D01*
X341573Y98164D01*
X341489Y98218D01*
X341407Y98275D01*
X341328Y98335D01*
X341250Y98399D01*
X341176Y98465D01*
X341104Y98534D01*
X341035Y98606D01*
X340969Y98680D01*
X340905Y98758D01*
X340845Y98837D01*
X340788Y98919D01*
X340734Y99003D01*
X340684Y99089D01*
X340637Y99177D01*
X340593Y99267D01*
X340553Y99358D01*
X340517Y99451D01*
X340484Y99545D01*
X340455Y99641D01*
X340430Y99737D01*
X340409Y99834D01*
X340391Y99933D01*
X340378Y100031D01*
X340368Y100131D01*
X340362Y100230D01*
X340360Y100330D01*
X340360Y115570D01*
X370840Y115570D02*
X370840Y100330D01*
X368300Y118110D02*
X342900Y118110D01*
D11*
X360353Y121087D02*
X360353Y124841D01*
X360354Y121087D02*
X360356Y121022D01*
X360362Y120958D01*
X360372Y120894D01*
X360385Y120830D01*
X360403Y120768D01*
X360424Y120707D01*
X360448Y120647D01*
X360477Y120589D01*
X360509Y120532D01*
X360544Y120478D01*
X360582Y120426D01*
X360624Y120376D01*
X360668Y120329D01*
X360715Y120285D01*
X360765Y120243D01*
X360817Y120205D01*
X360871Y120170D01*
X360928Y120138D01*
X360986Y120109D01*
X361046Y120085D01*
X361107Y120064D01*
X361169Y120046D01*
X361233Y120033D01*
X361297Y120023D01*
X361361Y120017D01*
X361426Y120015D01*
X361962Y120015D01*
X357076Y120015D02*
X357076Y124841D01*
X355736Y124841D01*
X355665Y124839D01*
X355593Y124833D01*
X355523Y124824D01*
X355453Y124811D01*
X355383Y124794D01*
X355315Y124773D01*
X355248Y124749D01*
X355182Y124721D01*
X355118Y124690D01*
X355055Y124655D01*
X354995Y124617D01*
X354936Y124576D01*
X354880Y124532D01*
X354826Y124485D01*
X354775Y124436D01*
X354727Y124383D01*
X354681Y124328D01*
X354639Y124271D01*
X354599Y124211D01*
X354563Y124150D01*
X354530Y124086D01*
X354501Y124021D01*
X354475Y123955D01*
X354452Y123887D01*
X354433Y123818D01*
X354418Y123748D01*
X354407Y123678D01*
X354399Y123607D01*
X354395Y123536D01*
X354395Y123464D01*
X354399Y123393D01*
X354407Y123322D01*
X354418Y123252D01*
X354433Y123182D01*
X354452Y123113D01*
X354475Y123045D01*
X354501Y122979D01*
X354530Y122914D01*
X354563Y122850D01*
X354599Y122789D01*
X354639Y122729D01*
X354681Y122672D01*
X354727Y122617D01*
X354775Y122564D01*
X354826Y122515D01*
X354880Y122468D01*
X354936Y122424D01*
X354995Y122383D01*
X355055Y122345D01*
X355118Y122310D01*
X355182Y122279D01*
X355248Y122251D01*
X355315Y122227D01*
X355383Y122206D01*
X355453Y122189D01*
X355523Y122176D01*
X355593Y122167D01*
X355665Y122161D01*
X355736Y122159D01*
X355736Y122160D02*
X357076Y122160D01*
X350445Y124841D02*
X350377Y124839D01*
X350310Y124833D01*
X350243Y124824D01*
X350176Y124811D01*
X350111Y124794D01*
X350046Y124773D01*
X349983Y124749D01*
X349921Y124721D01*
X349861Y124690D01*
X349803Y124656D01*
X349747Y124618D01*
X349692Y124578D01*
X349641Y124534D01*
X349592Y124487D01*
X349545Y124438D01*
X349501Y124387D01*
X349461Y124332D01*
X349423Y124276D01*
X349389Y124218D01*
X349358Y124158D01*
X349330Y124096D01*
X349306Y124033D01*
X349285Y123968D01*
X349268Y123903D01*
X349255Y123836D01*
X349246Y123769D01*
X349240Y123702D01*
X349238Y123634D01*
X350445Y124841D02*
X350523Y124839D01*
X350601Y124833D01*
X350678Y124823D01*
X350755Y124810D01*
X350831Y124792D01*
X350906Y124771D01*
X350980Y124746D01*
X351052Y124717D01*
X351123Y124685D01*
X351192Y124649D01*
X351260Y124610D01*
X351325Y124567D01*
X351388Y124521D01*
X351449Y124472D01*
X351507Y124420D01*
X351562Y124365D01*
X351615Y124308D01*
X351664Y124248D01*
X351711Y124185D01*
X351754Y124120D01*
X351794Y124054D01*
X351831Y123985D01*
X351864Y123914D01*
X351894Y123842D01*
X351920Y123768D01*
X349640Y122696D02*
X349591Y122745D01*
X349544Y122797D01*
X349501Y122852D01*
X349460Y122909D01*
X349422Y122968D01*
X349388Y123029D01*
X349357Y123092D01*
X349329Y123156D01*
X349305Y123222D01*
X349285Y123288D01*
X349268Y123356D01*
X349255Y123425D01*
X349246Y123494D01*
X349240Y123564D01*
X349238Y123634D01*
X349640Y122696D02*
X351919Y120015D01*
X349238Y120015D01*
D12*
X50800Y72390D02*
X25400Y72390D01*
X20828Y88138D02*
X20830Y88271D01*
X20836Y88404D01*
X20845Y88536D01*
X20859Y88669D01*
X20876Y88801D01*
X20897Y88932D01*
X20922Y89063D01*
X20951Y89192D01*
X20984Y89321D01*
X21020Y89449D01*
X21060Y89576D01*
X21104Y89702D01*
X21151Y89826D01*
X21202Y89949D01*
X21256Y90070D01*
X21314Y90190D01*
X21376Y90308D01*
X21441Y90424D01*
X21509Y90538D01*
X21580Y90650D01*
X21655Y90760D01*
X21733Y90868D01*
X21814Y90974D01*
X21898Y91077D01*
X21985Y91177D01*
X22074Y91275D01*
X22167Y91371D01*
X22263Y91464D01*
X22361Y91553D01*
X22461Y91640D01*
X22564Y91724D01*
X22670Y91805D01*
X22778Y91883D01*
X22888Y91958D01*
X23000Y92029D01*
X23114Y92097D01*
X23230Y92162D01*
X23348Y92224D01*
X23468Y92282D01*
X23589Y92336D01*
X23712Y92387D01*
X23836Y92434D01*
X23962Y92478D01*
X24089Y92518D01*
X24217Y92554D01*
X24346Y92587D01*
X24475Y92616D01*
X24606Y92641D01*
X24737Y92662D01*
X24869Y92679D01*
X25002Y92693D01*
X25134Y92702D01*
X25267Y92708D01*
X25400Y92710D01*
X50800Y92710D02*
X50933Y92708D01*
X51066Y92702D01*
X51198Y92693D01*
X51331Y92679D01*
X51463Y92662D01*
X51594Y92641D01*
X51725Y92616D01*
X51854Y92587D01*
X51983Y92554D01*
X52111Y92518D01*
X52238Y92478D01*
X52364Y92434D01*
X52488Y92387D01*
X52611Y92336D01*
X52732Y92282D01*
X52852Y92224D01*
X52970Y92162D01*
X53086Y92097D01*
X53200Y92029D01*
X53312Y91958D01*
X53422Y91883D01*
X53530Y91805D01*
X53636Y91724D01*
X53739Y91640D01*
X53839Y91553D01*
X53937Y91464D01*
X54033Y91371D01*
X54126Y91275D01*
X54215Y91177D01*
X54302Y91077D01*
X54386Y90974D01*
X54467Y90868D01*
X54545Y90760D01*
X54620Y90650D01*
X54691Y90538D01*
X54759Y90424D01*
X54824Y90308D01*
X54886Y90190D01*
X54944Y90070D01*
X54998Y89949D01*
X55049Y89826D01*
X55096Y89702D01*
X55140Y89576D01*
X55180Y89449D01*
X55216Y89321D01*
X55249Y89192D01*
X55278Y89063D01*
X55303Y88932D01*
X55324Y88801D01*
X55341Y88669D01*
X55355Y88536D01*
X55364Y88404D01*
X55370Y88271D01*
X55372Y88138D01*
X55372Y76962D02*
X55370Y76829D01*
X55364Y76696D01*
X55355Y76564D01*
X55341Y76431D01*
X55324Y76299D01*
X55303Y76168D01*
X55278Y76037D01*
X55249Y75908D01*
X55216Y75779D01*
X55180Y75651D01*
X55140Y75524D01*
X55096Y75398D01*
X55049Y75274D01*
X54998Y75151D01*
X54944Y75030D01*
X54886Y74910D01*
X54824Y74792D01*
X54759Y74676D01*
X54691Y74562D01*
X54620Y74450D01*
X54545Y74340D01*
X54467Y74232D01*
X54386Y74126D01*
X54302Y74023D01*
X54215Y73923D01*
X54126Y73825D01*
X54033Y73729D01*
X53937Y73636D01*
X53839Y73547D01*
X53739Y73460D01*
X53636Y73376D01*
X53530Y73295D01*
X53422Y73217D01*
X53312Y73142D01*
X53200Y73071D01*
X53086Y73003D01*
X52970Y72938D01*
X52852Y72876D01*
X52732Y72818D01*
X52611Y72764D01*
X52488Y72713D01*
X52364Y72666D01*
X52238Y72622D01*
X52111Y72582D01*
X51983Y72546D01*
X51854Y72513D01*
X51725Y72484D01*
X51594Y72459D01*
X51463Y72438D01*
X51331Y72421D01*
X51198Y72407D01*
X51066Y72398D01*
X50933Y72392D01*
X50800Y72390D01*
X25400Y72390D02*
X25267Y72392D01*
X25134Y72398D01*
X25002Y72407D01*
X24869Y72421D01*
X24737Y72438D01*
X24606Y72459D01*
X24475Y72484D01*
X24346Y72513D01*
X24217Y72546D01*
X24089Y72582D01*
X23962Y72622D01*
X23836Y72666D01*
X23712Y72713D01*
X23589Y72764D01*
X23468Y72818D01*
X23348Y72876D01*
X23230Y72938D01*
X23114Y73003D01*
X23000Y73071D01*
X22888Y73142D01*
X22778Y73217D01*
X22670Y73295D01*
X22564Y73376D01*
X22461Y73460D01*
X22361Y73547D01*
X22263Y73636D01*
X22167Y73729D01*
X22074Y73825D01*
X21985Y73923D01*
X21898Y74023D01*
X21814Y74126D01*
X21733Y74232D01*
X21655Y74340D01*
X21580Y74450D01*
X21509Y74562D01*
X21441Y74676D01*
X21376Y74792D01*
X21314Y74910D01*
X21256Y75030D01*
X21202Y75151D01*
X21151Y75274D01*
X21104Y75398D01*
X21060Y75524D01*
X21020Y75651D01*
X20984Y75779D01*
X20951Y75908D01*
X20922Y76037D01*
X20897Y76168D01*
X20876Y76299D01*
X20859Y76431D01*
X20845Y76564D01*
X20836Y76696D01*
X20830Y76829D01*
X20828Y76962D01*
X20828Y88138D01*
X55372Y88138D02*
X55372Y76962D01*
X50800Y92710D02*
X25400Y92710D01*
D11*
X42853Y95687D02*
X42853Y99441D01*
X42854Y95687D02*
X42856Y95622D01*
X42862Y95558D01*
X42872Y95494D01*
X42885Y95430D01*
X42903Y95368D01*
X42924Y95307D01*
X42948Y95247D01*
X42977Y95189D01*
X43009Y95132D01*
X43044Y95078D01*
X43082Y95026D01*
X43124Y94976D01*
X43168Y94929D01*
X43215Y94885D01*
X43265Y94843D01*
X43317Y94805D01*
X43371Y94770D01*
X43428Y94738D01*
X43486Y94709D01*
X43546Y94685D01*
X43607Y94664D01*
X43669Y94646D01*
X43733Y94633D01*
X43797Y94623D01*
X43861Y94617D01*
X43926Y94615D01*
X44462Y94615D01*
X39576Y94615D02*
X39576Y99441D01*
X38236Y99441D01*
X38165Y99439D01*
X38093Y99433D01*
X38023Y99424D01*
X37953Y99411D01*
X37883Y99394D01*
X37815Y99373D01*
X37748Y99349D01*
X37682Y99321D01*
X37618Y99290D01*
X37555Y99255D01*
X37495Y99217D01*
X37436Y99176D01*
X37380Y99132D01*
X37326Y99085D01*
X37275Y99036D01*
X37227Y98983D01*
X37181Y98928D01*
X37139Y98871D01*
X37099Y98811D01*
X37063Y98750D01*
X37030Y98686D01*
X37001Y98621D01*
X36975Y98555D01*
X36952Y98487D01*
X36933Y98418D01*
X36918Y98348D01*
X36907Y98278D01*
X36899Y98207D01*
X36895Y98136D01*
X36895Y98064D01*
X36899Y97993D01*
X36907Y97922D01*
X36918Y97852D01*
X36933Y97782D01*
X36952Y97713D01*
X36975Y97645D01*
X37001Y97579D01*
X37030Y97514D01*
X37063Y97450D01*
X37099Y97389D01*
X37139Y97329D01*
X37181Y97272D01*
X37227Y97217D01*
X37275Y97164D01*
X37326Y97115D01*
X37380Y97068D01*
X37436Y97024D01*
X37495Y96983D01*
X37555Y96945D01*
X37618Y96910D01*
X37682Y96879D01*
X37748Y96851D01*
X37815Y96827D01*
X37883Y96806D01*
X37953Y96789D01*
X38023Y96776D01*
X38093Y96767D01*
X38165Y96761D01*
X38236Y96759D01*
X38236Y96760D02*
X39576Y96760D01*
X34419Y94615D02*
X33079Y94615D01*
X33008Y94617D01*
X32936Y94623D01*
X32866Y94632D01*
X32796Y94645D01*
X32726Y94662D01*
X32658Y94683D01*
X32591Y94707D01*
X32525Y94735D01*
X32461Y94766D01*
X32398Y94801D01*
X32338Y94839D01*
X32279Y94880D01*
X32223Y94924D01*
X32169Y94971D01*
X32118Y95020D01*
X32070Y95073D01*
X32024Y95128D01*
X31982Y95185D01*
X31942Y95245D01*
X31906Y95306D01*
X31873Y95370D01*
X31844Y95435D01*
X31818Y95501D01*
X31795Y95569D01*
X31776Y95638D01*
X31761Y95708D01*
X31750Y95778D01*
X31742Y95849D01*
X31738Y95920D01*
X31738Y95992D01*
X31742Y96063D01*
X31750Y96134D01*
X31761Y96204D01*
X31776Y96274D01*
X31795Y96343D01*
X31818Y96411D01*
X31844Y96477D01*
X31873Y96542D01*
X31906Y96606D01*
X31942Y96667D01*
X31982Y96727D01*
X32024Y96784D01*
X32070Y96839D01*
X32118Y96892D01*
X32169Y96941D01*
X32223Y96988D01*
X32279Y97032D01*
X32338Y97073D01*
X32398Y97111D01*
X32461Y97146D01*
X32525Y97177D01*
X32591Y97205D01*
X32658Y97229D01*
X32726Y97250D01*
X32796Y97267D01*
X32866Y97280D01*
X32936Y97289D01*
X33008Y97295D01*
X33079Y97297D01*
X32810Y99441D02*
X34419Y99441D01*
X32810Y99441D02*
X32745Y99439D01*
X32681Y99433D01*
X32617Y99423D01*
X32553Y99410D01*
X32491Y99392D01*
X32430Y99371D01*
X32370Y99347D01*
X32312Y99318D01*
X32255Y99286D01*
X32201Y99251D01*
X32149Y99213D01*
X32099Y99171D01*
X32052Y99127D01*
X32008Y99080D01*
X31966Y99030D01*
X31928Y98978D01*
X31893Y98924D01*
X31861Y98867D01*
X31832Y98809D01*
X31808Y98749D01*
X31787Y98688D01*
X31769Y98626D01*
X31756Y98562D01*
X31746Y98498D01*
X31740Y98434D01*
X31738Y98369D01*
X31740Y98304D01*
X31746Y98240D01*
X31756Y98176D01*
X31769Y98112D01*
X31787Y98050D01*
X31808Y97989D01*
X31832Y97929D01*
X31861Y97871D01*
X31893Y97814D01*
X31928Y97760D01*
X31966Y97708D01*
X32008Y97658D01*
X32052Y97611D01*
X32099Y97567D01*
X32149Y97525D01*
X32201Y97487D01*
X32255Y97452D01*
X32312Y97420D01*
X32370Y97391D01*
X32430Y97367D01*
X32491Y97346D01*
X32553Y97328D01*
X32617Y97315D01*
X32681Y97305D01*
X32745Y97299D01*
X32810Y97297D01*
X32810Y97296D02*
X33883Y97296D01*
M02*
