G04 EAGLE Gerber RS-274X export*
G75*
%MOMM*%
%FSLAX34Y34*%
%LPD*%
%INSoldermask Top*%
%IPPOS*%
%AMOC8*
5,1,8,0,0,1.08239X$1,22.5*%
G01*
%ADD10R,1.003200X1.403200*%
%ADD11R,1.303200X1.203200*%
%ADD12C,0.152400*%
%ADD13C,3.251200*%
%ADD14R,2.203200X1.403200*%
%ADD15R,1.553200X0.803200*%
%ADD16C,2.082800*%
%ADD17R,1.503200X1.503200*%
%ADD18R,1.103200X1.003200*%
%ADD19R,0.803200X0.803200*%
%ADD20R,1.203200X1.303200*%
%ADD21R,1.253200X1.678200*%
%ADD22C,0.803200*%
%ADD23R,0.400000X1.100000*%
%ADD24R,0.500000X1.053200*%
%ADD25R,2.603200X1.853200*%
%ADD26R,0.903200X0.483200*%
%ADD27C,0.505344*%


D10*
X301100Y191770D03*
X283100Y191770D03*
D11*
X338700Y212090D03*
X321700Y212090D03*
X256150Y107950D03*
X239150Y107950D03*
X237100Y215900D03*
X220100Y215900D03*
D12*
X367700Y12700D02*
X367702Y12749D01*
X367708Y12797D01*
X367718Y12845D01*
X367732Y12892D01*
X367749Y12938D01*
X367770Y12982D01*
X367795Y13024D01*
X367823Y13064D01*
X367855Y13102D01*
X367889Y13137D01*
X367926Y13169D01*
X367965Y13198D01*
X368007Y13224D01*
X368051Y13246D01*
X368096Y13264D01*
X368143Y13279D01*
X368190Y13290D01*
X368239Y13297D01*
X368288Y13300D01*
X368337Y13299D01*
X368385Y13294D01*
X368434Y13285D01*
X368481Y13272D01*
X368527Y13255D01*
X368571Y13235D01*
X368614Y13211D01*
X368655Y13184D01*
X368693Y13153D01*
X368729Y13120D01*
X368761Y13084D01*
X368791Y13045D01*
X368818Y13004D01*
X368841Y12960D01*
X368860Y12915D01*
X368876Y12869D01*
X368888Y12822D01*
X368896Y12773D01*
X368900Y12724D01*
X368900Y12676D01*
X368896Y12627D01*
X368888Y12578D01*
X368876Y12531D01*
X368860Y12485D01*
X368841Y12440D01*
X368818Y12396D01*
X368791Y12355D01*
X368761Y12316D01*
X368729Y12280D01*
X368693Y12247D01*
X368655Y12216D01*
X368614Y12189D01*
X368571Y12165D01*
X368527Y12145D01*
X368481Y12128D01*
X368434Y12115D01*
X368385Y12106D01*
X368337Y12101D01*
X368288Y12100D01*
X368239Y12103D01*
X368190Y12110D01*
X368143Y12121D01*
X368096Y12136D01*
X368051Y12154D01*
X368007Y12176D01*
X367965Y12202D01*
X367926Y12231D01*
X367889Y12263D01*
X367855Y12298D01*
X367823Y12336D01*
X367795Y12376D01*
X367770Y12418D01*
X367749Y12462D01*
X367732Y12508D01*
X367718Y12555D01*
X367708Y12603D01*
X367702Y12651D01*
X367700Y12700D01*
X12100Y241300D02*
X12102Y241349D01*
X12108Y241397D01*
X12118Y241445D01*
X12132Y241492D01*
X12149Y241538D01*
X12170Y241582D01*
X12195Y241624D01*
X12223Y241664D01*
X12255Y241702D01*
X12289Y241737D01*
X12326Y241769D01*
X12365Y241798D01*
X12407Y241824D01*
X12451Y241846D01*
X12496Y241864D01*
X12543Y241879D01*
X12590Y241890D01*
X12639Y241897D01*
X12688Y241900D01*
X12737Y241899D01*
X12785Y241894D01*
X12834Y241885D01*
X12881Y241872D01*
X12927Y241855D01*
X12971Y241835D01*
X13014Y241811D01*
X13055Y241784D01*
X13093Y241753D01*
X13129Y241720D01*
X13161Y241684D01*
X13191Y241645D01*
X13218Y241604D01*
X13241Y241560D01*
X13260Y241515D01*
X13276Y241469D01*
X13288Y241422D01*
X13296Y241373D01*
X13300Y241324D01*
X13300Y241276D01*
X13296Y241227D01*
X13288Y241178D01*
X13276Y241131D01*
X13260Y241085D01*
X13241Y241040D01*
X13218Y240996D01*
X13191Y240955D01*
X13161Y240916D01*
X13129Y240880D01*
X13093Y240847D01*
X13055Y240816D01*
X13014Y240789D01*
X12971Y240765D01*
X12927Y240745D01*
X12881Y240728D01*
X12834Y240715D01*
X12785Y240706D01*
X12737Y240701D01*
X12688Y240700D01*
X12639Y240703D01*
X12590Y240710D01*
X12543Y240721D01*
X12496Y240736D01*
X12451Y240754D01*
X12407Y240776D01*
X12365Y240802D01*
X12326Y240831D01*
X12289Y240863D01*
X12255Y240898D01*
X12223Y240936D01*
X12195Y240976D01*
X12170Y241018D01*
X12149Y241062D01*
X12132Y241108D01*
X12118Y241155D01*
X12108Y241203D01*
X12102Y241251D01*
X12100Y241300D01*
D13*
X342900Y38100D03*
X38100Y38100D03*
D14*
X366950Y137100D03*
X366950Y193100D03*
D15*
X330200Y150100D03*
X330200Y160100D03*
X330200Y170100D03*
X330200Y180100D03*
D14*
X14050Y193100D03*
X14050Y137100D03*
D15*
X50800Y180100D03*
X50800Y170100D03*
X50800Y160100D03*
X50800Y150100D03*
D16*
X152400Y25400D03*
X177800Y25400D03*
X203200Y25400D03*
X228600Y25400D03*
X254000Y25400D03*
D17*
X201930Y111520D03*
X201930Y81520D03*
D18*
X91600Y92050D03*
X91600Y73050D03*
X112600Y82550D03*
X142400Y92050D03*
X142400Y73050D03*
X163400Y82550D03*
D11*
X256930Y215900D03*
X273930Y215900D03*
D19*
X109300Y107950D03*
X119300Y107950D03*
X127000Y77550D03*
X127000Y87550D03*
X163750Y107950D03*
X153750Y107950D03*
D11*
X235340Y168910D03*
X252340Y168910D03*
X321700Y233680D03*
X338700Y233680D03*
D20*
X252730Y152010D03*
X252730Y135010D03*
D11*
X199000Y215900D03*
X182000Y215900D03*
X254880Y82550D03*
X237880Y82550D03*
D20*
X25400Y116450D03*
X25400Y99450D03*
X50800Y99450D03*
X50800Y116450D03*
D19*
X76200Y77550D03*
X76200Y87550D03*
D21*
X179250Y181225D03*
X201750Y181225D03*
X179250Y148975D03*
X201750Y148975D03*
D22*
X162500Y136100D03*
X218500Y194100D03*
D23*
X111600Y179250D03*
X106600Y179250D03*
X101600Y179250D03*
X96600Y179250D03*
X91600Y179250D03*
X91600Y138250D03*
X96600Y138250D03*
X101600Y138250D03*
X106600Y138250D03*
X111600Y138250D03*
D24*
X280830Y130030D03*
X285830Y130030D03*
X290830Y130030D03*
X295830Y130030D03*
X300830Y130030D03*
X300830Y159530D03*
X295830Y159530D03*
X290830Y159530D03*
X285830Y159530D03*
X280830Y159530D03*
D25*
X290830Y144780D03*
D26*
X275830Y147280D03*
X275830Y142280D03*
X305830Y147280D03*
X305830Y142280D03*
D11*
X105020Y48260D03*
X88020Y48260D03*
D27*
X91240Y31430D02*
X91240Y24450D01*
X84260Y24450D01*
X84260Y31430D01*
X91240Y31430D01*
X91240Y29250D02*
X84260Y29250D01*
X108780Y31430D02*
X108780Y24450D01*
X101800Y24450D01*
X101800Y31430D01*
X108780Y31430D01*
X108780Y29250D02*
X101800Y29250D01*
D16*
X208280Y240030D03*
X179070Y240030D03*
M02*
