M48
;GenerationSoftware,Autodesk,EAGLE,9.5.2*%
;CreationDate,2020-02-21T00:12:40Z*%
FMAT,2
ICI,OFF
METRIC,TZ,000.000
T5C0.254
T4C0.350
T3C0.600
T2C1.016
T1C3.048
%
G90
M71
T1
X3810Y3810
X34290Y3810
T2
X17907Y24003
X20320Y2540
X17780Y2540
X15240Y2540
X22860Y2540
X25400Y2540
X20828Y24003
T3
X21850Y19410
X16250Y13610
T4
X28260Y10602
X26924Y11684
X14351Y16891
X23710Y21590
X34290Y15875
X2540Y16510
X6096Y6477
X7620Y8755
X14240Y9205
X28829Y7239
X30099Y10137
X14240Y7305
X34798Y17018
X7874Y13208
X23749Y14605
X32004Y8890
X5715Y8255
X1905Y8255
X32170Y21209
X10287Y12573
X12065Y12446
T5
X24130Y5461
X36957Y7620
X33528Y9652
X26543Y16764
X23749Y8255
X20193Y8128
X21844Y13970
X29845Y17145
M30